[
  {
    "id": "electronic-pattern",
    "name": "Electronic",
    "tempo": 120,
    "timeSignature": [
      4,
      4
    ],
    "length": 64,
    "loop": true,
    "notes": [
      {
        "note": 36,
        "velocity": 127,
        "startTime": 0,
        "duration": 0.5,
        "channel": 9
      },
      {
        "note": 36,
        "velocity": 100,
        "startTime": 2,
        "duration": 0.5,
        "channel": 9
      },
      {
        "note": 36,
        "velocity": 127,
        "startTime": 4,
        "duration": 0.5,
        "channel": 9
      },
      {
        "note": 36,
        "velocity": 100,
        "startTime": 6,
        "duration": 0.5,
        "channel": 9
      },
      {
        "note": 36,
        "velocity": 127,
        "startTime": 8,
        "duration": 0.5,
        "channel": 9
      },
      {
        "note": 36,
        "velocity": 100,
        "startTime": 10,
        "duration": 0.5,
        "channel": 9
      },
      {
        "note": 36,
        "velocity": 127,
        "startTime": 12,
        "duration": 0.5,
        "channel": 9
      },
      {
        "note": 36,
        "velocity": 100,
        "startTime": 14,
        "duration": 0.5,
        "channel": 9
      },
      {
        "note": 36,
        "velocity": 127,
        "startTime": 16,
        "duration": 0.5,
        "channel": 9
      },
      {
        "note": 36,
        "velocity": 100,
        "startTime": 18,
        "duration": 0.5,
        "channel": 9
      },
      {
        "note": 36,
        "velocity": 127,
        "startTime": 20,
        "duration": 0.5,
        "channel": 9
      },
      {
        "note": 36,
        "velocity": 100,
        "startTime": 22,
        "duration": 0.5,
        "channel": 9
      },
      {
        "note": 36,
        "velocity": 127,
        "startTime": 24,
        "duration": 0.5,
        "channel": 9
      },
      {
        "note": 36,
        "velocity": 100,
        "startTime": 26,
        "duration": 0.5,
        "channel": 9
      },
      {
        "note": 36,
        "velocity": 127,
        "startTime": 28,
        "duration": 0.5,
        "channel": 9
      },
      {
        "note": 36,
        "velocity": 100,
        "startTime": 30,
        "duration": 0.5,
        "channel": 9
      },
      {
        "note": 36,
        "velocity": 127,
        "startTime": 32,
        "duration": 0.5,
        "channel": 9
      },
      {
        "note": 36,
        "velocity": 100,
        "startTime": 34,
        "duration": 0.5,
        "channel": 9
      },
      {
        "note": 36,
        "velocity": 127,
        "startTime": 36,
        "duration": 0.5,
        "channel": 9
      },
      {
        "note": 36,
        "velocity": 100,
        "startTime": 38,
        "duration": 0.5,
        "channel": 9
      },
      {
        "note": 36,
        "velocity": 127,
        "startTime": 40,
        "duration": 0.5,
        "channel": 9
      },
      {
        "note": 36,
        "velocity": 100,
        "startTime": 42,
        "duration": 0.5,
        "channel": 9
      },
      {
        "note": 36,
        "velocity": 127,
        "startTime": 44,
        "duration": 0.5,
        "channel": 9
      },
      {
        "note": 36,
        "velocity": 100,
        "startTime": 46,
        "duration": 0.5,
        "channel": 9
      },
      {
        "note": 36,
        "velocity": 127,
        "startTime": 48,
        "duration": 0.5,
        "channel": 9
      },
      {
        "note": 36,
        "velocity": 100,
        "startTime": 50,
        "duration": 0.5,
        "channel": 9
      },
      {
        "note": 36,
        "velocity": 127,
        "startTime": 52,
        "duration": 0.5,
        "channel": 9
      },
      {
        "note": 36,
        "velocity": 100,
        "startTime": 54,
        "duration": 0.5,
        "channel": 9
      },
      {
        "note": 36,
        "velocity": 127,
        "startTime": 56,
        "duration": 0.5,
        "channel": 9
      },
      {
        "note": 36,
        "velocity": 100,
        "startTime": 58,
        "duration": 0.5,
        "channel": 9
      },
      {
        "note": 36,
        "velocity": 127,
        "startTime": 60,
        "duration": 0.5,
        "channel": 9
      },
      {
        "note": 36,
        "velocity": 100,
        "startTime": 62,
        "duration": 0.5,
        "channel": 9
      },
      {
        "note": 38,
        "velocity": 100,
        "startTime": 1,
        "duration": 0.5,
        "channel": 9
      },
      {
        "note": 38,
        "velocity": 100,
        "startTime": 3,
        "duration": 0.5,
        "channel": 9
      },
      {
        "note": 38,
        "velocity": 100,
        "startTime": 5,
        "duration": 0.5,
        "channel": 9
      },
      {
        "note": 38,
        "velocity": 100,
        "startTime": 7,
        "duration": 0.5,
        "channel": 9
      },
      {
        "note": 38,
        "velocity": 100,
        "startTime": 9,
        "duration": 0.5,
        "channel": 9
      },
      {
        "note": 38,
        "velocity": 100,
        "startTime": 11,
        "duration": 0.5,
        "channel": 9
      },
      {
        "note": 38,
        "velocity": 100,
        "startTime": 13,
        "duration": 0.5,
        "channel": 9
      },
      {
        "note": 38,
        "velocity": 100,
        "startTime": 15,
        "duration": 0.5,
        "channel": 9
      },
      {
        "note": 38,
        "velocity": 100,
        "startTime": 17,
        "duration": 0.5,
        "channel": 9
      },
      {
        "note": 38,
        "velocity": 100,
        "startTime": 19,
        "duration": 0.5,
        "channel": 9
      },
      {
        "note": 38,
        "velocity": 100,
        "startTime": 21,
        "duration": 0.5,
        "channel": 9
      },
      {
        "note": 38,
        "velocity": 100,
        "startTime": 23,
        "duration": 0.5,
        "channel": 9
      },
      {
        "note": 38,
        "velocity": 100,
        "startTime": 25,
        "duration": 0.5,
        "channel": 9
      },
      {
        "note": 38,
        "velocity": 100,
        "startTime": 27,
        "duration": 0.5,
        "channel": 9
      },
      {
        "note": 38,
        "velocity": 100,
        "startTime": 29,
        "duration": 0.5,
        "channel": 9
      },
      {
        "note": 38,
        "velocity": 100,
        "startTime": 31,
        "duration": 0.5,
        "channel": 9
      },
      {
        "note": 38,
        "velocity": 100,
        "startTime": 33,
        "duration": 0.5,
        "channel": 9
      },
      {
        "note": 38,
        "velocity": 100,
        "startTime": 35,
        "duration": 0.5,
        "channel": 9
      },
      {
        "note": 38,
        "velocity": 100,
        "startTime": 37,
        "duration": 0.5,
        "channel": 9
      },
      {
        "note": 38,
        "velocity": 100,
        "startTime": 39,
        "duration": 0.5,
        "channel": 9
      },
      {
        "note": 38,
        "velocity": 100,
        "startTime": 41,
        "duration": 0.5,
        "channel": 9
      },
      {
        "note": 38,
        "velocity": 100,
        "startTime": 43,
        "duration": 0.5,
        "channel": 9
      },
      {
        "note": 38,
        "velocity": 100,
        "startTime": 45,
        "duration": 0.5,
        "channel": 9
      },
      {
        "note": 38,
        "velocity": 100,
        "startTime": 47,
        "duration": 0.5,
        "channel": 9
      },
      {
        "note": 38,
        "velocity": 100,
        "startTime": 49,
        "duration": 0.5,
        "channel": 9
      },
      {
        "note": 38,
        "velocity": 100,
        "startTime": 51,
        "duration": 0.5,
        "channel": 9
      },
      {
        "note": 38,
        "velocity": 100,
        "startTime": 53,
        "duration": 0.5,
        "channel": 9
      },
      {
        "note": 38,
        "velocity": 100,
        "startTime": 55,
        "duration": 0.5,
        "channel": 9
      },
      {
        "note": 38,
        "velocity": 100,
        "startTime": 57,
        "duration": 0.5,
        "channel": 9
      },
      {
        "note": 38,
        "velocity": 100,
        "startTime": 59,
        "duration": 0.5,
        "channel": 9
      },
      {
        "note": 38,
        "velocity": 100,
        "startTime": 61,
        "duration": 0.5,
        "channel": 9
      },
      {
        "note": 38,
        "velocity": 100,
        "startTime": 63,
        "duration": 0.5,
        "channel": 9
      },
      {
        "note": 42,
        "velocity": 80,
        "startTime": 0,
        "duration": 0.25,
        "channel": 9
      },
      {
        "note": 42,
        "velocity": 60,
        "startTime": 0.5,
        "duration": 0.25,
        "channel": 9
      },
      {
        "note": 42,
        "velocity": 80,
        "startTime": 1,
        "duration": 0.25,
        "channel": 9
      },
      {
        "note": 42,
        "velocity": 60,
        "startTime": 1.5,
        "duration": 0.25,
        "channel": 9
      },
      {
        "note": 42,
        "velocity": 80,
        "startTime": 2,
        "duration": 0.25,
        "channel": 9
      },
      {
        "note": 42,
        "velocity": 60,
        "startTime": 2.5,
        "duration": 0.25,
        "channel": 9
      },
      {
        "note": 42,
        "velocity": 80,
        "startTime": 3,
        "duration": 0.25,
        "channel": 9
      },
      {
        "note": 42,
        "velocity": 60,
        "startTime": 3.5,
        "duration": 0.25,
        "channel": 9
      },
      {
        "note": 42,
        "velocity": 80,
        "startTime": 4,
        "duration": 0.25,
        "channel": 9
      },
      {
        "note": 42,
        "velocity": 60,
        "startTime": 4.5,
        "duration": 0.25,
        "channel": 9
      },
      {
        "note": 42,
        "velocity": 80,
        "startTime": 5,
        "duration": 0.25,
        "channel": 9
      },
      {
        "note": 42,
        "velocity": 60,
        "startTime": 5.5,
        "duration": 0.25,
        "channel": 9
      },
      {
        "note": 42,
        "velocity": 80,
        "startTime": 6,
        "duration": 0.25,
        "channel": 9
      },
      {
        "note": 42,
        "velocity": 60,
        "startTime": 6.5,
        "duration": 0.25,
        "channel": 9
      },
      {
        "note": 42,
        "velocity": 80,
        "startTime": 7,
        "duration": 0.25,
        "channel": 9
      },
      {
        "note": 42,
        "velocity": 60,
        "startTime": 7.5,
        "duration": 0.25,
        "channel": 9
      },
      {
        "note": 42,
        "velocity": 80,
        "startTime": 8,
        "duration": 0.25,
        "channel": 9
      },
      {
        "note": 42,
        "velocity": 60,
        "startTime": 8.5,
        "duration": 0.25,
        "channel": 9
      },
      {
        "note": 42,
        "velocity": 80,
        "startTime": 9,
        "duration": 0.25,
        "channel": 9
      },
      {
        "note": 42,
        "velocity": 60,
        "startTime": 9.5,
        "duration": 0.25,
        "channel": 9
      },
      {
        "note": 42,
        "velocity": 80,
        "startTime": 10,
        "duration": 0.25,
        "channel": 9
      },
      {
        "note": 42,
        "velocity": 60,
        "startTime": 10.5,
        "duration": 0.25,
        "channel": 9
      },
      {
        "note": 42,
        "velocity": 80,
        "startTime": 11,
        "duration": 0.25,
        "channel": 9
      },
      {
        "note": 42,
        "velocity": 60,
        "startTime": 11.5,
        "duration": 0.25,
        "channel": 9
      },
      {
        "note": 42,
        "velocity": 80,
        "startTime": 12,
        "duration": 0.25,
        "channel": 9
      },
      {
        "note": 42,
        "velocity": 60,
        "startTime": 12.5,
        "duration": 0.25,
        "channel": 9
      },
      {
        "note": 42,
        "velocity": 80,
        "startTime": 13,
        "duration": 0.25,
        "channel": 9
      },
      {
        "note": 42,
        "velocity": 60,
        "startTime": 13.5,
        "duration": 0.25,
        "channel": 9
      },
      {
        "note": 42,
        "velocity": 80,
        "startTime": 14,
        "duration": 0.25,
        "channel": 9
      },
      {
        "note": 42,
        "velocity": 60,
        "startTime": 14.5,
        "duration": 0.25,
        "channel": 9
      },
      {
        "note": 42,
        "velocity": 80,
        "startTime": 15,
        "duration": 0.25,
        "channel": 9
      },
      {
        "note": 42,
        "velocity": 60,
        "startTime": 15.5,
        "duration": 0.25,
        "channel": 9
      },
      {
        "note": 42,
        "velocity": 80,
        "startTime": 16,
        "duration": 0.25,
        "channel": 9
      },
      {
        "note": 42,
        "velocity": 60,
        "startTime": 16.5,
        "duration": 0.25,
        "channel": 9
      },
      {
        "note": 42,
        "velocity": 80,
        "startTime": 17,
        "duration": 0.25,
        "channel": 9
      },
      {
        "note": 42,
        "velocity": 60,
        "startTime": 17.5,
        "duration": 0.25,
        "channel": 9
      },
      {
        "note": 42,
        "velocity": 80,
        "startTime": 18,
        "duration": 0.25,
        "channel": 9
      },
      {
        "note": 42,
        "velocity": 60,
        "startTime": 18.5,
        "duration": 0.25,
        "channel": 9
      },
      {
        "note": 42,
        "velocity": 80,
        "startTime": 19,
        "duration": 0.25,
        "channel": 9
      },
      {
        "note": 42,
        "velocity": 60,
        "startTime": 19.5,
        "duration": 0.25,
        "channel": 9
      },
      {
        "note": 42,
        "velocity": 80,
        "startTime": 20,
        "duration": 0.25,
        "channel": 9
      },
      {
        "note": 42,
        "velocity": 60,
        "startTime": 20.5,
        "duration": 0.25,
        "channel": 9
      },
      {
        "note": 42,
        "velocity": 80,
        "startTime": 21,
        "duration": 0.25,
        "channel": 9
      },
      {
        "note": 42,
        "velocity": 60,
        "startTime": 21.5,
        "duration": 0.25,
        "channel": 9
      },
      {
        "note": 42,
        "velocity": 80,
        "startTime": 22,
        "duration": 0.25,
        "channel": 9
      },
      {
        "note": 42,
        "velocity": 60,
        "startTime": 22.5,
        "duration": 0.25,
        "channel": 9
      },
      {
        "note": 42,
        "velocity": 80,
        "startTime": 23,
        "duration": 0.25,
        "channel": 9
      },
      {
        "note": 42,
        "velocity": 60,
        "startTime": 23.5,
        "duration": 0.25,
        "channel": 9
      },
      {
        "note": 42,
        "velocity": 80,
        "startTime": 24,
        "duration": 0.25,
        "channel": 9
      },
      {
        "note": 42,
        "velocity": 60,
        "startTime": 24.5,
        "duration": 0.25,
        "channel": 9
      },
      {
        "note": 42,
        "velocity": 80,
        "startTime": 25,
        "duration": 0.25,
        "channel": 9
      },
      {
        "note": 42,
        "velocity": 60,
        "startTime": 25.5,
        "duration": 0.25,
        "channel": 9
      },
      {
        "note": 42,
        "velocity": 80,
        "startTime": 26,
        "duration": 0.25,
        "channel": 9
      },
      {
        "note": 42,
        "velocity": 60,
        "startTime": 26.5,
        "duration": 0.25,
        "channel": 9
      },
      {
        "note": 42,
        "velocity": 80,
        "startTime": 27,
        "duration": 0.25,
        "channel": 9
      },
      {
        "note": 42,
        "velocity": 60,
        "startTime": 27.5,
        "duration": 0.25,
        "channel": 9
      },
      {
        "note": 42,
        "velocity": 80,
        "startTime": 28,
        "duration": 0.25,
        "channel": 9
      },
      {
        "note": 42,
        "velocity": 60,
        "startTime": 28.5,
        "duration": 0.25,
        "channel": 9
      },
      {
        "note": 42,
        "velocity": 80,
        "startTime": 29,
        "duration": 0.25,
        "channel": 9
      },
      {
        "note": 42,
        "velocity": 60,
        "startTime": 29.5,
        "duration": 0.25,
        "channel": 9
      },
      {
        "note": 42,
        "velocity": 80,
        "startTime": 30,
        "duration": 0.25,
        "channel": 9
      },
      {
        "note": 42,
        "velocity": 60,
        "startTime": 30.5,
        "duration": 0.25,
        "channel": 9
      },
      {
        "note": 42,
        "velocity": 80,
        "startTime": 31,
        "duration": 0.25,
        "channel": 9
      },
      {
        "note": 42,
        "velocity": 60,
        "startTime": 31.5,
        "duration": 0.25,
        "channel": 9
      },
      {
        "note": 42,
        "velocity": 80,
        "startTime": 32,
        "duration": 0.25,
        "channel": 9
      },
      {
        "note": 42,
        "velocity": 60,
        "startTime": 32.5,
        "duration": 0.25,
        "channel": 9
      },
      {
        "note": 42,
        "velocity": 80,
        "startTime": 33,
        "duration": 0.25,
        "channel": 9
      },
      {
        "note": 42,
        "velocity": 60,
        "startTime": 33.5,
        "duration": 0.25,
        "channel": 9
      },
      {
        "note": 42,
        "velocity": 80,
        "startTime": 34,
        "duration": 0.25,
        "channel": 9
      },
      {
        "note": 42,
        "velocity": 60,
        "startTime": 34.5,
        "duration": 0.25,
        "channel": 9
      },
      {
        "note": 42,
        "velocity": 80,
        "startTime": 35,
        "duration": 0.25,
        "channel": 9
      },
      {
        "note": 42,
        "velocity": 60,
        "startTime": 35.5,
        "duration": 0.25,
        "channel": 9
      },
      {
        "note": 42,
        "velocity": 80,
        "startTime": 36,
        "duration": 0.25,
        "channel": 9
      },
      {
        "note": 42,
        "velocity": 60,
        "startTime": 36.5,
        "duration": 0.25,
        "channel": 9
      },
      {
        "note": 42,
        "velocity": 80,
        "startTime": 37,
        "duration": 0.25,
        "channel": 9
      },
      {
        "note": 42,
        "velocity": 60,
        "startTime": 37.5,
        "duration": 0.25,
        "channel": 9
      },
      {
        "note": 42,
        "velocity": 80,
        "startTime": 38,
        "duration": 0.25,
        "channel": 9
      },
      {
        "note": 42,
        "velocity": 60,
        "startTime": 38.5,
        "duration": 0.25,
        "channel": 9
      },
      {
        "note": 42,
        "velocity": 80,
        "startTime": 39,
        "duration": 0.25,
        "channel": 9
      },
      {
        "note": 42,
        "velocity": 60,
        "startTime": 39.5,
        "duration": 0.25,
        "channel": 9
      },
      {
        "note": 42,
        "velocity": 80,
        "startTime": 40,
        "duration": 0.25,
        "channel": 9
      },
      {
        "note": 42,
        "velocity": 60,
        "startTime": 40.5,
        "duration": 0.25,
        "channel": 9
      },
      {
        "note": 42,
        "velocity": 80,
        "startTime": 41,
        "duration": 0.25,
        "channel": 9
      },
      {
        "note": 42,
        "velocity": 60,
        "startTime": 41.5,
        "duration": 0.25,
        "channel": 9
      },
      {
        "note": 42,
        "velocity": 80,
        "startTime": 42,
        "duration": 0.25,
        "channel": 9
      },
      {
        "note": 42,
        "velocity": 60,
        "startTime": 42.5,
        "duration": 0.25,
        "channel": 9
      },
      {
        "note": 42,
        "velocity": 80,
        "startTime": 43,
        "duration": 0.25,
        "channel": 9
      },
      {
        "note": 42,
        "velocity": 60,
        "startTime": 43.5,
        "duration": 0.25,
        "channel": 9
      },
      {
        "note": 42,
        "velocity": 80,
        "startTime": 44,
        "duration": 0.25,
        "channel": 9
      },
      {
        "note": 42,
        "velocity": 60,
        "startTime": 44.5,
        "duration": 0.25,
        "channel": 9
      },
      {
        "note": 42,
        "velocity": 80,
        "startTime": 45,
        "duration": 0.25,
        "channel": 9
      },
      {
        "note": 42,
        "velocity": 60,
        "startTime": 45.5,
        "duration": 0.25,
        "channel": 9
      },
      {
        "note": 42,
        "velocity": 80,
        "startTime": 46,
        "duration": 0.25,
        "channel": 9
      },
      {
        "note": 42,
        "velocity": 60,
        "startTime": 46.5,
        "duration": 0.25,
        "channel": 9
      },
      {
        "note": 42,
        "velocity": 80,
        "startTime": 47,
        "duration": 0.25,
        "channel": 9
      },
      {
        "note": 42,
        "velocity": 60,
        "startTime": 47.5,
        "duration": 0.25,
        "channel": 9
      },
      {
        "note": 42,
        "velocity": 80,
        "startTime": 48,
        "duration": 0.25,
        "channel": 9
      },
      {
        "note": 42,
        "velocity": 60,
        "startTime": 48.5,
        "duration": 0.25,
        "channel": 9
      },
      {
        "note": 42,
        "velocity": 80,
        "startTime": 49,
        "duration": 0.25,
        "channel": 9
      },
      {
        "note": 42,
        "velocity": 60,
        "startTime": 49.5,
        "duration": 0.25,
        "channel": 9
      },
      {
        "note": 42,
        "velocity": 80,
        "startTime": 50,
        "duration": 0.25,
        "channel": 9
      },
      {
        "note": 42,
        "velocity": 60,
        "startTime": 50.5,
        "duration": 0.25,
        "channel": 9
      },
      {
        "note": 42,
        "velocity": 80,
        "startTime": 51,
        "duration": 0.25,
        "channel": 9
      },
      {
        "note": 42,
        "velocity": 60,
        "startTime": 51.5,
        "duration": 0.25,
        "channel": 9
      },
      {
        "note": 42,
        "velocity": 80,
        "startTime": 52,
        "duration": 0.25,
        "channel": 9
      },
      {
        "note": 42,
        "velocity": 60,
        "startTime": 52.5,
        "duration": 0.25,
        "channel": 9
      },
      {
        "note": 42,
        "velocity": 80,
        "startTime": 53,
        "duration": 0.25,
        "channel": 9
      },
      {
        "note": 42,
        "velocity": 60,
        "startTime": 53.5,
        "duration": 0.25,
        "channel": 9
      },
      {
        "note": 42,
        "velocity": 80,
        "startTime": 54,
        "duration": 0.25,
        "channel": 9
      },
      {
        "note": 42,
        "velocity": 60,
        "startTime": 54.5,
        "duration": 0.25,
        "channel": 9
      },
      {
        "note": 42,
        "velocity": 80,
        "startTime": 55,
        "duration": 0.25,
        "channel": 9
      },
      {
        "note": 42,
        "velocity": 60,
        "startTime": 55.5,
        "duration": 0.25,
        "channel": 9
      },
      {
        "note": 42,
        "velocity": 80,
        "startTime": 56,
        "duration": 0.25,
        "channel": 9
      },
      {
        "note": 42,
        "velocity": 60,
        "startTime": 56.5,
        "duration": 0.25,
        "channel": 9
      },
      {
        "note": 42,
        "velocity": 80,
        "startTime": 57,
        "duration": 0.25,
        "channel": 9
      },
      {
        "note": 42,
        "velocity": 60,
        "startTime": 57.5,
        "duration": 0.25,
        "channel": 9
      },
      {
        "note": 42,
        "velocity": 80,
        "startTime": 58,
        "duration": 0.25,
        "channel": 9
      },
      {
        "note": 42,
        "velocity": 60,
        "startTime": 58.5,
        "duration": 0.25,
        "channel": 9
      },
      {
        "note": 42,
        "velocity": 80,
        "startTime": 59,
        "duration": 0.25,
        "channel": 9
      },
      {
        "note": 42,
        "velocity": 60,
        "startTime": 59.5,
        "duration": 0.25,
        "channel": 9
      },
      {
        "note": 42,
        "velocity": 80,
        "startTime": 60,
        "duration": 0.25,
        "channel": 9
      },
      {
        "note": 42,
        "velocity": 60,
        "startTime": 60.5,
        "duration": 0.25,
        "channel": 9
      },
      {
        "note": 42,
        "velocity": 80,
        "startTime": 61,
        "duration": 0.25,
        "channel": 9
      },
      {
        "note": 42,
        "velocity": 60,
        "startTime": 61.5,
        "duration": 0.25,
        "channel": 9
      },
      {
        "note": 42,
        "velocity": 80,
        "startTime": 62,
        "duration": 0.25,
        "channel": 9
      },
      {
        "note": 42,
        "velocity": 60,
        "startTime": 62.5,
        "duration": 0.25,
        "channel": 9
      },
      {
        "note": 42,
        "velocity": 80,
        "startTime": 63,
        "duration": 0.25,
        "channel": 9
      },
      {
        "note": 42,
        "velocity": 60,
        "startTime": 63.5,
        "duration": 0.25,
        "channel": 9
      },
      {
        "note": 36,
        "velocity": 100,
        "startTime": 0,
        "duration": 1,
        "channel": 0
      },
      {
        "note": 36,
        "velocity": 100,
        "startTime": 2,
        "duration": 1,
        "channel": 0
      },
      {
        "note": 36,
        "velocity": 100,
        "startTime": 4,
        "duration": 1,
        "channel": 0
      },
      {
        "note": 36,
        "velocity": 100,
        "startTime": 6,
        "duration": 1,
        "channel": 0
      },
      {
        "note": 36,
        "velocity": 100,
        "startTime": 8,
        "duration": 1,
        "channel": 0
      },
      {
        "note": 36,
        "velocity": 100,
        "startTime": 10,
        "duration": 1,
        "channel": 0
      },
      {
        "note": 36,
        "velocity": 100,
        "startTime": 12,
        "duration": 1,
        "channel": 0
      },
      {
        "note": 36,
        "velocity": 100,
        "startTime": 14,
        "duration": 1,
        "channel": 0
      },
      {
        "note": 36,
        "velocity": 100,
        "startTime": 16,
        "duration": 1,
        "channel": 0
      },
      {
        "note": 36,
        "velocity": 100,
        "startTime": 18,
        "duration": 1,
        "channel": 0
      },
      {
        "note": 36,
        "velocity": 100,
        "startTime": 20,
        "duration": 1,
        "channel": 0
      },
      {
        "note": 36,
        "velocity": 100,
        "startTime": 22,
        "duration": 1,
        "channel": 0
      },
      {
        "note": 36,
        "velocity": 100,
        "startTime": 24,
        "duration": 1,
        "channel": 0
      },
      {
        "note": 36,
        "velocity": 100,
        "startTime": 26,
        "duration": 1,
        "channel": 0
      },
      {
        "note": 36,
        "velocity": 100,
        "startTime": 28,
        "duration": 1,
        "channel": 0
      },
      {
        "note": 36,
        "velocity": 100,
        "startTime": 30,
        "duration": 1,
        "channel": 0
      },
      {
        "note": 36,
        "velocity": 100,
        "startTime": 32,
        "duration": 1,
        "channel": 0
      },
      {
        "note": 36,
        "velocity": 100,
        "startTime": 34,
        "duration": 1,
        "channel": 0
      },
      {
        "note": 36,
        "velocity": 100,
        "startTime": 36,
        "duration": 1,
        "channel": 0
      },
      {
        "note": 36,
        "velocity": 100,
        "startTime": 38,
        "duration": 1,
        "channel": 0
      },
      {
        "note": 36,
        "velocity": 100,
        "startTime": 40,
        "duration": 1,
        "channel": 0
      },
      {
        "note": 36,
        "velocity": 100,
        "startTime": 42,
        "duration": 1,
        "channel": 0
      },
      {
        "note": 36,
        "velocity": 100,
        "startTime": 44,
        "duration": 1,
        "channel": 0
      },
      {
        "note": 36,
        "velocity": 100,
        "startTime": 46,
        "duration": 1,
        "channel": 0
      },
      {
        "note": 36,
        "velocity": 100,
        "startTime": 48,
        "duration": 1,
        "channel": 0
      },
      {
        "note": 36,
        "velocity": 100,
        "startTime": 50,
        "duration": 1,
        "channel": 0
      },
      {
        "note": 36,
        "velocity": 100,
        "startTime": 52,
        "duration": 1,
        "channel": 0
      },
      {
        "note": 36,
        "velocity": 100,
        "startTime": 54,
        "duration": 1,
        "channel": 0
      },
      {
        "note": 36,
        "velocity": 100,
        "startTime": 56,
        "duration": 1,
        "channel": 0
      },
      {
        "note": 36,
        "velocity": 100,
        "startTime": 58,
        "duration": 1,
        "channel": 0
      },
      {
        "note": 36,
        "velocity": 100,
        "startTime": 60,
        "duration": 1,
        "channel": 0
      },
      {
        "note": 36,
        "velocity": 100,
        "startTime": 62,
        "duration": 1,
        "channel": 0
      }
    ],
    "project_name": "DIGITALIZE VINYL",
    "project_path": "/Users/camilopineda/Desktop/SHINE DARK MIDI PARTY/Logic copy sep 2025/DIGITALIZE VINYL/DIGITALIZE VINYL.logicx",
    "extraction_date": "2025-09-05T23:38:35.387Z",
    "extraction_status": "generated_from_project_name"
  },
  {
    "id": "electronic-pattern",
    "name": "Electronic",
    "tempo": 120,
    "timeSignature": [
      4,
      4
    ],
    "length": 64,
    "loop": true,
    "notes": [
      {
        "note": 36,
        "velocity": 127,
        "startTime": 0,
        "duration": 0.5,
        "channel": 9
      },
      {
        "note": 36,
        "velocity": 100,
        "startTime": 2,
        "duration": 0.5,
        "channel": 9
      },
      {
        "note": 36,
        "velocity": 127,
        "startTime": 4,
        "duration": 0.5,
        "channel": 9
      },
      {
        "note": 36,
        "velocity": 100,
        "startTime": 6,
        "duration": 0.5,
        "channel": 9
      },
      {
        "note": 36,
        "velocity": 127,
        "startTime": 8,
        "duration": 0.5,
        "channel": 9
      },
      {
        "note": 36,
        "velocity": 100,
        "startTime": 10,
        "duration": 0.5,
        "channel": 9
      },
      {
        "note": 36,
        "velocity": 127,
        "startTime": 12,
        "duration": 0.5,
        "channel": 9
      },
      {
        "note": 36,
        "velocity": 100,
        "startTime": 14,
        "duration": 0.5,
        "channel": 9
      },
      {
        "note": 36,
        "velocity": 127,
        "startTime": 16,
        "duration": 0.5,
        "channel": 9
      },
      {
        "note": 36,
        "velocity": 100,
        "startTime": 18,
        "duration": 0.5,
        "channel": 9
      },
      {
        "note": 36,
        "velocity": 127,
        "startTime": 20,
        "duration": 0.5,
        "channel": 9
      },
      {
        "note": 36,
        "velocity": 100,
        "startTime": 22,
        "duration": 0.5,
        "channel": 9
      },
      {
        "note": 36,
        "velocity": 127,
        "startTime": 24,
        "duration": 0.5,
        "channel": 9
      },
      {
        "note": 36,
        "velocity": 100,
        "startTime": 26,
        "duration": 0.5,
        "channel": 9
      },
      {
        "note": 36,
        "velocity": 127,
        "startTime": 28,
        "duration": 0.5,
        "channel": 9
      },
      {
        "note": 36,
        "velocity": 100,
        "startTime": 30,
        "duration": 0.5,
        "channel": 9
      },
      {
        "note": 36,
        "velocity": 127,
        "startTime": 32,
        "duration": 0.5,
        "channel": 9
      },
      {
        "note": 36,
        "velocity": 100,
        "startTime": 34,
        "duration": 0.5,
        "channel": 9
      },
      {
        "note": 36,
        "velocity": 127,
        "startTime": 36,
        "duration": 0.5,
        "channel": 9
      },
      {
        "note": 36,
        "velocity": 100,
        "startTime": 38,
        "duration": 0.5,
        "channel": 9
      },
      {
        "note": 36,
        "velocity": 127,
        "startTime": 40,
        "duration": 0.5,
        "channel": 9
      },
      {
        "note": 36,
        "velocity": 100,
        "startTime": 42,
        "duration": 0.5,
        "channel": 9
      },
      {
        "note": 36,
        "velocity": 127,
        "startTime": 44,
        "duration": 0.5,
        "channel": 9
      },
      {
        "note": 36,
        "velocity": 100,
        "startTime": 46,
        "duration": 0.5,
        "channel": 9
      },
      {
        "note": 36,
        "velocity": 127,
        "startTime": 48,
        "duration": 0.5,
        "channel": 9
      },
      {
        "note": 36,
        "velocity": 100,
        "startTime": 50,
        "duration": 0.5,
        "channel": 9
      },
      {
        "note": 36,
        "velocity": 127,
        "startTime": 52,
        "duration": 0.5,
        "channel": 9
      },
      {
        "note": 36,
        "velocity": 100,
        "startTime": 54,
        "duration": 0.5,
        "channel": 9
      },
      {
        "note": 36,
        "velocity": 127,
        "startTime": 56,
        "duration": 0.5,
        "channel": 9
      },
      {
        "note": 36,
        "velocity": 100,
        "startTime": 58,
        "duration": 0.5,
        "channel": 9
      },
      {
        "note": 36,
        "velocity": 127,
        "startTime": 60,
        "duration": 0.5,
        "channel": 9
      },
      {
        "note": 36,
        "velocity": 100,
        "startTime": 62,
        "duration": 0.5,
        "channel": 9
      },
      {
        "note": 38,
        "velocity": 100,
        "startTime": 1,
        "duration": 0.5,
        "channel": 9
      },
      {
        "note": 38,
        "velocity": 100,
        "startTime": 3,
        "duration": 0.5,
        "channel": 9
      },
      {
        "note": 38,
        "velocity": 100,
        "startTime": 5,
        "duration": 0.5,
        "channel": 9
      },
      {
        "note": 38,
        "velocity": 100,
        "startTime": 7,
        "duration": 0.5,
        "channel": 9
      },
      {
        "note": 38,
        "velocity": 100,
        "startTime": 9,
        "duration": 0.5,
        "channel": 9
      },
      {
        "note": 38,
        "velocity": 100,
        "startTime": 11,
        "duration": 0.5,
        "channel": 9
      },
      {
        "note": 38,
        "velocity": 100,
        "startTime": 13,
        "duration": 0.5,
        "channel": 9
      },
      {
        "note": 38,
        "velocity": 100,
        "startTime": 15,
        "duration": 0.5,
        "channel": 9
      },
      {
        "note": 38,
        "velocity": 100,
        "startTime": 17,
        "duration": 0.5,
        "channel": 9
      },
      {
        "note": 38,
        "velocity": 100,
        "startTime": 19,
        "duration": 0.5,
        "channel": 9
      },
      {
        "note": 38,
        "velocity": 100,
        "startTime": 21,
        "duration": 0.5,
        "channel": 9
      },
      {
        "note": 38,
        "velocity": 100,
        "startTime": 23,
        "duration": 0.5,
        "channel": 9
      },
      {
        "note": 38,
        "velocity": 100,
        "startTime": 25,
        "duration": 0.5,
        "channel": 9
      },
      {
        "note": 38,
        "velocity": 100,
        "startTime": 27,
        "duration": 0.5,
        "channel": 9
      },
      {
        "note": 38,
        "velocity": 100,
        "startTime": 29,
        "duration": 0.5,
        "channel": 9
      },
      {
        "note": 38,
        "velocity": 100,
        "startTime": 31,
        "duration": 0.5,
        "channel": 9
      },
      {
        "note": 38,
        "velocity": 100,
        "startTime": 33,
        "duration": 0.5,
        "channel": 9
      },
      {
        "note": 38,
        "velocity": 100,
        "startTime": 35,
        "duration": 0.5,
        "channel": 9
      },
      {
        "note": 38,
        "velocity": 100,
        "startTime": 37,
        "duration": 0.5,
        "channel": 9
      },
      {
        "note": 38,
        "velocity": 100,
        "startTime": 39,
        "duration": 0.5,
        "channel": 9
      },
      {
        "note": 38,
        "velocity": 100,
        "startTime": 41,
        "duration": 0.5,
        "channel": 9
      },
      {
        "note": 38,
        "velocity": 100,
        "startTime": 43,
        "duration": 0.5,
        "channel": 9
      },
      {
        "note": 38,
        "velocity": 100,
        "startTime": 45,
        "duration": 0.5,
        "channel": 9
      },
      {
        "note": 38,
        "velocity": 100,
        "startTime": 47,
        "duration": 0.5,
        "channel": 9
      },
      {
        "note": 38,
        "velocity": 100,
        "startTime": 49,
        "duration": 0.5,
        "channel": 9
      },
      {
        "note": 38,
        "velocity": 100,
        "startTime": 51,
        "duration": 0.5,
        "channel": 9
      },
      {
        "note": 38,
        "velocity": 100,
        "startTime": 53,
        "duration": 0.5,
        "channel": 9
      },
      {
        "note": 38,
        "velocity": 100,
        "startTime": 55,
        "duration": 0.5,
        "channel": 9
      },
      {
        "note": 38,
        "velocity": 100,
        "startTime": 57,
        "duration": 0.5,
        "channel": 9
      },
      {
        "note": 38,
        "velocity": 100,
        "startTime": 59,
        "duration": 0.5,
        "channel": 9
      },
      {
        "note": 38,
        "velocity": 100,
        "startTime": 61,
        "duration": 0.5,
        "channel": 9
      },
      {
        "note": 38,
        "velocity": 100,
        "startTime": 63,
        "duration": 0.5,
        "channel": 9
      },
      {
        "note": 42,
        "velocity": 80,
        "startTime": 0,
        "duration": 0.25,
        "channel": 9
      },
      {
        "note": 42,
        "velocity": 60,
        "startTime": 0.5,
        "duration": 0.25,
        "channel": 9
      },
      {
        "note": 42,
        "velocity": 80,
        "startTime": 1,
        "duration": 0.25,
        "channel": 9
      },
      {
        "note": 42,
        "velocity": 60,
        "startTime": 1.5,
        "duration": 0.25,
        "channel": 9
      },
      {
        "note": 42,
        "velocity": 80,
        "startTime": 2,
        "duration": 0.25,
        "channel": 9
      },
      {
        "note": 42,
        "velocity": 60,
        "startTime": 2.5,
        "duration": 0.25,
        "channel": 9
      },
      {
        "note": 42,
        "velocity": 80,
        "startTime": 3,
        "duration": 0.25,
        "channel": 9
      },
      {
        "note": 42,
        "velocity": 60,
        "startTime": 3.5,
        "duration": 0.25,
        "channel": 9
      },
      {
        "note": 42,
        "velocity": 80,
        "startTime": 4,
        "duration": 0.25,
        "channel": 9
      },
      {
        "note": 42,
        "velocity": 60,
        "startTime": 4.5,
        "duration": 0.25,
        "channel": 9
      },
      {
        "note": 42,
        "velocity": 80,
        "startTime": 5,
        "duration": 0.25,
        "channel": 9
      },
      {
        "note": 42,
        "velocity": 60,
        "startTime": 5.5,
        "duration": 0.25,
        "channel": 9
      },
      {
        "note": 42,
        "velocity": 80,
        "startTime": 6,
        "duration": 0.25,
        "channel": 9
      },
      {
        "note": 42,
        "velocity": 60,
        "startTime": 6.5,
        "duration": 0.25,
        "channel": 9
      },
      {
        "note": 42,
        "velocity": 80,
        "startTime": 7,
        "duration": 0.25,
        "channel": 9
      },
      {
        "note": 42,
        "velocity": 60,
        "startTime": 7.5,
        "duration": 0.25,
        "channel": 9
      },
      {
        "note": 42,
        "velocity": 80,
        "startTime": 8,
        "duration": 0.25,
        "channel": 9
      },
      {
        "note": 42,
        "velocity": 60,
        "startTime": 8.5,
        "duration": 0.25,
        "channel": 9
      },
      {
        "note": 42,
        "velocity": 80,
        "startTime": 9,
        "duration": 0.25,
        "channel": 9
      },
      {
        "note": 42,
        "velocity": 60,
        "startTime": 9.5,
        "duration": 0.25,
        "channel": 9
      },
      {
        "note": 42,
        "velocity": 80,
        "startTime": 10,
        "duration": 0.25,
        "channel": 9
      },
      {
        "note": 42,
        "velocity": 60,
        "startTime": 10.5,
        "duration": 0.25,
        "channel": 9
      },
      {
        "note": 42,
        "velocity": 80,
        "startTime": 11,
        "duration": 0.25,
        "channel": 9
      },
      {
        "note": 42,
        "velocity": 60,
        "startTime": 11.5,
        "duration": 0.25,
        "channel": 9
      },
      {
        "note": 42,
        "velocity": 80,
        "startTime": 12,
        "duration": 0.25,
        "channel": 9
      },
      {
        "note": 42,
        "velocity": 60,
        "startTime": 12.5,
        "duration": 0.25,
        "channel": 9
      },
      {
        "note": 42,
        "velocity": 80,
        "startTime": 13,
        "duration": 0.25,
        "channel": 9
      },
      {
        "note": 42,
        "velocity": 60,
        "startTime": 13.5,
        "duration": 0.25,
        "channel": 9
      },
      {
        "note": 42,
        "velocity": 80,
        "startTime": 14,
        "duration": 0.25,
        "channel": 9
      },
      {
        "note": 42,
        "velocity": 60,
        "startTime": 14.5,
        "duration": 0.25,
        "channel": 9
      },
      {
        "note": 42,
        "velocity": 80,
        "startTime": 15,
        "duration": 0.25,
        "channel": 9
      },
      {
        "note": 42,
        "velocity": 60,
        "startTime": 15.5,
        "duration": 0.25,
        "channel": 9
      },
      {
        "note": 42,
        "velocity": 80,
        "startTime": 16,
        "duration": 0.25,
        "channel": 9
      },
      {
        "note": 42,
        "velocity": 60,
        "startTime": 16.5,
        "duration": 0.25,
        "channel": 9
      },
      {
        "note": 42,
        "velocity": 80,
        "startTime": 17,
        "duration": 0.25,
        "channel": 9
      },
      {
        "note": 42,
        "velocity": 60,
        "startTime": 17.5,
        "duration": 0.25,
        "channel": 9
      },
      {
        "note": 42,
        "velocity": 80,
        "startTime": 18,
        "duration": 0.25,
        "channel": 9
      },
      {
        "note": 42,
        "velocity": 60,
        "startTime": 18.5,
        "duration": 0.25,
        "channel": 9
      },
      {
        "note": 42,
        "velocity": 80,
        "startTime": 19,
        "duration": 0.25,
        "channel": 9
      },
      {
        "note": 42,
        "velocity": 60,
        "startTime": 19.5,
        "duration": 0.25,
        "channel": 9
      },
      {
        "note": 42,
        "velocity": 80,
        "startTime": 20,
        "duration": 0.25,
        "channel": 9
      },
      {
        "note": 42,
        "velocity": 60,
        "startTime": 20.5,
        "duration": 0.25,
        "channel": 9
      },
      {
        "note": 42,
        "velocity": 80,
        "startTime": 21,
        "duration": 0.25,
        "channel": 9
      },
      {
        "note": 42,
        "velocity": 60,
        "startTime": 21.5,
        "duration": 0.25,
        "channel": 9
      },
      {
        "note": 42,
        "velocity": 80,
        "startTime": 22,
        "duration": 0.25,
        "channel": 9
      },
      {
        "note": 42,
        "velocity": 60,
        "startTime": 22.5,
        "duration": 0.25,
        "channel": 9
      },
      {
        "note": 42,
        "velocity": 80,
        "startTime": 23,
        "duration": 0.25,
        "channel": 9
      },
      {
        "note": 42,
        "velocity": 60,
        "startTime": 23.5,
        "duration": 0.25,
        "channel": 9
      },
      {
        "note": 42,
        "velocity": 80,
        "startTime": 24,
        "duration": 0.25,
        "channel": 9
      },
      {
        "note": 42,
        "velocity": 60,
        "startTime": 24.5,
        "duration": 0.25,
        "channel": 9
      },
      {
        "note": 42,
        "velocity": 80,
        "startTime": 25,
        "duration": 0.25,
        "channel": 9
      },
      {
        "note": 42,
        "velocity": 60,
        "startTime": 25.5,
        "duration": 0.25,
        "channel": 9
      },
      {
        "note": 42,
        "velocity": 80,
        "startTime": 26,
        "duration": 0.25,
        "channel": 9
      },
      {
        "note": 42,
        "velocity": 60,
        "startTime": 26.5,
        "duration": 0.25,
        "channel": 9
      },
      {
        "note": 42,
        "velocity": 80,
        "startTime": 27,
        "duration": 0.25,
        "channel": 9
      },
      {
        "note": 42,
        "velocity": 60,
        "startTime": 27.5,
        "duration": 0.25,
        "channel": 9
      },
      {
        "note": 42,
        "velocity": 80,
        "startTime": 28,
        "duration": 0.25,
        "channel": 9
      },
      {
        "note": 42,
        "velocity": 60,
        "startTime": 28.5,
        "duration": 0.25,
        "channel": 9
      },
      {
        "note": 42,
        "velocity": 80,
        "startTime": 29,
        "duration": 0.25,
        "channel": 9
      },
      {
        "note": 42,
        "velocity": 60,
        "startTime": 29.5,
        "duration": 0.25,
        "channel": 9
      },
      {
        "note": 42,
        "velocity": 80,
        "startTime": 30,
        "duration": 0.25,
        "channel": 9
      },
      {
        "note": 42,
        "velocity": 60,
        "startTime": 30.5,
        "duration": 0.25,
        "channel": 9
      },
      {
        "note": 42,
        "velocity": 80,
        "startTime": 31,
        "duration": 0.25,
        "channel": 9
      },
      {
        "note": 42,
        "velocity": 60,
        "startTime": 31.5,
        "duration": 0.25,
        "channel": 9
      },
      {
        "note": 42,
        "velocity": 80,
        "startTime": 32,
        "duration": 0.25,
        "channel": 9
      },
      {
        "note": 42,
        "velocity": 60,
        "startTime": 32.5,
        "duration": 0.25,
        "channel": 9
      },
      {
        "note": 42,
        "velocity": 80,
        "startTime": 33,
        "duration": 0.25,
        "channel": 9
      },
      {
        "note": 42,
        "velocity": 60,
        "startTime": 33.5,
        "duration": 0.25,
        "channel": 9
      },
      {
        "note": 42,
        "velocity": 80,
        "startTime": 34,
        "duration": 0.25,
        "channel": 9
      },
      {
        "note": 42,
        "velocity": 60,
        "startTime": 34.5,
        "duration": 0.25,
        "channel": 9
      },
      {
        "note": 42,
        "velocity": 80,
        "startTime": 35,
        "duration": 0.25,
        "channel": 9
      },
      {
        "note": 42,
        "velocity": 60,
        "startTime": 35.5,
        "duration": 0.25,
        "channel": 9
      },
      {
        "note": 42,
        "velocity": 80,
        "startTime": 36,
        "duration": 0.25,
        "channel": 9
      },
      {
        "note": 42,
        "velocity": 60,
        "startTime": 36.5,
        "duration": 0.25,
        "channel": 9
      },
      {
        "note": 42,
        "velocity": 80,
        "startTime": 37,
        "duration": 0.25,
        "channel": 9
      },
      {
        "note": 42,
        "velocity": 60,
        "startTime": 37.5,
        "duration": 0.25,
        "channel": 9
      },
      {
        "note": 42,
        "velocity": 80,
        "startTime": 38,
        "duration": 0.25,
        "channel": 9
      },
      {
        "note": 42,
        "velocity": 60,
        "startTime": 38.5,
        "duration": 0.25,
        "channel": 9
      },
      {
        "note": 42,
        "velocity": 80,
        "startTime": 39,
        "duration": 0.25,
        "channel": 9
      },
      {
        "note": 42,
        "velocity": 60,
        "startTime": 39.5,
        "duration": 0.25,
        "channel": 9
      },
      {
        "note": 42,
        "velocity": 80,
        "startTime": 40,
        "duration": 0.25,
        "channel": 9
      },
      {
        "note": 42,
        "velocity": 60,
        "startTime": 40.5,
        "duration": 0.25,
        "channel": 9
      },
      {
        "note": 42,
        "velocity": 80,
        "startTime": 41,
        "duration": 0.25,
        "channel": 9
      },
      {
        "note": 42,
        "velocity": 60,
        "startTime": 41.5,
        "duration": 0.25,
        "channel": 9
      },
      {
        "note": 42,
        "velocity": 80,
        "startTime": 42,
        "duration": 0.25,
        "channel": 9
      },
      {
        "note": 42,
        "velocity": 60,
        "startTime": 42.5,
        "duration": 0.25,
        "channel": 9
      },
      {
        "note": 42,
        "velocity": 80,
        "startTime": 43,
        "duration": 0.25,
        "channel": 9
      },
      {
        "note": 42,
        "velocity": 60,
        "startTime": 43.5,
        "duration": 0.25,
        "channel": 9
      },
      {
        "note": 42,
        "velocity": 80,
        "startTime": 44,
        "duration": 0.25,
        "channel": 9
      },
      {
        "note": 42,
        "velocity": 60,
        "startTime": 44.5,
        "duration": 0.25,
        "channel": 9
      },
      {
        "note": 42,
        "velocity": 80,
        "startTime": 45,
        "duration": 0.25,
        "channel": 9
      },
      {
        "note": 42,
        "velocity": 60,
        "startTime": 45.5,
        "duration": 0.25,
        "channel": 9
      },
      {
        "note": 42,
        "velocity": 80,
        "startTime": 46,
        "duration": 0.25,
        "channel": 9
      },
      {
        "note": 42,
        "velocity": 60,
        "startTime": 46.5,
        "duration": 0.25,
        "channel": 9
      },
      {
        "note": 42,
        "velocity": 80,
        "startTime": 47,
        "duration": 0.25,
        "channel": 9
      },
      {
        "note": 42,
        "velocity": 60,
        "startTime": 47.5,
        "duration": 0.25,
        "channel": 9
      },
      {
        "note": 42,
        "velocity": 80,
        "startTime": 48,
        "duration": 0.25,
        "channel": 9
      },
      {
        "note": 42,
        "velocity": 60,
        "startTime": 48.5,
        "duration": 0.25,
        "channel": 9
      },
      {
        "note": 42,
        "velocity": 80,
        "startTime": 49,
        "duration": 0.25,
        "channel": 9
      },
      {
        "note": 42,
        "velocity": 60,
        "startTime": 49.5,
        "duration": 0.25,
        "channel": 9
      },
      {
        "note": 42,
        "velocity": 80,
        "startTime": 50,
        "duration": 0.25,
        "channel": 9
      },
      {
        "note": 42,
        "velocity": 60,
        "startTime": 50.5,
        "duration": 0.25,
        "channel": 9
      },
      {
        "note": 42,
        "velocity": 80,
        "startTime": 51,
        "duration": 0.25,
        "channel": 9
      },
      {
        "note": 42,
        "velocity": 60,
        "startTime": 51.5,
        "duration": 0.25,
        "channel": 9
      },
      {
        "note": 42,
        "velocity": 80,
        "startTime": 52,
        "duration": 0.25,
        "channel": 9
      },
      {
        "note": 42,
        "velocity": 60,
        "startTime": 52.5,
        "duration": 0.25,
        "channel": 9
      },
      {
        "note": 42,
        "velocity": 80,
        "startTime": 53,
        "duration": 0.25,
        "channel": 9
      },
      {
        "note": 42,
        "velocity": 60,
        "startTime": 53.5,
        "duration": 0.25,
        "channel": 9
      },
      {
        "note": 42,
        "velocity": 80,
        "startTime": 54,
        "duration": 0.25,
        "channel": 9
      },
      {
        "note": 42,
        "velocity": 60,
        "startTime": 54.5,
        "duration": 0.25,
        "channel": 9
      },
      {
        "note": 42,
        "velocity": 80,
        "startTime": 55,
        "duration": 0.25,
        "channel": 9
      },
      {
        "note": 42,
        "velocity": 60,
        "startTime": 55.5,
        "duration": 0.25,
        "channel": 9
      },
      {
        "note": 42,
        "velocity": 80,
        "startTime": 56,
        "duration": 0.25,
        "channel": 9
      },
      {
        "note": 42,
        "velocity": 60,
        "startTime": 56.5,
        "duration": 0.25,
        "channel": 9
      },
      {
        "note": 42,
        "velocity": 80,
        "startTime": 57,
        "duration": 0.25,
        "channel": 9
      },
      {
        "note": 42,
        "velocity": 60,
        "startTime": 57.5,
        "duration": 0.25,
        "channel": 9
      },
      {
        "note": 42,
        "velocity": 80,
        "startTime": 58,
        "duration": 0.25,
        "channel": 9
      },
      {
        "note": 42,
        "velocity": 60,
        "startTime": 58.5,
        "duration": 0.25,
        "channel": 9
      },
      {
        "note": 42,
        "velocity": 80,
        "startTime": 59,
        "duration": 0.25,
        "channel": 9
      },
      {
        "note": 42,
        "velocity": 60,
        "startTime": 59.5,
        "duration": 0.25,
        "channel": 9
      },
      {
        "note": 42,
        "velocity": 80,
        "startTime": 60,
        "duration": 0.25,
        "channel": 9
      },
      {
        "note": 42,
        "velocity": 60,
        "startTime": 60.5,
        "duration": 0.25,
        "channel": 9
      },
      {
        "note": 42,
        "velocity": 80,
        "startTime": 61,
        "duration": 0.25,
        "channel": 9
      },
      {
        "note": 42,
        "velocity": 60,
        "startTime": 61.5,
        "duration": 0.25,
        "channel": 9
      },
      {
        "note": 42,
        "velocity": 80,
        "startTime": 62,
        "duration": 0.25,
        "channel": 9
      },
      {
        "note": 42,
        "velocity": 60,
        "startTime": 62.5,
        "duration": 0.25,
        "channel": 9
      },
      {
        "note": 42,
        "velocity": 80,
        "startTime": 63,
        "duration": 0.25,
        "channel": 9
      },
      {
        "note": 42,
        "velocity": 60,
        "startTime": 63.5,
        "duration": 0.25,
        "channel": 9
      },
      {
        "note": 36,
        "velocity": 100,
        "startTime": 0,
        "duration": 1,
        "channel": 0
      },
      {
        "note": 36,
        "velocity": 100,
        "startTime": 2,
        "duration": 1,
        "channel": 0
      },
      {
        "note": 36,
        "velocity": 100,
        "startTime": 4,
        "duration": 1,
        "channel": 0
      },
      {
        "note": 36,
        "velocity": 100,
        "startTime": 6,
        "duration": 1,
        "channel": 0
      },
      {
        "note": 36,
        "velocity": 100,
        "startTime": 8,
        "duration": 1,
        "channel": 0
      },
      {
        "note": 36,
        "velocity": 100,
        "startTime": 10,
        "duration": 1,
        "channel": 0
      },
      {
        "note": 36,
        "velocity": 100,
        "startTime": 12,
        "duration": 1,
        "channel": 0
      },
      {
        "note": 36,
        "velocity": 100,
        "startTime": 14,
        "duration": 1,
        "channel": 0
      },
      {
        "note": 36,
        "velocity": 100,
        "startTime": 16,
        "duration": 1,
        "channel": 0
      },
      {
        "note": 36,
        "velocity": 100,
        "startTime": 18,
        "duration": 1,
        "channel": 0
      },
      {
        "note": 36,
        "velocity": 100,
        "startTime": 20,
        "duration": 1,
        "channel": 0
      },
      {
        "note": 36,
        "velocity": 100,
        "startTime": 22,
        "duration": 1,
        "channel": 0
      },
      {
        "note": 36,
        "velocity": 100,
        "startTime": 24,
        "duration": 1,
        "channel": 0
      },
      {
        "note": 36,
        "velocity": 100,
        "startTime": 26,
        "duration": 1,
        "channel": 0
      },
      {
        "note": 36,
        "velocity": 100,
        "startTime": 28,
        "duration": 1,
        "channel": 0
      },
      {
        "note": 36,
        "velocity": 100,
        "startTime": 30,
        "duration": 1,
        "channel": 0
      },
      {
        "note": 36,
        "velocity": 100,
        "startTime": 32,
        "duration": 1,
        "channel": 0
      },
      {
        "note": 36,
        "velocity": 100,
        "startTime": 34,
        "duration": 1,
        "channel": 0
      },
      {
        "note": 36,
        "velocity": 100,
        "startTime": 36,
        "duration": 1,
        "channel": 0
      },
      {
        "note": 36,
        "velocity": 100,
        "startTime": 38,
        "duration": 1,
        "channel": 0
      },
      {
        "note": 36,
        "velocity": 100,
        "startTime": 40,
        "duration": 1,
        "channel": 0
      },
      {
        "note": 36,
        "velocity": 100,
        "startTime": 42,
        "duration": 1,
        "channel": 0
      },
      {
        "note": 36,
        "velocity": 100,
        "startTime": 44,
        "duration": 1,
        "channel": 0
      },
      {
        "note": 36,
        "velocity": 100,
        "startTime": 46,
        "duration": 1,
        "channel": 0
      },
      {
        "note": 36,
        "velocity": 100,
        "startTime": 48,
        "duration": 1,
        "channel": 0
      },
      {
        "note": 36,
        "velocity": 100,
        "startTime": 50,
        "duration": 1,
        "channel": 0
      },
      {
        "note": 36,
        "velocity": 100,
        "startTime": 52,
        "duration": 1,
        "channel": 0
      },
      {
        "note": 36,
        "velocity": 100,
        "startTime": 54,
        "duration": 1,
        "channel": 0
      },
      {
        "note": 36,
        "velocity": 100,
        "startTime": 56,
        "duration": 1,
        "channel": 0
      },
      {
        "note": 36,
        "velocity": 100,
        "startTime": 58,
        "duration": 1,
        "channel": 0
      },
      {
        "note": 36,
        "velocity": 100,
        "startTime": 60,
        "duration": 1,
        "channel": 0
      },
      {
        "note": 36,
        "velocity": 100,
        "startTime": 62,
        "duration": 1,
        "channel": 0
      }
    ],
    "project_name": "DJ VOX SAMPLES",
    "project_path": "/Users/camilopineda/Desktop/SHINE DARK MIDI PARTY/Logic copy sep 2025/DJ VOX SAMPLES/DJ VOX SAMPLES.logicx",
    "extraction_date": "2025-09-05T23:38:35.387Z",
    "extraction_status": "generated_from_project_name"
  },
  {
    "id": "electronic-pattern",
    "name": "Electronic",
    "tempo": 120,
    "timeSignature": [
      4,
      4
    ],
    "length": 64,
    "loop": true,
    "notes": [
      {
        "note": 36,
        "velocity": 127,
        "startTime": 0,
        "duration": 0.5,
        "channel": 9
      },
      {
        "note": 36,
        "velocity": 100,
        "startTime": 2,
        "duration": 0.5,
        "channel": 9
      },
      {
        "note": 36,
        "velocity": 127,
        "startTime": 4,
        "duration": 0.5,
        "channel": 9
      },
      {
        "note": 36,
        "velocity": 100,
        "startTime": 6,
        "duration": 0.5,
        "channel": 9
      },
      {
        "note": 36,
        "velocity": 127,
        "startTime": 8,
        "duration": 0.5,
        "channel": 9
      },
      {
        "note": 36,
        "velocity": 100,
        "startTime": 10,
        "duration": 0.5,
        "channel": 9
      },
      {
        "note": 36,
        "velocity": 127,
        "startTime": 12,
        "duration": 0.5,
        "channel": 9
      },
      {
        "note": 36,
        "velocity": 100,
        "startTime": 14,
        "duration": 0.5,
        "channel": 9
      },
      {
        "note": 36,
        "velocity": 127,
        "startTime": 16,
        "duration": 0.5,
        "channel": 9
      },
      {
        "note": 36,
        "velocity": 100,
        "startTime": 18,
        "duration": 0.5,
        "channel": 9
      },
      {
        "note": 36,
        "velocity": 127,
        "startTime": 20,
        "duration": 0.5,
        "channel": 9
      },
      {
        "note": 36,
        "velocity": 100,
        "startTime": 22,
        "duration": 0.5,
        "channel": 9
      },
      {
        "note": 36,
        "velocity": 127,
        "startTime": 24,
        "duration": 0.5,
        "channel": 9
      },
      {
        "note": 36,
        "velocity": 100,
        "startTime": 26,
        "duration": 0.5,
        "channel": 9
      },
      {
        "note": 36,
        "velocity": 127,
        "startTime": 28,
        "duration": 0.5,
        "channel": 9
      },
      {
        "note": 36,
        "velocity": 100,
        "startTime": 30,
        "duration": 0.5,
        "channel": 9
      },
      {
        "note": 36,
        "velocity": 127,
        "startTime": 32,
        "duration": 0.5,
        "channel": 9
      },
      {
        "note": 36,
        "velocity": 100,
        "startTime": 34,
        "duration": 0.5,
        "channel": 9
      },
      {
        "note": 36,
        "velocity": 127,
        "startTime": 36,
        "duration": 0.5,
        "channel": 9
      },
      {
        "note": 36,
        "velocity": 100,
        "startTime": 38,
        "duration": 0.5,
        "channel": 9
      },
      {
        "note": 36,
        "velocity": 127,
        "startTime": 40,
        "duration": 0.5,
        "channel": 9
      },
      {
        "note": 36,
        "velocity": 100,
        "startTime": 42,
        "duration": 0.5,
        "channel": 9
      },
      {
        "note": 36,
        "velocity": 127,
        "startTime": 44,
        "duration": 0.5,
        "channel": 9
      },
      {
        "note": 36,
        "velocity": 100,
        "startTime": 46,
        "duration": 0.5,
        "channel": 9
      },
      {
        "note": 36,
        "velocity": 127,
        "startTime": 48,
        "duration": 0.5,
        "channel": 9
      },
      {
        "note": 36,
        "velocity": 100,
        "startTime": 50,
        "duration": 0.5,
        "channel": 9
      },
      {
        "note": 36,
        "velocity": 127,
        "startTime": 52,
        "duration": 0.5,
        "channel": 9
      },
      {
        "note": 36,
        "velocity": 100,
        "startTime": 54,
        "duration": 0.5,
        "channel": 9
      },
      {
        "note": 36,
        "velocity": 127,
        "startTime": 56,
        "duration": 0.5,
        "channel": 9
      },
      {
        "note": 36,
        "velocity": 100,
        "startTime": 58,
        "duration": 0.5,
        "channel": 9
      },
      {
        "note": 36,
        "velocity": 127,
        "startTime": 60,
        "duration": 0.5,
        "channel": 9
      },
      {
        "note": 36,
        "velocity": 100,
        "startTime": 62,
        "duration": 0.5,
        "channel": 9
      },
      {
        "note": 38,
        "velocity": 100,
        "startTime": 1,
        "duration": 0.5,
        "channel": 9
      },
      {
        "note": 38,
        "velocity": 100,
        "startTime": 3,
        "duration": 0.5,
        "channel": 9
      },
      {
        "note": 38,
        "velocity": 100,
        "startTime": 5,
        "duration": 0.5,
        "channel": 9
      },
      {
        "note": 38,
        "velocity": 100,
        "startTime": 7,
        "duration": 0.5,
        "channel": 9
      },
      {
        "note": 38,
        "velocity": 100,
        "startTime": 9,
        "duration": 0.5,
        "channel": 9
      },
      {
        "note": 38,
        "velocity": 100,
        "startTime": 11,
        "duration": 0.5,
        "channel": 9
      },
      {
        "note": 38,
        "velocity": 100,
        "startTime": 13,
        "duration": 0.5,
        "channel": 9
      },
      {
        "note": 38,
        "velocity": 100,
        "startTime": 15,
        "duration": 0.5,
        "channel": 9
      },
      {
        "note": 38,
        "velocity": 100,
        "startTime": 17,
        "duration": 0.5,
        "channel": 9
      },
      {
        "note": 38,
        "velocity": 100,
        "startTime": 19,
        "duration": 0.5,
        "channel": 9
      },
      {
        "note": 38,
        "velocity": 100,
        "startTime": 21,
        "duration": 0.5,
        "channel": 9
      },
      {
        "note": 38,
        "velocity": 100,
        "startTime": 23,
        "duration": 0.5,
        "channel": 9
      },
      {
        "note": 38,
        "velocity": 100,
        "startTime": 25,
        "duration": 0.5,
        "channel": 9
      },
      {
        "note": 38,
        "velocity": 100,
        "startTime": 27,
        "duration": 0.5,
        "channel": 9
      },
      {
        "note": 38,
        "velocity": 100,
        "startTime": 29,
        "duration": 0.5,
        "channel": 9
      },
      {
        "note": 38,
        "velocity": 100,
        "startTime": 31,
        "duration": 0.5,
        "channel": 9
      },
      {
        "note": 38,
        "velocity": 100,
        "startTime": 33,
        "duration": 0.5,
        "channel": 9
      },
      {
        "note": 38,
        "velocity": 100,
        "startTime": 35,
        "duration": 0.5,
        "channel": 9
      },
      {
        "note": 38,
        "velocity": 100,
        "startTime": 37,
        "duration": 0.5,
        "channel": 9
      },
      {
        "note": 38,
        "velocity": 100,
        "startTime": 39,
        "duration": 0.5,
        "channel": 9
      },
      {
        "note": 38,
        "velocity": 100,
        "startTime": 41,
        "duration": 0.5,
        "channel": 9
      },
      {
        "note": 38,
        "velocity": 100,
        "startTime": 43,
        "duration": 0.5,
        "channel": 9
      },
      {
        "note": 38,
        "velocity": 100,
        "startTime": 45,
        "duration": 0.5,
        "channel": 9
      },
      {
        "note": 38,
        "velocity": 100,
        "startTime": 47,
        "duration": 0.5,
        "channel": 9
      },
      {
        "note": 38,
        "velocity": 100,
        "startTime": 49,
        "duration": 0.5,
        "channel": 9
      },
      {
        "note": 38,
        "velocity": 100,
        "startTime": 51,
        "duration": 0.5,
        "channel": 9
      },
      {
        "note": 38,
        "velocity": 100,
        "startTime": 53,
        "duration": 0.5,
        "channel": 9
      },
      {
        "note": 38,
        "velocity": 100,
        "startTime": 55,
        "duration": 0.5,
        "channel": 9
      },
      {
        "note": 38,
        "velocity": 100,
        "startTime": 57,
        "duration": 0.5,
        "channel": 9
      },
      {
        "note": 38,
        "velocity": 100,
        "startTime": 59,
        "duration": 0.5,
        "channel": 9
      },
      {
        "note": 38,
        "velocity": 100,
        "startTime": 61,
        "duration": 0.5,
        "channel": 9
      },
      {
        "note": 38,
        "velocity": 100,
        "startTime": 63,
        "duration": 0.5,
        "channel": 9
      },
      {
        "note": 42,
        "velocity": 80,
        "startTime": 0,
        "duration": 0.25,
        "channel": 9
      },
      {
        "note": 42,
        "velocity": 60,
        "startTime": 0.5,
        "duration": 0.25,
        "channel": 9
      },
      {
        "note": 42,
        "velocity": 80,
        "startTime": 1,
        "duration": 0.25,
        "channel": 9
      },
      {
        "note": 42,
        "velocity": 60,
        "startTime": 1.5,
        "duration": 0.25,
        "channel": 9
      },
      {
        "note": 42,
        "velocity": 80,
        "startTime": 2,
        "duration": 0.25,
        "channel": 9
      },
      {
        "note": 42,
        "velocity": 60,
        "startTime": 2.5,
        "duration": 0.25,
        "channel": 9
      },
      {
        "note": 42,
        "velocity": 80,
        "startTime": 3,
        "duration": 0.25,
        "channel": 9
      },
      {
        "note": 42,
        "velocity": 60,
        "startTime": 3.5,
        "duration": 0.25,
        "channel": 9
      },
      {
        "note": 42,
        "velocity": 80,
        "startTime": 4,
        "duration": 0.25,
        "channel": 9
      },
      {
        "note": 42,
        "velocity": 60,
        "startTime": 4.5,
        "duration": 0.25,
        "channel": 9
      },
      {
        "note": 42,
        "velocity": 80,
        "startTime": 5,
        "duration": 0.25,
        "channel": 9
      },
      {
        "note": 42,
        "velocity": 60,
        "startTime": 5.5,
        "duration": 0.25,
        "channel": 9
      },
      {
        "note": 42,
        "velocity": 80,
        "startTime": 6,
        "duration": 0.25,
        "channel": 9
      },
      {
        "note": 42,
        "velocity": 60,
        "startTime": 6.5,
        "duration": 0.25,
        "channel": 9
      },
      {
        "note": 42,
        "velocity": 80,
        "startTime": 7,
        "duration": 0.25,
        "channel": 9
      },
      {
        "note": 42,
        "velocity": 60,
        "startTime": 7.5,
        "duration": 0.25,
        "channel": 9
      },
      {
        "note": 42,
        "velocity": 80,
        "startTime": 8,
        "duration": 0.25,
        "channel": 9
      },
      {
        "note": 42,
        "velocity": 60,
        "startTime": 8.5,
        "duration": 0.25,
        "channel": 9
      },
      {
        "note": 42,
        "velocity": 80,
        "startTime": 9,
        "duration": 0.25,
        "channel": 9
      },
      {
        "note": 42,
        "velocity": 60,
        "startTime": 9.5,
        "duration": 0.25,
        "channel": 9
      },
      {
        "note": 42,
        "velocity": 80,
        "startTime": 10,
        "duration": 0.25,
        "channel": 9
      },
      {
        "note": 42,
        "velocity": 60,
        "startTime": 10.5,
        "duration": 0.25,
        "channel": 9
      },
      {
        "note": 42,
        "velocity": 80,
        "startTime": 11,
        "duration": 0.25,
        "channel": 9
      },
      {
        "note": 42,
        "velocity": 60,
        "startTime": 11.5,
        "duration": 0.25,
        "channel": 9
      },
      {
        "note": 42,
        "velocity": 80,
        "startTime": 12,
        "duration": 0.25,
        "channel": 9
      },
      {
        "note": 42,
        "velocity": 60,
        "startTime": 12.5,
        "duration": 0.25,
        "channel": 9
      },
      {
        "note": 42,
        "velocity": 80,
        "startTime": 13,
        "duration": 0.25,
        "channel": 9
      },
      {
        "note": 42,
        "velocity": 60,
        "startTime": 13.5,
        "duration": 0.25,
        "channel": 9
      },
      {
        "note": 42,
        "velocity": 80,
        "startTime": 14,
        "duration": 0.25,
        "channel": 9
      },
      {
        "note": 42,
        "velocity": 60,
        "startTime": 14.5,
        "duration": 0.25,
        "channel": 9
      },
      {
        "note": 42,
        "velocity": 80,
        "startTime": 15,
        "duration": 0.25,
        "channel": 9
      },
      {
        "note": 42,
        "velocity": 60,
        "startTime": 15.5,
        "duration": 0.25,
        "channel": 9
      },
      {
        "note": 42,
        "velocity": 80,
        "startTime": 16,
        "duration": 0.25,
        "channel": 9
      },
      {
        "note": 42,
        "velocity": 60,
        "startTime": 16.5,
        "duration": 0.25,
        "channel": 9
      },
      {
        "note": 42,
        "velocity": 80,
        "startTime": 17,
        "duration": 0.25,
        "channel": 9
      },
      {
        "note": 42,
        "velocity": 60,
        "startTime": 17.5,
        "duration": 0.25,
        "channel": 9
      },
      {
        "note": 42,
        "velocity": 80,
        "startTime": 18,
        "duration": 0.25,
        "channel": 9
      },
      {
        "note": 42,
        "velocity": 60,
        "startTime": 18.5,
        "duration": 0.25,
        "channel": 9
      },
      {
        "note": 42,
        "velocity": 80,
        "startTime": 19,
        "duration": 0.25,
        "channel": 9
      },
      {
        "note": 42,
        "velocity": 60,
        "startTime": 19.5,
        "duration": 0.25,
        "channel": 9
      },
      {
        "note": 42,
        "velocity": 80,
        "startTime": 20,
        "duration": 0.25,
        "channel": 9
      },
      {
        "note": 42,
        "velocity": 60,
        "startTime": 20.5,
        "duration": 0.25,
        "channel": 9
      },
      {
        "note": 42,
        "velocity": 80,
        "startTime": 21,
        "duration": 0.25,
        "channel": 9
      },
      {
        "note": 42,
        "velocity": 60,
        "startTime": 21.5,
        "duration": 0.25,
        "channel": 9
      },
      {
        "note": 42,
        "velocity": 80,
        "startTime": 22,
        "duration": 0.25,
        "channel": 9
      },
      {
        "note": 42,
        "velocity": 60,
        "startTime": 22.5,
        "duration": 0.25,
        "channel": 9
      },
      {
        "note": 42,
        "velocity": 80,
        "startTime": 23,
        "duration": 0.25,
        "channel": 9
      },
      {
        "note": 42,
        "velocity": 60,
        "startTime": 23.5,
        "duration": 0.25,
        "channel": 9
      },
      {
        "note": 42,
        "velocity": 80,
        "startTime": 24,
        "duration": 0.25,
        "channel": 9
      },
      {
        "note": 42,
        "velocity": 60,
        "startTime": 24.5,
        "duration": 0.25,
        "channel": 9
      },
      {
        "note": 42,
        "velocity": 80,
        "startTime": 25,
        "duration": 0.25,
        "channel": 9
      },
      {
        "note": 42,
        "velocity": 60,
        "startTime": 25.5,
        "duration": 0.25,
        "channel": 9
      },
      {
        "note": 42,
        "velocity": 80,
        "startTime": 26,
        "duration": 0.25,
        "channel": 9
      },
      {
        "note": 42,
        "velocity": 60,
        "startTime": 26.5,
        "duration": 0.25,
        "channel": 9
      },
      {
        "note": 42,
        "velocity": 80,
        "startTime": 27,
        "duration": 0.25,
        "channel": 9
      },
      {
        "note": 42,
        "velocity": 60,
        "startTime": 27.5,
        "duration": 0.25,
        "channel": 9
      },
      {
        "note": 42,
        "velocity": 80,
        "startTime": 28,
        "duration": 0.25,
        "channel": 9
      },
      {
        "note": 42,
        "velocity": 60,
        "startTime": 28.5,
        "duration": 0.25,
        "channel": 9
      },
      {
        "note": 42,
        "velocity": 80,
        "startTime": 29,
        "duration": 0.25,
        "channel": 9
      },
      {
        "note": 42,
        "velocity": 60,
        "startTime": 29.5,
        "duration": 0.25,
        "channel": 9
      },
      {
        "note": 42,
        "velocity": 80,
        "startTime": 30,
        "duration": 0.25,
        "channel": 9
      },
      {
        "note": 42,
        "velocity": 60,
        "startTime": 30.5,
        "duration": 0.25,
        "channel": 9
      },
      {
        "note": 42,
        "velocity": 80,
        "startTime": 31,
        "duration": 0.25,
        "channel": 9
      },
      {
        "note": 42,
        "velocity": 60,
        "startTime": 31.5,
        "duration": 0.25,
        "channel": 9
      },
      {
        "note": 42,
        "velocity": 80,
        "startTime": 32,
        "duration": 0.25,
        "channel": 9
      },
      {
        "note": 42,
        "velocity": 60,
        "startTime": 32.5,
        "duration": 0.25,
        "channel": 9
      },
      {
        "note": 42,
        "velocity": 80,
        "startTime": 33,
        "duration": 0.25,
        "channel": 9
      },
      {
        "note": 42,
        "velocity": 60,
        "startTime": 33.5,
        "duration": 0.25,
        "channel": 9
      },
      {
        "note": 42,
        "velocity": 80,
        "startTime": 34,
        "duration": 0.25,
        "channel": 9
      },
      {
        "note": 42,
        "velocity": 60,
        "startTime": 34.5,
        "duration": 0.25,
        "channel": 9
      },
      {
        "note": 42,
        "velocity": 80,
        "startTime": 35,
        "duration": 0.25,
        "channel": 9
      },
      {
        "note": 42,
        "velocity": 60,
        "startTime": 35.5,
        "duration": 0.25,
        "channel": 9
      },
      {
        "note": 42,
        "velocity": 80,
        "startTime": 36,
        "duration": 0.25,
        "channel": 9
      },
      {
        "note": 42,
        "velocity": 60,
        "startTime": 36.5,
        "duration": 0.25,
        "channel": 9
      },
      {
        "note": 42,
        "velocity": 80,
        "startTime": 37,
        "duration": 0.25,
        "channel": 9
      },
      {
        "note": 42,
        "velocity": 60,
        "startTime": 37.5,
        "duration": 0.25,
        "channel": 9
      },
      {
        "note": 42,
        "velocity": 80,
        "startTime": 38,
        "duration": 0.25,
        "channel": 9
      },
      {
        "note": 42,
        "velocity": 60,
        "startTime": 38.5,
        "duration": 0.25,
        "channel": 9
      },
      {
        "note": 42,
        "velocity": 80,
        "startTime": 39,
        "duration": 0.25,
        "channel": 9
      },
      {
        "note": 42,
        "velocity": 60,
        "startTime": 39.5,
        "duration": 0.25,
        "channel": 9
      },
      {
        "note": 42,
        "velocity": 80,
        "startTime": 40,
        "duration": 0.25,
        "channel": 9
      },
      {
        "note": 42,
        "velocity": 60,
        "startTime": 40.5,
        "duration": 0.25,
        "channel": 9
      },
      {
        "note": 42,
        "velocity": 80,
        "startTime": 41,
        "duration": 0.25,
        "channel": 9
      },
      {
        "note": 42,
        "velocity": 60,
        "startTime": 41.5,
        "duration": 0.25,
        "channel": 9
      },
      {
        "note": 42,
        "velocity": 80,
        "startTime": 42,
        "duration": 0.25,
        "channel": 9
      },
      {
        "note": 42,
        "velocity": 60,
        "startTime": 42.5,
        "duration": 0.25,
        "channel": 9
      },
      {
        "note": 42,
        "velocity": 80,
        "startTime": 43,
        "duration": 0.25,
        "channel": 9
      },
      {
        "note": 42,
        "velocity": 60,
        "startTime": 43.5,
        "duration": 0.25,
        "channel": 9
      },
      {
        "note": 42,
        "velocity": 80,
        "startTime": 44,
        "duration": 0.25,
        "channel": 9
      },
      {
        "note": 42,
        "velocity": 60,
        "startTime": 44.5,
        "duration": 0.25,
        "channel": 9
      },
      {
        "note": 42,
        "velocity": 80,
        "startTime": 45,
        "duration": 0.25,
        "channel": 9
      },
      {
        "note": 42,
        "velocity": 60,
        "startTime": 45.5,
        "duration": 0.25,
        "channel": 9
      },
      {
        "note": 42,
        "velocity": 80,
        "startTime": 46,
        "duration": 0.25,
        "channel": 9
      },
      {
        "note": 42,
        "velocity": 60,
        "startTime": 46.5,
        "duration": 0.25,
        "channel": 9
      },
      {
        "note": 42,
        "velocity": 80,
        "startTime": 47,
        "duration": 0.25,
        "channel": 9
      },
      {
        "note": 42,
        "velocity": 60,
        "startTime": 47.5,
        "duration": 0.25,
        "channel": 9
      },
      {
        "note": 42,
        "velocity": 80,
        "startTime": 48,
        "duration": 0.25,
        "channel": 9
      },
      {
        "note": 42,
        "velocity": 60,
        "startTime": 48.5,
        "duration": 0.25,
        "channel": 9
      },
      {
        "note": 42,
        "velocity": 80,
        "startTime": 49,
        "duration": 0.25,
        "channel": 9
      },
      {
        "note": 42,
        "velocity": 60,
        "startTime": 49.5,
        "duration": 0.25,
        "channel": 9
      },
      {
        "note": 42,
        "velocity": 80,
        "startTime": 50,
        "duration": 0.25,
        "channel": 9
      },
      {
        "note": 42,
        "velocity": 60,
        "startTime": 50.5,
        "duration": 0.25,
        "channel": 9
      },
      {
        "note": 42,
        "velocity": 80,
        "startTime": 51,
        "duration": 0.25,
        "channel": 9
      },
      {
        "note": 42,
        "velocity": 60,
        "startTime": 51.5,
        "duration": 0.25,
        "channel": 9
      },
      {
        "note": 42,
        "velocity": 80,
        "startTime": 52,
        "duration": 0.25,
        "channel": 9
      },
      {
        "note": 42,
        "velocity": 60,
        "startTime": 52.5,
        "duration": 0.25,
        "channel": 9
      },
      {
        "note": 42,
        "velocity": 80,
        "startTime": 53,
        "duration": 0.25,
        "channel": 9
      },
      {
        "note": 42,
        "velocity": 60,
        "startTime": 53.5,
        "duration": 0.25,
        "channel": 9
      },
      {
        "note": 42,
        "velocity": 80,
        "startTime": 54,
        "duration": 0.25,
        "channel": 9
      },
      {
        "note": 42,
        "velocity": 60,
        "startTime": 54.5,
        "duration": 0.25,
        "channel": 9
      },
      {
        "note": 42,
        "velocity": 80,
        "startTime": 55,
        "duration": 0.25,
        "channel": 9
      },
      {
        "note": 42,
        "velocity": 60,
        "startTime": 55.5,
        "duration": 0.25,
        "channel": 9
      },
      {
        "note": 42,
        "velocity": 80,
        "startTime": 56,
        "duration": 0.25,
        "channel": 9
      },
      {
        "note": 42,
        "velocity": 60,
        "startTime": 56.5,
        "duration": 0.25,
        "channel": 9
      },
      {
        "note": 42,
        "velocity": 80,
        "startTime": 57,
        "duration": 0.25,
        "channel": 9
      },
      {
        "note": 42,
        "velocity": 60,
        "startTime": 57.5,
        "duration": 0.25,
        "channel": 9
      },
      {
        "note": 42,
        "velocity": 80,
        "startTime": 58,
        "duration": 0.25,
        "channel": 9
      },
      {
        "note": 42,
        "velocity": 60,
        "startTime": 58.5,
        "duration": 0.25,
        "channel": 9
      },
      {
        "note": 42,
        "velocity": 80,
        "startTime": 59,
        "duration": 0.25,
        "channel": 9
      },
      {
        "note": 42,
        "velocity": 60,
        "startTime": 59.5,
        "duration": 0.25,
        "channel": 9
      },
      {
        "note": 42,
        "velocity": 80,
        "startTime": 60,
        "duration": 0.25,
        "channel": 9
      },
      {
        "note": 42,
        "velocity": 60,
        "startTime": 60.5,
        "duration": 0.25,
        "channel": 9
      },
      {
        "note": 42,
        "velocity": 80,
        "startTime": 61,
        "duration": 0.25,
        "channel": 9
      },
      {
        "note": 42,
        "velocity": 60,
        "startTime": 61.5,
        "duration": 0.25,
        "channel": 9
      },
      {
        "note": 42,
        "velocity": 80,
        "startTime": 62,
        "duration": 0.25,
        "channel": 9
      },
      {
        "note": 42,
        "velocity": 60,
        "startTime": 62.5,
        "duration": 0.25,
        "channel": 9
      },
      {
        "note": 42,
        "velocity": 80,
        "startTime": 63,
        "duration": 0.25,
        "channel": 9
      },
      {
        "note": 42,
        "velocity": 60,
        "startTime": 63.5,
        "duration": 0.25,
        "channel": 9
      },
      {
        "note": 36,
        "velocity": 100,
        "startTime": 0,
        "duration": 1,
        "channel": 0
      },
      {
        "note": 36,
        "velocity": 100,
        "startTime": 2,
        "duration": 1,
        "channel": 0
      },
      {
        "note": 36,
        "velocity": 100,
        "startTime": 4,
        "duration": 1,
        "channel": 0
      },
      {
        "note": 36,
        "velocity": 100,
        "startTime": 6,
        "duration": 1,
        "channel": 0
      },
      {
        "note": 36,
        "velocity": 100,
        "startTime": 8,
        "duration": 1,
        "channel": 0
      },
      {
        "note": 36,
        "velocity": 100,
        "startTime": 10,
        "duration": 1,
        "channel": 0
      },
      {
        "note": 36,
        "velocity": 100,
        "startTime": 12,
        "duration": 1,
        "channel": 0
      },
      {
        "note": 36,
        "velocity": 100,
        "startTime": 14,
        "duration": 1,
        "channel": 0
      },
      {
        "note": 36,
        "velocity": 100,
        "startTime": 16,
        "duration": 1,
        "channel": 0
      },
      {
        "note": 36,
        "velocity": 100,
        "startTime": 18,
        "duration": 1,
        "channel": 0
      },
      {
        "note": 36,
        "velocity": 100,
        "startTime": 20,
        "duration": 1,
        "channel": 0
      },
      {
        "note": 36,
        "velocity": 100,
        "startTime": 22,
        "duration": 1,
        "channel": 0
      },
      {
        "note": 36,
        "velocity": 100,
        "startTime": 24,
        "duration": 1,
        "channel": 0
      },
      {
        "note": 36,
        "velocity": 100,
        "startTime": 26,
        "duration": 1,
        "channel": 0
      },
      {
        "note": 36,
        "velocity": 100,
        "startTime": 28,
        "duration": 1,
        "channel": 0
      },
      {
        "note": 36,
        "velocity": 100,
        "startTime": 30,
        "duration": 1,
        "channel": 0
      },
      {
        "note": 36,
        "velocity": 100,
        "startTime": 32,
        "duration": 1,
        "channel": 0
      },
      {
        "note": 36,
        "velocity": 100,
        "startTime": 34,
        "duration": 1,
        "channel": 0
      },
      {
        "note": 36,
        "velocity": 100,
        "startTime": 36,
        "duration": 1,
        "channel": 0
      },
      {
        "note": 36,
        "velocity": 100,
        "startTime": 38,
        "duration": 1,
        "channel": 0
      },
      {
        "note": 36,
        "velocity": 100,
        "startTime": 40,
        "duration": 1,
        "channel": 0
      },
      {
        "note": 36,
        "velocity": 100,
        "startTime": 42,
        "duration": 1,
        "channel": 0
      },
      {
        "note": 36,
        "velocity": 100,
        "startTime": 44,
        "duration": 1,
        "channel": 0
      },
      {
        "note": 36,
        "velocity": 100,
        "startTime": 46,
        "duration": 1,
        "channel": 0
      },
      {
        "note": 36,
        "velocity": 100,
        "startTime": 48,
        "duration": 1,
        "channel": 0
      },
      {
        "note": 36,
        "velocity": 100,
        "startTime": 50,
        "duration": 1,
        "channel": 0
      },
      {
        "note": 36,
        "velocity": 100,
        "startTime": 52,
        "duration": 1,
        "channel": 0
      },
      {
        "note": 36,
        "velocity": 100,
        "startTime": 54,
        "duration": 1,
        "channel": 0
      },
      {
        "note": 36,
        "velocity": 100,
        "startTime": 56,
        "duration": 1,
        "channel": 0
      },
      {
        "note": 36,
        "velocity": 100,
        "startTime": 58,
        "duration": 1,
        "channel": 0
      },
      {
        "note": 36,
        "velocity": 100,
        "startTime": 60,
        "duration": 1,
        "channel": 0
      },
      {
        "note": 36,
        "velocity": 100,
        "startTime": 62,
        "duration": 1,
        "channel": 0
      }
    ],
    "project_name": "EXTREMMOO DURO SALIR",
    "project_path": "/Users/camilopineda/Desktop/SHINE DARK MIDI PARTY/Logic copy sep 2025/EXTREMMOO DURO SALIR/EXTREMMOO DURO SALIR.logicx",
    "extraction_date": "2025-09-05T23:38:35.387Z",
    "extraction_status": "generated_from_project_name"
  },
  {
    "id": "electronic-pattern",
    "name": "Electronic",
    "tempo": 120,
    "timeSignature": [
      4,
      4
    ],
    "length": 64,
    "loop": true,
    "notes": [
      {
        "note": 36,
        "velocity": 127,
        "startTime": 0,
        "duration": 0.5,
        "channel": 9
      },
      {
        "note": 36,
        "velocity": 100,
        "startTime": 2,
        "duration": 0.5,
        "channel": 9
      },
      {
        "note": 36,
        "velocity": 127,
        "startTime": 4,
        "duration": 0.5,
        "channel": 9
      },
      {
        "note": 36,
        "velocity": 100,
        "startTime": 6,
        "duration": 0.5,
        "channel": 9
      },
      {
        "note": 36,
        "velocity": 127,
        "startTime": 8,
        "duration": 0.5,
        "channel": 9
      },
      {
        "note": 36,
        "velocity": 100,
        "startTime": 10,
        "duration": 0.5,
        "channel": 9
      },
      {
        "note": 36,
        "velocity": 127,
        "startTime": 12,
        "duration": 0.5,
        "channel": 9
      },
      {
        "note": 36,
        "velocity": 100,
        "startTime": 14,
        "duration": 0.5,
        "channel": 9
      },
      {
        "note": 36,
        "velocity": 127,
        "startTime": 16,
        "duration": 0.5,
        "channel": 9
      },
      {
        "note": 36,
        "velocity": 100,
        "startTime": 18,
        "duration": 0.5,
        "channel": 9
      },
      {
        "note": 36,
        "velocity": 127,
        "startTime": 20,
        "duration": 0.5,
        "channel": 9
      },
      {
        "note": 36,
        "velocity": 100,
        "startTime": 22,
        "duration": 0.5,
        "channel": 9
      },
      {
        "note": 36,
        "velocity": 127,
        "startTime": 24,
        "duration": 0.5,
        "channel": 9
      },
      {
        "note": 36,
        "velocity": 100,
        "startTime": 26,
        "duration": 0.5,
        "channel": 9
      },
      {
        "note": 36,
        "velocity": 127,
        "startTime": 28,
        "duration": 0.5,
        "channel": 9
      },
      {
        "note": 36,
        "velocity": 100,
        "startTime": 30,
        "duration": 0.5,
        "channel": 9
      },
      {
        "note": 36,
        "velocity": 127,
        "startTime": 32,
        "duration": 0.5,
        "channel": 9
      },
      {
        "note": 36,
        "velocity": 100,
        "startTime": 34,
        "duration": 0.5,
        "channel": 9
      },
      {
        "note": 36,
        "velocity": 127,
        "startTime": 36,
        "duration": 0.5,
        "channel": 9
      },
      {
        "note": 36,
        "velocity": 100,
        "startTime": 38,
        "duration": 0.5,
        "channel": 9
      },
      {
        "note": 36,
        "velocity": 127,
        "startTime": 40,
        "duration": 0.5,
        "channel": 9
      },
      {
        "note": 36,
        "velocity": 100,
        "startTime": 42,
        "duration": 0.5,
        "channel": 9
      },
      {
        "note": 36,
        "velocity": 127,
        "startTime": 44,
        "duration": 0.5,
        "channel": 9
      },
      {
        "note": 36,
        "velocity": 100,
        "startTime": 46,
        "duration": 0.5,
        "channel": 9
      },
      {
        "note": 36,
        "velocity": 127,
        "startTime": 48,
        "duration": 0.5,
        "channel": 9
      },
      {
        "note": 36,
        "velocity": 100,
        "startTime": 50,
        "duration": 0.5,
        "channel": 9
      },
      {
        "note": 36,
        "velocity": 127,
        "startTime": 52,
        "duration": 0.5,
        "channel": 9
      },
      {
        "note": 36,
        "velocity": 100,
        "startTime": 54,
        "duration": 0.5,
        "channel": 9
      },
      {
        "note": 36,
        "velocity": 127,
        "startTime": 56,
        "duration": 0.5,
        "channel": 9
      },
      {
        "note": 36,
        "velocity": 100,
        "startTime": 58,
        "duration": 0.5,
        "channel": 9
      },
      {
        "note": 36,
        "velocity": 127,
        "startTime": 60,
        "duration": 0.5,
        "channel": 9
      },
      {
        "note": 36,
        "velocity": 100,
        "startTime": 62,
        "duration": 0.5,
        "channel": 9
      },
      {
        "note": 38,
        "velocity": 100,
        "startTime": 1,
        "duration": 0.5,
        "channel": 9
      },
      {
        "note": 38,
        "velocity": 100,
        "startTime": 3,
        "duration": 0.5,
        "channel": 9
      },
      {
        "note": 38,
        "velocity": 100,
        "startTime": 5,
        "duration": 0.5,
        "channel": 9
      },
      {
        "note": 38,
        "velocity": 100,
        "startTime": 7,
        "duration": 0.5,
        "channel": 9
      },
      {
        "note": 38,
        "velocity": 100,
        "startTime": 9,
        "duration": 0.5,
        "channel": 9
      },
      {
        "note": 38,
        "velocity": 100,
        "startTime": 11,
        "duration": 0.5,
        "channel": 9
      },
      {
        "note": 38,
        "velocity": 100,
        "startTime": 13,
        "duration": 0.5,
        "channel": 9
      },
      {
        "note": 38,
        "velocity": 100,
        "startTime": 15,
        "duration": 0.5,
        "channel": 9
      },
      {
        "note": 38,
        "velocity": 100,
        "startTime": 17,
        "duration": 0.5,
        "channel": 9
      },
      {
        "note": 38,
        "velocity": 100,
        "startTime": 19,
        "duration": 0.5,
        "channel": 9
      },
      {
        "note": 38,
        "velocity": 100,
        "startTime": 21,
        "duration": 0.5,
        "channel": 9
      },
      {
        "note": 38,
        "velocity": 100,
        "startTime": 23,
        "duration": 0.5,
        "channel": 9
      },
      {
        "note": 38,
        "velocity": 100,
        "startTime": 25,
        "duration": 0.5,
        "channel": 9
      },
      {
        "note": 38,
        "velocity": 100,
        "startTime": 27,
        "duration": 0.5,
        "channel": 9
      },
      {
        "note": 38,
        "velocity": 100,
        "startTime": 29,
        "duration": 0.5,
        "channel": 9
      },
      {
        "note": 38,
        "velocity": 100,
        "startTime": 31,
        "duration": 0.5,
        "channel": 9
      },
      {
        "note": 38,
        "velocity": 100,
        "startTime": 33,
        "duration": 0.5,
        "channel": 9
      },
      {
        "note": 38,
        "velocity": 100,
        "startTime": 35,
        "duration": 0.5,
        "channel": 9
      },
      {
        "note": 38,
        "velocity": 100,
        "startTime": 37,
        "duration": 0.5,
        "channel": 9
      },
      {
        "note": 38,
        "velocity": 100,
        "startTime": 39,
        "duration": 0.5,
        "channel": 9
      },
      {
        "note": 38,
        "velocity": 100,
        "startTime": 41,
        "duration": 0.5,
        "channel": 9
      },
      {
        "note": 38,
        "velocity": 100,
        "startTime": 43,
        "duration": 0.5,
        "channel": 9
      },
      {
        "note": 38,
        "velocity": 100,
        "startTime": 45,
        "duration": 0.5,
        "channel": 9
      },
      {
        "note": 38,
        "velocity": 100,
        "startTime": 47,
        "duration": 0.5,
        "channel": 9
      },
      {
        "note": 38,
        "velocity": 100,
        "startTime": 49,
        "duration": 0.5,
        "channel": 9
      },
      {
        "note": 38,
        "velocity": 100,
        "startTime": 51,
        "duration": 0.5,
        "channel": 9
      },
      {
        "note": 38,
        "velocity": 100,
        "startTime": 53,
        "duration": 0.5,
        "channel": 9
      },
      {
        "note": 38,
        "velocity": 100,
        "startTime": 55,
        "duration": 0.5,
        "channel": 9
      },
      {
        "note": 38,
        "velocity": 100,
        "startTime": 57,
        "duration": 0.5,
        "channel": 9
      },
      {
        "note": 38,
        "velocity": 100,
        "startTime": 59,
        "duration": 0.5,
        "channel": 9
      },
      {
        "note": 38,
        "velocity": 100,
        "startTime": 61,
        "duration": 0.5,
        "channel": 9
      },
      {
        "note": 38,
        "velocity": 100,
        "startTime": 63,
        "duration": 0.5,
        "channel": 9
      },
      {
        "note": 42,
        "velocity": 80,
        "startTime": 0,
        "duration": 0.25,
        "channel": 9
      },
      {
        "note": 42,
        "velocity": 60,
        "startTime": 0.5,
        "duration": 0.25,
        "channel": 9
      },
      {
        "note": 42,
        "velocity": 80,
        "startTime": 1,
        "duration": 0.25,
        "channel": 9
      },
      {
        "note": 42,
        "velocity": 60,
        "startTime": 1.5,
        "duration": 0.25,
        "channel": 9
      },
      {
        "note": 42,
        "velocity": 80,
        "startTime": 2,
        "duration": 0.25,
        "channel": 9
      },
      {
        "note": 42,
        "velocity": 60,
        "startTime": 2.5,
        "duration": 0.25,
        "channel": 9
      },
      {
        "note": 42,
        "velocity": 80,
        "startTime": 3,
        "duration": 0.25,
        "channel": 9
      },
      {
        "note": 42,
        "velocity": 60,
        "startTime": 3.5,
        "duration": 0.25,
        "channel": 9
      },
      {
        "note": 42,
        "velocity": 80,
        "startTime": 4,
        "duration": 0.25,
        "channel": 9
      },
      {
        "note": 42,
        "velocity": 60,
        "startTime": 4.5,
        "duration": 0.25,
        "channel": 9
      },
      {
        "note": 42,
        "velocity": 80,
        "startTime": 5,
        "duration": 0.25,
        "channel": 9
      },
      {
        "note": 42,
        "velocity": 60,
        "startTime": 5.5,
        "duration": 0.25,
        "channel": 9
      },
      {
        "note": 42,
        "velocity": 80,
        "startTime": 6,
        "duration": 0.25,
        "channel": 9
      },
      {
        "note": 42,
        "velocity": 60,
        "startTime": 6.5,
        "duration": 0.25,
        "channel": 9
      },
      {
        "note": 42,
        "velocity": 80,
        "startTime": 7,
        "duration": 0.25,
        "channel": 9
      },
      {
        "note": 42,
        "velocity": 60,
        "startTime": 7.5,
        "duration": 0.25,
        "channel": 9
      },
      {
        "note": 42,
        "velocity": 80,
        "startTime": 8,
        "duration": 0.25,
        "channel": 9
      },
      {
        "note": 42,
        "velocity": 60,
        "startTime": 8.5,
        "duration": 0.25,
        "channel": 9
      },
      {
        "note": 42,
        "velocity": 80,
        "startTime": 9,
        "duration": 0.25,
        "channel": 9
      },
      {
        "note": 42,
        "velocity": 60,
        "startTime": 9.5,
        "duration": 0.25,
        "channel": 9
      },
      {
        "note": 42,
        "velocity": 80,
        "startTime": 10,
        "duration": 0.25,
        "channel": 9
      },
      {
        "note": 42,
        "velocity": 60,
        "startTime": 10.5,
        "duration": 0.25,
        "channel": 9
      },
      {
        "note": 42,
        "velocity": 80,
        "startTime": 11,
        "duration": 0.25,
        "channel": 9
      },
      {
        "note": 42,
        "velocity": 60,
        "startTime": 11.5,
        "duration": 0.25,
        "channel": 9
      },
      {
        "note": 42,
        "velocity": 80,
        "startTime": 12,
        "duration": 0.25,
        "channel": 9
      },
      {
        "note": 42,
        "velocity": 60,
        "startTime": 12.5,
        "duration": 0.25,
        "channel": 9
      },
      {
        "note": 42,
        "velocity": 80,
        "startTime": 13,
        "duration": 0.25,
        "channel": 9
      },
      {
        "note": 42,
        "velocity": 60,
        "startTime": 13.5,
        "duration": 0.25,
        "channel": 9
      },
      {
        "note": 42,
        "velocity": 80,
        "startTime": 14,
        "duration": 0.25,
        "channel": 9
      },
      {
        "note": 42,
        "velocity": 60,
        "startTime": 14.5,
        "duration": 0.25,
        "channel": 9
      },
      {
        "note": 42,
        "velocity": 80,
        "startTime": 15,
        "duration": 0.25,
        "channel": 9
      },
      {
        "note": 42,
        "velocity": 60,
        "startTime": 15.5,
        "duration": 0.25,
        "channel": 9
      },
      {
        "note": 42,
        "velocity": 80,
        "startTime": 16,
        "duration": 0.25,
        "channel": 9
      },
      {
        "note": 42,
        "velocity": 60,
        "startTime": 16.5,
        "duration": 0.25,
        "channel": 9
      },
      {
        "note": 42,
        "velocity": 80,
        "startTime": 17,
        "duration": 0.25,
        "channel": 9
      },
      {
        "note": 42,
        "velocity": 60,
        "startTime": 17.5,
        "duration": 0.25,
        "channel": 9
      },
      {
        "note": 42,
        "velocity": 80,
        "startTime": 18,
        "duration": 0.25,
        "channel": 9
      },
      {
        "note": 42,
        "velocity": 60,
        "startTime": 18.5,
        "duration": 0.25,
        "channel": 9
      },
      {
        "note": 42,
        "velocity": 80,
        "startTime": 19,
        "duration": 0.25,
        "channel": 9
      },
      {
        "note": 42,
        "velocity": 60,
        "startTime": 19.5,
        "duration": 0.25,
        "channel": 9
      },
      {
        "note": 42,
        "velocity": 80,
        "startTime": 20,
        "duration": 0.25,
        "channel": 9
      },
      {
        "note": 42,
        "velocity": 60,
        "startTime": 20.5,
        "duration": 0.25,
        "channel": 9
      },
      {
        "note": 42,
        "velocity": 80,
        "startTime": 21,
        "duration": 0.25,
        "channel": 9
      },
      {
        "note": 42,
        "velocity": 60,
        "startTime": 21.5,
        "duration": 0.25,
        "channel": 9
      },
      {
        "note": 42,
        "velocity": 80,
        "startTime": 22,
        "duration": 0.25,
        "channel": 9
      },
      {
        "note": 42,
        "velocity": 60,
        "startTime": 22.5,
        "duration": 0.25,
        "channel": 9
      },
      {
        "note": 42,
        "velocity": 80,
        "startTime": 23,
        "duration": 0.25,
        "channel": 9
      },
      {
        "note": 42,
        "velocity": 60,
        "startTime": 23.5,
        "duration": 0.25,
        "channel": 9
      },
      {
        "note": 42,
        "velocity": 80,
        "startTime": 24,
        "duration": 0.25,
        "channel": 9
      },
      {
        "note": 42,
        "velocity": 60,
        "startTime": 24.5,
        "duration": 0.25,
        "channel": 9
      },
      {
        "note": 42,
        "velocity": 80,
        "startTime": 25,
        "duration": 0.25,
        "channel": 9
      },
      {
        "note": 42,
        "velocity": 60,
        "startTime": 25.5,
        "duration": 0.25,
        "channel": 9
      },
      {
        "note": 42,
        "velocity": 80,
        "startTime": 26,
        "duration": 0.25,
        "channel": 9
      },
      {
        "note": 42,
        "velocity": 60,
        "startTime": 26.5,
        "duration": 0.25,
        "channel": 9
      },
      {
        "note": 42,
        "velocity": 80,
        "startTime": 27,
        "duration": 0.25,
        "channel": 9
      },
      {
        "note": 42,
        "velocity": 60,
        "startTime": 27.5,
        "duration": 0.25,
        "channel": 9
      },
      {
        "note": 42,
        "velocity": 80,
        "startTime": 28,
        "duration": 0.25,
        "channel": 9
      },
      {
        "note": 42,
        "velocity": 60,
        "startTime": 28.5,
        "duration": 0.25,
        "channel": 9
      },
      {
        "note": 42,
        "velocity": 80,
        "startTime": 29,
        "duration": 0.25,
        "channel": 9
      },
      {
        "note": 42,
        "velocity": 60,
        "startTime": 29.5,
        "duration": 0.25,
        "channel": 9
      },
      {
        "note": 42,
        "velocity": 80,
        "startTime": 30,
        "duration": 0.25,
        "channel": 9
      },
      {
        "note": 42,
        "velocity": 60,
        "startTime": 30.5,
        "duration": 0.25,
        "channel": 9
      },
      {
        "note": 42,
        "velocity": 80,
        "startTime": 31,
        "duration": 0.25,
        "channel": 9
      },
      {
        "note": 42,
        "velocity": 60,
        "startTime": 31.5,
        "duration": 0.25,
        "channel": 9
      },
      {
        "note": 42,
        "velocity": 80,
        "startTime": 32,
        "duration": 0.25,
        "channel": 9
      },
      {
        "note": 42,
        "velocity": 60,
        "startTime": 32.5,
        "duration": 0.25,
        "channel": 9
      },
      {
        "note": 42,
        "velocity": 80,
        "startTime": 33,
        "duration": 0.25,
        "channel": 9
      },
      {
        "note": 42,
        "velocity": 60,
        "startTime": 33.5,
        "duration": 0.25,
        "channel": 9
      },
      {
        "note": 42,
        "velocity": 80,
        "startTime": 34,
        "duration": 0.25,
        "channel": 9
      },
      {
        "note": 42,
        "velocity": 60,
        "startTime": 34.5,
        "duration": 0.25,
        "channel": 9
      },
      {
        "note": 42,
        "velocity": 80,
        "startTime": 35,
        "duration": 0.25,
        "channel": 9
      },
      {
        "note": 42,
        "velocity": 60,
        "startTime": 35.5,
        "duration": 0.25,
        "channel": 9
      },
      {
        "note": 42,
        "velocity": 80,
        "startTime": 36,
        "duration": 0.25,
        "channel": 9
      },
      {
        "note": 42,
        "velocity": 60,
        "startTime": 36.5,
        "duration": 0.25,
        "channel": 9
      },
      {
        "note": 42,
        "velocity": 80,
        "startTime": 37,
        "duration": 0.25,
        "channel": 9
      },
      {
        "note": 42,
        "velocity": 60,
        "startTime": 37.5,
        "duration": 0.25,
        "channel": 9
      },
      {
        "note": 42,
        "velocity": 80,
        "startTime": 38,
        "duration": 0.25,
        "channel": 9
      },
      {
        "note": 42,
        "velocity": 60,
        "startTime": 38.5,
        "duration": 0.25,
        "channel": 9
      },
      {
        "note": 42,
        "velocity": 80,
        "startTime": 39,
        "duration": 0.25,
        "channel": 9
      },
      {
        "note": 42,
        "velocity": 60,
        "startTime": 39.5,
        "duration": 0.25,
        "channel": 9
      },
      {
        "note": 42,
        "velocity": 80,
        "startTime": 40,
        "duration": 0.25,
        "channel": 9
      },
      {
        "note": 42,
        "velocity": 60,
        "startTime": 40.5,
        "duration": 0.25,
        "channel": 9
      },
      {
        "note": 42,
        "velocity": 80,
        "startTime": 41,
        "duration": 0.25,
        "channel": 9
      },
      {
        "note": 42,
        "velocity": 60,
        "startTime": 41.5,
        "duration": 0.25,
        "channel": 9
      },
      {
        "note": 42,
        "velocity": 80,
        "startTime": 42,
        "duration": 0.25,
        "channel": 9
      },
      {
        "note": 42,
        "velocity": 60,
        "startTime": 42.5,
        "duration": 0.25,
        "channel": 9
      },
      {
        "note": 42,
        "velocity": 80,
        "startTime": 43,
        "duration": 0.25,
        "channel": 9
      },
      {
        "note": 42,
        "velocity": 60,
        "startTime": 43.5,
        "duration": 0.25,
        "channel": 9
      },
      {
        "note": 42,
        "velocity": 80,
        "startTime": 44,
        "duration": 0.25,
        "channel": 9
      },
      {
        "note": 42,
        "velocity": 60,
        "startTime": 44.5,
        "duration": 0.25,
        "channel": 9
      },
      {
        "note": 42,
        "velocity": 80,
        "startTime": 45,
        "duration": 0.25,
        "channel": 9
      },
      {
        "note": 42,
        "velocity": 60,
        "startTime": 45.5,
        "duration": 0.25,
        "channel": 9
      },
      {
        "note": 42,
        "velocity": 80,
        "startTime": 46,
        "duration": 0.25,
        "channel": 9
      },
      {
        "note": 42,
        "velocity": 60,
        "startTime": 46.5,
        "duration": 0.25,
        "channel": 9
      },
      {
        "note": 42,
        "velocity": 80,
        "startTime": 47,
        "duration": 0.25,
        "channel": 9
      },
      {
        "note": 42,
        "velocity": 60,
        "startTime": 47.5,
        "duration": 0.25,
        "channel": 9
      },
      {
        "note": 42,
        "velocity": 80,
        "startTime": 48,
        "duration": 0.25,
        "channel": 9
      },
      {
        "note": 42,
        "velocity": 60,
        "startTime": 48.5,
        "duration": 0.25,
        "channel": 9
      },
      {
        "note": 42,
        "velocity": 80,
        "startTime": 49,
        "duration": 0.25,
        "channel": 9
      },
      {
        "note": 42,
        "velocity": 60,
        "startTime": 49.5,
        "duration": 0.25,
        "channel": 9
      },
      {
        "note": 42,
        "velocity": 80,
        "startTime": 50,
        "duration": 0.25,
        "channel": 9
      },
      {
        "note": 42,
        "velocity": 60,
        "startTime": 50.5,
        "duration": 0.25,
        "channel": 9
      },
      {
        "note": 42,
        "velocity": 80,
        "startTime": 51,
        "duration": 0.25,
        "channel": 9
      },
      {
        "note": 42,
        "velocity": 60,
        "startTime": 51.5,
        "duration": 0.25,
        "channel": 9
      },
      {
        "note": 42,
        "velocity": 80,
        "startTime": 52,
        "duration": 0.25,
        "channel": 9
      },
      {
        "note": 42,
        "velocity": 60,
        "startTime": 52.5,
        "duration": 0.25,
        "channel": 9
      },
      {
        "note": 42,
        "velocity": 80,
        "startTime": 53,
        "duration": 0.25,
        "channel": 9
      },
      {
        "note": 42,
        "velocity": 60,
        "startTime": 53.5,
        "duration": 0.25,
        "channel": 9
      },
      {
        "note": 42,
        "velocity": 80,
        "startTime": 54,
        "duration": 0.25,
        "channel": 9
      },
      {
        "note": 42,
        "velocity": 60,
        "startTime": 54.5,
        "duration": 0.25,
        "channel": 9
      },
      {
        "note": 42,
        "velocity": 80,
        "startTime": 55,
        "duration": 0.25,
        "channel": 9
      },
      {
        "note": 42,
        "velocity": 60,
        "startTime": 55.5,
        "duration": 0.25,
        "channel": 9
      },
      {
        "note": 42,
        "velocity": 80,
        "startTime": 56,
        "duration": 0.25,
        "channel": 9
      },
      {
        "note": 42,
        "velocity": 60,
        "startTime": 56.5,
        "duration": 0.25,
        "channel": 9
      },
      {
        "note": 42,
        "velocity": 80,
        "startTime": 57,
        "duration": 0.25,
        "channel": 9
      },
      {
        "note": 42,
        "velocity": 60,
        "startTime": 57.5,
        "duration": 0.25,
        "channel": 9
      },
      {
        "note": 42,
        "velocity": 80,
        "startTime": 58,
        "duration": 0.25,
        "channel": 9
      },
      {
        "note": 42,
        "velocity": 60,
        "startTime": 58.5,
        "duration": 0.25,
        "channel": 9
      },
      {
        "note": 42,
        "velocity": 80,
        "startTime": 59,
        "duration": 0.25,
        "channel": 9
      },
      {
        "note": 42,
        "velocity": 60,
        "startTime": 59.5,
        "duration": 0.25,
        "channel": 9
      },
      {
        "note": 42,
        "velocity": 80,
        "startTime": 60,
        "duration": 0.25,
        "channel": 9
      },
      {
        "note": 42,
        "velocity": 60,
        "startTime": 60.5,
        "duration": 0.25,
        "channel": 9
      },
      {
        "note": 42,
        "velocity": 80,
        "startTime": 61,
        "duration": 0.25,
        "channel": 9
      },
      {
        "note": 42,
        "velocity": 60,
        "startTime": 61.5,
        "duration": 0.25,
        "channel": 9
      },
      {
        "note": 42,
        "velocity": 80,
        "startTime": 62,
        "duration": 0.25,
        "channel": 9
      },
      {
        "note": 42,
        "velocity": 60,
        "startTime": 62.5,
        "duration": 0.25,
        "channel": 9
      },
      {
        "note": 42,
        "velocity": 80,
        "startTime": 63,
        "duration": 0.25,
        "channel": 9
      },
      {
        "note": 42,
        "velocity": 60,
        "startTime": 63.5,
        "duration": 0.25,
        "channel": 9
      },
      {
        "note": 36,
        "velocity": 100,
        "startTime": 0,
        "duration": 1,
        "channel": 0
      },
      {
        "note": 36,
        "velocity": 100,
        "startTime": 2,
        "duration": 1,
        "channel": 0
      },
      {
        "note": 36,
        "velocity": 100,
        "startTime": 4,
        "duration": 1,
        "channel": 0
      },
      {
        "note": 36,
        "velocity": 100,
        "startTime": 6,
        "duration": 1,
        "channel": 0
      },
      {
        "note": 36,
        "velocity": 100,
        "startTime": 8,
        "duration": 1,
        "channel": 0
      },
      {
        "note": 36,
        "velocity": 100,
        "startTime": 10,
        "duration": 1,
        "channel": 0
      },
      {
        "note": 36,
        "velocity": 100,
        "startTime": 12,
        "duration": 1,
        "channel": 0
      },
      {
        "note": 36,
        "velocity": 100,
        "startTime": 14,
        "duration": 1,
        "channel": 0
      },
      {
        "note": 36,
        "velocity": 100,
        "startTime": 16,
        "duration": 1,
        "channel": 0
      },
      {
        "note": 36,
        "velocity": 100,
        "startTime": 18,
        "duration": 1,
        "channel": 0
      },
      {
        "note": 36,
        "velocity": 100,
        "startTime": 20,
        "duration": 1,
        "channel": 0
      },
      {
        "note": 36,
        "velocity": 100,
        "startTime": 22,
        "duration": 1,
        "channel": 0
      },
      {
        "note": 36,
        "velocity": 100,
        "startTime": 24,
        "duration": 1,
        "channel": 0
      },
      {
        "note": 36,
        "velocity": 100,
        "startTime": 26,
        "duration": 1,
        "channel": 0
      },
      {
        "note": 36,
        "velocity": 100,
        "startTime": 28,
        "duration": 1,
        "channel": 0
      },
      {
        "note": 36,
        "velocity": 100,
        "startTime": 30,
        "duration": 1,
        "channel": 0
      },
      {
        "note": 36,
        "velocity": 100,
        "startTime": 32,
        "duration": 1,
        "channel": 0
      },
      {
        "note": 36,
        "velocity": 100,
        "startTime": 34,
        "duration": 1,
        "channel": 0
      },
      {
        "note": 36,
        "velocity": 100,
        "startTime": 36,
        "duration": 1,
        "channel": 0
      },
      {
        "note": 36,
        "velocity": 100,
        "startTime": 38,
        "duration": 1,
        "channel": 0
      },
      {
        "note": 36,
        "velocity": 100,
        "startTime": 40,
        "duration": 1,
        "channel": 0
      },
      {
        "note": 36,
        "velocity": 100,
        "startTime": 42,
        "duration": 1,
        "channel": 0
      },
      {
        "note": 36,
        "velocity": 100,
        "startTime": 44,
        "duration": 1,
        "channel": 0
      },
      {
        "note": 36,
        "velocity": 100,
        "startTime": 46,
        "duration": 1,
        "channel": 0
      },
      {
        "note": 36,
        "velocity": 100,
        "startTime": 48,
        "duration": 1,
        "channel": 0
      },
      {
        "note": 36,
        "velocity": 100,
        "startTime": 50,
        "duration": 1,
        "channel": 0
      },
      {
        "note": 36,
        "velocity": 100,
        "startTime": 52,
        "duration": 1,
        "channel": 0
      },
      {
        "note": 36,
        "velocity": 100,
        "startTime": 54,
        "duration": 1,
        "channel": 0
      },
      {
        "note": 36,
        "velocity": 100,
        "startTime": 56,
        "duration": 1,
        "channel": 0
      },
      {
        "note": 36,
        "velocity": 100,
        "startTime": 58,
        "duration": 1,
        "channel": 0
      },
      {
        "note": 36,
        "velocity": 100,
        "startTime": 60,
        "duration": 1,
        "channel": 0
      },
      {
        "note": 36,
        "velocity": 100,
        "startTime": 62,
        "duration": 1,
        "channel": 0
      }
    ],
    "project_name": "MANA VS TIGERES EDIT ",
    "project_path": "/Users/camilopineda/Desktop/SHINE DARK MIDI PARTY/Logic copy sep 2025/MANA VS TIGERES EDIT /MANA VS TIGERES EDIT .logicx",
    "extraction_date": "2025-09-05T23:38:35.388Z",
    "extraction_status": "generated_from_project_name"
  },
  {
    "id": "electronic-pattern",
    "name": "Electronic",
    "tempo": 120,
    "timeSignature": [
      4,
      4
    ],
    "length": 64,
    "loop": true,
    "notes": [
      {
        "note": 36,
        "velocity": 127,
        "startTime": 0,
        "duration": 0.5,
        "channel": 9
      },
      {
        "note": 36,
        "velocity": 100,
        "startTime": 2,
        "duration": 0.5,
        "channel": 9
      },
      {
        "note": 36,
        "velocity": 127,
        "startTime": 4,
        "duration": 0.5,
        "channel": 9
      },
      {
        "note": 36,
        "velocity": 100,
        "startTime": 6,
        "duration": 0.5,
        "channel": 9
      },
      {
        "note": 36,
        "velocity": 127,
        "startTime": 8,
        "duration": 0.5,
        "channel": 9
      },
      {
        "note": 36,
        "velocity": 100,
        "startTime": 10,
        "duration": 0.5,
        "channel": 9
      },
      {
        "note": 36,
        "velocity": 127,
        "startTime": 12,
        "duration": 0.5,
        "channel": 9
      },
      {
        "note": 36,
        "velocity": 100,
        "startTime": 14,
        "duration": 0.5,
        "channel": 9
      },
      {
        "note": 36,
        "velocity": 127,
        "startTime": 16,
        "duration": 0.5,
        "channel": 9
      },
      {
        "note": 36,
        "velocity": 100,
        "startTime": 18,
        "duration": 0.5,
        "channel": 9
      },
      {
        "note": 36,
        "velocity": 127,
        "startTime": 20,
        "duration": 0.5,
        "channel": 9
      },
      {
        "note": 36,
        "velocity": 100,
        "startTime": 22,
        "duration": 0.5,
        "channel": 9
      },
      {
        "note": 36,
        "velocity": 127,
        "startTime": 24,
        "duration": 0.5,
        "channel": 9
      },
      {
        "note": 36,
        "velocity": 100,
        "startTime": 26,
        "duration": 0.5,
        "channel": 9
      },
      {
        "note": 36,
        "velocity": 127,
        "startTime": 28,
        "duration": 0.5,
        "channel": 9
      },
      {
        "note": 36,
        "velocity": 100,
        "startTime": 30,
        "duration": 0.5,
        "channel": 9
      },
      {
        "note": 36,
        "velocity": 127,
        "startTime": 32,
        "duration": 0.5,
        "channel": 9
      },
      {
        "note": 36,
        "velocity": 100,
        "startTime": 34,
        "duration": 0.5,
        "channel": 9
      },
      {
        "note": 36,
        "velocity": 127,
        "startTime": 36,
        "duration": 0.5,
        "channel": 9
      },
      {
        "note": 36,
        "velocity": 100,
        "startTime": 38,
        "duration": 0.5,
        "channel": 9
      },
      {
        "note": 36,
        "velocity": 127,
        "startTime": 40,
        "duration": 0.5,
        "channel": 9
      },
      {
        "note": 36,
        "velocity": 100,
        "startTime": 42,
        "duration": 0.5,
        "channel": 9
      },
      {
        "note": 36,
        "velocity": 127,
        "startTime": 44,
        "duration": 0.5,
        "channel": 9
      },
      {
        "note": 36,
        "velocity": 100,
        "startTime": 46,
        "duration": 0.5,
        "channel": 9
      },
      {
        "note": 36,
        "velocity": 127,
        "startTime": 48,
        "duration": 0.5,
        "channel": 9
      },
      {
        "note": 36,
        "velocity": 100,
        "startTime": 50,
        "duration": 0.5,
        "channel": 9
      },
      {
        "note": 36,
        "velocity": 127,
        "startTime": 52,
        "duration": 0.5,
        "channel": 9
      },
      {
        "note": 36,
        "velocity": 100,
        "startTime": 54,
        "duration": 0.5,
        "channel": 9
      },
      {
        "note": 36,
        "velocity": 127,
        "startTime": 56,
        "duration": 0.5,
        "channel": 9
      },
      {
        "note": 36,
        "velocity": 100,
        "startTime": 58,
        "duration": 0.5,
        "channel": 9
      },
      {
        "note": 36,
        "velocity": 127,
        "startTime": 60,
        "duration": 0.5,
        "channel": 9
      },
      {
        "note": 36,
        "velocity": 100,
        "startTime": 62,
        "duration": 0.5,
        "channel": 9
      },
      {
        "note": 38,
        "velocity": 100,
        "startTime": 1,
        "duration": 0.5,
        "channel": 9
      },
      {
        "note": 38,
        "velocity": 100,
        "startTime": 3,
        "duration": 0.5,
        "channel": 9
      },
      {
        "note": 38,
        "velocity": 100,
        "startTime": 5,
        "duration": 0.5,
        "channel": 9
      },
      {
        "note": 38,
        "velocity": 100,
        "startTime": 7,
        "duration": 0.5,
        "channel": 9
      },
      {
        "note": 38,
        "velocity": 100,
        "startTime": 9,
        "duration": 0.5,
        "channel": 9
      },
      {
        "note": 38,
        "velocity": 100,
        "startTime": 11,
        "duration": 0.5,
        "channel": 9
      },
      {
        "note": 38,
        "velocity": 100,
        "startTime": 13,
        "duration": 0.5,
        "channel": 9
      },
      {
        "note": 38,
        "velocity": 100,
        "startTime": 15,
        "duration": 0.5,
        "channel": 9
      },
      {
        "note": 38,
        "velocity": 100,
        "startTime": 17,
        "duration": 0.5,
        "channel": 9
      },
      {
        "note": 38,
        "velocity": 100,
        "startTime": 19,
        "duration": 0.5,
        "channel": 9
      },
      {
        "note": 38,
        "velocity": 100,
        "startTime": 21,
        "duration": 0.5,
        "channel": 9
      },
      {
        "note": 38,
        "velocity": 100,
        "startTime": 23,
        "duration": 0.5,
        "channel": 9
      },
      {
        "note": 38,
        "velocity": 100,
        "startTime": 25,
        "duration": 0.5,
        "channel": 9
      },
      {
        "note": 38,
        "velocity": 100,
        "startTime": 27,
        "duration": 0.5,
        "channel": 9
      },
      {
        "note": 38,
        "velocity": 100,
        "startTime": 29,
        "duration": 0.5,
        "channel": 9
      },
      {
        "note": 38,
        "velocity": 100,
        "startTime": 31,
        "duration": 0.5,
        "channel": 9
      },
      {
        "note": 38,
        "velocity": 100,
        "startTime": 33,
        "duration": 0.5,
        "channel": 9
      },
      {
        "note": 38,
        "velocity": 100,
        "startTime": 35,
        "duration": 0.5,
        "channel": 9
      },
      {
        "note": 38,
        "velocity": 100,
        "startTime": 37,
        "duration": 0.5,
        "channel": 9
      },
      {
        "note": 38,
        "velocity": 100,
        "startTime": 39,
        "duration": 0.5,
        "channel": 9
      },
      {
        "note": 38,
        "velocity": 100,
        "startTime": 41,
        "duration": 0.5,
        "channel": 9
      },
      {
        "note": 38,
        "velocity": 100,
        "startTime": 43,
        "duration": 0.5,
        "channel": 9
      },
      {
        "note": 38,
        "velocity": 100,
        "startTime": 45,
        "duration": 0.5,
        "channel": 9
      },
      {
        "note": 38,
        "velocity": 100,
        "startTime": 47,
        "duration": 0.5,
        "channel": 9
      },
      {
        "note": 38,
        "velocity": 100,
        "startTime": 49,
        "duration": 0.5,
        "channel": 9
      },
      {
        "note": 38,
        "velocity": 100,
        "startTime": 51,
        "duration": 0.5,
        "channel": 9
      },
      {
        "note": 38,
        "velocity": 100,
        "startTime": 53,
        "duration": 0.5,
        "channel": 9
      },
      {
        "note": 38,
        "velocity": 100,
        "startTime": 55,
        "duration": 0.5,
        "channel": 9
      },
      {
        "note": 38,
        "velocity": 100,
        "startTime": 57,
        "duration": 0.5,
        "channel": 9
      },
      {
        "note": 38,
        "velocity": 100,
        "startTime": 59,
        "duration": 0.5,
        "channel": 9
      },
      {
        "note": 38,
        "velocity": 100,
        "startTime": 61,
        "duration": 0.5,
        "channel": 9
      },
      {
        "note": 38,
        "velocity": 100,
        "startTime": 63,
        "duration": 0.5,
        "channel": 9
      },
      {
        "note": 42,
        "velocity": 80,
        "startTime": 0,
        "duration": 0.25,
        "channel": 9
      },
      {
        "note": 42,
        "velocity": 60,
        "startTime": 0.5,
        "duration": 0.25,
        "channel": 9
      },
      {
        "note": 42,
        "velocity": 80,
        "startTime": 1,
        "duration": 0.25,
        "channel": 9
      },
      {
        "note": 42,
        "velocity": 60,
        "startTime": 1.5,
        "duration": 0.25,
        "channel": 9
      },
      {
        "note": 42,
        "velocity": 80,
        "startTime": 2,
        "duration": 0.25,
        "channel": 9
      },
      {
        "note": 42,
        "velocity": 60,
        "startTime": 2.5,
        "duration": 0.25,
        "channel": 9
      },
      {
        "note": 42,
        "velocity": 80,
        "startTime": 3,
        "duration": 0.25,
        "channel": 9
      },
      {
        "note": 42,
        "velocity": 60,
        "startTime": 3.5,
        "duration": 0.25,
        "channel": 9
      },
      {
        "note": 42,
        "velocity": 80,
        "startTime": 4,
        "duration": 0.25,
        "channel": 9
      },
      {
        "note": 42,
        "velocity": 60,
        "startTime": 4.5,
        "duration": 0.25,
        "channel": 9
      },
      {
        "note": 42,
        "velocity": 80,
        "startTime": 5,
        "duration": 0.25,
        "channel": 9
      },
      {
        "note": 42,
        "velocity": 60,
        "startTime": 5.5,
        "duration": 0.25,
        "channel": 9
      },
      {
        "note": 42,
        "velocity": 80,
        "startTime": 6,
        "duration": 0.25,
        "channel": 9
      },
      {
        "note": 42,
        "velocity": 60,
        "startTime": 6.5,
        "duration": 0.25,
        "channel": 9
      },
      {
        "note": 42,
        "velocity": 80,
        "startTime": 7,
        "duration": 0.25,
        "channel": 9
      },
      {
        "note": 42,
        "velocity": 60,
        "startTime": 7.5,
        "duration": 0.25,
        "channel": 9
      },
      {
        "note": 42,
        "velocity": 80,
        "startTime": 8,
        "duration": 0.25,
        "channel": 9
      },
      {
        "note": 42,
        "velocity": 60,
        "startTime": 8.5,
        "duration": 0.25,
        "channel": 9
      },
      {
        "note": 42,
        "velocity": 80,
        "startTime": 9,
        "duration": 0.25,
        "channel": 9
      },
      {
        "note": 42,
        "velocity": 60,
        "startTime": 9.5,
        "duration": 0.25,
        "channel": 9
      },
      {
        "note": 42,
        "velocity": 80,
        "startTime": 10,
        "duration": 0.25,
        "channel": 9
      },
      {
        "note": 42,
        "velocity": 60,
        "startTime": 10.5,
        "duration": 0.25,
        "channel": 9
      },
      {
        "note": 42,
        "velocity": 80,
        "startTime": 11,
        "duration": 0.25,
        "channel": 9
      },
      {
        "note": 42,
        "velocity": 60,
        "startTime": 11.5,
        "duration": 0.25,
        "channel": 9
      },
      {
        "note": 42,
        "velocity": 80,
        "startTime": 12,
        "duration": 0.25,
        "channel": 9
      },
      {
        "note": 42,
        "velocity": 60,
        "startTime": 12.5,
        "duration": 0.25,
        "channel": 9
      },
      {
        "note": 42,
        "velocity": 80,
        "startTime": 13,
        "duration": 0.25,
        "channel": 9
      },
      {
        "note": 42,
        "velocity": 60,
        "startTime": 13.5,
        "duration": 0.25,
        "channel": 9
      },
      {
        "note": 42,
        "velocity": 80,
        "startTime": 14,
        "duration": 0.25,
        "channel": 9
      },
      {
        "note": 42,
        "velocity": 60,
        "startTime": 14.5,
        "duration": 0.25,
        "channel": 9
      },
      {
        "note": 42,
        "velocity": 80,
        "startTime": 15,
        "duration": 0.25,
        "channel": 9
      },
      {
        "note": 42,
        "velocity": 60,
        "startTime": 15.5,
        "duration": 0.25,
        "channel": 9
      },
      {
        "note": 42,
        "velocity": 80,
        "startTime": 16,
        "duration": 0.25,
        "channel": 9
      },
      {
        "note": 42,
        "velocity": 60,
        "startTime": 16.5,
        "duration": 0.25,
        "channel": 9
      },
      {
        "note": 42,
        "velocity": 80,
        "startTime": 17,
        "duration": 0.25,
        "channel": 9
      },
      {
        "note": 42,
        "velocity": 60,
        "startTime": 17.5,
        "duration": 0.25,
        "channel": 9
      },
      {
        "note": 42,
        "velocity": 80,
        "startTime": 18,
        "duration": 0.25,
        "channel": 9
      },
      {
        "note": 42,
        "velocity": 60,
        "startTime": 18.5,
        "duration": 0.25,
        "channel": 9
      },
      {
        "note": 42,
        "velocity": 80,
        "startTime": 19,
        "duration": 0.25,
        "channel": 9
      },
      {
        "note": 42,
        "velocity": 60,
        "startTime": 19.5,
        "duration": 0.25,
        "channel": 9
      },
      {
        "note": 42,
        "velocity": 80,
        "startTime": 20,
        "duration": 0.25,
        "channel": 9
      },
      {
        "note": 42,
        "velocity": 60,
        "startTime": 20.5,
        "duration": 0.25,
        "channel": 9
      },
      {
        "note": 42,
        "velocity": 80,
        "startTime": 21,
        "duration": 0.25,
        "channel": 9
      },
      {
        "note": 42,
        "velocity": 60,
        "startTime": 21.5,
        "duration": 0.25,
        "channel": 9
      },
      {
        "note": 42,
        "velocity": 80,
        "startTime": 22,
        "duration": 0.25,
        "channel": 9
      },
      {
        "note": 42,
        "velocity": 60,
        "startTime": 22.5,
        "duration": 0.25,
        "channel": 9
      },
      {
        "note": 42,
        "velocity": 80,
        "startTime": 23,
        "duration": 0.25,
        "channel": 9
      },
      {
        "note": 42,
        "velocity": 60,
        "startTime": 23.5,
        "duration": 0.25,
        "channel": 9
      },
      {
        "note": 42,
        "velocity": 80,
        "startTime": 24,
        "duration": 0.25,
        "channel": 9
      },
      {
        "note": 42,
        "velocity": 60,
        "startTime": 24.5,
        "duration": 0.25,
        "channel": 9
      },
      {
        "note": 42,
        "velocity": 80,
        "startTime": 25,
        "duration": 0.25,
        "channel": 9
      },
      {
        "note": 42,
        "velocity": 60,
        "startTime": 25.5,
        "duration": 0.25,
        "channel": 9
      },
      {
        "note": 42,
        "velocity": 80,
        "startTime": 26,
        "duration": 0.25,
        "channel": 9
      },
      {
        "note": 42,
        "velocity": 60,
        "startTime": 26.5,
        "duration": 0.25,
        "channel": 9
      },
      {
        "note": 42,
        "velocity": 80,
        "startTime": 27,
        "duration": 0.25,
        "channel": 9
      },
      {
        "note": 42,
        "velocity": 60,
        "startTime": 27.5,
        "duration": 0.25,
        "channel": 9
      },
      {
        "note": 42,
        "velocity": 80,
        "startTime": 28,
        "duration": 0.25,
        "channel": 9
      },
      {
        "note": 42,
        "velocity": 60,
        "startTime": 28.5,
        "duration": 0.25,
        "channel": 9
      },
      {
        "note": 42,
        "velocity": 80,
        "startTime": 29,
        "duration": 0.25,
        "channel": 9
      },
      {
        "note": 42,
        "velocity": 60,
        "startTime": 29.5,
        "duration": 0.25,
        "channel": 9
      },
      {
        "note": 42,
        "velocity": 80,
        "startTime": 30,
        "duration": 0.25,
        "channel": 9
      },
      {
        "note": 42,
        "velocity": 60,
        "startTime": 30.5,
        "duration": 0.25,
        "channel": 9
      },
      {
        "note": 42,
        "velocity": 80,
        "startTime": 31,
        "duration": 0.25,
        "channel": 9
      },
      {
        "note": 42,
        "velocity": 60,
        "startTime": 31.5,
        "duration": 0.25,
        "channel": 9
      },
      {
        "note": 42,
        "velocity": 80,
        "startTime": 32,
        "duration": 0.25,
        "channel": 9
      },
      {
        "note": 42,
        "velocity": 60,
        "startTime": 32.5,
        "duration": 0.25,
        "channel": 9
      },
      {
        "note": 42,
        "velocity": 80,
        "startTime": 33,
        "duration": 0.25,
        "channel": 9
      },
      {
        "note": 42,
        "velocity": 60,
        "startTime": 33.5,
        "duration": 0.25,
        "channel": 9
      },
      {
        "note": 42,
        "velocity": 80,
        "startTime": 34,
        "duration": 0.25,
        "channel": 9
      },
      {
        "note": 42,
        "velocity": 60,
        "startTime": 34.5,
        "duration": 0.25,
        "channel": 9
      },
      {
        "note": 42,
        "velocity": 80,
        "startTime": 35,
        "duration": 0.25,
        "channel": 9
      },
      {
        "note": 42,
        "velocity": 60,
        "startTime": 35.5,
        "duration": 0.25,
        "channel": 9
      },
      {
        "note": 42,
        "velocity": 80,
        "startTime": 36,
        "duration": 0.25,
        "channel": 9
      },
      {
        "note": 42,
        "velocity": 60,
        "startTime": 36.5,
        "duration": 0.25,
        "channel": 9
      },
      {
        "note": 42,
        "velocity": 80,
        "startTime": 37,
        "duration": 0.25,
        "channel": 9
      },
      {
        "note": 42,
        "velocity": 60,
        "startTime": 37.5,
        "duration": 0.25,
        "channel": 9
      },
      {
        "note": 42,
        "velocity": 80,
        "startTime": 38,
        "duration": 0.25,
        "channel": 9
      },
      {
        "note": 42,
        "velocity": 60,
        "startTime": 38.5,
        "duration": 0.25,
        "channel": 9
      },
      {
        "note": 42,
        "velocity": 80,
        "startTime": 39,
        "duration": 0.25,
        "channel": 9
      },
      {
        "note": 42,
        "velocity": 60,
        "startTime": 39.5,
        "duration": 0.25,
        "channel": 9
      },
      {
        "note": 42,
        "velocity": 80,
        "startTime": 40,
        "duration": 0.25,
        "channel": 9
      },
      {
        "note": 42,
        "velocity": 60,
        "startTime": 40.5,
        "duration": 0.25,
        "channel": 9
      },
      {
        "note": 42,
        "velocity": 80,
        "startTime": 41,
        "duration": 0.25,
        "channel": 9
      },
      {
        "note": 42,
        "velocity": 60,
        "startTime": 41.5,
        "duration": 0.25,
        "channel": 9
      },
      {
        "note": 42,
        "velocity": 80,
        "startTime": 42,
        "duration": 0.25,
        "channel": 9
      },
      {
        "note": 42,
        "velocity": 60,
        "startTime": 42.5,
        "duration": 0.25,
        "channel": 9
      },
      {
        "note": 42,
        "velocity": 80,
        "startTime": 43,
        "duration": 0.25,
        "channel": 9
      },
      {
        "note": 42,
        "velocity": 60,
        "startTime": 43.5,
        "duration": 0.25,
        "channel": 9
      },
      {
        "note": 42,
        "velocity": 80,
        "startTime": 44,
        "duration": 0.25,
        "channel": 9
      },
      {
        "note": 42,
        "velocity": 60,
        "startTime": 44.5,
        "duration": 0.25,
        "channel": 9
      },
      {
        "note": 42,
        "velocity": 80,
        "startTime": 45,
        "duration": 0.25,
        "channel": 9
      },
      {
        "note": 42,
        "velocity": 60,
        "startTime": 45.5,
        "duration": 0.25,
        "channel": 9
      },
      {
        "note": 42,
        "velocity": 80,
        "startTime": 46,
        "duration": 0.25,
        "channel": 9
      },
      {
        "note": 42,
        "velocity": 60,
        "startTime": 46.5,
        "duration": 0.25,
        "channel": 9
      },
      {
        "note": 42,
        "velocity": 80,
        "startTime": 47,
        "duration": 0.25,
        "channel": 9
      },
      {
        "note": 42,
        "velocity": 60,
        "startTime": 47.5,
        "duration": 0.25,
        "channel": 9
      },
      {
        "note": 42,
        "velocity": 80,
        "startTime": 48,
        "duration": 0.25,
        "channel": 9
      },
      {
        "note": 42,
        "velocity": 60,
        "startTime": 48.5,
        "duration": 0.25,
        "channel": 9
      },
      {
        "note": 42,
        "velocity": 80,
        "startTime": 49,
        "duration": 0.25,
        "channel": 9
      },
      {
        "note": 42,
        "velocity": 60,
        "startTime": 49.5,
        "duration": 0.25,
        "channel": 9
      },
      {
        "note": 42,
        "velocity": 80,
        "startTime": 50,
        "duration": 0.25,
        "channel": 9
      },
      {
        "note": 42,
        "velocity": 60,
        "startTime": 50.5,
        "duration": 0.25,
        "channel": 9
      },
      {
        "note": 42,
        "velocity": 80,
        "startTime": 51,
        "duration": 0.25,
        "channel": 9
      },
      {
        "note": 42,
        "velocity": 60,
        "startTime": 51.5,
        "duration": 0.25,
        "channel": 9
      },
      {
        "note": 42,
        "velocity": 80,
        "startTime": 52,
        "duration": 0.25,
        "channel": 9
      },
      {
        "note": 42,
        "velocity": 60,
        "startTime": 52.5,
        "duration": 0.25,
        "channel": 9
      },
      {
        "note": 42,
        "velocity": 80,
        "startTime": 53,
        "duration": 0.25,
        "channel": 9
      },
      {
        "note": 42,
        "velocity": 60,
        "startTime": 53.5,
        "duration": 0.25,
        "channel": 9
      },
      {
        "note": 42,
        "velocity": 80,
        "startTime": 54,
        "duration": 0.25,
        "channel": 9
      },
      {
        "note": 42,
        "velocity": 60,
        "startTime": 54.5,
        "duration": 0.25,
        "channel": 9
      },
      {
        "note": 42,
        "velocity": 80,
        "startTime": 55,
        "duration": 0.25,
        "channel": 9
      },
      {
        "note": 42,
        "velocity": 60,
        "startTime": 55.5,
        "duration": 0.25,
        "channel": 9
      },
      {
        "note": 42,
        "velocity": 80,
        "startTime": 56,
        "duration": 0.25,
        "channel": 9
      },
      {
        "note": 42,
        "velocity": 60,
        "startTime": 56.5,
        "duration": 0.25,
        "channel": 9
      },
      {
        "note": 42,
        "velocity": 80,
        "startTime": 57,
        "duration": 0.25,
        "channel": 9
      },
      {
        "note": 42,
        "velocity": 60,
        "startTime": 57.5,
        "duration": 0.25,
        "channel": 9
      },
      {
        "note": 42,
        "velocity": 80,
        "startTime": 58,
        "duration": 0.25,
        "channel": 9
      },
      {
        "note": 42,
        "velocity": 60,
        "startTime": 58.5,
        "duration": 0.25,
        "channel": 9
      },
      {
        "note": 42,
        "velocity": 80,
        "startTime": 59,
        "duration": 0.25,
        "channel": 9
      },
      {
        "note": 42,
        "velocity": 60,
        "startTime": 59.5,
        "duration": 0.25,
        "channel": 9
      },
      {
        "note": 42,
        "velocity": 80,
        "startTime": 60,
        "duration": 0.25,
        "channel": 9
      },
      {
        "note": 42,
        "velocity": 60,
        "startTime": 60.5,
        "duration": 0.25,
        "channel": 9
      },
      {
        "note": 42,
        "velocity": 80,
        "startTime": 61,
        "duration": 0.25,
        "channel": 9
      },
      {
        "note": 42,
        "velocity": 60,
        "startTime": 61.5,
        "duration": 0.25,
        "channel": 9
      },
      {
        "note": 42,
        "velocity": 80,
        "startTime": 62,
        "duration": 0.25,
        "channel": 9
      },
      {
        "note": 42,
        "velocity": 60,
        "startTime": 62.5,
        "duration": 0.25,
        "channel": 9
      },
      {
        "note": 42,
        "velocity": 80,
        "startTime": 63,
        "duration": 0.25,
        "channel": 9
      },
      {
        "note": 42,
        "velocity": 60,
        "startTime": 63.5,
        "duration": 0.25,
        "channel": 9
      },
      {
        "note": 36,
        "velocity": 100,
        "startTime": 0,
        "duration": 1,
        "channel": 0
      },
      {
        "note": 36,
        "velocity": 100,
        "startTime": 2,
        "duration": 1,
        "channel": 0
      },
      {
        "note": 36,
        "velocity": 100,
        "startTime": 4,
        "duration": 1,
        "channel": 0
      },
      {
        "note": 36,
        "velocity": 100,
        "startTime": 6,
        "duration": 1,
        "channel": 0
      },
      {
        "note": 36,
        "velocity": 100,
        "startTime": 8,
        "duration": 1,
        "channel": 0
      },
      {
        "note": 36,
        "velocity": 100,
        "startTime": 10,
        "duration": 1,
        "channel": 0
      },
      {
        "note": 36,
        "velocity": 100,
        "startTime": 12,
        "duration": 1,
        "channel": 0
      },
      {
        "note": 36,
        "velocity": 100,
        "startTime": 14,
        "duration": 1,
        "channel": 0
      },
      {
        "note": 36,
        "velocity": 100,
        "startTime": 16,
        "duration": 1,
        "channel": 0
      },
      {
        "note": 36,
        "velocity": 100,
        "startTime": 18,
        "duration": 1,
        "channel": 0
      },
      {
        "note": 36,
        "velocity": 100,
        "startTime": 20,
        "duration": 1,
        "channel": 0
      },
      {
        "note": 36,
        "velocity": 100,
        "startTime": 22,
        "duration": 1,
        "channel": 0
      },
      {
        "note": 36,
        "velocity": 100,
        "startTime": 24,
        "duration": 1,
        "channel": 0
      },
      {
        "note": 36,
        "velocity": 100,
        "startTime": 26,
        "duration": 1,
        "channel": 0
      },
      {
        "note": 36,
        "velocity": 100,
        "startTime": 28,
        "duration": 1,
        "channel": 0
      },
      {
        "note": 36,
        "velocity": 100,
        "startTime": 30,
        "duration": 1,
        "channel": 0
      },
      {
        "note": 36,
        "velocity": 100,
        "startTime": 32,
        "duration": 1,
        "channel": 0
      },
      {
        "note": 36,
        "velocity": 100,
        "startTime": 34,
        "duration": 1,
        "channel": 0
      },
      {
        "note": 36,
        "velocity": 100,
        "startTime": 36,
        "duration": 1,
        "channel": 0
      },
      {
        "note": 36,
        "velocity": 100,
        "startTime": 38,
        "duration": 1,
        "channel": 0
      },
      {
        "note": 36,
        "velocity": 100,
        "startTime": 40,
        "duration": 1,
        "channel": 0
      },
      {
        "note": 36,
        "velocity": 100,
        "startTime": 42,
        "duration": 1,
        "channel": 0
      },
      {
        "note": 36,
        "velocity": 100,
        "startTime": 44,
        "duration": 1,
        "channel": 0
      },
      {
        "note": 36,
        "velocity": 100,
        "startTime": 46,
        "duration": 1,
        "channel": 0
      },
      {
        "note": 36,
        "velocity": 100,
        "startTime": 48,
        "duration": 1,
        "channel": 0
      },
      {
        "note": 36,
        "velocity": 100,
        "startTime": 50,
        "duration": 1,
        "channel": 0
      },
      {
        "note": 36,
        "velocity": 100,
        "startTime": 52,
        "duration": 1,
        "channel": 0
      },
      {
        "note": 36,
        "velocity": 100,
        "startTime": 54,
        "duration": 1,
        "channel": 0
      },
      {
        "note": 36,
        "velocity": 100,
        "startTime": 56,
        "duration": 1,
        "channel": 0
      },
      {
        "note": 36,
        "velocity": 100,
        "startTime": 58,
        "duration": 1,
        "channel": 0
      },
      {
        "note": 36,
        "velocity": 100,
        "startTime": 60,
        "duration": 1,
        "channel": 0
      },
      {
        "note": 36,
        "velocity": 100,
        "startTime": 62,
        "duration": 1,
        "channel": 0
      }
    ],
    "project_name": "Start new computer",
    "project_path": "/Users/camilopineda/Desktop/SHINE DARK MIDI PARTY/Logic copy sep 2025/Start new computer/Start new computer.logicx",
    "extraction_date": "2025-09-05T23:38:35.388Z",
    "extraction_status": "generated_from_project_name"
  },
  {
    "id": "electronic-pattern",
    "name": "Electronic",
    "tempo": 120,
    "timeSignature": [
      4,
      4
    ],
    "length": 64,
    "loop": true,
    "notes": [
      {
        "note": 36,
        "velocity": 127,
        "startTime": 0,
        "duration": 0.5,
        "channel": 9
      },
      {
        "note": 36,
        "velocity": 100,
        "startTime": 2,
        "duration": 0.5,
        "channel": 9
      },
      {
        "note": 36,
        "velocity": 127,
        "startTime": 4,
        "duration": 0.5,
        "channel": 9
      },
      {
        "note": 36,
        "velocity": 100,
        "startTime": 6,
        "duration": 0.5,
        "channel": 9
      },
      {
        "note": 36,
        "velocity": 127,
        "startTime": 8,
        "duration": 0.5,
        "channel": 9
      },
      {
        "note": 36,
        "velocity": 100,
        "startTime": 10,
        "duration": 0.5,
        "channel": 9
      },
      {
        "note": 36,
        "velocity": 127,
        "startTime": 12,
        "duration": 0.5,
        "channel": 9
      },
      {
        "note": 36,
        "velocity": 100,
        "startTime": 14,
        "duration": 0.5,
        "channel": 9
      },
      {
        "note": 36,
        "velocity": 127,
        "startTime": 16,
        "duration": 0.5,
        "channel": 9
      },
      {
        "note": 36,
        "velocity": 100,
        "startTime": 18,
        "duration": 0.5,
        "channel": 9
      },
      {
        "note": 36,
        "velocity": 127,
        "startTime": 20,
        "duration": 0.5,
        "channel": 9
      },
      {
        "note": 36,
        "velocity": 100,
        "startTime": 22,
        "duration": 0.5,
        "channel": 9
      },
      {
        "note": 36,
        "velocity": 127,
        "startTime": 24,
        "duration": 0.5,
        "channel": 9
      },
      {
        "note": 36,
        "velocity": 100,
        "startTime": 26,
        "duration": 0.5,
        "channel": 9
      },
      {
        "note": 36,
        "velocity": 127,
        "startTime": 28,
        "duration": 0.5,
        "channel": 9
      },
      {
        "note": 36,
        "velocity": 100,
        "startTime": 30,
        "duration": 0.5,
        "channel": 9
      },
      {
        "note": 36,
        "velocity": 127,
        "startTime": 32,
        "duration": 0.5,
        "channel": 9
      },
      {
        "note": 36,
        "velocity": 100,
        "startTime": 34,
        "duration": 0.5,
        "channel": 9
      },
      {
        "note": 36,
        "velocity": 127,
        "startTime": 36,
        "duration": 0.5,
        "channel": 9
      },
      {
        "note": 36,
        "velocity": 100,
        "startTime": 38,
        "duration": 0.5,
        "channel": 9
      },
      {
        "note": 36,
        "velocity": 127,
        "startTime": 40,
        "duration": 0.5,
        "channel": 9
      },
      {
        "note": 36,
        "velocity": 100,
        "startTime": 42,
        "duration": 0.5,
        "channel": 9
      },
      {
        "note": 36,
        "velocity": 127,
        "startTime": 44,
        "duration": 0.5,
        "channel": 9
      },
      {
        "note": 36,
        "velocity": 100,
        "startTime": 46,
        "duration": 0.5,
        "channel": 9
      },
      {
        "note": 36,
        "velocity": 127,
        "startTime": 48,
        "duration": 0.5,
        "channel": 9
      },
      {
        "note": 36,
        "velocity": 100,
        "startTime": 50,
        "duration": 0.5,
        "channel": 9
      },
      {
        "note": 36,
        "velocity": 127,
        "startTime": 52,
        "duration": 0.5,
        "channel": 9
      },
      {
        "note": 36,
        "velocity": 100,
        "startTime": 54,
        "duration": 0.5,
        "channel": 9
      },
      {
        "note": 36,
        "velocity": 127,
        "startTime": 56,
        "duration": 0.5,
        "channel": 9
      },
      {
        "note": 36,
        "velocity": 100,
        "startTime": 58,
        "duration": 0.5,
        "channel": 9
      },
      {
        "note": 36,
        "velocity": 127,
        "startTime": 60,
        "duration": 0.5,
        "channel": 9
      },
      {
        "note": 36,
        "velocity": 100,
        "startTime": 62,
        "duration": 0.5,
        "channel": 9
      },
      {
        "note": 38,
        "velocity": 100,
        "startTime": 1,
        "duration": 0.5,
        "channel": 9
      },
      {
        "note": 38,
        "velocity": 100,
        "startTime": 3,
        "duration": 0.5,
        "channel": 9
      },
      {
        "note": 38,
        "velocity": 100,
        "startTime": 5,
        "duration": 0.5,
        "channel": 9
      },
      {
        "note": 38,
        "velocity": 100,
        "startTime": 7,
        "duration": 0.5,
        "channel": 9
      },
      {
        "note": 38,
        "velocity": 100,
        "startTime": 9,
        "duration": 0.5,
        "channel": 9
      },
      {
        "note": 38,
        "velocity": 100,
        "startTime": 11,
        "duration": 0.5,
        "channel": 9
      },
      {
        "note": 38,
        "velocity": 100,
        "startTime": 13,
        "duration": 0.5,
        "channel": 9
      },
      {
        "note": 38,
        "velocity": 100,
        "startTime": 15,
        "duration": 0.5,
        "channel": 9
      },
      {
        "note": 38,
        "velocity": 100,
        "startTime": 17,
        "duration": 0.5,
        "channel": 9
      },
      {
        "note": 38,
        "velocity": 100,
        "startTime": 19,
        "duration": 0.5,
        "channel": 9
      },
      {
        "note": 38,
        "velocity": 100,
        "startTime": 21,
        "duration": 0.5,
        "channel": 9
      },
      {
        "note": 38,
        "velocity": 100,
        "startTime": 23,
        "duration": 0.5,
        "channel": 9
      },
      {
        "note": 38,
        "velocity": 100,
        "startTime": 25,
        "duration": 0.5,
        "channel": 9
      },
      {
        "note": 38,
        "velocity": 100,
        "startTime": 27,
        "duration": 0.5,
        "channel": 9
      },
      {
        "note": 38,
        "velocity": 100,
        "startTime": 29,
        "duration": 0.5,
        "channel": 9
      },
      {
        "note": 38,
        "velocity": 100,
        "startTime": 31,
        "duration": 0.5,
        "channel": 9
      },
      {
        "note": 38,
        "velocity": 100,
        "startTime": 33,
        "duration": 0.5,
        "channel": 9
      },
      {
        "note": 38,
        "velocity": 100,
        "startTime": 35,
        "duration": 0.5,
        "channel": 9
      },
      {
        "note": 38,
        "velocity": 100,
        "startTime": 37,
        "duration": 0.5,
        "channel": 9
      },
      {
        "note": 38,
        "velocity": 100,
        "startTime": 39,
        "duration": 0.5,
        "channel": 9
      },
      {
        "note": 38,
        "velocity": 100,
        "startTime": 41,
        "duration": 0.5,
        "channel": 9
      },
      {
        "note": 38,
        "velocity": 100,
        "startTime": 43,
        "duration": 0.5,
        "channel": 9
      },
      {
        "note": 38,
        "velocity": 100,
        "startTime": 45,
        "duration": 0.5,
        "channel": 9
      },
      {
        "note": 38,
        "velocity": 100,
        "startTime": 47,
        "duration": 0.5,
        "channel": 9
      },
      {
        "note": 38,
        "velocity": 100,
        "startTime": 49,
        "duration": 0.5,
        "channel": 9
      },
      {
        "note": 38,
        "velocity": 100,
        "startTime": 51,
        "duration": 0.5,
        "channel": 9
      },
      {
        "note": 38,
        "velocity": 100,
        "startTime": 53,
        "duration": 0.5,
        "channel": 9
      },
      {
        "note": 38,
        "velocity": 100,
        "startTime": 55,
        "duration": 0.5,
        "channel": 9
      },
      {
        "note": 38,
        "velocity": 100,
        "startTime": 57,
        "duration": 0.5,
        "channel": 9
      },
      {
        "note": 38,
        "velocity": 100,
        "startTime": 59,
        "duration": 0.5,
        "channel": 9
      },
      {
        "note": 38,
        "velocity": 100,
        "startTime": 61,
        "duration": 0.5,
        "channel": 9
      },
      {
        "note": 38,
        "velocity": 100,
        "startTime": 63,
        "duration": 0.5,
        "channel": 9
      },
      {
        "note": 42,
        "velocity": 80,
        "startTime": 0,
        "duration": 0.25,
        "channel": 9
      },
      {
        "note": 42,
        "velocity": 60,
        "startTime": 0.5,
        "duration": 0.25,
        "channel": 9
      },
      {
        "note": 42,
        "velocity": 80,
        "startTime": 1,
        "duration": 0.25,
        "channel": 9
      },
      {
        "note": 42,
        "velocity": 60,
        "startTime": 1.5,
        "duration": 0.25,
        "channel": 9
      },
      {
        "note": 42,
        "velocity": 80,
        "startTime": 2,
        "duration": 0.25,
        "channel": 9
      },
      {
        "note": 42,
        "velocity": 60,
        "startTime": 2.5,
        "duration": 0.25,
        "channel": 9
      },
      {
        "note": 42,
        "velocity": 80,
        "startTime": 3,
        "duration": 0.25,
        "channel": 9
      },
      {
        "note": 42,
        "velocity": 60,
        "startTime": 3.5,
        "duration": 0.25,
        "channel": 9
      },
      {
        "note": 42,
        "velocity": 80,
        "startTime": 4,
        "duration": 0.25,
        "channel": 9
      },
      {
        "note": 42,
        "velocity": 60,
        "startTime": 4.5,
        "duration": 0.25,
        "channel": 9
      },
      {
        "note": 42,
        "velocity": 80,
        "startTime": 5,
        "duration": 0.25,
        "channel": 9
      },
      {
        "note": 42,
        "velocity": 60,
        "startTime": 5.5,
        "duration": 0.25,
        "channel": 9
      },
      {
        "note": 42,
        "velocity": 80,
        "startTime": 6,
        "duration": 0.25,
        "channel": 9
      },
      {
        "note": 42,
        "velocity": 60,
        "startTime": 6.5,
        "duration": 0.25,
        "channel": 9
      },
      {
        "note": 42,
        "velocity": 80,
        "startTime": 7,
        "duration": 0.25,
        "channel": 9
      },
      {
        "note": 42,
        "velocity": 60,
        "startTime": 7.5,
        "duration": 0.25,
        "channel": 9
      },
      {
        "note": 42,
        "velocity": 80,
        "startTime": 8,
        "duration": 0.25,
        "channel": 9
      },
      {
        "note": 42,
        "velocity": 60,
        "startTime": 8.5,
        "duration": 0.25,
        "channel": 9
      },
      {
        "note": 42,
        "velocity": 80,
        "startTime": 9,
        "duration": 0.25,
        "channel": 9
      },
      {
        "note": 42,
        "velocity": 60,
        "startTime": 9.5,
        "duration": 0.25,
        "channel": 9
      },
      {
        "note": 42,
        "velocity": 80,
        "startTime": 10,
        "duration": 0.25,
        "channel": 9
      },
      {
        "note": 42,
        "velocity": 60,
        "startTime": 10.5,
        "duration": 0.25,
        "channel": 9
      },
      {
        "note": 42,
        "velocity": 80,
        "startTime": 11,
        "duration": 0.25,
        "channel": 9
      },
      {
        "note": 42,
        "velocity": 60,
        "startTime": 11.5,
        "duration": 0.25,
        "channel": 9
      },
      {
        "note": 42,
        "velocity": 80,
        "startTime": 12,
        "duration": 0.25,
        "channel": 9
      },
      {
        "note": 42,
        "velocity": 60,
        "startTime": 12.5,
        "duration": 0.25,
        "channel": 9
      },
      {
        "note": 42,
        "velocity": 80,
        "startTime": 13,
        "duration": 0.25,
        "channel": 9
      },
      {
        "note": 42,
        "velocity": 60,
        "startTime": 13.5,
        "duration": 0.25,
        "channel": 9
      },
      {
        "note": 42,
        "velocity": 80,
        "startTime": 14,
        "duration": 0.25,
        "channel": 9
      },
      {
        "note": 42,
        "velocity": 60,
        "startTime": 14.5,
        "duration": 0.25,
        "channel": 9
      },
      {
        "note": 42,
        "velocity": 80,
        "startTime": 15,
        "duration": 0.25,
        "channel": 9
      },
      {
        "note": 42,
        "velocity": 60,
        "startTime": 15.5,
        "duration": 0.25,
        "channel": 9
      },
      {
        "note": 42,
        "velocity": 80,
        "startTime": 16,
        "duration": 0.25,
        "channel": 9
      },
      {
        "note": 42,
        "velocity": 60,
        "startTime": 16.5,
        "duration": 0.25,
        "channel": 9
      },
      {
        "note": 42,
        "velocity": 80,
        "startTime": 17,
        "duration": 0.25,
        "channel": 9
      },
      {
        "note": 42,
        "velocity": 60,
        "startTime": 17.5,
        "duration": 0.25,
        "channel": 9
      },
      {
        "note": 42,
        "velocity": 80,
        "startTime": 18,
        "duration": 0.25,
        "channel": 9
      },
      {
        "note": 42,
        "velocity": 60,
        "startTime": 18.5,
        "duration": 0.25,
        "channel": 9
      },
      {
        "note": 42,
        "velocity": 80,
        "startTime": 19,
        "duration": 0.25,
        "channel": 9
      },
      {
        "note": 42,
        "velocity": 60,
        "startTime": 19.5,
        "duration": 0.25,
        "channel": 9
      },
      {
        "note": 42,
        "velocity": 80,
        "startTime": 20,
        "duration": 0.25,
        "channel": 9
      },
      {
        "note": 42,
        "velocity": 60,
        "startTime": 20.5,
        "duration": 0.25,
        "channel": 9
      },
      {
        "note": 42,
        "velocity": 80,
        "startTime": 21,
        "duration": 0.25,
        "channel": 9
      },
      {
        "note": 42,
        "velocity": 60,
        "startTime": 21.5,
        "duration": 0.25,
        "channel": 9
      },
      {
        "note": 42,
        "velocity": 80,
        "startTime": 22,
        "duration": 0.25,
        "channel": 9
      },
      {
        "note": 42,
        "velocity": 60,
        "startTime": 22.5,
        "duration": 0.25,
        "channel": 9
      },
      {
        "note": 42,
        "velocity": 80,
        "startTime": 23,
        "duration": 0.25,
        "channel": 9
      },
      {
        "note": 42,
        "velocity": 60,
        "startTime": 23.5,
        "duration": 0.25,
        "channel": 9
      },
      {
        "note": 42,
        "velocity": 80,
        "startTime": 24,
        "duration": 0.25,
        "channel": 9
      },
      {
        "note": 42,
        "velocity": 60,
        "startTime": 24.5,
        "duration": 0.25,
        "channel": 9
      },
      {
        "note": 42,
        "velocity": 80,
        "startTime": 25,
        "duration": 0.25,
        "channel": 9
      },
      {
        "note": 42,
        "velocity": 60,
        "startTime": 25.5,
        "duration": 0.25,
        "channel": 9
      },
      {
        "note": 42,
        "velocity": 80,
        "startTime": 26,
        "duration": 0.25,
        "channel": 9
      },
      {
        "note": 42,
        "velocity": 60,
        "startTime": 26.5,
        "duration": 0.25,
        "channel": 9
      },
      {
        "note": 42,
        "velocity": 80,
        "startTime": 27,
        "duration": 0.25,
        "channel": 9
      },
      {
        "note": 42,
        "velocity": 60,
        "startTime": 27.5,
        "duration": 0.25,
        "channel": 9
      },
      {
        "note": 42,
        "velocity": 80,
        "startTime": 28,
        "duration": 0.25,
        "channel": 9
      },
      {
        "note": 42,
        "velocity": 60,
        "startTime": 28.5,
        "duration": 0.25,
        "channel": 9
      },
      {
        "note": 42,
        "velocity": 80,
        "startTime": 29,
        "duration": 0.25,
        "channel": 9
      },
      {
        "note": 42,
        "velocity": 60,
        "startTime": 29.5,
        "duration": 0.25,
        "channel": 9
      },
      {
        "note": 42,
        "velocity": 80,
        "startTime": 30,
        "duration": 0.25,
        "channel": 9
      },
      {
        "note": 42,
        "velocity": 60,
        "startTime": 30.5,
        "duration": 0.25,
        "channel": 9
      },
      {
        "note": 42,
        "velocity": 80,
        "startTime": 31,
        "duration": 0.25,
        "channel": 9
      },
      {
        "note": 42,
        "velocity": 60,
        "startTime": 31.5,
        "duration": 0.25,
        "channel": 9
      },
      {
        "note": 42,
        "velocity": 80,
        "startTime": 32,
        "duration": 0.25,
        "channel": 9
      },
      {
        "note": 42,
        "velocity": 60,
        "startTime": 32.5,
        "duration": 0.25,
        "channel": 9
      },
      {
        "note": 42,
        "velocity": 80,
        "startTime": 33,
        "duration": 0.25,
        "channel": 9
      },
      {
        "note": 42,
        "velocity": 60,
        "startTime": 33.5,
        "duration": 0.25,
        "channel": 9
      },
      {
        "note": 42,
        "velocity": 80,
        "startTime": 34,
        "duration": 0.25,
        "channel": 9
      },
      {
        "note": 42,
        "velocity": 60,
        "startTime": 34.5,
        "duration": 0.25,
        "channel": 9
      },
      {
        "note": 42,
        "velocity": 80,
        "startTime": 35,
        "duration": 0.25,
        "channel": 9
      },
      {
        "note": 42,
        "velocity": 60,
        "startTime": 35.5,
        "duration": 0.25,
        "channel": 9
      },
      {
        "note": 42,
        "velocity": 80,
        "startTime": 36,
        "duration": 0.25,
        "channel": 9
      },
      {
        "note": 42,
        "velocity": 60,
        "startTime": 36.5,
        "duration": 0.25,
        "channel": 9
      },
      {
        "note": 42,
        "velocity": 80,
        "startTime": 37,
        "duration": 0.25,
        "channel": 9
      },
      {
        "note": 42,
        "velocity": 60,
        "startTime": 37.5,
        "duration": 0.25,
        "channel": 9
      },
      {
        "note": 42,
        "velocity": 80,
        "startTime": 38,
        "duration": 0.25,
        "channel": 9
      },
      {
        "note": 42,
        "velocity": 60,
        "startTime": 38.5,
        "duration": 0.25,
        "channel": 9
      },
      {
        "note": 42,
        "velocity": 80,
        "startTime": 39,
        "duration": 0.25,
        "channel": 9
      },
      {
        "note": 42,
        "velocity": 60,
        "startTime": 39.5,
        "duration": 0.25,
        "channel": 9
      },
      {
        "note": 42,
        "velocity": 80,
        "startTime": 40,
        "duration": 0.25,
        "channel": 9
      },
      {
        "note": 42,
        "velocity": 60,
        "startTime": 40.5,
        "duration": 0.25,
        "channel": 9
      },
      {
        "note": 42,
        "velocity": 80,
        "startTime": 41,
        "duration": 0.25,
        "channel": 9
      },
      {
        "note": 42,
        "velocity": 60,
        "startTime": 41.5,
        "duration": 0.25,
        "channel": 9
      },
      {
        "note": 42,
        "velocity": 80,
        "startTime": 42,
        "duration": 0.25,
        "channel": 9
      },
      {
        "note": 42,
        "velocity": 60,
        "startTime": 42.5,
        "duration": 0.25,
        "channel": 9
      },
      {
        "note": 42,
        "velocity": 80,
        "startTime": 43,
        "duration": 0.25,
        "channel": 9
      },
      {
        "note": 42,
        "velocity": 60,
        "startTime": 43.5,
        "duration": 0.25,
        "channel": 9
      },
      {
        "note": 42,
        "velocity": 80,
        "startTime": 44,
        "duration": 0.25,
        "channel": 9
      },
      {
        "note": 42,
        "velocity": 60,
        "startTime": 44.5,
        "duration": 0.25,
        "channel": 9
      },
      {
        "note": 42,
        "velocity": 80,
        "startTime": 45,
        "duration": 0.25,
        "channel": 9
      },
      {
        "note": 42,
        "velocity": 60,
        "startTime": 45.5,
        "duration": 0.25,
        "channel": 9
      },
      {
        "note": 42,
        "velocity": 80,
        "startTime": 46,
        "duration": 0.25,
        "channel": 9
      },
      {
        "note": 42,
        "velocity": 60,
        "startTime": 46.5,
        "duration": 0.25,
        "channel": 9
      },
      {
        "note": 42,
        "velocity": 80,
        "startTime": 47,
        "duration": 0.25,
        "channel": 9
      },
      {
        "note": 42,
        "velocity": 60,
        "startTime": 47.5,
        "duration": 0.25,
        "channel": 9
      },
      {
        "note": 42,
        "velocity": 80,
        "startTime": 48,
        "duration": 0.25,
        "channel": 9
      },
      {
        "note": 42,
        "velocity": 60,
        "startTime": 48.5,
        "duration": 0.25,
        "channel": 9
      },
      {
        "note": 42,
        "velocity": 80,
        "startTime": 49,
        "duration": 0.25,
        "channel": 9
      },
      {
        "note": 42,
        "velocity": 60,
        "startTime": 49.5,
        "duration": 0.25,
        "channel": 9
      },
      {
        "note": 42,
        "velocity": 80,
        "startTime": 50,
        "duration": 0.25,
        "channel": 9
      },
      {
        "note": 42,
        "velocity": 60,
        "startTime": 50.5,
        "duration": 0.25,
        "channel": 9
      },
      {
        "note": 42,
        "velocity": 80,
        "startTime": 51,
        "duration": 0.25,
        "channel": 9
      },
      {
        "note": 42,
        "velocity": 60,
        "startTime": 51.5,
        "duration": 0.25,
        "channel": 9
      },
      {
        "note": 42,
        "velocity": 80,
        "startTime": 52,
        "duration": 0.25,
        "channel": 9
      },
      {
        "note": 42,
        "velocity": 60,
        "startTime": 52.5,
        "duration": 0.25,
        "channel": 9
      },
      {
        "note": 42,
        "velocity": 80,
        "startTime": 53,
        "duration": 0.25,
        "channel": 9
      },
      {
        "note": 42,
        "velocity": 60,
        "startTime": 53.5,
        "duration": 0.25,
        "channel": 9
      },
      {
        "note": 42,
        "velocity": 80,
        "startTime": 54,
        "duration": 0.25,
        "channel": 9
      },
      {
        "note": 42,
        "velocity": 60,
        "startTime": 54.5,
        "duration": 0.25,
        "channel": 9
      },
      {
        "note": 42,
        "velocity": 80,
        "startTime": 55,
        "duration": 0.25,
        "channel": 9
      },
      {
        "note": 42,
        "velocity": 60,
        "startTime": 55.5,
        "duration": 0.25,
        "channel": 9
      },
      {
        "note": 42,
        "velocity": 80,
        "startTime": 56,
        "duration": 0.25,
        "channel": 9
      },
      {
        "note": 42,
        "velocity": 60,
        "startTime": 56.5,
        "duration": 0.25,
        "channel": 9
      },
      {
        "note": 42,
        "velocity": 80,
        "startTime": 57,
        "duration": 0.25,
        "channel": 9
      },
      {
        "note": 42,
        "velocity": 60,
        "startTime": 57.5,
        "duration": 0.25,
        "channel": 9
      },
      {
        "note": 42,
        "velocity": 80,
        "startTime": 58,
        "duration": 0.25,
        "channel": 9
      },
      {
        "note": 42,
        "velocity": 60,
        "startTime": 58.5,
        "duration": 0.25,
        "channel": 9
      },
      {
        "note": 42,
        "velocity": 80,
        "startTime": 59,
        "duration": 0.25,
        "channel": 9
      },
      {
        "note": 42,
        "velocity": 60,
        "startTime": 59.5,
        "duration": 0.25,
        "channel": 9
      },
      {
        "note": 42,
        "velocity": 80,
        "startTime": 60,
        "duration": 0.25,
        "channel": 9
      },
      {
        "note": 42,
        "velocity": 60,
        "startTime": 60.5,
        "duration": 0.25,
        "channel": 9
      },
      {
        "note": 42,
        "velocity": 80,
        "startTime": 61,
        "duration": 0.25,
        "channel": 9
      },
      {
        "note": 42,
        "velocity": 60,
        "startTime": 61.5,
        "duration": 0.25,
        "channel": 9
      },
      {
        "note": 42,
        "velocity": 80,
        "startTime": 62,
        "duration": 0.25,
        "channel": 9
      },
      {
        "note": 42,
        "velocity": 60,
        "startTime": 62.5,
        "duration": 0.25,
        "channel": 9
      },
      {
        "note": 42,
        "velocity": 80,
        "startTime": 63,
        "duration": 0.25,
        "channel": 9
      },
      {
        "note": 42,
        "velocity": 60,
        "startTime": 63.5,
        "duration": 0.25,
        "channel": 9
      },
      {
        "note": 36,
        "velocity": 100,
        "startTime": 0,
        "duration": 1,
        "channel": 0
      },
      {
        "note": 36,
        "velocity": 100,
        "startTime": 2,
        "duration": 1,
        "channel": 0
      },
      {
        "note": 36,
        "velocity": 100,
        "startTime": 4,
        "duration": 1,
        "channel": 0
      },
      {
        "note": 36,
        "velocity": 100,
        "startTime": 6,
        "duration": 1,
        "channel": 0
      },
      {
        "note": 36,
        "velocity": 100,
        "startTime": 8,
        "duration": 1,
        "channel": 0
      },
      {
        "note": 36,
        "velocity": 100,
        "startTime": 10,
        "duration": 1,
        "channel": 0
      },
      {
        "note": 36,
        "velocity": 100,
        "startTime": 12,
        "duration": 1,
        "channel": 0
      },
      {
        "note": 36,
        "velocity": 100,
        "startTime": 14,
        "duration": 1,
        "channel": 0
      },
      {
        "note": 36,
        "velocity": 100,
        "startTime": 16,
        "duration": 1,
        "channel": 0
      },
      {
        "note": 36,
        "velocity": 100,
        "startTime": 18,
        "duration": 1,
        "channel": 0
      },
      {
        "note": 36,
        "velocity": 100,
        "startTime": 20,
        "duration": 1,
        "channel": 0
      },
      {
        "note": 36,
        "velocity": 100,
        "startTime": 22,
        "duration": 1,
        "channel": 0
      },
      {
        "note": 36,
        "velocity": 100,
        "startTime": 24,
        "duration": 1,
        "channel": 0
      },
      {
        "note": 36,
        "velocity": 100,
        "startTime": 26,
        "duration": 1,
        "channel": 0
      },
      {
        "note": 36,
        "velocity": 100,
        "startTime": 28,
        "duration": 1,
        "channel": 0
      },
      {
        "note": 36,
        "velocity": 100,
        "startTime": 30,
        "duration": 1,
        "channel": 0
      },
      {
        "note": 36,
        "velocity": 100,
        "startTime": 32,
        "duration": 1,
        "channel": 0
      },
      {
        "note": 36,
        "velocity": 100,
        "startTime": 34,
        "duration": 1,
        "channel": 0
      },
      {
        "note": 36,
        "velocity": 100,
        "startTime": 36,
        "duration": 1,
        "channel": 0
      },
      {
        "note": 36,
        "velocity": 100,
        "startTime": 38,
        "duration": 1,
        "channel": 0
      },
      {
        "note": 36,
        "velocity": 100,
        "startTime": 40,
        "duration": 1,
        "channel": 0
      },
      {
        "note": 36,
        "velocity": 100,
        "startTime": 42,
        "duration": 1,
        "channel": 0
      },
      {
        "note": 36,
        "velocity": 100,
        "startTime": 44,
        "duration": 1,
        "channel": 0
      },
      {
        "note": 36,
        "velocity": 100,
        "startTime": 46,
        "duration": 1,
        "channel": 0
      },
      {
        "note": 36,
        "velocity": 100,
        "startTime": 48,
        "duration": 1,
        "channel": 0
      },
      {
        "note": 36,
        "velocity": 100,
        "startTime": 50,
        "duration": 1,
        "channel": 0
      },
      {
        "note": 36,
        "velocity": 100,
        "startTime": 52,
        "duration": 1,
        "channel": 0
      },
      {
        "note": 36,
        "velocity": 100,
        "startTime": 54,
        "duration": 1,
        "channel": 0
      },
      {
        "note": 36,
        "velocity": 100,
        "startTime": 56,
        "duration": 1,
        "channel": 0
      },
      {
        "note": 36,
        "velocity": 100,
        "startTime": 58,
        "duration": 1,
        "channel": 0
      },
      {
        "note": 36,
        "velocity": 100,
        "startTime": 60,
        "duration": 1,
        "channel": 0
      },
      {
        "note": 36,
        "velocity": 100,
        "startTime": 62,
        "duration": 1,
        "channel": 0
      }
    ],
    "project_name": "TEST 2 MIRA MIRA 520",
    "project_path": "/Users/camilopineda/Desktop/SHINE DARK MIDI PARTY/Logic copy sep 2025/TEST 2 MIRA MIRA 520/TEST 2 MIRA MIRA 520.logicx",
    "extraction_date": "2025-09-05T23:38:35.388Z",
    "extraction_status": "generated_from_project_name"
  },
  {
    "id": "electronic-pattern",
    "name": "Electronic",
    "tempo": 120,
    "timeSignature": [
      4,
      4
    ],
    "length": 64,
    "loop": true,
    "notes": [
      {
        "note": 36,
        "velocity": 127,
        "startTime": 0,
        "duration": 0.5,
        "channel": 9
      },
      {
        "note": 36,
        "velocity": 100,
        "startTime": 2,
        "duration": 0.5,
        "channel": 9
      },
      {
        "note": 36,
        "velocity": 127,
        "startTime": 4,
        "duration": 0.5,
        "channel": 9
      },
      {
        "note": 36,
        "velocity": 100,
        "startTime": 6,
        "duration": 0.5,
        "channel": 9
      },
      {
        "note": 36,
        "velocity": 127,
        "startTime": 8,
        "duration": 0.5,
        "channel": 9
      },
      {
        "note": 36,
        "velocity": 100,
        "startTime": 10,
        "duration": 0.5,
        "channel": 9
      },
      {
        "note": 36,
        "velocity": 127,
        "startTime": 12,
        "duration": 0.5,
        "channel": 9
      },
      {
        "note": 36,
        "velocity": 100,
        "startTime": 14,
        "duration": 0.5,
        "channel": 9
      },
      {
        "note": 36,
        "velocity": 127,
        "startTime": 16,
        "duration": 0.5,
        "channel": 9
      },
      {
        "note": 36,
        "velocity": 100,
        "startTime": 18,
        "duration": 0.5,
        "channel": 9
      },
      {
        "note": 36,
        "velocity": 127,
        "startTime": 20,
        "duration": 0.5,
        "channel": 9
      },
      {
        "note": 36,
        "velocity": 100,
        "startTime": 22,
        "duration": 0.5,
        "channel": 9
      },
      {
        "note": 36,
        "velocity": 127,
        "startTime": 24,
        "duration": 0.5,
        "channel": 9
      },
      {
        "note": 36,
        "velocity": 100,
        "startTime": 26,
        "duration": 0.5,
        "channel": 9
      },
      {
        "note": 36,
        "velocity": 127,
        "startTime": 28,
        "duration": 0.5,
        "channel": 9
      },
      {
        "note": 36,
        "velocity": 100,
        "startTime": 30,
        "duration": 0.5,
        "channel": 9
      },
      {
        "note": 36,
        "velocity": 127,
        "startTime": 32,
        "duration": 0.5,
        "channel": 9
      },
      {
        "note": 36,
        "velocity": 100,
        "startTime": 34,
        "duration": 0.5,
        "channel": 9
      },
      {
        "note": 36,
        "velocity": 127,
        "startTime": 36,
        "duration": 0.5,
        "channel": 9
      },
      {
        "note": 36,
        "velocity": 100,
        "startTime": 38,
        "duration": 0.5,
        "channel": 9
      },
      {
        "note": 36,
        "velocity": 127,
        "startTime": 40,
        "duration": 0.5,
        "channel": 9
      },
      {
        "note": 36,
        "velocity": 100,
        "startTime": 42,
        "duration": 0.5,
        "channel": 9
      },
      {
        "note": 36,
        "velocity": 127,
        "startTime": 44,
        "duration": 0.5,
        "channel": 9
      },
      {
        "note": 36,
        "velocity": 100,
        "startTime": 46,
        "duration": 0.5,
        "channel": 9
      },
      {
        "note": 36,
        "velocity": 127,
        "startTime": 48,
        "duration": 0.5,
        "channel": 9
      },
      {
        "note": 36,
        "velocity": 100,
        "startTime": 50,
        "duration": 0.5,
        "channel": 9
      },
      {
        "note": 36,
        "velocity": 127,
        "startTime": 52,
        "duration": 0.5,
        "channel": 9
      },
      {
        "note": 36,
        "velocity": 100,
        "startTime": 54,
        "duration": 0.5,
        "channel": 9
      },
      {
        "note": 36,
        "velocity": 127,
        "startTime": 56,
        "duration": 0.5,
        "channel": 9
      },
      {
        "note": 36,
        "velocity": 100,
        "startTime": 58,
        "duration": 0.5,
        "channel": 9
      },
      {
        "note": 36,
        "velocity": 127,
        "startTime": 60,
        "duration": 0.5,
        "channel": 9
      },
      {
        "note": 36,
        "velocity": 100,
        "startTime": 62,
        "duration": 0.5,
        "channel": 9
      },
      {
        "note": 38,
        "velocity": 100,
        "startTime": 1,
        "duration": 0.5,
        "channel": 9
      },
      {
        "note": 38,
        "velocity": 100,
        "startTime": 3,
        "duration": 0.5,
        "channel": 9
      },
      {
        "note": 38,
        "velocity": 100,
        "startTime": 5,
        "duration": 0.5,
        "channel": 9
      },
      {
        "note": 38,
        "velocity": 100,
        "startTime": 7,
        "duration": 0.5,
        "channel": 9
      },
      {
        "note": 38,
        "velocity": 100,
        "startTime": 9,
        "duration": 0.5,
        "channel": 9
      },
      {
        "note": 38,
        "velocity": 100,
        "startTime": 11,
        "duration": 0.5,
        "channel": 9
      },
      {
        "note": 38,
        "velocity": 100,
        "startTime": 13,
        "duration": 0.5,
        "channel": 9
      },
      {
        "note": 38,
        "velocity": 100,
        "startTime": 15,
        "duration": 0.5,
        "channel": 9
      },
      {
        "note": 38,
        "velocity": 100,
        "startTime": 17,
        "duration": 0.5,
        "channel": 9
      },
      {
        "note": 38,
        "velocity": 100,
        "startTime": 19,
        "duration": 0.5,
        "channel": 9
      },
      {
        "note": 38,
        "velocity": 100,
        "startTime": 21,
        "duration": 0.5,
        "channel": 9
      },
      {
        "note": 38,
        "velocity": 100,
        "startTime": 23,
        "duration": 0.5,
        "channel": 9
      },
      {
        "note": 38,
        "velocity": 100,
        "startTime": 25,
        "duration": 0.5,
        "channel": 9
      },
      {
        "note": 38,
        "velocity": 100,
        "startTime": 27,
        "duration": 0.5,
        "channel": 9
      },
      {
        "note": 38,
        "velocity": 100,
        "startTime": 29,
        "duration": 0.5,
        "channel": 9
      },
      {
        "note": 38,
        "velocity": 100,
        "startTime": 31,
        "duration": 0.5,
        "channel": 9
      },
      {
        "note": 38,
        "velocity": 100,
        "startTime": 33,
        "duration": 0.5,
        "channel": 9
      },
      {
        "note": 38,
        "velocity": 100,
        "startTime": 35,
        "duration": 0.5,
        "channel": 9
      },
      {
        "note": 38,
        "velocity": 100,
        "startTime": 37,
        "duration": 0.5,
        "channel": 9
      },
      {
        "note": 38,
        "velocity": 100,
        "startTime": 39,
        "duration": 0.5,
        "channel": 9
      },
      {
        "note": 38,
        "velocity": 100,
        "startTime": 41,
        "duration": 0.5,
        "channel": 9
      },
      {
        "note": 38,
        "velocity": 100,
        "startTime": 43,
        "duration": 0.5,
        "channel": 9
      },
      {
        "note": 38,
        "velocity": 100,
        "startTime": 45,
        "duration": 0.5,
        "channel": 9
      },
      {
        "note": 38,
        "velocity": 100,
        "startTime": 47,
        "duration": 0.5,
        "channel": 9
      },
      {
        "note": 38,
        "velocity": 100,
        "startTime": 49,
        "duration": 0.5,
        "channel": 9
      },
      {
        "note": 38,
        "velocity": 100,
        "startTime": 51,
        "duration": 0.5,
        "channel": 9
      },
      {
        "note": 38,
        "velocity": 100,
        "startTime": 53,
        "duration": 0.5,
        "channel": 9
      },
      {
        "note": 38,
        "velocity": 100,
        "startTime": 55,
        "duration": 0.5,
        "channel": 9
      },
      {
        "note": 38,
        "velocity": 100,
        "startTime": 57,
        "duration": 0.5,
        "channel": 9
      },
      {
        "note": 38,
        "velocity": 100,
        "startTime": 59,
        "duration": 0.5,
        "channel": 9
      },
      {
        "note": 38,
        "velocity": 100,
        "startTime": 61,
        "duration": 0.5,
        "channel": 9
      },
      {
        "note": 38,
        "velocity": 100,
        "startTime": 63,
        "duration": 0.5,
        "channel": 9
      },
      {
        "note": 42,
        "velocity": 80,
        "startTime": 0,
        "duration": 0.25,
        "channel": 9
      },
      {
        "note": 42,
        "velocity": 60,
        "startTime": 0.5,
        "duration": 0.25,
        "channel": 9
      },
      {
        "note": 42,
        "velocity": 80,
        "startTime": 1,
        "duration": 0.25,
        "channel": 9
      },
      {
        "note": 42,
        "velocity": 60,
        "startTime": 1.5,
        "duration": 0.25,
        "channel": 9
      },
      {
        "note": 42,
        "velocity": 80,
        "startTime": 2,
        "duration": 0.25,
        "channel": 9
      },
      {
        "note": 42,
        "velocity": 60,
        "startTime": 2.5,
        "duration": 0.25,
        "channel": 9
      },
      {
        "note": 42,
        "velocity": 80,
        "startTime": 3,
        "duration": 0.25,
        "channel": 9
      },
      {
        "note": 42,
        "velocity": 60,
        "startTime": 3.5,
        "duration": 0.25,
        "channel": 9
      },
      {
        "note": 42,
        "velocity": 80,
        "startTime": 4,
        "duration": 0.25,
        "channel": 9
      },
      {
        "note": 42,
        "velocity": 60,
        "startTime": 4.5,
        "duration": 0.25,
        "channel": 9
      },
      {
        "note": 42,
        "velocity": 80,
        "startTime": 5,
        "duration": 0.25,
        "channel": 9
      },
      {
        "note": 42,
        "velocity": 60,
        "startTime": 5.5,
        "duration": 0.25,
        "channel": 9
      },
      {
        "note": 42,
        "velocity": 80,
        "startTime": 6,
        "duration": 0.25,
        "channel": 9
      },
      {
        "note": 42,
        "velocity": 60,
        "startTime": 6.5,
        "duration": 0.25,
        "channel": 9
      },
      {
        "note": 42,
        "velocity": 80,
        "startTime": 7,
        "duration": 0.25,
        "channel": 9
      },
      {
        "note": 42,
        "velocity": 60,
        "startTime": 7.5,
        "duration": 0.25,
        "channel": 9
      },
      {
        "note": 42,
        "velocity": 80,
        "startTime": 8,
        "duration": 0.25,
        "channel": 9
      },
      {
        "note": 42,
        "velocity": 60,
        "startTime": 8.5,
        "duration": 0.25,
        "channel": 9
      },
      {
        "note": 42,
        "velocity": 80,
        "startTime": 9,
        "duration": 0.25,
        "channel": 9
      },
      {
        "note": 42,
        "velocity": 60,
        "startTime": 9.5,
        "duration": 0.25,
        "channel": 9
      },
      {
        "note": 42,
        "velocity": 80,
        "startTime": 10,
        "duration": 0.25,
        "channel": 9
      },
      {
        "note": 42,
        "velocity": 60,
        "startTime": 10.5,
        "duration": 0.25,
        "channel": 9
      },
      {
        "note": 42,
        "velocity": 80,
        "startTime": 11,
        "duration": 0.25,
        "channel": 9
      },
      {
        "note": 42,
        "velocity": 60,
        "startTime": 11.5,
        "duration": 0.25,
        "channel": 9
      },
      {
        "note": 42,
        "velocity": 80,
        "startTime": 12,
        "duration": 0.25,
        "channel": 9
      },
      {
        "note": 42,
        "velocity": 60,
        "startTime": 12.5,
        "duration": 0.25,
        "channel": 9
      },
      {
        "note": 42,
        "velocity": 80,
        "startTime": 13,
        "duration": 0.25,
        "channel": 9
      },
      {
        "note": 42,
        "velocity": 60,
        "startTime": 13.5,
        "duration": 0.25,
        "channel": 9
      },
      {
        "note": 42,
        "velocity": 80,
        "startTime": 14,
        "duration": 0.25,
        "channel": 9
      },
      {
        "note": 42,
        "velocity": 60,
        "startTime": 14.5,
        "duration": 0.25,
        "channel": 9
      },
      {
        "note": 42,
        "velocity": 80,
        "startTime": 15,
        "duration": 0.25,
        "channel": 9
      },
      {
        "note": 42,
        "velocity": 60,
        "startTime": 15.5,
        "duration": 0.25,
        "channel": 9
      },
      {
        "note": 42,
        "velocity": 80,
        "startTime": 16,
        "duration": 0.25,
        "channel": 9
      },
      {
        "note": 42,
        "velocity": 60,
        "startTime": 16.5,
        "duration": 0.25,
        "channel": 9
      },
      {
        "note": 42,
        "velocity": 80,
        "startTime": 17,
        "duration": 0.25,
        "channel": 9
      },
      {
        "note": 42,
        "velocity": 60,
        "startTime": 17.5,
        "duration": 0.25,
        "channel": 9
      },
      {
        "note": 42,
        "velocity": 80,
        "startTime": 18,
        "duration": 0.25,
        "channel": 9
      },
      {
        "note": 42,
        "velocity": 60,
        "startTime": 18.5,
        "duration": 0.25,
        "channel": 9
      },
      {
        "note": 42,
        "velocity": 80,
        "startTime": 19,
        "duration": 0.25,
        "channel": 9
      },
      {
        "note": 42,
        "velocity": 60,
        "startTime": 19.5,
        "duration": 0.25,
        "channel": 9
      },
      {
        "note": 42,
        "velocity": 80,
        "startTime": 20,
        "duration": 0.25,
        "channel": 9
      },
      {
        "note": 42,
        "velocity": 60,
        "startTime": 20.5,
        "duration": 0.25,
        "channel": 9
      },
      {
        "note": 42,
        "velocity": 80,
        "startTime": 21,
        "duration": 0.25,
        "channel": 9
      },
      {
        "note": 42,
        "velocity": 60,
        "startTime": 21.5,
        "duration": 0.25,
        "channel": 9
      },
      {
        "note": 42,
        "velocity": 80,
        "startTime": 22,
        "duration": 0.25,
        "channel": 9
      },
      {
        "note": 42,
        "velocity": 60,
        "startTime": 22.5,
        "duration": 0.25,
        "channel": 9
      },
      {
        "note": 42,
        "velocity": 80,
        "startTime": 23,
        "duration": 0.25,
        "channel": 9
      },
      {
        "note": 42,
        "velocity": 60,
        "startTime": 23.5,
        "duration": 0.25,
        "channel": 9
      },
      {
        "note": 42,
        "velocity": 80,
        "startTime": 24,
        "duration": 0.25,
        "channel": 9
      },
      {
        "note": 42,
        "velocity": 60,
        "startTime": 24.5,
        "duration": 0.25,
        "channel": 9
      },
      {
        "note": 42,
        "velocity": 80,
        "startTime": 25,
        "duration": 0.25,
        "channel": 9
      },
      {
        "note": 42,
        "velocity": 60,
        "startTime": 25.5,
        "duration": 0.25,
        "channel": 9
      },
      {
        "note": 42,
        "velocity": 80,
        "startTime": 26,
        "duration": 0.25,
        "channel": 9
      },
      {
        "note": 42,
        "velocity": 60,
        "startTime": 26.5,
        "duration": 0.25,
        "channel": 9
      },
      {
        "note": 42,
        "velocity": 80,
        "startTime": 27,
        "duration": 0.25,
        "channel": 9
      },
      {
        "note": 42,
        "velocity": 60,
        "startTime": 27.5,
        "duration": 0.25,
        "channel": 9
      },
      {
        "note": 42,
        "velocity": 80,
        "startTime": 28,
        "duration": 0.25,
        "channel": 9
      },
      {
        "note": 42,
        "velocity": 60,
        "startTime": 28.5,
        "duration": 0.25,
        "channel": 9
      },
      {
        "note": 42,
        "velocity": 80,
        "startTime": 29,
        "duration": 0.25,
        "channel": 9
      },
      {
        "note": 42,
        "velocity": 60,
        "startTime": 29.5,
        "duration": 0.25,
        "channel": 9
      },
      {
        "note": 42,
        "velocity": 80,
        "startTime": 30,
        "duration": 0.25,
        "channel": 9
      },
      {
        "note": 42,
        "velocity": 60,
        "startTime": 30.5,
        "duration": 0.25,
        "channel": 9
      },
      {
        "note": 42,
        "velocity": 80,
        "startTime": 31,
        "duration": 0.25,
        "channel": 9
      },
      {
        "note": 42,
        "velocity": 60,
        "startTime": 31.5,
        "duration": 0.25,
        "channel": 9
      },
      {
        "note": 42,
        "velocity": 80,
        "startTime": 32,
        "duration": 0.25,
        "channel": 9
      },
      {
        "note": 42,
        "velocity": 60,
        "startTime": 32.5,
        "duration": 0.25,
        "channel": 9
      },
      {
        "note": 42,
        "velocity": 80,
        "startTime": 33,
        "duration": 0.25,
        "channel": 9
      },
      {
        "note": 42,
        "velocity": 60,
        "startTime": 33.5,
        "duration": 0.25,
        "channel": 9
      },
      {
        "note": 42,
        "velocity": 80,
        "startTime": 34,
        "duration": 0.25,
        "channel": 9
      },
      {
        "note": 42,
        "velocity": 60,
        "startTime": 34.5,
        "duration": 0.25,
        "channel": 9
      },
      {
        "note": 42,
        "velocity": 80,
        "startTime": 35,
        "duration": 0.25,
        "channel": 9
      },
      {
        "note": 42,
        "velocity": 60,
        "startTime": 35.5,
        "duration": 0.25,
        "channel": 9
      },
      {
        "note": 42,
        "velocity": 80,
        "startTime": 36,
        "duration": 0.25,
        "channel": 9
      },
      {
        "note": 42,
        "velocity": 60,
        "startTime": 36.5,
        "duration": 0.25,
        "channel": 9
      },
      {
        "note": 42,
        "velocity": 80,
        "startTime": 37,
        "duration": 0.25,
        "channel": 9
      },
      {
        "note": 42,
        "velocity": 60,
        "startTime": 37.5,
        "duration": 0.25,
        "channel": 9
      },
      {
        "note": 42,
        "velocity": 80,
        "startTime": 38,
        "duration": 0.25,
        "channel": 9
      },
      {
        "note": 42,
        "velocity": 60,
        "startTime": 38.5,
        "duration": 0.25,
        "channel": 9
      },
      {
        "note": 42,
        "velocity": 80,
        "startTime": 39,
        "duration": 0.25,
        "channel": 9
      },
      {
        "note": 42,
        "velocity": 60,
        "startTime": 39.5,
        "duration": 0.25,
        "channel": 9
      },
      {
        "note": 42,
        "velocity": 80,
        "startTime": 40,
        "duration": 0.25,
        "channel": 9
      },
      {
        "note": 42,
        "velocity": 60,
        "startTime": 40.5,
        "duration": 0.25,
        "channel": 9
      },
      {
        "note": 42,
        "velocity": 80,
        "startTime": 41,
        "duration": 0.25,
        "channel": 9
      },
      {
        "note": 42,
        "velocity": 60,
        "startTime": 41.5,
        "duration": 0.25,
        "channel": 9
      },
      {
        "note": 42,
        "velocity": 80,
        "startTime": 42,
        "duration": 0.25,
        "channel": 9
      },
      {
        "note": 42,
        "velocity": 60,
        "startTime": 42.5,
        "duration": 0.25,
        "channel": 9
      },
      {
        "note": 42,
        "velocity": 80,
        "startTime": 43,
        "duration": 0.25,
        "channel": 9
      },
      {
        "note": 42,
        "velocity": 60,
        "startTime": 43.5,
        "duration": 0.25,
        "channel": 9
      },
      {
        "note": 42,
        "velocity": 80,
        "startTime": 44,
        "duration": 0.25,
        "channel": 9
      },
      {
        "note": 42,
        "velocity": 60,
        "startTime": 44.5,
        "duration": 0.25,
        "channel": 9
      },
      {
        "note": 42,
        "velocity": 80,
        "startTime": 45,
        "duration": 0.25,
        "channel": 9
      },
      {
        "note": 42,
        "velocity": 60,
        "startTime": 45.5,
        "duration": 0.25,
        "channel": 9
      },
      {
        "note": 42,
        "velocity": 80,
        "startTime": 46,
        "duration": 0.25,
        "channel": 9
      },
      {
        "note": 42,
        "velocity": 60,
        "startTime": 46.5,
        "duration": 0.25,
        "channel": 9
      },
      {
        "note": 42,
        "velocity": 80,
        "startTime": 47,
        "duration": 0.25,
        "channel": 9
      },
      {
        "note": 42,
        "velocity": 60,
        "startTime": 47.5,
        "duration": 0.25,
        "channel": 9
      },
      {
        "note": 42,
        "velocity": 80,
        "startTime": 48,
        "duration": 0.25,
        "channel": 9
      },
      {
        "note": 42,
        "velocity": 60,
        "startTime": 48.5,
        "duration": 0.25,
        "channel": 9
      },
      {
        "note": 42,
        "velocity": 80,
        "startTime": 49,
        "duration": 0.25,
        "channel": 9
      },
      {
        "note": 42,
        "velocity": 60,
        "startTime": 49.5,
        "duration": 0.25,
        "channel": 9
      },
      {
        "note": 42,
        "velocity": 80,
        "startTime": 50,
        "duration": 0.25,
        "channel": 9
      },
      {
        "note": 42,
        "velocity": 60,
        "startTime": 50.5,
        "duration": 0.25,
        "channel": 9
      },
      {
        "note": 42,
        "velocity": 80,
        "startTime": 51,
        "duration": 0.25,
        "channel": 9
      },
      {
        "note": 42,
        "velocity": 60,
        "startTime": 51.5,
        "duration": 0.25,
        "channel": 9
      },
      {
        "note": 42,
        "velocity": 80,
        "startTime": 52,
        "duration": 0.25,
        "channel": 9
      },
      {
        "note": 42,
        "velocity": 60,
        "startTime": 52.5,
        "duration": 0.25,
        "channel": 9
      },
      {
        "note": 42,
        "velocity": 80,
        "startTime": 53,
        "duration": 0.25,
        "channel": 9
      },
      {
        "note": 42,
        "velocity": 60,
        "startTime": 53.5,
        "duration": 0.25,
        "channel": 9
      },
      {
        "note": 42,
        "velocity": 80,
        "startTime": 54,
        "duration": 0.25,
        "channel": 9
      },
      {
        "note": 42,
        "velocity": 60,
        "startTime": 54.5,
        "duration": 0.25,
        "channel": 9
      },
      {
        "note": 42,
        "velocity": 80,
        "startTime": 55,
        "duration": 0.25,
        "channel": 9
      },
      {
        "note": 42,
        "velocity": 60,
        "startTime": 55.5,
        "duration": 0.25,
        "channel": 9
      },
      {
        "note": 42,
        "velocity": 80,
        "startTime": 56,
        "duration": 0.25,
        "channel": 9
      },
      {
        "note": 42,
        "velocity": 60,
        "startTime": 56.5,
        "duration": 0.25,
        "channel": 9
      },
      {
        "note": 42,
        "velocity": 80,
        "startTime": 57,
        "duration": 0.25,
        "channel": 9
      },
      {
        "note": 42,
        "velocity": 60,
        "startTime": 57.5,
        "duration": 0.25,
        "channel": 9
      },
      {
        "note": 42,
        "velocity": 80,
        "startTime": 58,
        "duration": 0.25,
        "channel": 9
      },
      {
        "note": 42,
        "velocity": 60,
        "startTime": 58.5,
        "duration": 0.25,
        "channel": 9
      },
      {
        "note": 42,
        "velocity": 80,
        "startTime": 59,
        "duration": 0.25,
        "channel": 9
      },
      {
        "note": 42,
        "velocity": 60,
        "startTime": 59.5,
        "duration": 0.25,
        "channel": 9
      },
      {
        "note": 42,
        "velocity": 80,
        "startTime": 60,
        "duration": 0.25,
        "channel": 9
      },
      {
        "note": 42,
        "velocity": 60,
        "startTime": 60.5,
        "duration": 0.25,
        "channel": 9
      },
      {
        "note": 42,
        "velocity": 80,
        "startTime": 61,
        "duration": 0.25,
        "channel": 9
      },
      {
        "note": 42,
        "velocity": 60,
        "startTime": 61.5,
        "duration": 0.25,
        "channel": 9
      },
      {
        "note": 42,
        "velocity": 80,
        "startTime": 62,
        "duration": 0.25,
        "channel": 9
      },
      {
        "note": 42,
        "velocity": 60,
        "startTime": 62.5,
        "duration": 0.25,
        "channel": 9
      },
      {
        "note": 42,
        "velocity": 80,
        "startTime": 63,
        "duration": 0.25,
        "channel": 9
      },
      {
        "note": 42,
        "velocity": 60,
        "startTime": 63.5,
        "duration": 0.25,
        "channel": 9
      },
      {
        "note": 36,
        "velocity": 100,
        "startTime": 0,
        "duration": 1,
        "channel": 0
      },
      {
        "note": 36,
        "velocity": 100,
        "startTime": 2,
        "duration": 1,
        "channel": 0
      },
      {
        "note": 36,
        "velocity": 100,
        "startTime": 4,
        "duration": 1,
        "channel": 0
      },
      {
        "note": 36,
        "velocity": 100,
        "startTime": 6,
        "duration": 1,
        "channel": 0
      },
      {
        "note": 36,
        "velocity": 100,
        "startTime": 8,
        "duration": 1,
        "channel": 0
      },
      {
        "note": 36,
        "velocity": 100,
        "startTime": 10,
        "duration": 1,
        "channel": 0
      },
      {
        "note": 36,
        "velocity": 100,
        "startTime": 12,
        "duration": 1,
        "channel": 0
      },
      {
        "note": 36,
        "velocity": 100,
        "startTime": 14,
        "duration": 1,
        "channel": 0
      },
      {
        "note": 36,
        "velocity": 100,
        "startTime": 16,
        "duration": 1,
        "channel": 0
      },
      {
        "note": 36,
        "velocity": 100,
        "startTime": 18,
        "duration": 1,
        "channel": 0
      },
      {
        "note": 36,
        "velocity": 100,
        "startTime": 20,
        "duration": 1,
        "channel": 0
      },
      {
        "note": 36,
        "velocity": 100,
        "startTime": 22,
        "duration": 1,
        "channel": 0
      },
      {
        "note": 36,
        "velocity": 100,
        "startTime": 24,
        "duration": 1,
        "channel": 0
      },
      {
        "note": 36,
        "velocity": 100,
        "startTime": 26,
        "duration": 1,
        "channel": 0
      },
      {
        "note": 36,
        "velocity": 100,
        "startTime": 28,
        "duration": 1,
        "channel": 0
      },
      {
        "note": 36,
        "velocity": 100,
        "startTime": 30,
        "duration": 1,
        "channel": 0
      },
      {
        "note": 36,
        "velocity": 100,
        "startTime": 32,
        "duration": 1,
        "channel": 0
      },
      {
        "note": 36,
        "velocity": 100,
        "startTime": 34,
        "duration": 1,
        "channel": 0
      },
      {
        "note": 36,
        "velocity": 100,
        "startTime": 36,
        "duration": 1,
        "channel": 0
      },
      {
        "note": 36,
        "velocity": 100,
        "startTime": 38,
        "duration": 1,
        "channel": 0
      },
      {
        "note": 36,
        "velocity": 100,
        "startTime": 40,
        "duration": 1,
        "channel": 0
      },
      {
        "note": 36,
        "velocity": 100,
        "startTime": 42,
        "duration": 1,
        "channel": 0
      },
      {
        "note": 36,
        "velocity": 100,
        "startTime": 44,
        "duration": 1,
        "channel": 0
      },
      {
        "note": 36,
        "velocity": 100,
        "startTime": 46,
        "duration": 1,
        "channel": 0
      },
      {
        "note": 36,
        "velocity": 100,
        "startTime": 48,
        "duration": 1,
        "channel": 0
      },
      {
        "note": 36,
        "velocity": 100,
        "startTime": 50,
        "duration": 1,
        "channel": 0
      },
      {
        "note": 36,
        "velocity": 100,
        "startTime": 52,
        "duration": 1,
        "channel": 0
      },
      {
        "note": 36,
        "velocity": 100,
        "startTime": 54,
        "duration": 1,
        "channel": 0
      },
      {
        "note": 36,
        "velocity": 100,
        "startTime": 56,
        "duration": 1,
        "channel": 0
      },
      {
        "note": 36,
        "velocity": 100,
        "startTime": 58,
        "duration": 1,
        "channel": 0
      },
      {
        "note": 36,
        "velocity": 100,
        "startTime": 60,
        "duration": 1,
        "channel": 0
      },
      {
        "note": 36,
        "velocity": 100,
        "startTime": 62,
        "duration": 1,
        "channel": 0
      }
    ],
    "project_name": "THE WORK OF A MASTERPIECE",
    "project_path": "/Users/camilopineda/Desktop/SHINE DARK MIDI PARTY/Logic copy sep 2025/THE WORK OF A MASTERPIECE/THE WORK OF A MASTERPIECE.logicx",
    "extraction_date": "2025-09-05T23:38:35.388Z",
    "extraction_status": "generated_from_project_name"
  },
  {
    "id": "electronic-pattern",
    "name": "Electronic",
    "tempo": 120,
    "timeSignature": [
      4,
      4
    ],
    "length": 64,
    "loop": true,
    "notes": [
      {
        "note": 36,
        "velocity": 127,
        "startTime": 0,
        "duration": 0.5,
        "channel": 9
      },
      {
        "note": 36,
        "velocity": 100,
        "startTime": 2,
        "duration": 0.5,
        "channel": 9
      },
      {
        "note": 36,
        "velocity": 127,
        "startTime": 4,
        "duration": 0.5,
        "channel": 9
      },
      {
        "note": 36,
        "velocity": 100,
        "startTime": 6,
        "duration": 0.5,
        "channel": 9
      },
      {
        "note": 36,
        "velocity": 127,
        "startTime": 8,
        "duration": 0.5,
        "channel": 9
      },
      {
        "note": 36,
        "velocity": 100,
        "startTime": 10,
        "duration": 0.5,
        "channel": 9
      },
      {
        "note": 36,
        "velocity": 127,
        "startTime": 12,
        "duration": 0.5,
        "channel": 9
      },
      {
        "note": 36,
        "velocity": 100,
        "startTime": 14,
        "duration": 0.5,
        "channel": 9
      },
      {
        "note": 36,
        "velocity": 127,
        "startTime": 16,
        "duration": 0.5,
        "channel": 9
      },
      {
        "note": 36,
        "velocity": 100,
        "startTime": 18,
        "duration": 0.5,
        "channel": 9
      },
      {
        "note": 36,
        "velocity": 127,
        "startTime": 20,
        "duration": 0.5,
        "channel": 9
      },
      {
        "note": 36,
        "velocity": 100,
        "startTime": 22,
        "duration": 0.5,
        "channel": 9
      },
      {
        "note": 36,
        "velocity": 127,
        "startTime": 24,
        "duration": 0.5,
        "channel": 9
      },
      {
        "note": 36,
        "velocity": 100,
        "startTime": 26,
        "duration": 0.5,
        "channel": 9
      },
      {
        "note": 36,
        "velocity": 127,
        "startTime": 28,
        "duration": 0.5,
        "channel": 9
      },
      {
        "note": 36,
        "velocity": 100,
        "startTime": 30,
        "duration": 0.5,
        "channel": 9
      },
      {
        "note": 36,
        "velocity": 127,
        "startTime": 32,
        "duration": 0.5,
        "channel": 9
      },
      {
        "note": 36,
        "velocity": 100,
        "startTime": 34,
        "duration": 0.5,
        "channel": 9
      },
      {
        "note": 36,
        "velocity": 127,
        "startTime": 36,
        "duration": 0.5,
        "channel": 9
      },
      {
        "note": 36,
        "velocity": 100,
        "startTime": 38,
        "duration": 0.5,
        "channel": 9
      },
      {
        "note": 36,
        "velocity": 127,
        "startTime": 40,
        "duration": 0.5,
        "channel": 9
      },
      {
        "note": 36,
        "velocity": 100,
        "startTime": 42,
        "duration": 0.5,
        "channel": 9
      },
      {
        "note": 36,
        "velocity": 127,
        "startTime": 44,
        "duration": 0.5,
        "channel": 9
      },
      {
        "note": 36,
        "velocity": 100,
        "startTime": 46,
        "duration": 0.5,
        "channel": 9
      },
      {
        "note": 36,
        "velocity": 127,
        "startTime": 48,
        "duration": 0.5,
        "channel": 9
      },
      {
        "note": 36,
        "velocity": 100,
        "startTime": 50,
        "duration": 0.5,
        "channel": 9
      },
      {
        "note": 36,
        "velocity": 127,
        "startTime": 52,
        "duration": 0.5,
        "channel": 9
      },
      {
        "note": 36,
        "velocity": 100,
        "startTime": 54,
        "duration": 0.5,
        "channel": 9
      },
      {
        "note": 36,
        "velocity": 127,
        "startTime": 56,
        "duration": 0.5,
        "channel": 9
      },
      {
        "note": 36,
        "velocity": 100,
        "startTime": 58,
        "duration": 0.5,
        "channel": 9
      },
      {
        "note": 36,
        "velocity": 127,
        "startTime": 60,
        "duration": 0.5,
        "channel": 9
      },
      {
        "note": 36,
        "velocity": 100,
        "startTime": 62,
        "duration": 0.5,
        "channel": 9
      },
      {
        "note": 38,
        "velocity": 100,
        "startTime": 1,
        "duration": 0.5,
        "channel": 9
      },
      {
        "note": 38,
        "velocity": 100,
        "startTime": 3,
        "duration": 0.5,
        "channel": 9
      },
      {
        "note": 38,
        "velocity": 100,
        "startTime": 5,
        "duration": 0.5,
        "channel": 9
      },
      {
        "note": 38,
        "velocity": 100,
        "startTime": 7,
        "duration": 0.5,
        "channel": 9
      },
      {
        "note": 38,
        "velocity": 100,
        "startTime": 9,
        "duration": 0.5,
        "channel": 9
      },
      {
        "note": 38,
        "velocity": 100,
        "startTime": 11,
        "duration": 0.5,
        "channel": 9
      },
      {
        "note": 38,
        "velocity": 100,
        "startTime": 13,
        "duration": 0.5,
        "channel": 9
      },
      {
        "note": 38,
        "velocity": 100,
        "startTime": 15,
        "duration": 0.5,
        "channel": 9
      },
      {
        "note": 38,
        "velocity": 100,
        "startTime": 17,
        "duration": 0.5,
        "channel": 9
      },
      {
        "note": 38,
        "velocity": 100,
        "startTime": 19,
        "duration": 0.5,
        "channel": 9
      },
      {
        "note": 38,
        "velocity": 100,
        "startTime": 21,
        "duration": 0.5,
        "channel": 9
      },
      {
        "note": 38,
        "velocity": 100,
        "startTime": 23,
        "duration": 0.5,
        "channel": 9
      },
      {
        "note": 38,
        "velocity": 100,
        "startTime": 25,
        "duration": 0.5,
        "channel": 9
      },
      {
        "note": 38,
        "velocity": 100,
        "startTime": 27,
        "duration": 0.5,
        "channel": 9
      },
      {
        "note": 38,
        "velocity": 100,
        "startTime": 29,
        "duration": 0.5,
        "channel": 9
      },
      {
        "note": 38,
        "velocity": 100,
        "startTime": 31,
        "duration": 0.5,
        "channel": 9
      },
      {
        "note": 38,
        "velocity": 100,
        "startTime": 33,
        "duration": 0.5,
        "channel": 9
      },
      {
        "note": 38,
        "velocity": 100,
        "startTime": 35,
        "duration": 0.5,
        "channel": 9
      },
      {
        "note": 38,
        "velocity": 100,
        "startTime": 37,
        "duration": 0.5,
        "channel": 9
      },
      {
        "note": 38,
        "velocity": 100,
        "startTime": 39,
        "duration": 0.5,
        "channel": 9
      },
      {
        "note": 38,
        "velocity": 100,
        "startTime": 41,
        "duration": 0.5,
        "channel": 9
      },
      {
        "note": 38,
        "velocity": 100,
        "startTime": 43,
        "duration": 0.5,
        "channel": 9
      },
      {
        "note": 38,
        "velocity": 100,
        "startTime": 45,
        "duration": 0.5,
        "channel": 9
      },
      {
        "note": 38,
        "velocity": 100,
        "startTime": 47,
        "duration": 0.5,
        "channel": 9
      },
      {
        "note": 38,
        "velocity": 100,
        "startTime": 49,
        "duration": 0.5,
        "channel": 9
      },
      {
        "note": 38,
        "velocity": 100,
        "startTime": 51,
        "duration": 0.5,
        "channel": 9
      },
      {
        "note": 38,
        "velocity": 100,
        "startTime": 53,
        "duration": 0.5,
        "channel": 9
      },
      {
        "note": 38,
        "velocity": 100,
        "startTime": 55,
        "duration": 0.5,
        "channel": 9
      },
      {
        "note": 38,
        "velocity": 100,
        "startTime": 57,
        "duration": 0.5,
        "channel": 9
      },
      {
        "note": 38,
        "velocity": 100,
        "startTime": 59,
        "duration": 0.5,
        "channel": 9
      },
      {
        "note": 38,
        "velocity": 100,
        "startTime": 61,
        "duration": 0.5,
        "channel": 9
      },
      {
        "note": 38,
        "velocity": 100,
        "startTime": 63,
        "duration": 0.5,
        "channel": 9
      },
      {
        "note": 42,
        "velocity": 80,
        "startTime": 0,
        "duration": 0.25,
        "channel": 9
      },
      {
        "note": 42,
        "velocity": 60,
        "startTime": 0.5,
        "duration": 0.25,
        "channel": 9
      },
      {
        "note": 42,
        "velocity": 80,
        "startTime": 1,
        "duration": 0.25,
        "channel": 9
      },
      {
        "note": 42,
        "velocity": 60,
        "startTime": 1.5,
        "duration": 0.25,
        "channel": 9
      },
      {
        "note": 42,
        "velocity": 80,
        "startTime": 2,
        "duration": 0.25,
        "channel": 9
      },
      {
        "note": 42,
        "velocity": 60,
        "startTime": 2.5,
        "duration": 0.25,
        "channel": 9
      },
      {
        "note": 42,
        "velocity": 80,
        "startTime": 3,
        "duration": 0.25,
        "channel": 9
      },
      {
        "note": 42,
        "velocity": 60,
        "startTime": 3.5,
        "duration": 0.25,
        "channel": 9
      },
      {
        "note": 42,
        "velocity": 80,
        "startTime": 4,
        "duration": 0.25,
        "channel": 9
      },
      {
        "note": 42,
        "velocity": 60,
        "startTime": 4.5,
        "duration": 0.25,
        "channel": 9
      },
      {
        "note": 42,
        "velocity": 80,
        "startTime": 5,
        "duration": 0.25,
        "channel": 9
      },
      {
        "note": 42,
        "velocity": 60,
        "startTime": 5.5,
        "duration": 0.25,
        "channel": 9
      },
      {
        "note": 42,
        "velocity": 80,
        "startTime": 6,
        "duration": 0.25,
        "channel": 9
      },
      {
        "note": 42,
        "velocity": 60,
        "startTime": 6.5,
        "duration": 0.25,
        "channel": 9
      },
      {
        "note": 42,
        "velocity": 80,
        "startTime": 7,
        "duration": 0.25,
        "channel": 9
      },
      {
        "note": 42,
        "velocity": 60,
        "startTime": 7.5,
        "duration": 0.25,
        "channel": 9
      },
      {
        "note": 42,
        "velocity": 80,
        "startTime": 8,
        "duration": 0.25,
        "channel": 9
      },
      {
        "note": 42,
        "velocity": 60,
        "startTime": 8.5,
        "duration": 0.25,
        "channel": 9
      },
      {
        "note": 42,
        "velocity": 80,
        "startTime": 9,
        "duration": 0.25,
        "channel": 9
      },
      {
        "note": 42,
        "velocity": 60,
        "startTime": 9.5,
        "duration": 0.25,
        "channel": 9
      },
      {
        "note": 42,
        "velocity": 80,
        "startTime": 10,
        "duration": 0.25,
        "channel": 9
      },
      {
        "note": 42,
        "velocity": 60,
        "startTime": 10.5,
        "duration": 0.25,
        "channel": 9
      },
      {
        "note": 42,
        "velocity": 80,
        "startTime": 11,
        "duration": 0.25,
        "channel": 9
      },
      {
        "note": 42,
        "velocity": 60,
        "startTime": 11.5,
        "duration": 0.25,
        "channel": 9
      },
      {
        "note": 42,
        "velocity": 80,
        "startTime": 12,
        "duration": 0.25,
        "channel": 9
      },
      {
        "note": 42,
        "velocity": 60,
        "startTime": 12.5,
        "duration": 0.25,
        "channel": 9
      },
      {
        "note": 42,
        "velocity": 80,
        "startTime": 13,
        "duration": 0.25,
        "channel": 9
      },
      {
        "note": 42,
        "velocity": 60,
        "startTime": 13.5,
        "duration": 0.25,
        "channel": 9
      },
      {
        "note": 42,
        "velocity": 80,
        "startTime": 14,
        "duration": 0.25,
        "channel": 9
      },
      {
        "note": 42,
        "velocity": 60,
        "startTime": 14.5,
        "duration": 0.25,
        "channel": 9
      },
      {
        "note": 42,
        "velocity": 80,
        "startTime": 15,
        "duration": 0.25,
        "channel": 9
      },
      {
        "note": 42,
        "velocity": 60,
        "startTime": 15.5,
        "duration": 0.25,
        "channel": 9
      },
      {
        "note": 42,
        "velocity": 80,
        "startTime": 16,
        "duration": 0.25,
        "channel": 9
      },
      {
        "note": 42,
        "velocity": 60,
        "startTime": 16.5,
        "duration": 0.25,
        "channel": 9
      },
      {
        "note": 42,
        "velocity": 80,
        "startTime": 17,
        "duration": 0.25,
        "channel": 9
      },
      {
        "note": 42,
        "velocity": 60,
        "startTime": 17.5,
        "duration": 0.25,
        "channel": 9
      },
      {
        "note": 42,
        "velocity": 80,
        "startTime": 18,
        "duration": 0.25,
        "channel": 9
      },
      {
        "note": 42,
        "velocity": 60,
        "startTime": 18.5,
        "duration": 0.25,
        "channel": 9
      },
      {
        "note": 42,
        "velocity": 80,
        "startTime": 19,
        "duration": 0.25,
        "channel": 9
      },
      {
        "note": 42,
        "velocity": 60,
        "startTime": 19.5,
        "duration": 0.25,
        "channel": 9
      },
      {
        "note": 42,
        "velocity": 80,
        "startTime": 20,
        "duration": 0.25,
        "channel": 9
      },
      {
        "note": 42,
        "velocity": 60,
        "startTime": 20.5,
        "duration": 0.25,
        "channel": 9
      },
      {
        "note": 42,
        "velocity": 80,
        "startTime": 21,
        "duration": 0.25,
        "channel": 9
      },
      {
        "note": 42,
        "velocity": 60,
        "startTime": 21.5,
        "duration": 0.25,
        "channel": 9
      },
      {
        "note": 42,
        "velocity": 80,
        "startTime": 22,
        "duration": 0.25,
        "channel": 9
      },
      {
        "note": 42,
        "velocity": 60,
        "startTime": 22.5,
        "duration": 0.25,
        "channel": 9
      },
      {
        "note": 42,
        "velocity": 80,
        "startTime": 23,
        "duration": 0.25,
        "channel": 9
      },
      {
        "note": 42,
        "velocity": 60,
        "startTime": 23.5,
        "duration": 0.25,
        "channel": 9
      },
      {
        "note": 42,
        "velocity": 80,
        "startTime": 24,
        "duration": 0.25,
        "channel": 9
      },
      {
        "note": 42,
        "velocity": 60,
        "startTime": 24.5,
        "duration": 0.25,
        "channel": 9
      },
      {
        "note": 42,
        "velocity": 80,
        "startTime": 25,
        "duration": 0.25,
        "channel": 9
      },
      {
        "note": 42,
        "velocity": 60,
        "startTime": 25.5,
        "duration": 0.25,
        "channel": 9
      },
      {
        "note": 42,
        "velocity": 80,
        "startTime": 26,
        "duration": 0.25,
        "channel": 9
      },
      {
        "note": 42,
        "velocity": 60,
        "startTime": 26.5,
        "duration": 0.25,
        "channel": 9
      },
      {
        "note": 42,
        "velocity": 80,
        "startTime": 27,
        "duration": 0.25,
        "channel": 9
      },
      {
        "note": 42,
        "velocity": 60,
        "startTime": 27.5,
        "duration": 0.25,
        "channel": 9
      },
      {
        "note": 42,
        "velocity": 80,
        "startTime": 28,
        "duration": 0.25,
        "channel": 9
      },
      {
        "note": 42,
        "velocity": 60,
        "startTime": 28.5,
        "duration": 0.25,
        "channel": 9
      },
      {
        "note": 42,
        "velocity": 80,
        "startTime": 29,
        "duration": 0.25,
        "channel": 9
      },
      {
        "note": 42,
        "velocity": 60,
        "startTime": 29.5,
        "duration": 0.25,
        "channel": 9
      },
      {
        "note": 42,
        "velocity": 80,
        "startTime": 30,
        "duration": 0.25,
        "channel": 9
      },
      {
        "note": 42,
        "velocity": 60,
        "startTime": 30.5,
        "duration": 0.25,
        "channel": 9
      },
      {
        "note": 42,
        "velocity": 80,
        "startTime": 31,
        "duration": 0.25,
        "channel": 9
      },
      {
        "note": 42,
        "velocity": 60,
        "startTime": 31.5,
        "duration": 0.25,
        "channel": 9
      },
      {
        "note": 42,
        "velocity": 80,
        "startTime": 32,
        "duration": 0.25,
        "channel": 9
      },
      {
        "note": 42,
        "velocity": 60,
        "startTime": 32.5,
        "duration": 0.25,
        "channel": 9
      },
      {
        "note": 42,
        "velocity": 80,
        "startTime": 33,
        "duration": 0.25,
        "channel": 9
      },
      {
        "note": 42,
        "velocity": 60,
        "startTime": 33.5,
        "duration": 0.25,
        "channel": 9
      },
      {
        "note": 42,
        "velocity": 80,
        "startTime": 34,
        "duration": 0.25,
        "channel": 9
      },
      {
        "note": 42,
        "velocity": 60,
        "startTime": 34.5,
        "duration": 0.25,
        "channel": 9
      },
      {
        "note": 42,
        "velocity": 80,
        "startTime": 35,
        "duration": 0.25,
        "channel": 9
      },
      {
        "note": 42,
        "velocity": 60,
        "startTime": 35.5,
        "duration": 0.25,
        "channel": 9
      },
      {
        "note": 42,
        "velocity": 80,
        "startTime": 36,
        "duration": 0.25,
        "channel": 9
      },
      {
        "note": 42,
        "velocity": 60,
        "startTime": 36.5,
        "duration": 0.25,
        "channel": 9
      },
      {
        "note": 42,
        "velocity": 80,
        "startTime": 37,
        "duration": 0.25,
        "channel": 9
      },
      {
        "note": 42,
        "velocity": 60,
        "startTime": 37.5,
        "duration": 0.25,
        "channel": 9
      },
      {
        "note": 42,
        "velocity": 80,
        "startTime": 38,
        "duration": 0.25,
        "channel": 9
      },
      {
        "note": 42,
        "velocity": 60,
        "startTime": 38.5,
        "duration": 0.25,
        "channel": 9
      },
      {
        "note": 42,
        "velocity": 80,
        "startTime": 39,
        "duration": 0.25,
        "channel": 9
      },
      {
        "note": 42,
        "velocity": 60,
        "startTime": 39.5,
        "duration": 0.25,
        "channel": 9
      },
      {
        "note": 42,
        "velocity": 80,
        "startTime": 40,
        "duration": 0.25,
        "channel": 9
      },
      {
        "note": 42,
        "velocity": 60,
        "startTime": 40.5,
        "duration": 0.25,
        "channel": 9
      },
      {
        "note": 42,
        "velocity": 80,
        "startTime": 41,
        "duration": 0.25,
        "channel": 9
      },
      {
        "note": 42,
        "velocity": 60,
        "startTime": 41.5,
        "duration": 0.25,
        "channel": 9
      },
      {
        "note": 42,
        "velocity": 80,
        "startTime": 42,
        "duration": 0.25,
        "channel": 9
      },
      {
        "note": 42,
        "velocity": 60,
        "startTime": 42.5,
        "duration": 0.25,
        "channel": 9
      },
      {
        "note": 42,
        "velocity": 80,
        "startTime": 43,
        "duration": 0.25,
        "channel": 9
      },
      {
        "note": 42,
        "velocity": 60,
        "startTime": 43.5,
        "duration": 0.25,
        "channel": 9
      },
      {
        "note": 42,
        "velocity": 80,
        "startTime": 44,
        "duration": 0.25,
        "channel": 9
      },
      {
        "note": 42,
        "velocity": 60,
        "startTime": 44.5,
        "duration": 0.25,
        "channel": 9
      },
      {
        "note": 42,
        "velocity": 80,
        "startTime": 45,
        "duration": 0.25,
        "channel": 9
      },
      {
        "note": 42,
        "velocity": 60,
        "startTime": 45.5,
        "duration": 0.25,
        "channel": 9
      },
      {
        "note": 42,
        "velocity": 80,
        "startTime": 46,
        "duration": 0.25,
        "channel": 9
      },
      {
        "note": 42,
        "velocity": 60,
        "startTime": 46.5,
        "duration": 0.25,
        "channel": 9
      },
      {
        "note": 42,
        "velocity": 80,
        "startTime": 47,
        "duration": 0.25,
        "channel": 9
      },
      {
        "note": 42,
        "velocity": 60,
        "startTime": 47.5,
        "duration": 0.25,
        "channel": 9
      },
      {
        "note": 42,
        "velocity": 80,
        "startTime": 48,
        "duration": 0.25,
        "channel": 9
      },
      {
        "note": 42,
        "velocity": 60,
        "startTime": 48.5,
        "duration": 0.25,
        "channel": 9
      },
      {
        "note": 42,
        "velocity": 80,
        "startTime": 49,
        "duration": 0.25,
        "channel": 9
      },
      {
        "note": 42,
        "velocity": 60,
        "startTime": 49.5,
        "duration": 0.25,
        "channel": 9
      },
      {
        "note": 42,
        "velocity": 80,
        "startTime": 50,
        "duration": 0.25,
        "channel": 9
      },
      {
        "note": 42,
        "velocity": 60,
        "startTime": 50.5,
        "duration": 0.25,
        "channel": 9
      },
      {
        "note": 42,
        "velocity": 80,
        "startTime": 51,
        "duration": 0.25,
        "channel": 9
      },
      {
        "note": 42,
        "velocity": 60,
        "startTime": 51.5,
        "duration": 0.25,
        "channel": 9
      },
      {
        "note": 42,
        "velocity": 80,
        "startTime": 52,
        "duration": 0.25,
        "channel": 9
      },
      {
        "note": 42,
        "velocity": 60,
        "startTime": 52.5,
        "duration": 0.25,
        "channel": 9
      },
      {
        "note": 42,
        "velocity": 80,
        "startTime": 53,
        "duration": 0.25,
        "channel": 9
      },
      {
        "note": 42,
        "velocity": 60,
        "startTime": 53.5,
        "duration": 0.25,
        "channel": 9
      },
      {
        "note": 42,
        "velocity": 80,
        "startTime": 54,
        "duration": 0.25,
        "channel": 9
      },
      {
        "note": 42,
        "velocity": 60,
        "startTime": 54.5,
        "duration": 0.25,
        "channel": 9
      },
      {
        "note": 42,
        "velocity": 80,
        "startTime": 55,
        "duration": 0.25,
        "channel": 9
      },
      {
        "note": 42,
        "velocity": 60,
        "startTime": 55.5,
        "duration": 0.25,
        "channel": 9
      },
      {
        "note": 42,
        "velocity": 80,
        "startTime": 56,
        "duration": 0.25,
        "channel": 9
      },
      {
        "note": 42,
        "velocity": 60,
        "startTime": 56.5,
        "duration": 0.25,
        "channel": 9
      },
      {
        "note": 42,
        "velocity": 80,
        "startTime": 57,
        "duration": 0.25,
        "channel": 9
      },
      {
        "note": 42,
        "velocity": 60,
        "startTime": 57.5,
        "duration": 0.25,
        "channel": 9
      },
      {
        "note": 42,
        "velocity": 80,
        "startTime": 58,
        "duration": 0.25,
        "channel": 9
      },
      {
        "note": 42,
        "velocity": 60,
        "startTime": 58.5,
        "duration": 0.25,
        "channel": 9
      },
      {
        "note": 42,
        "velocity": 80,
        "startTime": 59,
        "duration": 0.25,
        "channel": 9
      },
      {
        "note": 42,
        "velocity": 60,
        "startTime": 59.5,
        "duration": 0.25,
        "channel": 9
      },
      {
        "note": 42,
        "velocity": 80,
        "startTime": 60,
        "duration": 0.25,
        "channel": 9
      },
      {
        "note": 42,
        "velocity": 60,
        "startTime": 60.5,
        "duration": 0.25,
        "channel": 9
      },
      {
        "note": 42,
        "velocity": 80,
        "startTime": 61,
        "duration": 0.25,
        "channel": 9
      },
      {
        "note": 42,
        "velocity": 60,
        "startTime": 61.5,
        "duration": 0.25,
        "channel": 9
      },
      {
        "note": 42,
        "velocity": 80,
        "startTime": 62,
        "duration": 0.25,
        "channel": 9
      },
      {
        "note": 42,
        "velocity": 60,
        "startTime": 62.5,
        "duration": 0.25,
        "channel": 9
      },
      {
        "note": 42,
        "velocity": 80,
        "startTime": 63,
        "duration": 0.25,
        "channel": 9
      },
      {
        "note": 42,
        "velocity": 60,
        "startTime": 63.5,
        "duration": 0.25,
        "channel": 9
      },
      {
        "note": 36,
        "velocity": 100,
        "startTime": 0,
        "duration": 1,
        "channel": 0
      },
      {
        "note": 36,
        "velocity": 100,
        "startTime": 2,
        "duration": 1,
        "channel": 0
      },
      {
        "note": 36,
        "velocity": 100,
        "startTime": 4,
        "duration": 1,
        "channel": 0
      },
      {
        "note": 36,
        "velocity": 100,
        "startTime": 6,
        "duration": 1,
        "channel": 0
      },
      {
        "note": 36,
        "velocity": 100,
        "startTime": 8,
        "duration": 1,
        "channel": 0
      },
      {
        "note": 36,
        "velocity": 100,
        "startTime": 10,
        "duration": 1,
        "channel": 0
      },
      {
        "note": 36,
        "velocity": 100,
        "startTime": 12,
        "duration": 1,
        "channel": 0
      },
      {
        "note": 36,
        "velocity": 100,
        "startTime": 14,
        "duration": 1,
        "channel": 0
      },
      {
        "note": 36,
        "velocity": 100,
        "startTime": 16,
        "duration": 1,
        "channel": 0
      },
      {
        "note": 36,
        "velocity": 100,
        "startTime": 18,
        "duration": 1,
        "channel": 0
      },
      {
        "note": 36,
        "velocity": 100,
        "startTime": 20,
        "duration": 1,
        "channel": 0
      },
      {
        "note": 36,
        "velocity": 100,
        "startTime": 22,
        "duration": 1,
        "channel": 0
      },
      {
        "note": 36,
        "velocity": 100,
        "startTime": 24,
        "duration": 1,
        "channel": 0
      },
      {
        "note": 36,
        "velocity": 100,
        "startTime": 26,
        "duration": 1,
        "channel": 0
      },
      {
        "note": 36,
        "velocity": 100,
        "startTime": 28,
        "duration": 1,
        "channel": 0
      },
      {
        "note": 36,
        "velocity": 100,
        "startTime": 30,
        "duration": 1,
        "channel": 0
      },
      {
        "note": 36,
        "velocity": 100,
        "startTime": 32,
        "duration": 1,
        "channel": 0
      },
      {
        "note": 36,
        "velocity": 100,
        "startTime": 34,
        "duration": 1,
        "channel": 0
      },
      {
        "note": 36,
        "velocity": 100,
        "startTime": 36,
        "duration": 1,
        "channel": 0
      },
      {
        "note": 36,
        "velocity": 100,
        "startTime": 38,
        "duration": 1,
        "channel": 0
      },
      {
        "note": 36,
        "velocity": 100,
        "startTime": 40,
        "duration": 1,
        "channel": 0
      },
      {
        "note": 36,
        "velocity": 100,
        "startTime": 42,
        "duration": 1,
        "channel": 0
      },
      {
        "note": 36,
        "velocity": 100,
        "startTime": 44,
        "duration": 1,
        "channel": 0
      },
      {
        "note": 36,
        "velocity": 100,
        "startTime": 46,
        "duration": 1,
        "channel": 0
      },
      {
        "note": 36,
        "velocity": 100,
        "startTime": 48,
        "duration": 1,
        "channel": 0
      },
      {
        "note": 36,
        "velocity": 100,
        "startTime": 50,
        "duration": 1,
        "channel": 0
      },
      {
        "note": 36,
        "velocity": 100,
        "startTime": 52,
        "duration": 1,
        "channel": 0
      },
      {
        "note": 36,
        "velocity": 100,
        "startTime": 54,
        "duration": 1,
        "channel": 0
      },
      {
        "note": 36,
        "velocity": 100,
        "startTime": 56,
        "duration": 1,
        "channel": 0
      },
      {
        "note": 36,
        "velocity": 100,
        "startTime": 58,
        "duration": 1,
        "channel": 0
      },
      {
        "note": 36,
        "velocity": 100,
        "startTime": 60,
        "duration": 1,
        "channel": 0
      },
      {
        "note": 36,
        "velocity": 100,
        "startTime": 62,
        "duration": 1,
        "channel": 0
      }
    ],
    "project_name": "aepifgh",
    "project_path": "/Users/camilopineda/Desktop/SHINE DARK MIDI PARTY/Logic copy sep 2025/aepifgh/aepifgh.logicx",
    "extraction_date": "2025-09-05T23:38:35.388Z",
    "extraction_status": "generated_from_project_name"
  },
  {
    "id": "electronic-pattern",
    "name": "Electronic",
    "tempo": 120,
    "timeSignature": [
      4,
      4
    ],
    "length": 64,
    "loop": true,
    "notes": [
      {
        "note": 36,
        "velocity": 127,
        "startTime": 0,
        "duration": 0.5,
        "channel": 9
      },
      {
        "note": 36,
        "velocity": 100,
        "startTime": 2,
        "duration": 0.5,
        "channel": 9
      },
      {
        "note": 36,
        "velocity": 127,
        "startTime": 4,
        "duration": 0.5,
        "channel": 9
      },
      {
        "note": 36,
        "velocity": 100,
        "startTime": 6,
        "duration": 0.5,
        "channel": 9
      },
      {
        "note": 36,
        "velocity": 127,
        "startTime": 8,
        "duration": 0.5,
        "channel": 9
      },
      {
        "note": 36,
        "velocity": 100,
        "startTime": 10,
        "duration": 0.5,
        "channel": 9
      },
      {
        "note": 36,
        "velocity": 127,
        "startTime": 12,
        "duration": 0.5,
        "channel": 9
      },
      {
        "note": 36,
        "velocity": 100,
        "startTime": 14,
        "duration": 0.5,
        "channel": 9
      },
      {
        "note": 36,
        "velocity": 127,
        "startTime": 16,
        "duration": 0.5,
        "channel": 9
      },
      {
        "note": 36,
        "velocity": 100,
        "startTime": 18,
        "duration": 0.5,
        "channel": 9
      },
      {
        "note": 36,
        "velocity": 127,
        "startTime": 20,
        "duration": 0.5,
        "channel": 9
      },
      {
        "note": 36,
        "velocity": 100,
        "startTime": 22,
        "duration": 0.5,
        "channel": 9
      },
      {
        "note": 36,
        "velocity": 127,
        "startTime": 24,
        "duration": 0.5,
        "channel": 9
      },
      {
        "note": 36,
        "velocity": 100,
        "startTime": 26,
        "duration": 0.5,
        "channel": 9
      },
      {
        "note": 36,
        "velocity": 127,
        "startTime": 28,
        "duration": 0.5,
        "channel": 9
      },
      {
        "note": 36,
        "velocity": 100,
        "startTime": 30,
        "duration": 0.5,
        "channel": 9
      },
      {
        "note": 36,
        "velocity": 127,
        "startTime": 32,
        "duration": 0.5,
        "channel": 9
      },
      {
        "note": 36,
        "velocity": 100,
        "startTime": 34,
        "duration": 0.5,
        "channel": 9
      },
      {
        "note": 36,
        "velocity": 127,
        "startTime": 36,
        "duration": 0.5,
        "channel": 9
      },
      {
        "note": 36,
        "velocity": 100,
        "startTime": 38,
        "duration": 0.5,
        "channel": 9
      },
      {
        "note": 36,
        "velocity": 127,
        "startTime": 40,
        "duration": 0.5,
        "channel": 9
      },
      {
        "note": 36,
        "velocity": 100,
        "startTime": 42,
        "duration": 0.5,
        "channel": 9
      },
      {
        "note": 36,
        "velocity": 127,
        "startTime": 44,
        "duration": 0.5,
        "channel": 9
      },
      {
        "note": 36,
        "velocity": 100,
        "startTime": 46,
        "duration": 0.5,
        "channel": 9
      },
      {
        "note": 36,
        "velocity": 127,
        "startTime": 48,
        "duration": 0.5,
        "channel": 9
      },
      {
        "note": 36,
        "velocity": 100,
        "startTime": 50,
        "duration": 0.5,
        "channel": 9
      },
      {
        "note": 36,
        "velocity": 127,
        "startTime": 52,
        "duration": 0.5,
        "channel": 9
      },
      {
        "note": 36,
        "velocity": 100,
        "startTime": 54,
        "duration": 0.5,
        "channel": 9
      },
      {
        "note": 36,
        "velocity": 127,
        "startTime": 56,
        "duration": 0.5,
        "channel": 9
      },
      {
        "note": 36,
        "velocity": 100,
        "startTime": 58,
        "duration": 0.5,
        "channel": 9
      },
      {
        "note": 36,
        "velocity": 127,
        "startTime": 60,
        "duration": 0.5,
        "channel": 9
      },
      {
        "note": 36,
        "velocity": 100,
        "startTime": 62,
        "duration": 0.5,
        "channel": 9
      },
      {
        "note": 38,
        "velocity": 100,
        "startTime": 1,
        "duration": 0.5,
        "channel": 9
      },
      {
        "note": 38,
        "velocity": 100,
        "startTime": 3,
        "duration": 0.5,
        "channel": 9
      },
      {
        "note": 38,
        "velocity": 100,
        "startTime": 5,
        "duration": 0.5,
        "channel": 9
      },
      {
        "note": 38,
        "velocity": 100,
        "startTime": 7,
        "duration": 0.5,
        "channel": 9
      },
      {
        "note": 38,
        "velocity": 100,
        "startTime": 9,
        "duration": 0.5,
        "channel": 9
      },
      {
        "note": 38,
        "velocity": 100,
        "startTime": 11,
        "duration": 0.5,
        "channel": 9
      },
      {
        "note": 38,
        "velocity": 100,
        "startTime": 13,
        "duration": 0.5,
        "channel": 9
      },
      {
        "note": 38,
        "velocity": 100,
        "startTime": 15,
        "duration": 0.5,
        "channel": 9
      },
      {
        "note": 38,
        "velocity": 100,
        "startTime": 17,
        "duration": 0.5,
        "channel": 9
      },
      {
        "note": 38,
        "velocity": 100,
        "startTime": 19,
        "duration": 0.5,
        "channel": 9
      },
      {
        "note": 38,
        "velocity": 100,
        "startTime": 21,
        "duration": 0.5,
        "channel": 9
      },
      {
        "note": 38,
        "velocity": 100,
        "startTime": 23,
        "duration": 0.5,
        "channel": 9
      },
      {
        "note": 38,
        "velocity": 100,
        "startTime": 25,
        "duration": 0.5,
        "channel": 9
      },
      {
        "note": 38,
        "velocity": 100,
        "startTime": 27,
        "duration": 0.5,
        "channel": 9
      },
      {
        "note": 38,
        "velocity": 100,
        "startTime": 29,
        "duration": 0.5,
        "channel": 9
      },
      {
        "note": 38,
        "velocity": 100,
        "startTime": 31,
        "duration": 0.5,
        "channel": 9
      },
      {
        "note": 38,
        "velocity": 100,
        "startTime": 33,
        "duration": 0.5,
        "channel": 9
      },
      {
        "note": 38,
        "velocity": 100,
        "startTime": 35,
        "duration": 0.5,
        "channel": 9
      },
      {
        "note": 38,
        "velocity": 100,
        "startTime": 37,
        "duration": 0.5,
        "channel": 9
      },
      {
        "note": 38,
        "velocity": 100,
        "startTime": 39,
        "duration": 0.5,
        "channel": 9
      },
      {
        "note": 38,
        "velocity": 100,
        "startTime": 41,
        "duration": 0.5,
        "channel": 9
      },
      {
        "note": 38,
        "velocity": 100,
        "startTime": 43,
        "duration": 0.5,
        "channel": 9
      },
      {
        "note": 38,
        "velocity": 100,
        "startTime": 45,
        "duration": 0.5,
        "channel": 9
      },
      {
        "note": 38,
        "velocity": 100,
        "startTime": 47,
        "duration": 0.5,
        "channel": 9
      },
      {
        "note": 38,
        "velocity": 100,
        "startTime": 49,
        "duration": 0.5,
        "channel": 9
      },
      {
        "note": 38,
        "velocity": 100,
        "startTime": 51,
        "duration": 0.5,
        "channel": 9
      },
      {
        "note": 38,
        "velocity": 100,
        "startTime": 53,
        "duration": 0.5,
        "channel": 9
      },
      {
        "note": 38,
        "velocity": 100,
        "startTime": 55,
        "duration": 0.5,
        "channel": 9
      },
      {
        "note": 38,
        "velocity": 100,
        "startTime": 57,
        "duration": 0.5,
        "channel": 9
      },
      {
        "note": 38,
        "velocity": 100,
        "startTime": 59,
        "duration": 0.5,
        "channel": 9
      },
      {
        "note": 38,
        "velocity": 100,
        "startTime": 61,
        "duration": 0.5,
        "channel": 9
      },
      {
        "note": 38,
        "velocity": 100,
        "startTime": 63,
        "duration": 0.5,
        "channel": 9
      },
      {
        "note": 42,
        "velocity": 80,
        "startTime": 0,
        "duration": 0.25,
        "channel": 9
      },
      {
        "note": 42,
        "velocity": 60,
        "startTime": 0.5,
        "duration": 0.25,
        "channel": 9
      },
      {
        "note": 42,
        "velocity": 80,
        "startTime": 1,
        "duration": 0.25,
        "channel": 9
      },
      {
        "note": 42,
        "velocity": 60,
        "startTime": 1.5,
        "duration": 0.25,
        "channel": 9
      },
      {
        "note": 42,
        "velocity": 80,
        "startTime": 2,
        "duration": 0.25,
        "channel": 9
      },
      {
        "note": 42,
        "velocity": 60,
        "startTime": 2.5,
        "duration": 0.25,
        "channel": 9
      },
      {
        "note": 42,
        "velocity": 80,
        "startTime": 3,
        "duration": 0.25,
        "channel": 9
      },
      {
        "note": 42,
        "velocity": 60,
        "startTime": 3.5,
        "duration": 0.25,
        "channel": 9
      },
      {
        "note": 42,
        "velocity": 80,
        "startTime": 4,
        "duration": 0.25,
        "channel": 9
      },
      {
        "note": 42,
        "velocity": 60,
        "startTime": 4.5,
        "duration": 0.25,
        "channel": 9
      },
      {
        "note": 42,
        "velocity": 80,
        "startTime": 5,
        "duration": 0.25,
        "channel": 9
      },
      {
        "note": 42,
        "velocity": 60,
        "startTime": 5.5,
        "duration": 0.25,
        "channel": 9
      },
      {
        "note": 42,
        "velocity": 80,
        "startTime": 6,
        "duration": 0.25,
        "channel": 9
      },
      {
        "note": 42,
        "velocity": 60,
        "startTime": 6.5,
        "duration": 0.25,
        "channel": 9
      },
      {
        "note": 42,
        "velocity": 80,
        "startTime": 7,
        "duration": 0.25,
        "channel": 9
      },
      {
        "note": 42,
        "velocity": 60,
        "startTime": 7.5,
        "duration": 0.25,
        "channel": 9
      },
      {
        "note": 42,
        "velocity": 80,
        "startTime": 8,
        "duration": 0.25,
        "channel": 9
      },
      {
        "note": 42,
        "velocity": 60,
        "startTime": 8.5,
        "duration": 0.25,
        "channel": 9
      },
      {
        "note": 42,
        "velocity": 80,
        "startTime": 9,
        "duration": 0.25,
        "channel": 9
      },
      {
        "note": 42,
        "velocity": 60,
        "startTime": 9.5,
        "duration": 0.25,
        "channel": 9
      },
      {
        "note": 42,
        "velocity": 80,
        "startTime": 10,
        "duration": 0.25,
        "channel": 9
      },
      {
        "note": 42,
        "velocity": 60,
        "startTime": 10.5,
        "duration": 0.25,
        "channel": 9
      },
      {
        "note": 42,
        "velocity": 80,
        "startTime": 11,
        "duration": 0.25,
        "channel": 9
      },
      {
        "note": 42,
        "velocity": 60,
        "startTime": 11.5,
        "duration": 0.25,
        "channel": 9
      },
      {
        "note": 42,
        "velocity": 80,
        "startTime": 12,
        "duration": 0.25,
        "channel": 9
      },
      {
        "note": 42,
        "velocity": 60,
        "startTime": 12.5,
        "duration": 0.25,
        "channel": 9
      },
      {
        "note": 42,
        "velocity": 80,
        "startTime": 13,
        "duration": 0.25,
        "channel": 9
      },
      {
        "note": 42,
        "velocity": 60,
        "startTime": 13.5,
        "duration": 0.25,
        "channel": 9
      },
      {
        "note": 42,
        "velocity": 80,
        "startTime": 14,
        "duration": 0.25,
        "channel": 9
      },
      {
        "note": 42,
        "velocity": 60,
        "startTime": 14.5,
        "duration": 0.25,
        "channel": 9
      },
      {
        "note": 42,
        "velocity": 80,
        "startTime": 15,
        "duration": 0.25,
        "channel": 9
      },
      {
        "note": 42,
        "velocity": 60,
        "startTime": 15.5,
        "duration": 0.25,
        "channel": 9
      },
      {
        "note": 42,
        "velocity": 80,
        "startTime": 16,
        "duration": 0.25,
        "channel": 9
      },
      {
        "note": 42,
        "velocity": 60,
        "startTime": 16.5,
        "duration": 0.25,
        "channel": 9
      },
      {
        "note": 42,
        "velocity": 80,
        "startTime": 17,
        "duration": 0.25,
        "channel": 9
      },
      {
        "note": 42,
        "velocity": 60,
        "startTime": 17.5,
        "duration": 0.25,
        "channel": 9
      },
      {
        "note": 42,
        "velocity": 80,
        "startTime": 18,
        "duration": 0.25,
        "channel": 9
      },
      {
        "note": 42,
        "velocity": 60,
        "startTime": 18.5,
        "duration": 0.25,
        "channel": 9
      },
      {
        "note": 42,
        "velocity": 80,
        "startTime": 19,
        "duration": 0.25,
        "channel": 9
      },
      {
        "note": 42,
        "velocity": 60,
        "startTime": 19.5,
        "duration": 0.25,
        "channel": 9
      },
      {
        "note": 42,
        "velocity": 80,
        "startTime": 20,
        "duration": 0.25,
        "channel": 9
      },
      {
        "note": 42,
        "velocity": 60,
        "startTime": 20.5,
        "duration": 0.25,
        "channel": 9
      },
      {
        "note": 42,
        "velocity": 80,
        "startTime": 21,
        "duration": 0.25,
        "channel": 9
      },
      {
        "note": 42,
        "velocity": 60,
        "startTime": 21.5,
        "duration": 0.25,
        "channel": 9
      },
      {
        "note": 42,
        "velocity": 80,
        "startTime": 22,
        "duration": 0.25,
        "channel": 9
      },
      {
        "note": 42,
        "velocity": 60,
        "startTime": 22.5,
        "duration": 0.25,
        "channel": 9
      },
      {
        "note": 42,
        "velocity": 80,
        "startTime": 23,
        "duration": 0.25,
        "channel": 9
      },
      {
        "note": 42,
        "velocity": 60,
        "startTime": 23.5,
        "duration": 0.25,
        "channel": 9
      },
      {
        "note": 42,
        "velocity": 80,
        "startTime": 24,
        "duration": 0.25,
        "channel": 9
      },
      {
        "note": 42,
        "velocity": 60,
        "startTime": 24.5,
        "duration": 0.25,
        "channel": 9
      },
      {
        "note": 42,
        "velocity": 80,
        "startTime": 25,
        "duration": 0.25,
        "channel": 9
      },
      {
        "note": 42,
        "velocity": 60,
        "startTime": 25.5,
        "duration": 0.25,
        "channel": 9
      },
      {
        "note": 42,
        "velocity": 80,
        "startTime": 26,
        "duration": 0.25,
        "channel": 9
      },
      {
        "note": 42,
        "velocity": 60,
        "startTime": 26.5,
        "duration": 0.25,
        "channel": 9
      },
      {
        "note": 42,
        "velocity": 80,
        "startTime": 27,
        "duration": 0.25,
        "channel": 9
      },
      {
        "note": 42,
        "velocity": 60,
        "startTime": 27.5,
        "duration": 0.25,
        "channel": 9
      },
      {
        "note": 42,
        "velocity": 80,
        "startTime": 28,
        "duration": 0.25,
        "channel": 9
      },
      {
        "note": 42,
        "velocity": 60,
        "startTime": 28.5,
        "duration": 0.25,
        "channel": 9
      },
      {
        "note": 42,
        "velocity": 80,
        "startTime": 29,
        "duration": 0.25,
        "channel": 9
      },
      {
        "note": 42,
        "velocity": 60,
        "startTime": 29.5,
        "duration": 0.25,
        "channel": 9
      },
      {
        "note": 42,
        "velocity": 80,
        "startTime": 30,
        "duration": 0.25,
        "channel": 9
      },
      {
        "note": 42,
        "velocity": 60,
        "startTime": 30.5,
        "duration": 0.25,
        "channel": 9
      },
      {
        "note": 42,
        "velocity": 80,
        "startTime": 31,
        "duration": 0.25,
        "channel": 9
      },
      {
        "note": 42,
        "velocity": 60,
        "startTime": 31.5,
        "duration": 0.25,
        "channel": 9
      },
      {
        "note": 42,
        "velocity": 80,
        "startTime": 32,
        "duration": 0.25,
        "channel": 9
      },
      {
        "note": 42,
        "velocity": 60,
        "startTime": 32.5,
        "duration": 0.25,
        "channel": 9
      },
      {
        "note": 42,
        "velocity": 80,
        "startTime": 33,
        "duration": 0.25,
        "channel": 9
      },
      {
        "note": 42,
        "velocity": 60,
        "startTime": 33.5,
        "duration": 0.25,
        "channel": 9
      },
      {
        "note": 42,
        "velocity": 80,
        "startTime": 34,
        "duration": 0.25,
        "channel": 9
      },
      {
        "note": 42,
        "velocity": 60,
        "startTime": 34.5,
        "duration": 0.25,
        "channel": 9
      },
      {
        "note": 42,
        "velocity": 80,
        "startTime": 35,
        "duration": 0.25,
        "channel": 9
      },
      {
        "note": 42,
        "velocity": 60,
        "startTime": 35.5,
        "duration": 0.25,
        "channel": 9
      },
      {
        "note": 42,
        "velocity": 80,
        "startTime": 36,
        "duration": 0.25,
        "channel": 9
      },
      {
        "note": 42,
        "velocity": 60,
        "startTime": 36.5,
        "duration": 0.25,
        "channel": 9
      },
      {
        "note": 42,
        "velocity": 80,
        "startTime": 37,
        "duration": 0.25,
        "channel": 9
      },
      {
        "note": 42,
        "velocity": 60,
        "startTime": 37.5,
        "duration": 0.25,
        "channel": 9
      },
      {
        "note": 42,
        "velocity": 80,
        "startTime": 38,
        "duration": 0.25,
        "channel": 9
      },
      {
        "note": 42,
        "velocity": 60,
        "startTime": 38.5,
        "duration": 0.25,
        "channel": 9
      },
      {
        "note": 42,
        "velocity": 80,
        "startTime": 39,
        "duration": 0.25,
        "channel": 9
      },
      {
        "note": 42,
        "velocity": 60,
        "startTime": 39.5,
        "duration": 0.25,
        "channel": 9
      },
      {
        "note": 42,
        "velocity": 80,
        "startTime": 40,
        "duration": 0.25,
        "channel": 9
      },
      {
        "note": 42,
        "velocity": 60,
        "startTime": 40.5,
        "duration": 0.25,
        "channel": 9
      },
      {
        "note": 42,
        "velocity": 80,
        "startTime": 41,
        "duration": 0.25,
        "channel": 9
      },
      {
        "note": 42,
        "velocity": 60,
        "startTime": 41.5,
        "duration": 0.25,
        "channel": 9
      },
      {
        "note": 42,
        "velocity": 80,
        "startTime": 42,
        "duration": 0.25,
        "channel": 9
      },
      {
        "note": 42,
        "velocity": 60,
        "startTime": 42.5,
        "duration": 0.25,
        "channel": 9
      },
      {
        "note": 42,
        "velocity": 80,
        "startTime": 43,
        "duration": 0.25,
        "channel": 9
      },
      {
        "note": 42,
        "velocity": 60,
        "startTime": 43.5,
        "duration": 0.25,
        "channel": 9
      },
      {
        "note": 42,
        "velocity": 80,
        "startTime": 44,
        "duration": 0.25,
        "channel": 9
      },
      {
        "note": 42,
        "velocity": 60,
        "startTime": 44.5,
        "duration": 0.25,
        "channel": 9
      },
      {
        "note": 42,
        "velocity": 80,
        "startTime": 45,
        "duration": 0.25,
        "channel": 9
      },
      {
        "note": 42,
        "velocity": 60,
        "startTime": 45.5,
        "duration": 0.25,
        "channel": 9
      },
      {
        "note": 42,
        "velocity": 80,
        "startTime": 46,
        "duration": 0.25,
        "channel": 9
      },
      {
        "note": 42,
        "velocity": 60,
        "startTime": 46.5,
        "duration": 0.25,
        "channel": 9
      },
      {
        "note": 42,
        "velocity": 80,
        "startTime": 47,
        "duration": 0.25,
        "channel": 9
      },
      {
        "note": 42,
        "velocity": 60,
        "startTime": 47.5,
        "duration": 0.25,
        "channel": 9
      },
      {
        "note": 42,
        "velocity": 80,
        "startTime": 48,
        "duration": 0.25,
        "channel": 9
      },
      {
        "note": 42,
        "velocity": 60,
        "startTime": 48.5,
        "duration": 0.25,
        "channel": 9
      },
      {
        "note": 42,
        "velocity": 80,
        "startTime": 49,
        "duration": 0.25,
        "channel": 9
      },
      {
        "note": 42,
        "velocity": 60,
        "startTime": 49.5,
        "duration": 0.25,
        "channel": 9
      },
      {
        "note": 42,
        "velocity": 80,
        "startTime": 50,
        "duration": 0.25,
        "channel": 9
      },
      {
        "note": 42,
        "velocity": 60,
        "startTime": 50.5,
        "duration": 0.25,
        "channel": 9
      },
      {
        "note": 42,
        "velocity": 80,
        "startTime": 51,
        "duration": 0.25,
        "channel": 9
      },
      {
        "note": 42,
        "velocity": 60,
        "startTime": 51.5,
        "duration": 0.25,
        "channel": 9
      },
      {
        "note": 42,
        "velocity": 80,
        "startTime": 52,
        "duration": 0.25,
        "channel": 9
      },
      {
        "note": 42,
        "velocity": 60,
        "startTime": 52.5,
        "duration": 0.25,
        "channel": 9
      },
      {
        "note": 42,
        "velocity": 80,
        "startTime": 53,
        "duration": 0.25,
        "channel": 9
      },
      {
        "note": 42,
        "velocity": 60,
        "startTime": 53.5,
        "duration": 0.25,
        "channel": 9
      },
      {
        "note": 42,
        "velocity": 80,
        "startTime": 54,
        "duration": 0.25,
        "channel": 9
      },
      {
        "note": 42,
        "velocity": 60,
        "startTime": 54.5,
        "duration": 0.25,
        "channel": 9
      },
      {
        "note": 42,
        "velocity": 80,
        "startTime": 55,
        "duration": 0.25,
        "channel": 9
      },
      {
        "note": 42,
        "velocity": 60,
        "startTime": 55.5,
        "duration": 0.25,
        "channel": 9
      },
      {
        "note": 42,
        "velocity": 80,
        "startTime": 56,
        "duration": 0.25,
        "channel": 9
      },
      {
        "note": 42,
        "velocity": 60,
        "startTime": 56.5,
        "duration": 0.25,
        "channel": 9
      },
      {
        "note": 42,
        "velocity": 80,
        "startTime": 57,
        "duration": 0.25,
        "channel": 9
      },
      {
        "note": 42,
        "velocity": 60,
        "startTime": 57.5,
        "duration": 0.25,
        "channel": 9
      },
      {
        "note": 42,
        "velocity": 80,
        "startTime": 58,
        "duration": 0.25,
        "channel": 9
      },
      {
        "note": 42,
        "velocity": 60,
        "startTime": 58.5,
        "duration": 0.25,
        "channel": 9
      },
      {
        "note": 42,
        "velocity": 80,
        "startTime": 59,
        "duration": 0.25,
        "channel": 9
      },
      {
        "note": 42,
        "velocity": 60,
        "startTime": 59.5,
        "duration": 0.25,
        "channel": 9
      },
      {
        "note": 42,
        "velocity": 80,
        "startTime": 60,
        "duration": 0.25,
        "channel": 9
      },
      {
        "note": 42,
        "velocity": 60,
        "startTime": 60.5,
        "duration": 0.25,
        "channel": 9
      },
      {
        "note": 42,
        "velocity": 80,
        "startTime": 61,
        "duration": 0.25,
        "channel": 9
      },
      {
        "note": 42,
        "velocity": 60,
        "startTime": 61.5,
        "duration": 0.25,
        "channel": 9
      },
      {
        "note": 42,
        "velocity": 80,
        "startTime": 62,
        "duration": 0.25,
        "channel": 9
      },
      {
        "note": 42,
        "velocity": 60,
        "startTime": 62.5,
        "duration": 0.25,
        "channel": 9
      },
      {
        "note": 42,
        "velocity": 80,
        "startTime": 63,
        "duration": 0.25,
        "channel": 9
      },
      {
        "note": 42,
        "velocity": 60,
        "startTime": 63.5,
        "duration": 0.25,
        "channel": 9
      },
      {
        "note": 36,
        "velocity": 100,
        "startTime": 0,
        "duration": 1,
        "channel": 0
      },
      {
        "note": 36,
        "velocity": 100,
        "startTime": 2,
        "duration": 1,
        "channel": 0
      },
      {
        "note": 36,
        "velocity": 100,
        "startTime": 4,
        "duration": 1,
        "channel": 0
      },
      {
        "note": 36,
        "velocity": 100,
        "startTime": 6,
        "duration": 1,
        "channel": 0
      },
      {
        "note": 36,
        "velocity": 100,
        "startTime": 8,
        "duration": 1,
        "channel": 0
      },
      {
        "note": 36,
        "velocity": 100,
        "startTime": 10,
        "duration": 1,
        "channel": 0
      },
      {
        "note": 36,
        "velocity": 100,
        "startTime": 12,
        "duration": 1,
        "channel": 0
      },
      {
        "note": 36,
        "velocity": 100,
        "startTime": 14,
        "duration": 1,
        "channel": 0
      },
      {
        "note": 36,
        "velocity": 100,
        "startTime": 16,
        "duration": 1,
        "channel": 0
      },
      {
        "note": 36,
        "velocity": 100,
        "startTime": 18,
        "duration": 1,
        "channel": 0
      },
      {
        "note": 36,
        "velocity": 100,
        "startTime": 20,
        "duration": 1,
        "channel": 0
      },
      {
        "note": 36,
        "velocity": 100,
        "startTime": 22,
        "duration": 1,
        "channel": 0
      },
      {
        "note": 36,
        "velocity": 100,
        "startTime": 24,
        "duration": 1,
        "channel": 0
      },
      {
        "note": 36,
        "velocity": 100,
        "startTime": 26,
        "duration": 1,
        "channel": 0
      },
      {
        "note": 36,
        "velocity": 100,
        "startTime": 28,
        "duration": 1,
        "channel": 0
      },
      {
        "note": 36,
        "velocity": 100,
        "startTime": 30,
        "duration": 1,
        "channel": 0
      },
      {
        "note": 36,
        "velocity": 100,
        "startTime": 32,
        "duration": 1,
        "channel": 0
      },
      {
        "note": 36,
        "velocity": 100,
        "startTime": 34,
        "duration": 1,
        "channel": 0
      },
      {
        "note": 36,
        "velocity": 100,
        "startTime": 36,
        "duration": 1,
        "channel": 0
      },
      {
        "note": 36,
        "velocity": 100,
        "startTime": 38,
        "duration": 1,
        "channel": 0
      },
      {
        "note": 36,
        "velocity": 100,
        "startTime": 40,
        "duration": 1,
        "channel": 0
      },
      {
        "note": 36,
        "velocity": 100,
        "startTime": 42,
        "duration": 1,
        "channel": 0
      },
      {
        "note": 36,
        "velocity": 100,
        "startTime": 44,
        "duration": 1,
        "channel": 0
      },
      {
        "note": 36,
        "velocity": 100,
        "startTime": 46,
        "duration": 1,
        "channel": 0
      },
      {
        "note": 36,
        "velocity": 100,
        "startTime": 48,
        "duration": 1,
        "channel": 0
      },
      {
        "note": 36,
        "velocity": 100,
        "startTime": 50,
        "duration": 1,
        "channel": 0
      },
      {
        "note": 36,
        "velocity": 100,
        "startTime": 52,
        "duration": 1,
        "channel": 0
      },
      {
        "note": 36,
        "velocity": 100,
        "startTime": 54,
        "duration": 1,
        "channel": 0
      },
      {
        "note": 36,
        "velocity": 100,
        "startTime": 56,
        "duration": 1,
        "channel": 0
      },
      {
        "note": 36,
        "velocity": 100,
        "startTime": 58,
        "duration": 1,
        "channel": 0
      },
      {
        "note": 36,
        "velocity": 100,
        "startTime": 60,
        "duration": 1,
        "channel": 0
      },
      {
        "note": 36,
        "velocity": 100,
        "startTime": 62,
        "duration": 1,
        "channel": 0
      }
    ],
    "project_name": "aoslepsjkcf",
    "project_path": "/Users/camilopineda/Desktop/SHINE DARK MIDI PARTY/Logic copy sep 2025/aoslepsjkcf/aoslepsjkcf.logicx",
    "extraction_date": "2025-09-05T23:38:35.388Z",
    "extraction_status": "generated_from_project_name"
  },
  {
    "id": "electronic-pattern",
    "name": "Electronic",
    "tempo": 120,
    "timeSignature": [
      4,
      4
    ],
    "length": 64,
    "loop": true,
    "notes": [
      {
        "note": 36,
        "velocity": 127,
        "startTime": 0,
        "duration": 0.5,
        "channel": 9
      },
      {
        "note": 36,
        "velocity": 100,
        "startTime": 2,
        "duration": 0.5,
        "channel": 9
      },
      {
        "note": 36,
        "velocity": 127,
        "startTime": 4,
        "duration": 0.5,
        "channel": 9
      },
      {
        "note": 36,
        "velocity": 100,
        "startTime": 6,
        "duration": 0.5,
        "channel": 9
      },
      {
        "note": 36,
        "velocity": 127,
        "startTime": 8,
        "duration": 0.5,
        "channel": 9
      },
      {
        "note": 36,
        "velocity": 100,
        "startTime": 10,
        "duration": 0.5,
        "channel": 9
      },
      {
        "note": 36,
        "velocity": 127,
        "startTime": 12,
        "duration": 0.5,
        "channel": 9
      },
      {
        "note": 36,
        "velocity": 100,
        "startTime": 14,
        "duration": 0.5,
        "channel": 9
      },
      {
        "note": 36,
        "velocity": 127,
        "startTime": 16,
        "duration": 0.5,
        "channel": 9
      },
      {
        "note": 36,
        "velocity": 100,
        "startTime": 18,
        "duration": 0.5,
        "channel": 9
      },
      {
        "note": 36,
        "velocity": 127,
        "startTime": 20,
        "duration": 0.5,
        "channel": 9
      },
      {
        "note": 36,
        "velocity": 100,
        "startTime": 22,
        "duration": 0.5,
        "channel": 9
      },
      {
        "note": 36,
        "velocity": 127,
        "startTime": 24,
        "duration": 0.5,
        "channel": 9
      },
      {
        "note": 36,
        "velocity": 100,
        "startTime": 26,
        "duration": 0.5,
        "channel": 9
      },
      {
        "note": 36,
        "velocity": 127,
        "startTime": 28,
        "duration": 0.5,
        "channel": 9
      },
      {
        "note": 36,
        "velocity": 100,
        "startTime": 30,
        "duration": 0.5,
        "channel": 9
      },
      {
        "note": 36,
        "velocity": 127,
        "startTime": 32,
        "duration": 0.5,
        "channel": 9
      },
      {
        "note": 36,
        "velocity": 100,
        "startTime": 34,
        "duration": 0.5,
        "channel": 9
      },
      {
        "note": 36,
        "velocity": 127,
        "startTime": 36,
        "duration": 0.5,
        "channel": 9
      },
      {
        "note": 36,
        "velocity": 100,
        "startTime": 38,
        "duration": 0.5,
        "channel": 9
      },
      {
        "note": 36,
        "velocity": 127,
        "startTime": 40,
        "duration": 0.5,
        "channel": 9
      },
      {
        "note": 36,
        "velocity": 100,
        "startTime": 42,
        "duration": 0.5,
        "channel": 9
      },
      {
        "note": 36,
        "velocity": 127,
        "startTime": 44,
        "duration": 0.5,
        "channel": 9
      },
      {
        "note": 36,
        "velocity": 100,
        "startTime": 46,
        "duration": 0.5,
        "channel": 9
      },
      {
        "note": 36,
        "velocity": 127,
        "startTime": 48,
        "duration": 0.5,
        "channel": 9
      },
      {
        "note": 36,
        "velocity": 100,
        "startTime": 50,
        "duration": 0.5,
        "channel": 9
      },
      {
        "note": 36,
        "velocity": 127,
        "startTime": 52,
        "duration": 0.5,
        "channel": 9
      },
      {
        "note": 36,
        "velocity": 100,
        "startTime": 54,
        "duration": 0.5,
        "channel": 9
      },
      {
        "note": 36,
        "velocity": 127,
        "startTime": 56,
        "duration": 0.5,
        "channel": 9
      },
      {
        "note": 36,
        "velocity": 100,
        "startTime": 58,
        "duration": 0.5,
        "channel": 9
      },
      {
        "note": 36,
        "velocity": 127,
        "startTime": 60,
        "duration": 0.5,
        "channel": 9
      },
      {
        "note": 36,
        "velocity": 100,
        "startTime": 62,
        "duration": 0.5,
        "channel": 9
      },
      {
        "note": 38,
        "velocity": 100,
        "startTime": 1,
        "duration": 0.5,
        "channel": 9
      },
      {
        "note": 38,
        "velocity": 100,
        "startTime": 3,
        "duration": 0.5,
        "channel": 9
      },
      {
        "note": 38,
        "velocity": 100,
        "startTime": 5,
        "duration": 0.5,
        "channel": 9
      },
      {
        "note": 38,
        "velocity": 100,
        "startTime": 7,
        "duration": 0.5,
        "channel": 9
      },
      {
        "note": 38,
        "velocity": 100,
        "startTime": 9,
        "duration": 0.5,
        "channel": 9
      },
      {
        "note": 38,
        "velocity": 100,
        "startTime": 11,
        "duration": 0.5,
        "channel": 9
      },
      {
        "note": 38,
        "velocity": 100,
        "startTime": 13,
        "duration": 0.5,
        "channel": 9
      },
      {
        "note": 38,
        "velocity": 100,
        "startTime": 15,
        "duration": 0.5,
        "channel": 9
      },
      {
        "note": 38,
        "velocity": 100,
        "startTime": 17,
        "duration": 0.5,
        "channel": 9
      },
      {
        "note": 38,
        "velocity": 100,
        "startTime": 19,
        "duration": 0.5,
        "channel": 9
      },
      {
        "note": 38,
        "velocity": 100,
        "startTime": 21,
        "duration": 0.5,
        "channel": 9
      },
      {
        "note": 38,
        "velocity": 100,
        "startTime": 23,
        "duration": 0.5,
        "channel": 9
      },
      {
        "note": 38,
        "velocity": 100,
        "startTime": 25,
        "duration": 0.5,
        "channel": 9
      },
      {
        "note": 38,
        "velocity": 100,
        "startTime": 27,
        "duration": 0.5,
        "channel": 9
      },
      {
        "note": 38,
        "velocity": 100,
        "startTime": 29,
        "duration": 0.5,
        "channel": 9
      },
      {
        "note": 38,
        "velocity": 100,
        "startTime": 31,
        "duration": 0.5,
        "channel": 9
      },
      {
        "note": 38,
        "velocity": 100,
        "startTime": 33,
        "duration": 0.5,
        "channel": 9
      },
      {
        "note": 38,
        "velocity": 100,
        "startTime": 35,
        "duration": 0.5,
        "channel": 9
      },
      {
        "note": 38,
        "velocity": 100,
        "startTime": 37,
        "duration": 0.5,
        "channel": 9
      },
      {
        "note": 38,
        "velocity": 100,
        "startTime": 39,
        "duration": 0.5,
        "channel": 9
      },
      {
        "note": 38,
        "velocity": 100,
        "startTime": 41,
        "duration": 0.5,
        "channel": 9
      },
      {
        "note": 38,
        "velocity": 100,
        "startTime": 43,
        "duration": 0.5,
        "channel": 9
      },
      {
        "note": 38,
        "velocity": 100,
        "startTime": 45,
        "duration": 0.5,
        "channel": 9
      },
      {
        "note": 38,
        "velocity": 100,
        "startTime": 47,
        "duration": 0.5,
        "channel": 9
      },
      {
        "note": 38,
        "velocity": 100,
        "startTime": 49,
        "duration": 0.5,
        "channel": 9
      },
      {
        "note": 38,
        "velocity": 100,
        "startTime": 51,
        "duration": 0.5,
        "channel": 9
      },
      {
        "note": 38,
        "velocity": 100,
        "startTime": 53,
        "duration": 0.5,
        "channel": 9
      },
      {
        "note": 38,
        "velocity": 100,
        "startTime": 55,
        "duration": 0.5,
        "channel": 9
      },
      {
        "note": 38,
        "velocity": 100,
        "startTime": 57,
        "duration": 0.5,
        "channel": 9
      },
      {
        "note": 38,
        "velocity": 100,
        "startTime": 59,
        "duration": 0.5,
        "channel": 9
      },
      {
        "note": 38,
        "velocity": 100,
        "startTime": 61,
        "duration": 0.5,
        "channel": 9
      },
      {
        "note": 38,
        "velocity": 100,
        "startTime": 63,
        "duration": 0.5,
        "channel": 9
      },
      {
        "note": 42,
        "velocity": 80,
        "startTime": 0,
        "duration": 0.25,
        "channel": 9
      },
      {
        "note": 42,
        "velocity": 60,
        "startTime": 0.5,
        "duration": 0.25,
        "channel": 9
      },
      {
        "note": 42,
        "velocity": 80,
        "startTime": 1,
        "duration": 0.25,
        "channel": 9
      },
      {
        "note": 42,
        "velocity": 60,
        "startTime": 1.5,
        "duration": 0.25,
        "channel": 9
      },
      {
        "note": 42,
        "velocity": 80,
        "startTime": 2,
        "duration": 0.25,
        "channel": 9
      },
      {
        "note": 42,
        "velocity": 60,
        "startTime": 2.5,
        "duration": 0.25,
        "channel": 9
      },
      {
        "note": 42,
        "velocity": 80,
        "startTime": 3,
        "duration": 0.25,
        "channel": 9
      },
      {
        "note": 42,
        "velocity": 60,
        "startTime": 3.5,
        "duration": 0.25,
        "channel": 9
      },
      {
        "note": 42,
        "velocity": 80,
        "startTime": 4,
        "duration": 0.25,
        "channel": 9
      },
      {
        "note": 42,
        "velocity": 60,
        "startTime": 4.5,
        "duration": 0.25,
        "channel": 9
      },
      {
        "note": 42,
        "velocity": 80,
        "startTime": 5,
        "duration": 0.25,
        "channel": 9
      },
      {
        "note": 42,
        "velocity": 60,
        "startTime": 5.5,
        "duration": 0.25,
        "channel": 9
      },
      {
        "note": 42,
        "velocity": 80,
        "startTime": 6,
        "duration": 0.25,
        "channel": 9
      },
      {
        "note": 42,
        "velocity": 60,
        "startTime": 6.5,
        "duration": 0.25,
        "channel": 9
      },
      {
        "note": 42,
        "velocity": 80,
        "startTime": 7,
        "duration": 0.25,
        "channel": 9
      },
      {
        "note": 42,
        "velocity": 60,
        "startTime": 7.5,
        "duration": 0.25,
        "channel": 9
      },
      {
        "note": 42,
        "velocity": 80,
        "startTime": 8,
        "duration": 0.25,
        "channel": 9
      },
      {
        "note": 42,
        "velocity": 60,
        "startTime": 8.5,
        "duration": 0.25,
        "channel": 9
      },
      {
        "note": 42,
        "velocity": 80,
        "startTime": 9,
        "duration": 0.25,
        "channel": 9
      },
      {
        "note": 42,
        "velocity": 60,
        "startTime": 9.5,
        "duration": 0.25,
        "channel": 9
      },
      {
        "note": 42,
        "velocity": 80,
        "startTime": 10,
        "duration": 0.25,
        "channel": 9
      },
      {
        "note": 42,
        "velocity": 60,
        "startTime": 10.5,
        "duration": 0.25,
        "channel": 9
      },
      {
        "note": 42,
        "velocity": 80,
        "startTime": 11,
        "duration": 0.25,
        "channel": 9
      },
      {
        "note": 42,
        "velocity": 60,
        "startTime": 11.5,
        "duration": 0.25,
        "channel": 9
      },
      {
        "note": 42,
        "velocity": 80,
        "startTime": 12,
        "duration": 0.25,
        "channel": 9
      },
      {
        "note": 42,
        "velocity": 60,
        "startTime": 12.5,
        "duration": 0.25,
        "channel": 9
      },
      {
        "note": 42,
        "velocity": 80,
        "startTime": 13,
        "duration": 0.25,
        "channel": 9
      },
      {
        "note": 42,
        "velocity": 60,
        "startTime": 13.5,
        "duration": 0.25,
        "channel": 9
      },
      {
        "note": 42,
        "velocity": 80,
        "startTime": 14,
        "duration": 0.25,
        "channel": 9
      },
      {
        "note": 42,
        "velocity": 60,
        "startTime": 14.5,
        "duration": 0.25,
        "channel": 9
      },
      {
        "note": 42,
        "velocity": 80,
        "startTime": 15,
        "duration": 0.25,
        "channel": 9
      },
      {
        "note": 42,
        "velocity": 60,
        "startTime": 15.5,
        "duration": 0.25,
        "channel": 9
      },
      {
        "note": 42,
        "velocity": 80,
        "startTime": 16,
        "duration": 0.25,
        "channel": 9
      },
      {
        "note": 42,
        "velocity": 60,
        "startTime": 16.5,
        "duration": 0.25,
        "channel": 9
      },
      {
        "note": 42,
        "velocity": 80,
        "startTime": 17,
        "duration": 0.25,
        "channel": 9
      },
      {
        "note": 42,
        "velocity": 60,
        "startTime": 17.5,
        "duration": 0.25,
        "channel": 9
      },
      {
        "note": 42,
        "velocity": 80,
        "startTime": 18,
        "duration": 0.25,
        "channel": 9
      },
      {
        "note": 42,
        "velocity": 60,
        "startTime": 18.5,
        "duration": 0.25,
        "channel": 9
      },
      {
        "note": 42,
        "velocity": 80,
        "startTime": 19,
        "duration": 0.25,
        "channel": 9
      },
      {
        "note": 42,
        "velocity": 60,
        "startTime": 19.5,
        "duration": 0.25,
        "channel": 9
      },
      {
        "note": 42,
        "velocity": 80,
        "startTime": 20,
        "duration": 0.25,
        "channel": 9
      },
      {
        "note": 42,
        "velocity": 60,
        "startTime": 20.5,
        "duration": 0.25,
        "channel": 9
      },
      {
        "note": 42,
        "velocity": 80,
        "startTime": 21,
        "duration": 0.25,
        "channel": 9
      },
      {
        "note": 42,
        "velocity": 60,
        "startTime": 21.5,
        "duration": 0.25,
        "channel": 9
      },
      {
        "note": 42,
        "velocity": 80,
        "startTime": 22,
        "duration": 0.25,
        "channel": 9
      },
      {
        "note": 42,
        "velocity": 60,
        "startTime": 22.5,
        "duration": 0.25,
        "channel": 9
      },
      {
        "note": 42,
        "velocity": 80,
        "startTime": 23,
        "duration": 0.25,
        "channel": 9
      },
      {
        "note": 42,
        "velocity": 60,
        "startTime": 23.5,
        "duration": 0.25,
        "channel": 9
      },
      {
        "note": 42,
        "velocity": 80,
        "startTime": 24,
        "duration": 0.25,
        "channel": 9
      },
      {
        "note": 42,
        "velocity": 60,
        "startTime": 24.5,
        "duration": 0.25,
        "channel": 9
      },
      {
        "note": 42,
        "velocity": 80,
        "startTime": 25,
        "duration": 0.25,
        "channel": 9
      },
      {
        "note": 42,
        "velocity": 60,
        "startTime": 25.5,
        "duration": 0.25,
        "channel": 9
      },
      {
        "note": 42,
        "velocity": 80,
        "startTime": 26,
        "duration": 0.25,
        "channel": 9
      },
      {
        "note": 42,
        "velocity": 60,
        "startTime": 26.5,
        "duration": 0.25,
        "channel": 9
      },
      {
        "note": 42,
        "velocity": 80,
        "startTime": 27,
        "duration": 0.25,
        "channel": 9
      },
      {
        "note": 42,
        "velocity": 60,
        "startTime": 27.5,
        "duration": 0.25,
        "channel": 9
      },
      {
        "note": 42,
        "velocity": 80,
        "startTime": 28,
        "duration": 0.25,
        "channel": 9
      },
      {
        "note": 42,
        "velocity": 60,
        "startTime": 28.5,
        "duration": 0.25,
        "channel": 9
      },
      {
        "note": 42,
        "velocity": 80,
        "startTime": 29,
        "duration": 0.25,
        "channel": 9
      },
      {
        "note": 42,
        "velocity": 60,
        "startTime": 29.5,
        "duration": 0.25,
        "channel": 9
      },
      {
        "note": 42,
        "velocity": 80,
        "startTime": 30,
        "duration": 0.25,
        "channel": 9
      },
      {
        "note": 42,
        "velocity": 60,
        "startTime": 30.5,
        "duration": 0.25,
        "channel": 9
      },
      {
        "note": 42,
        "velocity": 80,
        "startTime": 31,
        "duration": 0.25,
        "channel": 9
      },
      {
        "note": 42,
        "velocity": 60,
        "startTime": 31.5,
        "duration": 0.25,
        "channel": 9
      },
      {
        "note": 42,
        "velocity": 80,
        "startTime": 32,
        "duration": 0.25,
        "channel": 9
      },
      {
        "note": 42,
        "velocity": 60,
        "startTime": 32.5,
        "duration": 0.25,
        "channel": 9
      },
      {
        "note": 42,
        "velocity": 80,
        "startTime": 33,
        "duration": 0.25,
        "channel": 9
      },
      {
        "note": 42,
        "velocity": 60,
        "startTime": 33.5,
        "duration": 0.25,
        "channel": 9
      },
      {
        "note": 42,
        "velocity": 80,
        "startTime": 34,
        "duration": 0.25,
        "channel": 9
      },
      {
        "note": 42,
        "velocity": 60,
        "startTime": 34.5,
        "duration": 0.25,
        "channel": 9
      },
      {
        "note": 42,
        "velocity": 80,
        "startTime": 35,
        "duration": 0.25,
        "channel": 9
      },
      {
        "note": 42,
        "velocity": 60,
        "startTime": 35.5,
        "duration": 0.25,
        "channel": 9
      },
      {
        "note": 42,
        "velocity": 80,
        "startTime": 36,
        "duration": 0.25,
        "channel": 9
      },
      {
        "note": 42,
        "velocity": 60,
        "startTime": 36.5,
        "duration": 0.25,
        "channel": 9
      },
      {
        "note": 42,
        "velocity": 80,
        "startTime": 37,
        "duration": 0.25,
        "channel": 9
      },
      {
        "note": 42,
        "velocity": 60,
        "startTime": 37.5,
        "duration": 0.25,
        "channel": 9
      },
      {
        "note": 42,
        "velocity": 80,
        "startTime": 38,
        "duration": 0.25,
        "channel": 9
      },
      {
        "note": 42,
        "velocity": 60,
        "startTime": 38.5,
        "duration": 0.25,
        "channel": 9
      },
      {
        "note": 42,
        "velocity": 80,
        "startTime": 39,
        "duration": 0.25,
        "channel": 9
      },
      {
        "note": 42,
        "velocity": 60,
        "startTime": 39.5,
        "duration": 0.25,
        "channel": 9
      },
      {
        "note": 42,
        "velocity": 80,
        "startTime": 40,
        "duration": 0.25,
        "channel": 9
      },
      {
        "note": 42,
        "velocity": 60,
        "startTime": 40.5,
        "duration": 0.25,
        "channel": 9
      },
      {
        "note": 42,
        "velocity": 80,
        "startTime": 41,
        "duration": 0.25,
        "channel": 9
      },
      {
        "note": 42,
        "velocity": 60,
        "startTime": 41.5,
        "duration": 0.25,
        "channel": 9
      },
      {
        "note": 42,
        "velocity": 80,
        "startTime": 42,
        "duration": 0.25,
        "channel": 9
      },
      {
        "note": 42,
        "velocity": 60,
        "startTime": 42.5,
        "duration": 0.25,
        "channel": 9
      },
      {
        "note": 42,
        "velocity": 80,
        "startTime": 43,
        "duration": 0.25,
        "channel": 9
      },
      {
        "note": 42,
        "velocity": 60,
        "startTime": 43.5,
        "duration": 0.25,
        "channel": 9
      },
      {
        "note": 42,
        "velocity": 80,
        "startTime": 44,
        "duration": 0.25,
        "channel": 9
      },
      {
        "note": 42,
        "velocity": 60,
        "startTime": 44.5,
        "duration": 0.25,
        "channel": 9
      },
      {
        "note": 42,
        "velocity": 80,
        "startTime": 45,
        "duration": 0.25,
        "channel": 9
      },
      {
        "note": 42,
        "velocity": 60,
        "startTime": 45.5,
        "duration": 0.25,
        "channel": 9
      },
      {
        "note": 42,
        "velocity": 80,
        "startTime": 46,
        "duration": 0.25,
        "channel": 9
      },
      {
        "note": 42,
        "velocity": 60,
        "startTime": 46.5,
        "duration": 0.25,
        "channel": 9
      },
      {
        "note": 42,
        "velocity": 80,
        "startTime": 47,
        "duration": 0.25,
        "channel": 9
      },
      {
        "note": 42,
        "velocity": 60,
        "startTime": 47.5,
        "duration": 0.25,
        "channel": 9
      },
      {
        "note": 42,
        "velocity": 80,
        "startTime": 48,
        "duration": 0.25,
        "channel": 9
      },
      {
        "note": 42,
        "velocity": 60,
        "startTime": 48.5,
        "duration": 0.25,
        "channel": 9
      },
      {
        "note": 42,
        "velocity": 80,
        "startTime": 49,
        "duration": 0.25,
        "channel": 9
      },
      {
        "note": 42,
        "velocity": 60,
        "startTime": 49.5,
        "duration": 0.25,
        "channel": 9
      },
      {
        "note": 42,
        "velocity": 80,
        "startTime": 50,
        "duration": 0.25,
        "channel": 9
      },
      {
        "note": 42,
        "velocity": 60,
        "startTime": 50.5,
        "duration": 0.25,
        "channel": 9
      },
      {
        "note": 42,
        "velocity": 80,
        "startTime": 51,
        "duration": 0.25,
        "channel": 9
      },
      {
        "note": 42,
        "velocity": 60,
        "startTime": 51.5,
        "duration": 0.25,
        "channel": 9
      },
      {
        "note": 42,
        "velocity": 80,
        "startTime": 52,
        "duration": 0.25,
        "channel": 9
      },
      {
        "note": 42,
        "velocity": 60,
        "startTime": 52.5,
        "duration": 0.25,
        "channel": 9
      },
      {
        "note": 42,
        "velocity": 80,
        "startTime": 53,
        "duration": 0.25,
        "channel": 9
      },
      {
        "note": 42,
        "velocity": 60,
        "startTime": 53.5,
        "duration": 0.25,
        "channel": 9
      },
      {
        "note": 42,
        "velocity": 80,
        "startTime": 54,
        "duration": 0.25,
        "channel": 9
      },
      {
        "note": 42,
        "velocity": 60,
        "startTime": 54.5,
        "duration": 0.25,
        "channel": 9
      },
      {
        "note": 42,
        "velocity": 80,
        "startTime": 55,
        "duration": 0.25,
        "channel": 9
      },
      {
        "note": 42,
        "velocity": 60,
        "startTime": 55.5,
        "duration": 0.25,
        "channel": 9
      },
      {
        "note": 42,
        "velocity": 80,
        "startTime": 56,
        "duration": 0.25,
        "channel": 9
      },
      {
        "note": 42,
        "velocity": 60,
        "startTime": 56.5,
        "duration": 0.25,
        "channel": 9
      },
      {
        "note": 42,
        "velocity": 80,
        "startTime": 57,
        "duration": 0.25,
        "channel": 9
      },
      {
        "note": 42,
        "velocity": 60,
        "startTime": 57.5,
        "duration": 0.25,
        "channel": 9
      },
      {
        "note": 42,
        "velocity": 80,
        "startTime": 58,
        "duration": 0.25,
        "channel": 9
      },
      {
        "note": 42,
        "velocity": 60,
        "startTime": 58.5,
        "duration": 0.25,
        "channel": 9
      },
      {
        "note": 42,
        "velocity": 80,
        "startTime": 59,
        "duration": 0.25,
        "channel": 9
      },
      {
        "note": 42,
        "velocity": 60,
        "startTime": 59.5,
        "duration": 0.25,
        "channel": 9
      },
      {
        "note": 42,
        "velocity": 80,
        "startTime": 60,
        "duration": 0.25,
        "channel": 9
      },
      {
        "note": 42,
        "velocity": 60,
        "startTime": 60.5,
        "duration": 0.25,
        "channel": 9
      },
      {
        "note": 42,
        "velocity": 80,
        "startTime": 61,
        "duration": 0.25,
        "channel": 9
      },
      {
        "note": 42,
        "velocity": 60,
        "startTime": 61.5,
        "duration": 0.25,
        "channel": 9
      },
      {
        "note": 42,
        "velocity": 80,
        "startTime": 62,
        "duration": 0.25,
        "channel": 9
      },
      {
        "note": 42,
        "velocity": 60,
        "startTime": 62.5,
        "duration": 0.25,
        "channel": 9
      },
      {
        "note": 42,
        "velocity": 80,
        "startTime": 63,
        "duration": 0.25,
        "channel": 9
      },
      {
        "note": 42,
        "velocity": 60,
        "startTime": 63.5,
        "duration": 0.25,
        "channel": 9
      },
      {
        "note": 36,
        "velocity": 100,
        "startTime": 0,
        "duration": 1,
        "channel": 0
      },
      {
        "note": 36,
        "velocity": 100,
        "startTime": 2,
        "duration": 1,
        "channel": 0
      },
      {
        "note": 36,
        "velocity": 100,
        "startTime": 4,
        "duration": 1,
        "channel": 0
      },
      {
        "note": 36,
        "velocity": 100,
        "startTime": 6,
        "duration": 1,
        "channel": 0
      },
      {
        "note": 36,
        "velocity": 100,
        "startTime": 8,
        "duration": 1,
        "channel": 0
      },
      {
        "note": 36,
        "velocity": 100,
        "startTime": 10,
        "duration": 1,
        "channel": 0
      },
      {
        "note": 36,
        "velocity": 100,
        "startTime": 12,
        "duration": 1,
        "channel": 0
      },
      {
        "note": 36,
        "velocity": 100,
        "startTime": 14,
        "duration": 1,
        "channel": 0
      },
      {
        "note": 36,
        "velocity": 100,
        "startTime": 16,
        "duration": 1,
        "channel": 0
      },
      {
        "note": 36,
        "velocity": 100,
        "startTime": 18,
        "duration": 1,
        "channel": 0
      },
      {
        "note": 36,
        "velocity": 100,
        "startTime": 20,
        "duration": 1,
        "channel": 0
      },
      {
        "note": 36,
        "velocity": 100,
        "startTime": 22,
        "duration": 1,
        "channel": 0
      },
      {
        "note": 36,
        "velocity": 100,
        "startTime": 24,
        "duration": 1,
        "channel": 0
      },
      {
        "note": 36,
        "velocity": 100,
        "startTime": 26,
        "duration": 1,
        "channel": 0
      },
      {
        "note": 36,
        "velocity": 100,
        "startTime": 28,
        "duration": 1,
        "channel": 0
      },
      {
        "note": 36,
        "velocity": 100,
        "startTime": 30,
        "duration": 1,
        "channel": 0
      },
      {
        "note": 36,
        "velocity": 100,
        "startTime": 32,
        "duration": 1,
        "channel": 0
      },
      {
        "note": 36,
        "velocity": 100,
        "startTime": 34,
        "duration": 1,
        "channel": 0
      },
      {
        "note": 36,
        "velocity": 100,
        "startTime": 36,
        "duration": 1,
        "channel": 0
      },
      {
        "note": 36,
        "velocity": 100,
        "startTime": 38,
        "duration": 1,
        "channel": 0
      },
      {
        "note": 36,
        "velocity": 100,
        "startTime": 40,
        "duration": 1,
        "channel": 0
      },
      {
        "note": 36,
        "velocity": 100,
        "startTime": 42,
        "duration": 1,
        "channel": 0
      },
      {
        "note": 36,
        "velocity": 100,
        "startTime": 44,
        "duration": 1,
        "channel": 0
      },
      {
        "note": 36,
        "velocity": 100,
        "startTime": 46,
        "duration": 1,
        "channel": 0
      },
      {
        "note": 36,
        "velocity": 100,
        "startTime": 48,
        "duration": 1,
        "channel": 0
      },
      {
        "note": 36,
        "velocity": 100,
        "startTime": 50,
        "duration": 1,
        "channel": 0
      },
      {
        "note": 36,
        "velocity": 100,
        "startTime": 52,
        "duration": 1,
        "channel": 0
      },
      {
        "note": 36,
        "velocity": 100,
        "startTime": 54,
        "duration": 1,
        "channel": 0
      },
      {
        "note": 36,
        "velocity": 100,
        "startTime": 56,
        "duration": 1,
        "channel": 0
      },
      {
        "note": 36,
        "velocity": 100,
        "startTime": 58,
        "duration": 1,
        "channel": 0
      },
      {
        "note": 36,
        "velocity": 100,
        "startTime": 60,
        "duration": 1,
        "channel": 0
      },
      {
        "note": 36,
        "velocity": 100,
        "startTime": 62,
        "duration": 1,
        "channel": 0
      }
    ],
    "project_name": "apsfk",
    "project_path": "/Users/camilopineda/Desktop/SHINE DARK MIDI PARTY/Logic copy sep 2025/apsfk/apsfk.logicx",
    "extraction_date": "2025-09-05T23:38:35.389Z",
    "extraction_status": "generated_from_project_name"
  },
  {
    "id": "electronic-pattern",
    "name": "Electronic",
    "tempo": 120,
    "timeSignature": [
      4,
      4
    ],
    "length": 64,
    "loop": true,
    "notes": [
      {
        "note": 36,
        "velocity": 127,
        "startTime": 0,
        "duration": 0.5,
        "channel": 9
      },
      {
        "note": 36,
        "velocity": 100,
        "startTime": 2,
        "duration": 0.5,
        "channel": 9
      },
      {
        "note": 36,
        "velocity": 127,
        "startTime": 4,
        "duration": 0.5,
        "channel": 9
      },
      {
        "note": 36,
        "velocity": 100,
        "startTime": 6,
        "duration": 0.5,
        "channel": 9
      },
      {
        "note": 36,
        "velocity": 127,
        "startTime": 8,
        "duration": 0.5,
        "channel": 9
      },
      {
        "note": 36,
        "velocity": 100,
        "startTime": 10,
        "duration": 0.5,
        "channel": 9
      },
      {
        "note": 36,
        "velocity": 127,
        "startTime": 12,
        "duration": 0.5,
        "channel": 9
      },
      {
        "note": 36,
        "velocity": 100,
        "startTime": 14,
        "duration": 0.5,
        "channel": 9
      },
      {
        "note": 36,
        "velocity": 127,
        "startTime": 16,
        "duration": 0.5,
        "channel": 9
      },
      {
        "note": 36,
        "velocity": 100,
        "startTime": 18,
        "duration": 0.5,
        "channel": 9
      },
      {
        "note": 36,
        "velocity": 127,
        "startTime": 20,
        "duration": 0.5,
        "channel": 9
      },
      {
        "note": 36,
        "velocity": 100,
        "startTime": 22,
        "duration": 0.5,
        "channel": 9
      },
      {
        "note": 36,
        "velocity": 127,
        "startTime": 24,
        "duration": 0.5,
        "channel": 9
      },
      {
        "note": 36,
        "velocity": 100,
        "startTime": 26,
        "duration": 0.5,
        "channel": 9
      },
      {
        "note": 36,
        "velocity": 127,
        "startTime": 28,
        "duration": 0.5,
        "channel": 9
      },
      {
        "note": 36,
        "velocity": 100,
        "startTime": 30,
        "duration": 0.5,
        "channel": 9
      },
      {
        "note": 36,
        "velocity": 127,
        "startTime": 32,
        "duration": 0.5,
        "channel": 9
      },
      {
        "note": 36,
        "velocity": 100,
        "startTime": 34,
        "duration": 0.5,
        "channel": 9
      },
      {
        "note": 36,
        "velocity": 127,
        "startTime": 36,
        "duration": 0.5,
        "channel": 9
      },
      {
        "note": 36,
        "velocity": 100,
        "startTime": 38,
        "duration": 0.5,
        "channel": 9
      },
      {
        "note": 36,
        "velocity": 127,
        "startTime": 40,
        "duration": 0.5,
        "channel": 9
      },
      {
        "note": 36,
        "velocity": 100,
        "startTime": 42,
        "duration": 0.5,
        "channel": 9
      },
      {
        "note": 36,
        "velocity": 127,
        "startTime": 44,
        "duration": 0.5,
        "channel": 9
      },
      {
        "note": 36,
        "velocity": 100,
        "startTime": 46,
        "duration": 0.5,
        "channel": 9
      },
      {
        "note": 36,
        "velocity": 127,
        "startTime": 48,
        "duration": 0.5,
        "channel": 9
      },
      {
        "note": 36,
        "velocity": 100,
        "startTime": 50,
        "duration": 0.5,
        "channel": 9
      },
      {
        "note": 36,
        "velocity": 127,
        "startTime": 52,
        "duration": 0.5,
        "channel": 9
      },
      {
        "note": 36,
        "velocity": 100,
        "startTime": 54,
        "duration": 0.5,
        "channel": 9
      },
      {
        "note": 36,
        "velocity": 127,
        "startTime": 56,
        "duration": 0.5,
        "channel": 9
      },
      {
        "note": 36,
        "velocity": 100,
        "startTime": 58,
        "duration": 0.5,
        "channel": 9
      },
      {
        "note": 36,
        "velocity": 127,
        "startTime": 60,
        "duration": 0.5,
        "channel": 9
      },
      {
        "note": 36,
        "velocity": 100,
        "startTime": 62,
        "duration": 0.5,
        "channel": 9
      },
      {
        "note": 38,
        "velocity": 100,
        "startTime": 1,
        "duration": 0.5,
        "channel": 9
      },
      {
        "note": 38,
        "velocity": 100,
        "startTime": 3,
        "duration": 0.5,
        "channel": 9
      },
      {
        "note": 38,
        "velocity": 100,
        "startTime": 5,
        "duration": 0.5,
        "channel": 9
      },
      {
        "note": 38,
        "velocity": 100,
        "startTime": 7,
        "duration": 0.5,
        "channel": 9
      },
      {
        "note": 38,
        "velocity": 100,
        "startTime": 9,
        "duration": 0.5,
        "channel": 9
      },
      {
        "note": 38,
        "velocity": 100,
        "startTime": 11,
        "duration": 0.5,
        "channel": 9
      },
      {
        "note": 38,
        "velocity": 100,
        "startTime": 13,
        "duration": 0.5,
        "channel": 9
      },
      {
        "note": 38,
        "velocity": 100,
        "startTime": 15,
        "duration": 0.5,
        "channel": 9
      },
      {
        "note": 38,
        "velocity": 100,
        "startTime": 17,
        "duration": 0.5,
        "channel": 9
      },
      {
        "note": 38,
        "velocity": 100,
        "startTime": 19,
        "duration": 0.5,
        "channel": 9
      },
      {
        "note": 38,
        "velocity": 100,
        "startTime": 21,
        "duration": 0.5,
        "channel": 9
      },
      {
        "note": 38,
        "velocity": 100,
        "startTime": 23,
        "duration": 0.5,
        "channel": 9
      },
      {
        "note": 38,
        "velocity": 100,
        "startTime": 25,
        "duration": 0.5,
        "channel": 9
      },
      {
        "note": 38,
        "velocity": 100,
        "startTime": 27,
        "duration": 0.5,
        "channel": 9
      },
      {
        "note": 38,
        "velocity": 100,
        "startTime": 29,
        "duration": 0.5,
        "channel": 9
      },
      {
        "note": 38,
        "velocity": 100,
        "startTime": 31,
        "duration": 0.5,
        "channel": 9
      },
      {
        "note": 38,
        "velocity": 100,
        "startTime": 33,
        "duration": 0.5,
        "channel": 9
      },
      {
        "note": 38,
        "velocity": 100,
        "startTime": 35,
        "duration": 0.5,
        "channel": 9
      },
      {
        "note": 38,
        "velocity": 100,
        "startTime": 37,
        "duration": 0.5,
        "channel": 9
      },
      {
        "note": 38,
        "velocity": 100,
        "startTime": 39,
        "duration": 0.5,
        "channel": 9
      },
      {
        "note": 38,
        "velocity": 100,
        "startTime": 41,
        "duration": 0.5,
        "channel": 9
      },
      {
        "note": 38,
        "velocity": 100,
        "startTime": 43,
        "duration": 0.5,
        "channel": 9
      },
      {
        "note": 38,
        "velocity": 100,
        "startTime": 45,
        "duration": 0.5,
        "channel": 9
      },
      {
        "note": 38,
        "velocity": 100,
        "startTime": 47,
        "duration": 0.5,
        "channel": 9
      },
      {
        "note": 38,
        "velocity": 100,
        "startTime": 49,
        "duration": 0.5,
        "channel": 9
      },
      {
        "note": 38,
        "velocity": 100,
        "startTime": 51,
        "duration": 0.5,
        "channel": 9
      },
      {
        "note": 38,
        "velocity": 100,
        "startTime": 53,
        "duration": 0.5,
        "channel": 9
      },
      {
        "note": 38,
        "velocity": 100,
        "startTime": 55,
        "duration": 0.5,
        "channel": 9
      },
      {
        "note": 38,
        "velocity": 100,
        "startTime": 57,
        "duration": 0.5,
        "channel": 9
      },
      {
        "note": 38,
        "velocity": 100,
        "startTime": 59,
        "duration": 0.5,
        "channel": 9
      },
      {
        "note": 38,
        "velocity": 100,
        "startTime": 61,
        "duration": 0.5,
        "channel": 9
      },
      {
        "note": 38,
        "velocity": 100,
        "startTime": 63,
        "duration": 0.5,
        "channel": 9
      },
      {
        "note": 42,
        "velocity": 80,
        "startTime": 0,
        "duration": 0.25,
        "channel": 9
      },
      {
        "note": 42,
        "velocity": 60,
        "startTime": 0.5,
        "duration": 0.25,
        "channel": 9
      },
      {
        "note": 42,
        "velocity": 80,
        "startTime": 1,
        "duration": 0.25,
        "channel": 9
      },
      {
        "note": 42,
        "velocity": 60,
        "startTime": 1.5,
        "duration": 0.25,
        "channel": 9
      },
      {
        "note": 42,
        "velocity": 80,
        "startTime": 2,
        "duration": 0.25,
        "channel": 9
      },
      {
        "note": 42,
        "velocity": 60,
        "startTime": 2.5,
        "duration": 0.25,
        "channel": 9
      },
      {
        "note": 42,
        "velocity": 80,
        "startTime": 3,
        "duration": 0.25,
        "channel": 9
      },
      {
        "note": 42,
        "velocity": 60,
        "startTime": 3.5,
        "duration": 0.25,
        "channel": 9
      },
      {
        "note": 42,
        "velocity": 80,
        "startTime": 4,
        "duration": 0.25,
        "channel": 9
      },
      {
        "note": 42,
        "velocity": 60,
        "startTime": 4.5,
        "duration": 0.25,
        "channel": 9
      },
      {
        "note": 42,
        "velocity": 80,
        "startTime": 5,
        "duration": 0.25,
        "channel": 9
      },
      {
        "note": 42,
        "velocity": 60,
        "startTime": 5.5,
        "duration": 0.25,
        "channel": 9
      },
      {
        "note": 42,
        "velocity": 80,
        "startTime": 6,
        "duration": 0.25,
        "channel": 9
      },
      {
        "note": 42,
        "velocity": 60,
        "startTime": 6.5,
        "duration": 0.25,
        "channel": 9
      },
      {
        "note": 42,
        "velocity": 80,
        "startTime": 7,
        "duration": 0.25,
        "channel": 9
      },
      {
        "note": 42,
        "velocity": 60,
        "startTime": 7.5,
        "duration": 0.25,
        "channel": 9
      },
      {
        "note": 42,
        "velocity": 80,
        "startTime": 8,
        "duration": 0.25,
        "channel": 9
      },
      {
        "note": 42,
        "velocity": 60,
        "startTime": 8.5,
        "duration": 0.25,
        "channel": 9
      },
      {
        "note": 42,
        "velocity": 80,
        "startTime": 9,
        "duration": 0.25,
        "channel": 9
      },
      {
        "note": 42,
        "velocity": 60,
        "startTime": 9.5,
        "duration": 0.25,
        "channel": 9
      },
      {
        "note": 42,
        "velocity": 80,
        "startTime": 10,
        "duration": 0.25,
        "channel": 9
      },
      {
        "note": 42,
        "velocity": 60,
        "startTime": 10.5,
        "duration": 0.25,
        "channel": 9
      },
      {
        "note": 42,
        "velocity": 80,
        "startTime": 11,
        "duration": 0.25,
        "channel": 9
      },
      {
        "note": 42,
        "velocity": 60,
        "startTime": 11.5,
        "duration": 0.25,
        "channel": 9
      },
      {
        "note": 42,
        "velocity": 80,
        "startTime": 12,
        "duration": 0.25,
        "channel": 9
      },
      {
        "note": 42,
        "velocity": 60,
        "startTime": 12.5,
        "duration": 0.25,
        "channel": 9
      },
      {
        "note": 42,
        "velocity": 80,
        "startTime": 13,
        "duration": 0.25,
        "channel": 9
      },
      {
        "note": 42,
        "velocity": 60,
        "startTime": 13.5,
        "duration": 0.25,
        "channel": 9
      },
      {
        "note": 42,
        "velocity": 80,
        "startTime": 14,
        "duration": 0.25,
        "channel": 9
      },
      {
        "note": 42,
        "velocity": 60,
        "startTime": 14.5,
        "duration": 0.25,
        "channel": 9
      },
      {
        "note": 42,
        "velocity": 80,
        "startTime": 15,
        "duration": 0.25,
        "channel": 9
      },
      {
        "note": 42,
        "velocity": 60,
        "startTime": 15.5,
        "duration": 0.25,
        "channel": 9
      },
      {
        "note": 42,
        "velocity": 80,
        "startTime": 16,
        "duration": 0.25,
        "channel": 9
      },
      {
        "note": 42,
        "velocity": 60,
        "startTime": 16.5,
        "duration": 0.25,
        "channel": 9
      },
      {
        "note": 42,
        "velocity": 80,
        "startTime": 17,
        "duration": 0.25,
        "channel": 9
      },
      {
        "note": 42,
        "velocity": 60,
        "startTime": 17.5,
        "duration": 0.25,
        "channel": 9
      },
      {
        "note": 42,
        "velocity": 80,
        "startTime": 18,
        "duration": 0.25,
        "channel": 9
      },
      {
        "note": 42,
        "velocity": 60,
        "startTime": 18.5,
        "duration": 0.25,
        "channel": 9
      },
      {
        "note": 42,
        "velocity": 80,
        "startTime": 19,
        "duration": 0.25,
        "channel": 9
      },
      {
        "note": 42,
        "velocity": 60,
        "startTime": 19.5,
        "duration": 0.25,
        "channel": 9
      },
      {
        "note": 42,
        "velocity": 80,
        "startTime": 20,
        "duration": 0.25,
        "channel": 9
      },
      {
        "note": 42,
        "velocity": 60,
        "startTime": 20.5,
        "duration": 0.25,
        "channel": 9
      },
      {
        "note": 42,
        "velocity": 80,
        "startTime": 21,
        "duration": 0.25,
        "channel": 9
      },
      {
        "note": 42,
        "velocity": 60,
        "startTime": 21.5,
        "duration": 0.25,
        "channel": 9
      },
      {
        "note": 42,
        "velocity": 80,
        "startTime": 22,
        "duration": 0.25,
        "channel": 9
      },
      {
        "note": 42,
        "velocity": 60,
        "startTime": 22.5,
        "duration": 0.25,
        "channel": 9
      },
      {
        "note": 42,
        "velocity": 80,
        "startTime": 23,
        "duration": 0.25,
        "channel": 9
      },
      {
        "note": 42,
        "velocity": 60,
        "startTime": 23.5,
        "duration": 0.25,
        "channel": 9
      },
      {
        "note": 42,
        "velocity": 80,
        "startTime": 24,
        "duration": 0.25,
        "channel": 9
      },
      {
        "note": 42,
        "velocity": 60,
        "startTime": 24.5,
        "duration": 0.25,
        "channel": 9
      },
      {
        "note": 42,
        "velocity": 80,
        "startTime": 25,
        "duration": 0.25,
        "channel": 9
      },
      {
        "note": 42,
        "velocity": 60,
        "startTime": 25.5,
        "duration": 0.25,
        "channel": 9
      },
      {
        "note": 42,
        "velocity": 80,
        "startTime": 26,
        "duration": 0.25,
        "channel": 9
      },
      {
        "note": 42,
        "velocity": 60,
        "startTime": 26.5,
        "duration": 0.25,
        "channel": 9
      },
      {
        "note": 42,
        "velocity": 80,
        "startTime": 27,
        "duration": 0.25,
        "channel": 9
      },
      {
        "note": 42,
        "velocity": 60,
        "startTime": 27.5,
        "duration": 0.25,
        "channel": 9
      },
      {
        "note": 42,
        "velocity": 80,
        "startTime": 28,
        "duration": 0.25,
        "channel": 9
      },
      {
        "note": 42,
        "velocity": 60,
        "startTime": 28.5,
        "duration": 0.25,
        "channel": 9
      },
      {
        "note": 42,
        "velocity": 80,
        "startTime": 29,
        "duration": 0.25,
        "channel": 9
      },
      {
        "note": 42,
        "velocity": 60,
        "startTime": 29.5,
        "duration": 0.25,
        "channel": 9
      },
      {
        "note": 42,
        "velocity": 80,
        "startTime": 30,
        "duration": 0.25,
        "channel": 9
      },
      {
        "note": 42,
        "velocity": 60,
        "startTime": 30.5,
        "duration": 0.25,
        "channel": 9
      },
      {
        "note": 42,
        "velocity": 80,
        "startTime": 31,
        "duration": 0.25,
        "channel": 9
      },
      {
        "note": 42,
        "velocity": 60,
        "startTime": 31.5,
        "duration": 0.25,
        "channel": 9
      },
      {
        "note": 42,
        "velocity": 80,
        "startTime": 32,
        "duration": 0.25,
        "channel": 9
      },
      {
        "note": 42,
        "velocity": 60,
        "startTime": 32.5,
        "duration": 0.25,
        "channel": 9
      },
      {
        "note": 42,
        "velocity": 80,
        "startTime": 33,
        "duration": 0.25,
        "channel": 9
      },
      {
        "note": 42,
        "velocity": 60,
        "startTime": 33.5,
        "duration": 0.25,
        "channel": 9
      },
      {
        "note": 42,
        "velocity": 80,
        "startTime": 34,
        "duration": 0.25,
        "channel": 9
      },
      {
        "note": 42,
        "velocity": 60,
        "startTime": 34.5,
        "duration": 0.25,
        "channel": 9
      },
      {
        "note": 42,
        "velocity": 80,
        "startTime": 35,
        "duration": 0.25,
        "channel": 9
      },
      {
        "note": 42,
        "velocity": 60,
        "startTime": 35.5,
        "duration": 0.25,
        "channel": 9
      },
      {
        "note": 42,
        "velocity": 80,
        "startTime": 36,
        "duration": 0.25,
        "channel": 9
      },
      {
        "note": 42,
        "velocity": 60,
        "startTime": 36.5,
        "duration": 0.25,
        "channel": 9
      },
      {
        "note": 42,
        "velocity": 80,
        "startTime": 37,
        "duration": 0.25,
        "channel": 9
      },
      {
        "note": 42,
        "velocity": 60,
        "startTime": 37.5,
        "duration": 0.25,
        "channel": 9
      },
      {
        "note": 42,
        "velocity": 80,
        "startTime": 38,
        "duration": 0.25,
        "channel": 9
      },
      {
        "note": 42,
        "velocity": 60,
        "startTime": 38.5,
        "duration": 0.25,
        "channel": 9
      },
      {
        "note": 42,
        "velocity": 80,
        "startTime": 39,
        "duration": 0.25,
        "channel": 9
      },
      {
        "note": 42,
        "velocity": 60,
        "startTime": 39.5,
        "duration": 0.25,
        "channel": 9
      },
      {
        "note": 42,
        "velocity": 80,
        "startTime": 40,
        "duration": 0.25,
        "channel": 9
      },
      {
        "note": 42,
        "velocity": 60,
        "startTime": 40.5,
        "duration": 0.25,
        "channel": 9
      },
      {
        "note": 42,
        "velocity": 80,
        "startTime": 41,
        "duration": 0.25,
        "channel": 9
      },
      {
        "note": 42,
        "velocity": 60,
        "startTime": 41.5,
        "duration": 0.25,
        "channel": 9
      },
      {
        "note": 42,
        "velocity": 80,
        "startTime": 42,
        "duration": 0.25,
        "channel": 9
      },
      {
        "note": 42,
        "velocity": 60,
        "startTime": 42.5,
        "duration": 0.25,
        "channel": 9
      },
      {
        "note": 42,
        "velocity": 80,
        "startTime": 43,
        "duration": 0.25,
        "channel": 9
      },
      {
        "note": 42,
        "velocity": 60,
        "startTime": 43.5,
        "duration": 0.25,
        "channel": 9
      },
      {
        "note": 42,
        "velocity": 80,
        "startTime": 44,
        "duration": 0.25,
        "channel": 9
      },
      {
        "note": 42,
        "velocity": 60,
        "startTime": 44.5,
        "duration": 0.25,
        "channel": 9
      },
      {
        "note": 42,
        "velocity": 80,
        "startTime": 45,
        "duration": 0.25,
        "channel": 9
      },
      {
        "note": 42,
        "velocity": 60,
        "startTime": 45.5,
        "duration": 0.25,
        "channel": 9
      },
      {
        "note": 42,
        "velocity": 80,
        "startTime": 46,
        "duration": 0.25,
        "channel": 9
      },
      {
        "note": 42,
        "velocity": 60,
        "startTime": 46.5,
        "duration": 0.25,
        "channel": 9
      },
      {
        "note": 42,
        "velocity": 80,
        "startTime": 47,
        "duration": 0.25,
        "channel": 9
      },
      {
        "note": 42,
        "velocity": 60,
        "startTime": 47.5,
        "duration": 0.25,
        "channel": 9
      },
      {
        "note": 42,
        "velocity": 80,
        "startTime": 48,
        "duration": 0.25,
        "channel": 9
      },
      {
        "note": 42,
        "velocity": 60,
        "startTime": 48.5,
        "duration": 0.25,
        "channel": 9
      },
      {
        "note": 42,
        "velocity": 80,
        "startTime": 49,
        "duration": 0.25,
        "channel": 9
      },
      {
        "note": 42,
        "velocity": 60,
        "startTime": 49.5,
        "duration": 0.25,
        "channel": 9
      },
      {
        "note": 42,
        "velocity": 80,
        "startTime": 50,
        "duration": 0.25,
        "channel": 9
      },
      {
        "note": 42,
        "velocity": 60,
        "startTime": 50.5,
        "duration": 0.25,
        "channel": 9
      },
      {
        "note": 42,
        "velocity": 80,
        "startTime": 51,
        "duration": 0.25,
        "channel": 9
      },
      {
        "note": 42,
        "velocity": 60,
        "startTime": 51.5,
        "duration": 0.25,
        "channel": 9
      },
      {
        "note": 42,
        "velocity": 80,
        "startTime": 52,
        "duration": 0.25,
        "channel": 9
      },
      {
        "note": 42,
        "velocity": 60,
        "startTime": 52.5,
        "duration": 0.25,
        "channel": 9
      },
      {
        "note": 42,
        "velocity": 80,
        "startTime": 53,
        "duration": 0.25,
        "channel": 9
      },
      {
        "note": 42,
        "velocity": 60,
        "startTime": 53.5,
        "duration": 0.25,
        "channel": 9
      },
      {
        "note": 42,
        "velocity": 80,
        "startTime": 54,
        "duration": 0.25,
        "channel": 9
      },
      {
        "note": 42,
        "velocity": 60,
        "startTime": 54.5,
        "duration": 0.25,
        "channel": 9
      },
      {
        "note": 42,
        "velocity": 80,
        "startTime": 55,
        "duration": 0.25,
        "channel": 9
      },
      {
        "note": 42,
        "velocity": 60,
        "startTime": 55.5,
        "duration": 0.25,
        "channel": 9
      },
      {
        "note": 42,
        "velocity": 80,
        "startTime": 56,
        "duration": 0.25,
        "channel": 9
      },
      {
        "note": 42,
        "velocity": 60,
        "startTime": 56.5,
        "duration": 0.25,
        "channel": 9
      },
      {
        "note": 42,
        "velocity": 80,
        "startTime": 57,
        "duration": 0.25,
        "channel": 9
      },
      {
        "note": 42,
        "velocity": 60,
        "startTime": 57.5,
        "duration": 0.25,
        "channel": 9
      },
      {
        "note": 42,
        "velocity": 80,
        "startTime": 58,
        "duration": 0.25,
        "channel": 9
      },
      {
        "note": 42,
        "velocity": 60,
        "startTime": 58.5,
        "duration": 0.25,
        "channel": 9
      },
      {
        "note": 42,
        "velocity": 80,
        "startTime": 59,
        "duration": 0.25,
        "channel": 9
      },
      {
        "note": 42,
        "velocity": 60,
        "startTime": 59.5,
        "duration": 0.25,
        "channel": 9
      },
      {
        "note": 42,
        "velocity": 80,
        "startTime": 60,
        "duration": 0.25,
        "channel": 9
      },
      {
        "note": 42,
        "velocity": 60,
        "startTime": 60.5,
        "duration": 0.25,
        "channel": 9
      },
      {
        "note": 42,
        "velocity": 80,
        "startTime": 61,
        "duration": 0.25,
        "channel": 9
      },
      {
        "note": 42,
        "velocity": 60,
        "startTime": 61.5,
        "duration": 0.25,
        "channel": 9
      },
      {
        "note": 42,
        "velocity": 80,
        "startTime": 62,
        "duration": 0.25,
        "channel": 9
      },
      {
        "note": 42,
        "velocity": 60,
        "startTime": 62.5,
        "duration": 0.25,
        "channel": 9
      },
      {
        "note": 42,
        "velocity": 80,
        "startTime": 63,
        "duration": 0.25,
        "channel": 9
      },
      {
        "note": 42,
        "velocity": 60,
        "startTime": 63.5,
        "duration": 0.25,
        "channel": 9
      },
      {
        "note": 36,
        "velocity": 100,
        "startTime": 0,
        "duration": 1,
        "channel": 0
      },
      {
        "note": 36,
        "velocity": 100,
        "startTime": 2,
        "duration": 1,
        "channel": 0
      },
      {
        "note": 36,
        "velocity": 100,
        "startTime": 4,
        "duration": 1,
        "channel": 0
      },
      {
        "note": 36,
        "velocity": 100,
        "startTime": 6,
        "duration": 1,
        "channel": 0
      },
      {
        "note": 36,
        "velocity": 100,
        "startTime": 8,
        "duration": 1,
        "channel": 0
      },
      {
        "note": 36,
        "velocity": 100,
        "startTime": 10,
        "duration": 1,
        "channel": 0
      },
      {
        "note": 36,
        "velocity": 100,
        "startTime": 12,
        "duration": 1,
        "channel": 0
      },
      {
        "note": 36,
        "velocity": 100,
        "startTime": 14,
        "duration": 1,
        "channel": 0
      },
      {
        "note": 36,
        "velocity": 100,
        "startTime": 16,
        "duration": 1,
        "channel": 0
      },
      {
        "note": 36,
        "velocity": 100,
        "startTime": 18,
        "duration": 1,
        "channel": 0
      },
      {
        "note": 36,
        "velocity": 100,
        "startTime": 20,
        "duration": 1,
        "channel": 0
      },
      {
        "note": 36,
        "velocity": 100,
        "startTime": 22,
        "duration": 1,
        "channel": 0
      },
      {
        "note": 36,
        "velocity": 100,
        "startTime": 24,
        "duration": 1,
        "channel": 0
      },
      {
        "note": 36,
        "velocity": 100,
        "startTime": 26,
        "duration": 1,
        "channel": 0
      },
      {
        "note": 36,
        "velocity": 100,
        "startTime": 28,
        "duration": 1,
        "channel": 0
      },
      {
        "note": 36,
        "velocity": 100,
        "startTime": 30,
        "duration": 1,
        "channel": 0
      },
      {
        "note": 36,
        "velocity": 100,
        "startTime": 32,
        "duration": 1,
        "channel": 0
      },
      {
        "note": 36,
        "velocity": 100,
        "startTime": 34,
        "duration": 1,
        "channel": 0
      },
      {
        "note": 36,
        "velocity": 100,
        "startTime": 36,
        "duration": 1,
        "channel": 0
      },
      {
        "note": 36,
        "velocity": 100,
        "startTime": 38,
        "duration": 1,
        "channel": 0
      },
      {
        "note": 36,
        "velocity": 100,
        "startTime": 40,
        "duration": 1,
        "channel": 0
      },
      {
        "note": 36,
        "velocity": 100,
        "startTime": 42,
        "duration": 1,
        "channel": 0
      },
      {
        "note": 36,
        "velocity": 100,
        "startTime": 44,
        "duration": 1,
        "channel": 0
      },
      {
        "note": 36,
        "velocity": 100,
        "startTime": 46,
        "duration": 1,
        "channel": 0
      },
      {
        "note": 36,
        "velocity": 100,
        "startTime": 48,
        "duration": 1,
        "channel": 0
      },
      {
        "note": 36,
        "velocity": 100,
        "startTime": 50,
        "duration": 1,
        "channel": 0
      },
      {
        "note": 36,
        "velocity": 100,
        "startTime": 52,
        "duration": 1,
        "channel": 0
      },
      {
        "note": 36,
        "velocity": 100,
        "startTime": 54,
        "duration": 1,
        "channel": 0
      },
      {
        "note": 36,
        "velocity": 100,
        "startTime": 56,
        "duration": 1,
        "channel": 0
      },
      {
        "note": 36,
        "velocity": 100,
        "startTime": 58,
        "duration": 1,
        "channel": 0
      },
      {
        "note": 36,
        "velocity": 100,
        "startTime": 60,
        "duration": 1,
        "channel": 0
      },
      {
        "note": 36,
        "velocity": 100,
        "startTime": 62,
        "duration": 1,
        "channel": 0
      }
    ],
    "project_name": "fasjion k",
    "project_path": "/Users/camilopineda/Desktop/SHINE DARK MIDI PARTY/Logic copy sep 2025/fasjion k/fasjion k.logicx",
    "extraction_date": "2025-09-05T23:38:35.389Z",
    "extraction_status": "generated_from_project_name"
  },
  {
    "id": "electronic-pattern",
    "name": "Electronic",
    "tempo": 120,
    "timeSignature": [
      4,
      4
    ],
    "length": 64,
    "loop": true,
    "notes": [
      {
        "note": 36,
        "velocity": 127,
        "startTime": 0,
        "duration": 0.5,
        "channel": 9
      },
      {
        "note": 36,
        "velocity": 100,
        "startTime": 2,
        "duration": 0.5,
        "channel": 9
      },
      {
        "note": 36,
        "velocity": 127,
        "startTime": 4,
        "duration": 0.5,
        "channel": 9
      },
      {
        "note": 36,
        "velocity": 100,
        "startTime": 6,
        "duration": 0.5,
        "channel": 9
      },
      {
        "note": 36,
        "velocity": 127,
        "startTime": 8,
        "duration": 0.5,
        "channel": 9
      },
      {
        "note": 36,
        "velocity": 100,
        "startTime": 10,
        "duration": 0.5,
        "channel": 9
      },
      {
        "note": 36,
        "velocity": 127,
        "startTime": 12,
        "duration": 0.5,
        "channel": 9
      },
      {
        "note": 36,
        "velocity": 100,
        "startTime": 14,
        "duration": 0.5,
        "channel": 9
      },
      {
        "note": 36,
        "velocity": 127,
        "startTime": 16,
        "duration": 0.5,
        "channel": 9
      },
      {
        "note": 36,
        "velocity": 100,
        "startTime": 18,
        "duration": 0.5,
        "channel": 9
      },
      {
        "note": 36,
        "velocity": 127,
        "startTime": 20,
        "duration": 0.5,
        "channel": 9
      },
      {
        "note": 36,
        "velocity": 100,
        "startTime": 22,
        "duration": 0.5,
        "channel": 9
      },
      {
        "note": 36,
        "velocity": 127,
        "startTime": 24,
        "duration": 0.5,
        "channel": 9
      },
      {
        "note": 36,
        "velocity": 100,
        "startTime": 26,
        "duration": 0.5,
        "channel": 9
      },
      {
        "note": 36,
        "velocity": 127,
        "startTime": 28,
        "duration": 0.5,
        "channel": 9
      },
      {
        "note": 36,
        "velocity": 100,
        "startTime": 30,
        "duration": 0.5,
        "channel": 9
      },
      {
        "note": 36,
        "velocity": 127,
        "startTime": 32,
        "duration": 0.5,
        "channel": 9
      },
      {
        "note": 36,
        "velocity": 100,
        "startTime": 34,
        "duration": 0.5,
        "channel": 9
      },
      {
        "note": 36,
        "velocity": 127,
        "startTime": 36,
        "duration": 0.5,
        "channel": 9
      },
      {
        "note": 36,
        "velocity": 100,
        "startTime": 38,
        "duration": 0.5,
        "channel": 9
      },
      {
        "note": 36,
        "velocity": 127,
        "startTime": 40,
        "duration": 0.5,
        "channel": 9
      },
      {
        "note": 36,
        "velocity": 100,
        "startTime": 42,
        "duration": 0.5,
        "channel": 9
      },
      {
        "note": 36,
        "velocity": 127,
        "startTime": 44,
        "duration": 0.5,
        "channel": 9
      },
      {
        "note": 36,
        "velocity": 100,
        "startTime": 46,
        "duration": 0.5,
        "channel": 9
      },
      {
        "note": 36,
        "velocity": 127,
        "startTime": 48,
        "duration": 0.5,
        "channel": 9
      },
      {
        "note": 36,
        "velocity": 100,
        "startTime": 50,
        "duration": 0.5,
        "channel": 9
      },
      {
        "note": 36,
        "velocity": 127,
        "startTime": 52,
        "duration": 0.5,
        "channel": 9
      },
      {
        "note": 36,
        "velocity": 100,
        "startTime": 54,
        "duration": 0.5,
        "channel": 9
      },
      {
        "note": 36,
        "velocity": 127,
        "startTime": 56,
        "duration": 0.5,
        "channel": 9
      },
      {
        "note": 36,
        "velocity": 100,
        "startTime": 58,
        "duration": 0.5,
        "channel": 9
      },
      {
        "note": 36,
        "velocity": 127,
        "startTime": 60,
        "duration": 0.5,
        "channel": 9
      },
      {
        "note": 36,
        "velocity": 100,
        "startTime": 62,
        "duration": 0.5,
        "channel": 9
      },
      {
        "note": 38,
        "velocity": 100,
        "startTime": 1,
        "duration": 0.5,
        "channel": 9
      },
      {
        "note": 38,
        "velocity": 100,
        "startTime": 3,
        "duration": 0.5,
        "channel": 9
      },
      {
        "note": 38,
        "velocity": 100,
        "startTime": 5,
        "duration": 0.5,
        "channel": 9
      },
      {
        "note": 38,
        "velocity": 100,
        "startTime": 7,
        "duration": 0.5,
        "channel": 9
      },
      {
        "note": 38,
        "velocity": 100,
        "startTime": 9,
        "duration": 0.5,
        "channel": 9
      },
      {
        "note": 38,
        "velocity": 100,
        "startTime": 11,
        "duration": 0.5,
        "channel": 9
      },
      {
        "note": 38,
        "velocity": 100,
        "startTime": 13,
        "duration": 0.5,
        "channel": 9
      },
      {
        "note": 38,
        "velocity": 100,
        "startTime": 15,
        "duration": 0.5,
        "channel": 9
      },
      {
        "note": 38,
        "velocity": 100,
        "startTime": 17,
        "duration": 0.5,
        "channel": 9
      },
      {
        "note": 38,
        "velocity": 100,
        "startTime": 19,
        "duration": 0.5,
        "channel": 9
      },
      {
        "note": 38,
        "velocity": 100,
        "startTime": 21,
        "duration": 0.5,
        "channel": 9
      },
      {
        "note": 38,
        "velocity": 100,
        "startTime": 23,
        "duration": 0.5,
        "channel": 9
      },
      {
        "note": 38,
        "velocity": 100,
        "startTime": 25,
        "duration": 0.5,
        "channel": 9
      },
      {
        "note": 38,
        "velocity": 100,
        "startTime": 27,
        "duration": 0.5,
        "channel": 9
      },
      {
        "note": 38,
        "velocity": 100,
        "startTime": 29,
        "duration": 0.5,
        "channel": 9
      },
      {
        "note": 38,
        "velocity": 100,
        "startTime": 31,
        "duration": 0.5,
        "channel": 9
      },
      {
        "note": 38,
        "velocity": 100,
        "startTime": 33,
        "duration": 0.5,
        "channel": 9
      },
      {
        "note": 38,
        "velocity": 100,
        "startTime": 35,
        "duration": 0.5,
        "channel": 9
      },
      {
        "note": 38,
        "velocity": 100,
        "startTime": 37,
        "duration": 0.5,
        "channel": 9
      },
      {
        "note": 38,
        "velocity": 100,
        "startTime": 39,
        "duration": 0.5,
        "channel": 9
      },
      {
        "note": 38,
        "velocity": 100,
        "startTime": 41,
        "duration": 0.5,
        "channel": 9
      },
      {
        "note": 38,
        "velocity": 100,
        "startTime": 43,
        "duration": 0.5,
        "channel": 9
      },
      {
        "note": 38,
        "velocity": 100,
        "startTime": 45,
        "duration": 0.5,
        "channel": 9
      },
      {
        "note": 38,
        "velocity": 100,
        "startTime": 47,
        "duration": 0.5,
        "channel": 9
      },
      {
        "note": 38,
        "velocity": 100,
        "startTime": 49,
        "duration": 0.5,
        "channel": 9
      },
      {
        "note": 38,
        "velocity": 100,
        "startTime": 51,
        "duration": 0.5,
        "channel": 9
      },
      {
        "note": 38,
        "velocity": 100,
        "startTime": 53,
        "duration": 0.5,
        "channel": 9
      },
      {
        "note": 38,
        "velocity": 100,
        "startTime": 55,
        "duration": 0.5,
        "channel": 9
      },
      {
        "note": 38,
        "velocity": 100,
        "startTime": 57,
        "duration": 0.5,
        "channel": 9
      },
      {
        "note": 38,
        "velocity": 100,
        "startTime": 59,
        "duration": 0.5,
        "channel": 9
      },
      {
        "note": 38,
        "velocity": 100,
        "startTime": 61,
        "duration": 0.5,
        "channel": 9
      },
      {
        "note": 38,
        "velocity": 100,
        "startTime": 63,
        "duration": 0.5,
        "channel": 9
      },
      {
        "note": 42,
        "velocity": 80,
        "startTime": 0,
        "duration": 0.25,
        "channel": 9
      },
      {
        "note": 42,
        "velocity": 60,
        "startTime": 0.5,
        "duration": 0.25,
        "channel": 9
      },
      {
        "note": 42,
        "velocity": 80,
        "startTime": 1,
        "duration": 0.25,
        "channel": 9
      },
      {
        "note": 42,
        "velocity": 60,
        "startTime": 1.5,
        "duration": 0.25,
        "channel": 9
      },
      {
        "note": 42,
        "velocity": 80,
        "startTime": 2,
        "duration": 0.25,
        "channel": 9
      },
      {
        "note": 42,
        "velocity": 60,
        "startTime": 2.5,
        "duration": 0.25,
        "channel": 9
      },
      {
        "note": 42,
        "velocity": 80,
        "startTime": 3,
        "duration": 0.25,
        "channel": 9
      },
      {
        "note": 42,
        "velocity": 60,
        "startTime": 3.5,
        "duration": 0.25,
        "channel": 9
      },
      {
        "note": 42,
        "velocity": 80,
        "startTime": 4,
        "duration": 0.25,
        "channel": 9
      },
      {
        "note": 42,
        "velocity": 60,
        "startTime": 4.5,
        "duration": 0.25,
        "channel": 9
      },
      {
        "note": 42,
        "velocity": 80,
        "startTime": 5,
        "duration": 0.25,
        "channel": 9
      },
      {
        "note": 42,
        "velocity": 60,
        "startTime": 5.5,
        "duration": 0.25,
        "channel": 9
      },
      {
        "note": 42,
        "velocity": 80,
        "startTime": 6,
        "duration": 0.25,
        "channel": 9
      },
      {
        "note": 42,
        "velocity": 60,
        "startTime": 6.5,
        "duration": 0.25,
        "channel": 9
      },
      {
        "note": 42,
        "velocity": 80,
        "startTime": 7,
        "duration": 0.25,
        "channel": 9
      },
      {
        "note": 42,
        "velocity": 60,
        "startTime": 7.5,
        "duration": 0.25,
        "channel": 9
      },
      {
        "note": 42,
        "velocity": 80,
        "startTime": 8,
        "duration": 0.25,
        "channel": 9
      },
      {
        "note": 42,
        "velocity": 60,
        "startTime": 8.5,
        "duration": 0.25,
        "channel": 9
      },
      {
        "note": 42,
        "velocity": 80,
        "startTime": 9,
        "duration": 0.25,
        "channel": 9
      },
      {
        "note": 42,
        "velocity": 60,
        "startTime": 9.5,
        "duration": 0.25,
        "channel": 9
      },
      {
        "note": 42,
        "velocity": 80,
        "startTime": 10,
        "duration": 0.25,
        "channel": 9
      },
      {
        "note": 42,
        "velocity": 60,
        "startTime": 10.5,
        "duration": 0.25,
        "channel": 9
      },
      {
        "note": 42,
        "velocity": 80,
        "startTime": 11,
        "duration": 0.25,
        "channel": 9
      },
      {
        "note": 42,
        "velocity": 60,
        "startTime": 11.5,
        "duration": 0.25,
        "channel": 9
      },
      {
        "note": 42,
        "velocity": 80,
        "startTime": 12,
        "duration": 0.25,
        "channel": 9
      },
      {
        "note": 42,
        "velocity": 60,
        "startTime": 12.5,
        "duration": 0.25,
        "channel": 9
      },
      {
        "note": 42,
        "velocity": 80,
        "startTime": 13,
        "duration": 0.25,
        "channel": 9
      },
      {
        "note": 42,
        "velocity": 60,
        "startTime": 13.5,
        "duration": 0.25,
        "channel": 9
      },
      {
        "note": 42,
        "velocity": 80,
        "startTime": 14,
        "duration": 0.25,
        "channel": 9
      },
      {
        "note": 42,
        "velocity": 60,
        "startTime": 14.5,
        "duration": 0.25,
        "channel": 9
      },
      {
        "note": 42,
        "velocity": 80,
        "startTime": 15,
        "duration": 0.25,
        "channel": 9
      },
      {
        "note": 42,
        "velocity": 60,
        "startTime": 15.5,
        "duration": 0.25,
        "channel": 9
      },
      {
        "note": 42,
        "velocity": 80,
        "startTime": 16,
        "duration": 0.25,
        "channel": 9
      },
      {
        "note": 42,
        "velocity": 60,
        "startTime": 16.5,
        "duration": 0.25,
        "channel": 9
      },
      {
        "note": 42,
        "velocity": 80,
        "startTime": 17,
        "duration": 0.25,
        "channel": 9
      },
      {
        "note": 42,
        "velocity": 60,
        "startTime": 17.5,
        "duration": 0.25,
        "channel": 9
      },
      {
        "note": 42,
        "velocity": 80,
        "startTime": 18,
        "duration": 0.25,
        "channel": 9
      },
      {
        "note": 42,
        "velocity": 60,
        "startTime": 18.5,
        "duration": 0.25,
        "channel": 9
      },
      {
        "note": 42,
        "velocity": 80,
        "startTime": 19,
        "duration": 0.25,
        "channel": 9
      },
      {
        "note": 42,
        "velocity": 60,
        "startTime": 19.5,
        "duration": 0.25,
        "channel": 9
      },
      {
        "note": 42,
        "velocity": 80,
        "startTime": 20,
        "duration": 0.25,
        "channel": 9
      },
      {
        "note": 42,
        "velocity": 60,
        "startTime": 20.5,
        "duration": 0.25,
        "channel": 9
      },
      {
        "note": 42,
        "velocity": 80,
        "startTime": 21,
        "duration": 0.25,
        "channel": 9
      },
      {
        "note": 42,
        "velocity": 60,
        "startTime": 21.5,
        "duration": 0.25,
        "channel": 9
      },
      {
        "note": 42,
        "velocity": 80,
        "startTime": 22,
        "duration": 0.25,
        "channel": 9
      },
      {
        "note": 42,
        "velocity": 60,
        "startTime": 22.5,
        "duration": 0.25,
        "channel": 9
      },
      {
        "note": 42,
        "velocity": 80,
        "startTime": 23,
        "duration": 0.25,
        "channel": 9
      },
      {
        "note": 42,
        "velocity": 60,
        "startTime": 23.5,
        "duration": 0.25,
        "channel": 9
      },
      {
        "note": 42,
        "velocity": 80,
        "startTime": 24,
        "duration": 0.25,
        "channel": 9
      },
      {
        "note": 42,
        "velocity": 60,
        "startTime": 24.5,
        "duration": 0.25,
        "channel": 9
      },
      {
        "note": 42,
        "velocity": 80,
        "startTime": 25,
        "duration": 0.25,
        "channel": 9
      },
      {
        "note": 42,
        "velocity": 60,
        "startTime": 25.5,
        "duration": 0.25,
        "channel": 9
      },
      {
        "note": 42,
        "velocity": 80,
        "startTime": 26,
        "duration": 0.25,
        "channel": 9
      },
      {
        "note": 42,
        "velocity": 60,
        "startTime": 26.5,
        "duration": 0.25,
        "channel": 9
      },
      {
        "note": 42,
        "velocity": 80,
        "startTime": 27,
        "duration": 0.25,
        "channel": 9
      },
      {
        "note": 42,
        "velocity": 60,
        "startTime": 27.5,
        "duration": 0.25,
        "channel": 9
      },
      {
        "note": 42,
        "velocity": 80,
        "startTime": 28,
        "duration": 0.25,
        "channel": 9
      },
      {
        "note": 42,
        "velocity": 60,
        "startTime": 28.5,
        "duration": 0.25,
        "channel": 9
      },
      {
        "note": 42,
        "velocity": 80,
        "startTime": 29,
        "duration": 0.25,
        "channel": 9
      },
      {
        "note": 42,
        "velocity": 60,
        "startTime": 29.5,
        "duration": 0.25,
        "channel": 9
      },
      {
        "note": 42,
        "velocity": 80,
        "startTime": 30,
        "duration": 0.25,
        "channel": 9
      },
      {
        "note": 42,
        "velocity": 60,
        "startTime": 30.5,
        "duration": 0.25,
        "channel": 9
      },
      {
        "note": 42,
        "velocity": 80,
        "startTime": 31,
        "duration": 0.25,
        "channel": 9
      },
      {
        "note": 42,
        "velocity": 60,
        "startTime": 31.5,
        "duration": 0.25,
        "channel": 9
      },
      {
        "note": 42,
        "velocity": 80,
        "startTime": 32,
        "duration": 0.25,
        "channel": 9
      },
      {
        "note": 42,
        "velocity": 60,
        "startTime": 32.5,
        "duration": 0.25,
        "channel": 9
      },
      {
        "note": 42,
        "velocity": 80,
        "startTime": 33,
        "duration": 0.25,
        "channel": 9
      },
      {
        "note": 42,
        "velocity": 60,
        "startTime": 33.5,
        "duration": 0.25,
        "channel": 9
      },
      {
        "note": 42,
        "velocity": 80,
        "startTime": 34,
        "duration": 0.25,
        "channel": 9
      },
      {
        "note": 42,
        "velocity": 60,
        "startTime": 34.5,
        "duration": 0.25,
        "channel": 9
      },
      {
        "note": 42,
        "velocity": 80,
        "startTime": 35,
        "duration": 0.25,
        "channel": 9
      },
      {
        "note": 42,
        "velocity": 60,
        "startTime": 35.5,
        "duration": 0.25,
        "channel": 9
      },
      {
        "note": 42,
        "velocity": 80,
        "startTime": 36,
        "duration": 0.25,
        "channel": 9
      },
      {
        "note": 42,
        "velocity": 60,
        "startTime": 36.5,
        "duration": 0.25,
        "channel": 9
      },
      {
        "note": 42,
        "velocity": 80,
        "startTime": 37,
        "duration": 0.25,
        "channel": 9
      },
      {
        "note": 42,
        "velocity": 60,
        "startTime": 37.5,
        "duration": 0.25,
        "channel": 9
      },
      {
        "note": 42,
        "velocity": 80,
        "startTime": 38,
        "duration": 0.25,
        "channel": 9
      },
      {
        "note": 42,
        "velocity": 60,
        "startTime": 38.5,
        "duration": 0.25,
        "channel": 9
      },
      {
        "note": 42,
        "velocity": 80,
        "startTime": 39,
        "duration": 0.25,
        "channel": 9
      },
      {
        "note": 42,
        "velocity": 60,
        "startTime": 39.5,
        "duration": 0.25,
        "channel": 9
      },
      {
        "note": 42,
        "velocity": 80,
        "startTime": 40,
        "duration": 0.25,
        "channel": 9
      },
      {
        "note": 42,
        "velocity": 60,
        "startTime": 40.5,
        "duration": 0.25,
        "channel": 9
      },
      {
        "note": 42,
        "velocity": 80,
        "startTime": 41,
        "duration": 0.25,
        "channel": 9
      },
      {
        "note": 42,
        "velocity": 60,
        "startTime": 41.5,
        "duration": 0.25,
        "channel": 9
      },
      {
        "note": 42,
        "velocity": 80,
        "startTime": 42,
        "duration": 0.25,
        "channel": 9
      },
      {
        "note": 42,
        "velocity": 60,
        "startTime": 42.5,
        "duration": 0.25,
        "channel": 9
      },
      {
        "note": 42,
        "velocity": 80,
        "startTime": 43,
        "duration": 0.25,
        "channel": 9
      },
      {
        "note": 42,
        "velocity": 60,
        "startTime": 43.5,
        "duration": 0.25,
        "channel": 9
      },
      {
        "note": 42,
        "velocity": 80,
        "startTime": 44,
        "duration": 0.25,
        "channel": 9
      },
      {
        "note": 42,
        "velocity": 60,
        "startTime": 44.5,
        "duration": 0.25,
        "channel": 9
      },
      {
        "note": 42,
        "velocity": 80,
        "startTime": 45,
        "duration": 0.25,
        "channel": 9
      },
      {
        "note": 42,
        "velocity": 60,
        "startTime": 45.5,
        "duration": 0.25,
        "channel": 9
      },
      {
        "note": 42,
        "velocity": 80,
        "startTime": 46,
        "duration": 0.25,
        "channel": 9
      },
      {
        "note": 42,
        "velocity": 60,
        "startTime": 46.5,
        "duration": 0.25,
        "channel": 9
      },
      {
        "note": 42,
        "velocity": 80,
        "startTime": 47,
        "duration": 0.25,
        "channel": 9
      },
      {
        "note": 42,
        "velocity": 60,
        "startTime": 47.5,
        "duration": 0.25,
        "channel": 9
      },
      {
        "note": 42,
        "velocity": 80,
        "startTime": 48,
        "duration": 0.25,
        "channel": 9
      },
      {
        "note": 42,
        "velocity": 60,
        "startTime": 48.5,
        "duration": 0.25,
        "channel": 9
      },
      {
        "note": 42,
        "velocity": 80,
        "startTime": 49,
        "duration": 0.25,
        "channel": 9
      },
      {
        "note": 42,
        "velocity": 60,
        "startTime": 49.5,
        "duration": 0.25,
        "channel": 9
      },
      {
        "note": 42,
        "velocity": 80,
        "startTime": 50,
        "duration": 0.25,
        "channel": 9
      },
      {
        "note": 42,
        "velocity": 60,
        "startTime": 50.5,
        "duration": 0.25,
        "channel": 9
      },
      {
        "note": 42,
        "velocity": 80,
        "startTime": 51,
        "duration": 0.25,
        "channel": 9
      },
      {
        "note": 42,
        "velocity": 60,
        "startTime": 51.5,
        "duration": 0.25,
        "channel": 9
      },
      {
        "note": 42,
        "velocity": 80,
        "startTime": 52,
        "duration": 0.25,
        "channel": 9
      },
      {
        "note": 42,
        "velocity": 60,
        "startTime": 52.5,
        "duration": 0.25,
        "channel": 9
      },
      {
        "note": 42,
        "velocity": 80,
        "startTime": 53,
        "duration": 0.25,
        "channel": 9
      },
      {
        "note": 42,
        "velocity": 60,
        "startTime": 53.5,
        "duration": 0.25,
        "channel": 9
      },
      {
        "note": 42,
        "velocity": 80,
        "startTime": 54,
        "duration": 0.25,
        "channel": 9
      },
      {
        "note": 42,
        "velocity": 60,
        "startTime": 54.5,
        "duration": 0.25,
        "channel": 9
      },
      {
        "note": 42,
        "velocity": 80,
        "startTime": 55,
        "duration": 0.25,
        "channel": 9
      },
      {
        "note": 42,
        "velocity": 60,
        "startTime": 55.5,
        "duration": 0.25,
        "channel": 9
      },
      {
        "note": 42,
        "velocity": 80,
        "startTime": 56,
        "duration": 0.25,
        "channel": 9
      },
      {
        "note": 42,
        "velocity": 60,
        "startTime": 56.5,
        "duration": 0.25,
        "channel": 9
      },
      {
        "note": 42,
        "velocity": 80,
        "startTime": 57,
        "duration": 0.25,
        "channel": 9
      },
      {
        "note": 42,
        "velocity": 60,
        "startTime": 57.5,
        "duration": 0.25,
        "channel": 9
      },
      {
        "note": 42,
        "velocity": 80,
        "startTime": 58,
        "duration": 0.25,
        "channel": 9
      },
      {
        "note": 42,
        "velocity": 60,
        "startTime": 58.5,
        "duration": 0.25,
        "channel": 9
      },
      {
        "note": 42,
        "velocity": 80,
        "startTime": 59,
        "duration": 0.25,
        "channel": 9
      },
      {
        "note": 42,
        "velocity": 60,
        "startTime": 59.5,
        "duration": 0.25,
        "channel": 9
      },
      {
        "note": 42,
        "velocity": 80,
        "startTime": 60,
        "duration": 0.25,
        "channel": 9
      },
      {
        "note": 42,
        "velocity": 60,
        "startTime": 60.5,
        "duration": 0.25,
        "channel": 9
      },
      {
        "note": 42,
        "velocity": 80,
        "startTime": 61,
        "duration": 0.25,
        "channel": 9
      },
      {
        "note": 42,
        "velocity": 60,
        "startTime": 61.5,
        "duration": 0.25,
        "channel": 9
      },
      {
        "note": 42,
        "velocity": 80,
        "startTime": 62,
        "duration": 0.25,
        "channel": 9
      },
      {
        "note": 42,
        "velocity": 60,
        "startTime": 62.5,
        "duration": 0.25,
        "channel": 9
      },
      {
        "note": 42,
        "velocity": 80,
        "startTime": 63,
        "duration": 0.25,
        "channel": 9
      },
      {
        "note": 42,
        "velocity": 60,
        "startTime": 63.5,
        "duration": 0.25,
        "channel": 9
      },
      {
        "note": 36,
        "velocity": 100,
        "startTime": 0,
        "duration": 1,
        "channel": 0
      },
      {
        "note": 36,
        "velocity": 100,
        "startTime": 2,
        "duration": 1,
        "channel": 0
      },
      {
        "note": 36,
        "velocity": 100,
        "startTime": 4,
        "duration": 1,
        "channel": 0
      },
      {
        "note": 36,
        "velocity": 100,
        "startTime": 6,
        "duration": 1,
        "channel": 0
      },
      {
        "note": 36,
        "velocity": 100,
        "startTime": 8,
        "duration": 1,
        "channel": 0
      },
      {
        "note": 36,
        "velocity": 100,
        "startTime": 10,
        "duration": 1,
        "channel": 0
      },
      {
        "note": 36,
        "velocity": 100,
        "startTime": 12,
        "duration": 1,
        "channel": 0
      },
      {
        "note": 36,
        "velocity": 100,
        "startTime": 14,
        "duration": 1,
        "channel": 0
      },
      {
        "note": 36,
        "velocity": 100,
        "startTime": 16,
        "duration": 1,
        "channel": 0
      },
      {
        "note": 36,
        "velocity": 100,
        "startTime": 18,
        "duration": 1,
        "channel": 0
      },
      {
        "note": 36,
        "velocity": 100,
        "startTime": 20,
        "duration": 1,
        "channel": 0
      },
      {
        "note": 36,
        "velocity": 100,
        "startTime": 22,
        "duration": 1,
        "channel": 0
      },
      {
        "note": 36,
        "velocity": 100,
        "startTime": 24,
        "duration": 1,
        "channel": 0
      },
      {
        "note": 36,
        "velocity": 100,
        "startTime": 26,
        "duration": 1,
        "channel": 0
      },
      {
        "note": 36,
        "velocity": 100,
        "startTime": 28,
        "duration": 1,
        "channel": 0
      },
      {
        "note": 36,
        "velocity": 100,
        "startTime": 30,
        "duration": 1,
        "channel": 0
      },
      {
        "note": 36,
        "velocity": 100,
        "startTime": 32,
        "duration": 1,
        "channel": 0
      },
      {
        "note": 36,
        "velocity": 100,
        "startTime": 34,
        "duration": 1,
        "channel": 0
      },
      {
        "note": 36,
        "velocity": 100,
        "startTime": 36,
        "duration": 1,
        "channel": 0
      },
      {
        "note": 36,
        "velocity": 100,
        "startTime": 38,
        "duration": 1,
        "channel": 0
      },
      {
        "note": 36,
        "velocity": 100,
        "startTime": 40,
        "duration": 1,
        "channel": 0
      },
      {
        "note": 36,
        "velocity": 100,
        "startTime": 42,
        "duration": 1,
        "channel": 0
      },
      {
        "note": 36,
        "velocity": 100,
        "startTime": 44,
        "duration": 1,
        "channel": 0
      },
      {
        "note": 36,
        "velocity": 100,
        "startTime": 46,
        "duration": 1,
        "channel": 0
      },
      {
        "note": 36,
        "velocity": 100,
        "startTime": 48,
        "duration": 1,
        "channel": 0
      },
      {
        "note": 36,
        "velocity": 100,
        "startTime": 50,
        "duration": 1,
        "channel": 0
      },
      {
        "note": 36,
        "velocity": 100,
        "startTime": 52,
        "duration": 1,
        "channel": 0
      },
      {
        "note": 36,
        "velocity": 100,
        "startTime": 54,
        "duration": 1,
        "channel": 0
      },
      {
        "note": 36,
        "velocity": 100,
        "startTime": 56,
        "duration": 1,
        "channel": 0
      },
      {
        "note": 36,
        "velocity": 100,
        "startTime": 58,
        "duration": 1,
        "channel": 0
      },
      {
        "note": 36,
        "velocity": 100,
        "startTime": 60,
        "duration": 1,
        "channel": 0
      },
      {
        "note": 36,
        "velocity": 100,
        "startTime": 62,
        "duration": 1,
        "channel": 0
      }
    ],
    "project_name": "kanyeee",
    "project_path": "/Users/camilopineda/Desktop/SHINE DARK MIDI PARTY/Logic copy sep 2025/kanyeee/kanyeee.logicx",
    "extraction_date": "2025-09-05T23:38:35.389Z",
    "extraction_status": "generated_from_project_name"
  },
  {
    "id": "electronic-pattern",
    "name": "Electronic",
    "tempo": 120,
    "timeSignature": [
      4,
      4
    ],
    "length": 64,
    "loop": true,
    "notes": [
      {
        "note": 36,
        "velocity": 127,
        "startTime": 0,
        "duration": 0.5,
        "channel": 9
      },
      {
        "note": 36,
        "velocity": 100,
        "startTime": 2,
        "duration": 0.5,
        "channel": 9
      },
      {
        "note": 36,
        "velocity": 127,
        "startTime": 4,
        "duration": 0.5,
        "channel": 9
      },
      {
        "note": 36,
        "velocity": 100,
        "startTime": 6,
        "duration": 0.5,
        "channel": 9
      },
      {
        "note": 36,
        "velocity": 127,
        "startTime": 8,
        "duration": 0.5,
        "channel": 9
      },
      {
        "note": 36,
        "velocity": 100,
        "startTime": 10,
        "duration": 0.5,
        "channel": 9
      },
      {
        "note": 36,
        "velocity": 127,
        "startTime": 12,
        "duration": 0.5,
        "channel": 9
      },
      {
        "note": 36,
        "velocity": 100,
        "startTime": 14,
        "duration": 0.5,
        "channel": 9
      },
      {
        "note": 36,
        "velocity": 127,
        "startTime": 16,
        "duration": 0.5,
        "channel": 9
      },
      {
        "note": 36,
        "velocity": 100,
        "startTime": 18,
        "duration": 0.5,
        "channel": 9
      },
      {
        "note": 36,
        "velocity": 127,
        "startTime": 20,
        "duration": 0.5,
        "channel": 9
      },
      {
        "note": 36,
        "velocity": 100,
        "startTime": 22,
        "duration": 0.5,
        "channel": 9
      },
      {
        "note": 36,
        "velocity": 127,
        "startTime": 24,
        "duration": 0.5,
        "channel": 9
      },
      {
        "note": 36,
        "velocity": 100,
        "startTime": 26,
        "duration": 0.5,
        "channel": 9
      },
      {
        "note": 36,
        "velocity": 127,
        "startTime": 28,
        "duration": 0.5,
        "channel": 9
      },
      {
        "note": 36,
        "velocity": 100,
        "startTime": 30,
        "duration": 0.5,
        "channel": 9
      },
      {
        "note": 36,
        "velocity": 127,
        "startTime": 32,
        "duration": 0.5,
        "channel": 9
      },
      {
        "note": 36,
        "velocity": 100,
        "startTime": 34,
        "duration": 0.5,
        "channel": 9
      },
      {
        "note": 36,
        "velocity": 127,
        "startTime": 36,
        "duration": 0.5,
        "channel": 9
      },
      {
        "note": 36,
        "velocity": 100,
        "startTime": 38,
        "duration": 0.5,
        "channel": 9
      },
      {
        "note": 36,
        "velocity": 127,
        "startTime": 40,
        "duration": 0.5,
        "channel": 9
      },
      {
        "note": 36,
        "velocity": 100,
        "startTime": 42,
        "duration": 0.5,
        "channel": 9
      },
      {
        "note": 36,
        "velocity": 127,
        "startTime": 44,
        "duration": 0.5,
        "channel": 9
      },
      {
        "note": 36,
        "velocity": 100,
        "startTime": 46,
        "duration": 0.5,
        "channel": 9
      },
      {
        "note": 36,
        "velocity": 127,
        "startTime": 48,
        "duration": 0.5,
        "channel": 9
      },
      {
        "note": 36,
        "velocity": 100,
        "startTime": 50,
        "duration": 0.5,
        "channel": 9
      },
      {
        "note": 36,
        "velocity": 127,
        "startTime": 52,
        "duration": 0.5,
        "channel": 9
      },
      {
        "note": 36,
        "velocity": 100,
        "startTime": 54,
        "duration": 0.5,
        "channel": 9
      },
      {
        "note": 36,
        "velocity": 127,
        "startTime": 56,
        "duration": 0.5,
        "channel": 9
      },
      {
        "note": 36,
        "velocity": 100,
        "startTime": 58,
        "duration": 0.5,
        "channel": 9
      },
      {
        "note": 36,
        "velocity": 127,
        "startTime": 60,
        "duration": 0.5,
        "channel": 9
      },
      {
        "note": 36,
        "velocity": 100,
        "startTime": 62,
        "duration": 0.5,
        "channel": 9
      },
      {
        "note": 38,
        "velocity": 100,
        "startTime": 1,
        "duration": 0.5,
        "channel": 9
      },
      {
        "note": 38,
        "velocity": 100,
        "startTime": 3,
        "duration": 0.5,
        "channel": 9
      },
      {
        "note": 38,
        "velocity": 100,
        "startTime": 5,
        "duration": 0.5,
        "channel": 9
      },
      {
        "note": 38,
        "velocity": 100,
        "startTime": 7,
        "duration": 0.5,
        "channel": 9
      },
      {
        "note": 38,
        "velocity": 100,
        "startTime": 9,
        "duration": 0.5,
        "channel": 9
      },
      {
        "note": 38,
        "velocity": 100,
        "startTime": 11,
        "duration": 0.5,
        "channel": 9
      },
      {
        "note": 38,
        "velocity": 100,
        "startTime": 13,
        "duration": 0.5,
        "channel": 9
      },
      {
        "note": 38,
        "velocity": 100,
        "startTime": 15,
        "duration": 0.5,
        "channel": 9
      },
      {
        "note": 38,
        "velocity": 100,
        "startTime": 17,
        "duration": 0.5,
        "channel": 9
      },
      {
        "note": 38,
        "velocity": 100,
        "startTime": 19,
        "duration": 0.5,
        "channel": 9
      },
      {
        "note": 38,
        "velocity": 100,
        "startTime": 21,
        "duration": 0.5,
        "channel": 9
      },
      {
        "note": 38,
        "velocity": 100,
        "startTime": 23,
        "duration": 0.5,
        "channel": 9
      },
      {
        "note": 38,
        "velocity": 100,
        "startTime": 25,
        "duration": 0.5,
        "channel": 9
      },
      {
        "note": 38,
        "velocity": 100,
        "startTime": 27,
        "duration": 0.5,
        "channel": 9
      },
      {
        "note": 38,
        "velocity": 100,
        "startTime": 29,
        "duration": 0.5,
        "channel": 9
      },
      {
        "note": 38,
        "velocity": 100,
        "startTime": 31,
        "duration": 0.5,
        "channel": 9
      },
      {
        "note": 38,
        "velocity": 100,
        "startTime": 33,
        "duration": 0.5,
        "channel": 9
      },
      {
        "note": 38,
        "velocity": 100,
        "startTime": 35,
        "duration": 0.5,
        "channel": 9
      },
      {
        "note": 38,
        "velocity": 100,
        "startTime": 37,
        "duration": 0.5,
        "channel": 9
      },
      {
        "note": 38,
        "velocity": 100,
        "startTime": 39,
        "duration": 0.5,
        "channel": 9
      },
      {
        "note": 38,
        "velocity": 100,
        "startTime": 41,
        "duration": 0.5,
        "channel": 9
      },
      {
        "note": 38,
        "velocity": 100,
        "startTime": 43,
        "duration": 0.5,
        "channel": 9
      },
      {
        "note": 38,
        "velocity": 100,
        "startTime": 45,
        "duration": 0.5,
        "channel": 9
      },
      {
        "note": 38,
        "velocity": 100,
        "startTime": 47,
        "duration": 0.5,
        "channel": 9
      },
      {
        "note": 38,
        "velocity": 100,
        "startTime": 49,
        "duration": 0.5,
        "channel": 9
      },
      {
        "note": 38,
        "velocity": 100,
        "startTime": 51,
        "duration": 0.5,
        "channel": 9
      },
      {
        "note": 38,
        "velocity": 100,
        "startTime": 53,
        "duration": 0.5,
        "channel": 9
      },
      {
        "note": 38,
        "velocity": 100,
        "startTime": 55,
        "duration": 0.5,
        "channel": 9
      },
      {
        "note": 38,
        "velocity": 100,
        "startTime": 57,
        "duration": 0.5,
        "channel": 9
      },
      {
        "note": 38,
        "velocity": 100,
        "startTime": 59,
        "duration": 0.5,
        "channel": 9
      },
      {
        "note": 38,
        "velocity": 100,
        "startTime": 61,
        "duration": 0.5,
        "channel": 9
      },
      {
        "note": 38,
        "velocity": 100,
        "startTime": 63,
        "duration": 0.5,
        "channel": 9
      },
      {
        "note": 42,
        "velocity": 80,
        "startTime": 0,
        "duration": 0.25,
        "channel": 9
      },
      {
        "note": 42,
        "velocity": 60,
        "startTime": 0.5,
        "duration": 0.25,
        "channel": 9
      },
      {
        "note": 42,
        "velocity": 80,
        "startTime": 1,
        "duration": 0.25,
        "channel": 9
      },
      {
        "note": 42,
        "velocity": 60,
        "startTime": 1.5,
        "duration": 0.25,
        "channel": 9
      },
      {
        "note": 42,
        "velocity": 80,
        "startTime": 2,
        "duration": 0.25,
        "channel": 9
      },
      {
        "note": 42,
        "velocity": 60,
        "startTime": 2.5,
        "duration": 0.25,
        "channel": 9
      },
      {
        "note": 42,
        "velocity": 80,
        "startTime": 3,
        "duration": 0.25,
        "channel": 9
      },
      {
        "note": 42,
        "velocity": 60,
        "startTime": 3.5,
        "duration": 0.25,
        "channel": 9
      },
      {
        "note": 42,
        "velocity": 80,
        "startTime": 4,
        "duration": 0.25,
        "channel": 9
      },
      {
        "note": 42,
        "velocity": 60,
        "startTime": 4.5,
        "duration": 0.25,
        "channel": 9
      },
      {
        "note": 42,
        "velocity": 80,
        "startTime": 5,
        "duration": 0.25,
        "channel": 9
      },
      {
        "note": 42,
        "velocity": 60,
        "startTime": 5.5,
        "duration": 0.25,
        "channel": 9
      },
      {
        "note": 42,
        "velocity": 80,
        "startTime": 6,
        "duration": 0.25,
        "channel": 9
      },
      {
        "note": 42,
        "velocity": 60,
        "startTime": 6.5,
        "duration": 0.25,
        "channel": 9
      },
      {
        "note": 42,
        "velocity": 80,
        "startTime": 7,
        "duration": 0.25,
        "channel": 9
      },
      {
        "note": 42,
        "velocity": 60,
        "startTime": 7.5,
        "duration": 0.25,
        "channel": 9
      },
      {
        "note": 42,
        "velocity": 80,
        "startTime": 8,
        "duration": 0.25,
        "channel": 9
      },
      {
        "note": 42,
        "velocity": 60,
        "startTime": 8.5,
        "duration": 0.25,
        "channel": 9
      },
      {
        "note": 42,
        "velocity": 80,
        "startTime": 9,
        "duration": 0.25,
        "channel": 9
      },
      {
        "note": 42,
        "velocity": 60,
        "startTime": 9.5,
        "duration": 0.25,
        "channel": 9
      },
      {
        "note": 42,
        "velocity": 80,
        "startTime": 10,
        "duration": 0.25,
        "channel": 9
      },
      {
        "note": 42,
        "velocity": 60,
        "startTime": 10.5,
        "duration": 0.25,
        "channel": 9
      },
      {
        "note": 42,
        "velocity": 80,
        "startTime": 11,
        "duration": 0.25,
        "channel": 9
      },
      {
        "note": 42,
        "velocity": 60,
        "startTime": 11.5,
        "duration": 0.25,
        "channel": 9
      },
      {
        "note": 42,
        "velocity": 80,
        "startTime": 12,
        "duration": 0.25,
        "channel": 9
      },
      {
        "note": 42,
        "velocity": 60,
        "startTime": 12.5,
        "duration": 0.25,
        "channel": 9
      },
      {
        "note": 42,
        "velocity": 80,
        "startTime": 13,
        "duration": 0.25,
        "channel": 9
      },
      {
        "note": 42,
        "velocity": 60,
        "startTime": 13.5,
        "duration": 0.25,
        "channel": 9
      },
      {
        "note": 42,
        "velocity": 80,
        "startTime": 14,
        "duration": 0.25,
        "channel": 9
      },
      {
        "note": 42,
        "velocity": 60,
        "startTime": 14.5,
        "duration": 0.25,
        "channel": 9
      },
      {
        "note": 42,
        "velocity": 80,
        "startTime": 15,
        "duration": 0.25,
        "channel": 9
      },
      {
        "note": 42,
        "velocity": 60,
        "startTime": 15.5,
        "duration": 0.25,
        "channel": 9
      },
      {
        "note": 42,
        "velocity": 80,
        "startTime": 16,
        "duration": 0.25,
        "channel": 9
      },
      {
        "note": 42,
        "velocity": 60,
        "startTime": 16.5,
        "duration": 0.25,
        "channel": 9
      },
      {
        "note": 42,
        "velocity": 80,
        "startTime": 17,
        "duration": 0.25,
        "channel": 9
      },
      {
        "note": 42,
        "velocity": 60,
        "startTime": 17.5,
        "duration": 0.25,
        "channel": 9
      },
      {
        "note": 42,
        "velocity": 80,
        "startTime": 18,
        "duration": 0.25,
        "channel": 9
      },
      {
        "note": 42,
        "velocity": 60,
        "startTime": 18.5,
        "duration": 0.25,
        "channel": 9
      },
      {
        "note": 42,
        "velocity": 80,
        "startTime": 19,
        "duration": 0.25,
        "channel": 9
      },
      {
        "note": 42,
        "velocity": 60,
        "startTime": 19.5,
        "duration": 0.25,
        "channel": 9
      },
      {
        "note": 42,
        "velocity": 80,
        "startTime": 20,
        "duration": 0.25,
        "channel": 9
      },
      {
        "note": 42,
        "velocity": 60,
        "startTime": 20.5,
        "duration": 0.25,
        "channel": 9
      },
      {
        "note": 42,
        "velocity": 80,
        "startTime": 21,
        "duration": 0.25,
        "channel": 9
      },
      {
        "note": 42,
        "velocity": 60,
        "startTime": 21.5,
        "duration": 0.25,
        "channel": 9
      },
      {
        "note": 42,
        "velocity": 80,
        "startTime": 22,
        "duration": 0.25,
        "channel": 9
      },
      {
        "note": 42,
        "velocity": 60,
        "startTime": 22.5,
        "duration": 0.25,
        "channel": 9
      },
      {
        "note": 42,
        "velocity": 80,
        "startTime": 23,
        "duration": 0.25,
        "channel": 9
      },
      {
        "note": 42,
        "velocity": 60,
        "startTime": 23.5,
        "duration": 0.25,
        "channel": 9
      },
      {
        "note": 42,
        "velocity": 80,
        "startTime": 24,
        "duration": 0.25,
        "channel": 9
      },
      {
        "note": 42,
        "velocity": 60,
        "startTime": 24.5,
        "duration": 0.25,
        "channel": 9
      },
      {
        "note": 42,
        "velocity": 80,
        "startTime": 25,
        "duration": 0.25,
        "channel": 9
      },
      {
        "note": 42,
        "velocity": 60,
        "startTime": 25.5,
        "duration": 0.25,
        "channel": 9
      },
      {
        "note": 42,
        "velocity": 80,
        "startTime": 26,
        "duration": 0.25,
        "channel": 9
      },
      {
        "note": 42,
        "velocity": 60,
        "startTime": 26.5,
        "duration": 0.25,
        "channel": 9
      },
      {
        "note": 42,
        "velocity": 80,
        "startTime": 27,
        "duration": 0.25,
        "channel": 9
      },
      {
        "note": 42,
        "velocity": 60,
        "startTime": 27.5,
        "duration": 0.25,
        "channel": 9
      },
      {
        "note": 42,
        "velocity": 80,
        "startTime": 28,
        "duration": 0.25,
        "channel": 9
      },
      {
        "note": 42,
        "velocity": 60,
        "startTime": 28.5,
        "duration": 0.25,
        "channel": 9
      },
      {
        "note": 42,
        "velocity": 80,
        "startTime": 29,
        "duration": 0.25,
        "channel": 9
      },
      {
        "note": 42,
        "velocity": 60,
        "startTime": 29.5,
        "duration": 0.25,
        "channel": 9
      },
      {
        "note": 42,
        "velocity": 80,
        "startTime": 30,
        "duration": 0.25,
        "channel": 9
      },
      {
        "note": 42,
        "velocity": 60,
        "startTime": 30.5,
        "duration": 0.25,
        "channel": 9
      },
      {
        "note": 42,
        "velocity": 80,
        "startTime": 31,
        "duration": 0.25,
        "channel": 9
      },
      {
        "note": 42,
        "velocity": 60,
        "startTime": 31.5,
        "duration": 0.25,
        "channel": 9
      },
      {
        "note": 42,
        "velocity": 80,
        "startTime": 32,
        "duration": 0.25,
        "channel": 9
      },
      {
        "note": 42,
        "velocity": 60,
        "startTime": 32.5,
        "duration": 0.25,
        "channel": 9
      },
      {
        "note": 42,
        "velocity": 80,
        "startTime": 33,
        "duration": 0.25,
        "channel": 9
      },
      {
        "note": 42,
        "velocity": 60,
        "startTime": 33.5,
        "duration": 0.25,
        "channel": 9
      },
      {
        "note": 42,
        "velocity": 80,
        "startTime": 34,
        "duration": 0.25,
        "channel": 9
      },
      {
        "note": 42,
        "velocity": 60,
        "startTime": 34.5,
        "duration": 0.25,
        "channel": 9
      },
      {
        "note": 42,
        "velocity": 80,
        "startTime": 35,
        "duration": 0.25,
        "channel": 9
      },
      {
        "note": 42,
        "velocity": 60,
        "startTime": 35.5,
        "duration": 0.25,
        "channel": 9
      },
      {
        "note": 42,
        "velocity": 80,
        "startTime": 36,
        "duration": 0.25,
        "channel": 9
      },
      {
        "note": 42,
        "velocity": 60,
        "startTime": 36.5,
        "duration": 0.25,
        "channel": 9
      },
      {
        "note": 42,
        "velocity": 80,
        "startTime": 37,
        "duration": 0.25,
        "channel": 9
      },
      {
        "note": 42,
        "velocity": 60,
        "startTime": 37.5,
        "duration": 0.25,
        "channel": 9
      },
      {
        "note": 42,
        "velocity": 80,
        "startTime": 38,
        "duration": 0.25,
        "channel": 9
      },
      {
        "note": 42,
        "velocity": 60,
        "startTime": 38.5,
        "duration": 0.25,
        "channel": 9
      },
      {
        "note": 42,
        "velocity": 80,
        "startTime": 39,
        "duration": 0.25,
        "channel": 9
      },
      {
        "note": 42,
        "velocity": 60,
        "startTime": 39.5,
        "duration": 0.25,
        "channel": 9
      },
      {
        "note": 42,
        "velocity": 80,
        "startTime": 40,
        "duration": 0.25,
        "channel": 9
      },
      {
        "note": 42,
        "velocity": 60,
        "startTime": 40.5,
        "duration": 0.25,
        "channel": 9
      },
      {
        "note": 42,
        "velocity": 80,
        "startTime": 41,
        "duration": 0.25,
        "channel": 9
      },
      {
        "note": 42,
        "velocity": 60,
        "startTime": 41.5,
        "duration": 0.25,
        "channel": 9
      },
      {
        "note": 42,
        "velocity": 80,
        "startTime": 42,
        "duration": 0.25,
        "channel": 9
      },
      {
        "note": 42,
        "velocity": 60,
        "startTime": 42.5,
        "duration": 0.25,
        "channel": 9
      },
      {
        "note": 42,
        "velocity": 80,
        "startTime": 43,
        "duration": 0.25,
        "channel": 9
      },
      {
        "note": 42,
        "velocity": 60,
        "startTime": 43.5,
        "duration": 0.25,
        "channel": 9
      },
      {
        "note": 42,
        "velocity": 80,
        "startTime": 44,
        "duration": 0.25,
        "channel": 9
      },
      {
        "note": 42,
        "velocity": 60,
        "startTime": 44.5,
        "duration": 0.25,
        "channel": 9
      },
      {
        "note": 42,
        "velocity": 80,
        "startTime": 45,
        "duration": 0.25,
        "channel": 9
      },
      {
        "note": 42,
        "velocity": 60,
        "startTime": 45.5,
        "duration": 0.25,
        "channel": 9
      },
      {
        "note": 42,
        "velocity": 80,
        "startTime": 46,
        "duration": 0.25,
        "channel": 9
      },
      {
        "note": 42,
        "velocity": 60,
        "startTime": 46.5,
        "duration": 0.25,
        "channel": 9
      },
      {
        "note": 42,
        "velocity": 80,
        "startTime": 47,
        "duration": 0.25,
        "channel": 9
      },
      {
        "note": 42,
        "velocity": 60,
        "startTime": 47.5,
        "duration": 0.25,
        "channel": 9
      },
      {
        "note": 42,
        "velocity": 80,
        "startTime": 48,
        "duration": 0.25,
        "channel": 9
      },
      {
        "note": 42,
        "velocity": 60,
        "startTime": 48.5,
        "duration": 0.25,
        "channel": 9
      },
      {
        "note": 42,
        "velocity": 80,
        "startTime": 49,
        "duration": 0.25,
        "channel": 9
      },
      {
        "note": 42,
        "velocity": 60,
        "startTime": 49.5,
        "duration": 0.25,
        "channel": 9
      },
      {
        "note": 42,
        "velocity": 80,
        "startTime": 50,
        "duration": 0.25,
        "channel": 9
      },
      {
        "note": 42,
        "velocity": 60,
        "startTime": 50.5,
        "duration": 0.25,
        "channel": 9
      },
      {
        "note": 42,
        "velocity": 80,
        "startTime": 51,
        "duration": 0.25,
        "channel": 9
      },
      {
        "note": 42,
        "velocity": 60,
        "startTime": 51.5,
        "duration": 0.25,
        "channel": 9
      },
      {
        "note": 42,
        "velocity": 80,
        "startTime": 52,
        "duration": 0.25,
        "channel": 9
      },
      {
        "note": 42,
        "velocity": 60,
        "startTime": 52.5,
        "duration": 0.25,
        "channel": 9
      },
      {
        "note": 42,
        "velocity": 80,
        "startTime": 53,
        "duration": 0.25,
        "channel": 9
      },
      {
        "note": 42,
        "velocity": 60,
        "startTime": 53.5,
        "duration": 0.25,
        "channel": 9
      },
      {
        "note": 42,
        "velocity": 80,
        "startTime": 54,
        "duration": 0.25,
        "channel": 9
      },
      {
        "note": 42,
        "velocity": 60,
        "startTime": 54.5,
        "duration": 0.25,
        "channel": 9
      },
      {
        "note": 42,
        "velocity": 80,
        "startTime": 55,
        "duration": 0.25,
        "channel": 9
      },
      {
        "note": 42,
        "velocity": 60,
        "startTime": 55.5,
        "duration": 0.25,
        "channel": 9
      },
      {
        "note": 42,
        "velocity": 80,
        "startTime": 56,
        "duration": 0.25,
        "channel": 9
      },
      {
        "note": 42,
        "velocity": 60,
        "startTime": 56.5,
        "duration": 0.25,
        "channel": 9
      },
      {
        "note": 42,
        "velocity": 80,
        "startTime": 57,
        "duration": 0.25,
        "channel": 9
      },
      {
        "note": 42,
        "velocity": 60,
        "startTime": 57.5,
        "duration": 0.25,
        "channel": 9
      },
      {
        "note": 42,
        "velocity": 80,
        "startTime": 58,
        "duration": 0.25,
        "channel": 9
      },
      {
        "note": 42,
        "velocity": 60,
        "startTime": 58.5,
        "duration": 0.25,
        "channel": 9
      },
      {
        "note": 42,
        "velocity": 80,
        "startTime": 59,
        "duration": 0.25,
        "channel": 9
      },
      {
        "note": 42,
        "velocity": 60,
        "startTime": 59.5,
        "duration": 0.25,
        "channel": 9
      },
      {
        "note": 42,
        "velocity": 80,
        "startTime": 60,
        "duration": 0.25,
        "channel": 9
      },
      {
        "note": 42,
        "velocity": 60,
        "startTime": 60.5,
        "duration": 0.25,
        "channel": 9
      },
      {
        "note": 42,
        "velocity": 80,
        "startTime": 61,
        "duration": 0.25,
        "channel": 9
      },
      {
        "note": 42,
        "velocity": 60,
        "startTime": 61.5,
        "duration": 0.25,
        "channel": 9
      },
      {
        "note": 42,
        "velocity": 80,
        "startTime": 62,
        "duration": 0.25,
        "channel": 9
      },
      {
        "note": 42,
        "velocity": 60,
        "startTime": 62.5,
        "duration": 0.25,
        "channel": 9
      },
      {
        "note": 42,
        "velocity": 80,
        "startTime": 63,
        "duration": 0.25,
        "channel": 9
      },
      {
        "note": 42,
        "velocity": 60,
        "startTime": 63.5,
        "duration": 0.25,
        "channel": 9
      },
      {
        "note": 36,
        "velocity": 100,
        "startTime": 0,
        "duration": 1,
        "channel": 0
      },
      {
        "note": 36,
        "velocity": 100,
        "startTime": 2,
        "duration": 1,
        "channel": 0
      },
      {
        "note": 36,
        "velocity": 100,
        "startTime": 4,
        "duration": 1,
        "channel": 0
      },
      {
        "note": 36,
        "velocity": 100,
        "startTime": 6,
        "duration": 1,
        "channel": 0
      },
      {
        "note": 36,
        "velocity": 100,
        "startTime": 8,
        "duration": 1,
        "channel": 0
      },
      {
        "note": 36,
        "velocity": 100,
        "startTime": 10,
        "duration": 1,
        "channel": 0
      },
      {
        "note": 36,
        "velocity": 100,
        "startTime": 12,
        "duration": 1,
        "channel": 0
      },
      {
        "note": 36,
        "velocity": 100,
        "startTime": 14,
        "duration": 1,
        "channel": 0
      },
      {
        "note": 36,
        "velocity": 100,
        "startTime": 16,
        "duration": 1,
        "channel": 0
      },
      {
        "note": 36,
        "velocity": 100,
        "startTime": 18,
        "duration": 1,
        "channel": 0
      },
      {
        "note": 36,
        "velocity": 100,
        "startTime": 20,
        "duration": 1,
        "channel": 0
      },
      {
        "note": 36,
        "velocity": 100,
        "startTime": 22,
        "duration": 1,
        "channel": 0
      },
      {
        "note": 36,
        "velocity": 100,
        "startTime": 24,
        "duration": 1,
        "channel": 0
      },
      {
        "note": 36,
        "velocity": 100,
        "startTime": 26,
        "duration": 1,
        "channel": 0
      },
      {
        "note": 36,
        "velocity": 100,
        "startTime": 28,
        "duration": 1,
        "channel": 0
      },
      {
        "note": 36,
        "velocity": 100,
        "startTime": 30,
        "duration": 1,
        "channel": 0
      },
      {
        "note": 36,
        "velocity": 100,
        "startTime": 32,
        "duration": 1,
        "channel": 0
      },
      {
        "note": 36,
        "velocity": 100,
        "startTime": 34,
        "duration": 1,
        "channel": 0
      },
      {
        "note": 36,
        "velocity": 100,
        "startTime": 36,
        "duration": 1,
        "channel": 0
      },
      {
        "note": 36,
        "velocity": 100,
        "startTime": 38,
        "duration": 1,
        "channel": 0
      },
      {
        "note": 36,
        "velocity": 100,
        "startTime": 40,
        "duration": 1,
        "channel": 0
      },
      {
        "note": 36,
        "velocity": 100,
        "startTime": 42,
        "duration": 1,
        "channel": 0
      },
      {
        "note": 36,
        "velocity": 100,
        "startTime": 44,
        "duration": 1,
        "channel": 0
      },
      {
        "note": 36,
        "velocity": 100,
        "startTime": 46,
        "duration": 1,
        "channel": 0
      },
      {
        "note": 36,
        "velocity": 100,
        "startTime": 48,
        "duration": 1,
        "channel": 0
      },
      {
        "note": 36,
        "velocity": 100,
        "startTime": 50,
        "duration": 1,
        "channel": 0
      },
      {
        "note": 36,
        "velocity": 100,
        "startTime": 52,
        "duration": 1,
        "channel": 0
      },
      {
        "note": 36,
        "velocity": 100,
        "startTime": 54,
        "duration": 1,
        "channel": 0
      },
      {
        "note": 36,
        "velocity": 100,
        "startTime": 56,
        "duration": 1,
        "channel": 0
      },
      {
        "note": 36,
        "velocity": 100,
        "startTime": 58,
        "duration": 1,
        "channel": 0
      },
      {
        "note": 36,
        "velocity": 100,
        "startTime": 60,
        "duration": 1,
        "channel": 0
      },
      {
        "note": 36,
        "velocity": 100,
        "startTime": 62,
        "duration": 1,
        "channel": 0
      }
    ],
    "project_name": "killers",
    "project_path": "/Users/camilopineda/Desktop/SHINE DARK MIDI PARTY/Logic copy sep 2025/killers/killers.logicx",
    "extraction_date": "2025-09-05T23:38:35.389Z",
    "extraction_status": "generated_from_project_name"
  },
  {
    "id": "electronic-pattern",
    "name": "Electronic",
    "tempo": 120,
    "timeSignature": [
      4,
      4
    ],
    "length": 64,
    "loop": true,
    "notes": [
      {
        "note": 36,
        "velocity": 127,
        "startTime": 0,
        "duration": 0.5,
        "channel": 9
      },
      {
        "note": 36,
        "velocity": 100,
        "startTime": 2,
        "duration": 0.5,
        "channel": 9
      },
      {
        "note": 36,
        "velocity": 127,
        "startTime": 4,
        "duration": 0.5,
        "channel": 9
      },
      {
        "note": 36,
        "velocity": 100,
        "startTime": 6,
        "duration": 0.5,
        "channel": 9
      },
      {
        "note": 36,
        "velocity": 127,
        "startTime": 8,
        "duration": 0.5,
        "channel": 9
      },
      {
        "note": 36,
        "velocity": 100,
        "startTime": 10,
        "duration": 0.5,
        "channel": 9
      },
      {
        "note": 36,
        "velocity": 127,
        "startTime": 12,
        "duration": 0.5,
        "channel": 9
      },
      {
        "note": 36,
        "velocity": 100,
        "startTime": 14,
        "duration": 0.5,
        "channel": 9
      },
      {
        "note": 36,
        "velocity": 127,
        "startTime": 16,
        "duration": 0.5,
        "channel": 9
      },
      {
        "note": 36,
        "velocity": 100,
        "startTime": 18,
        "duration": 0.5,
        "channel": 9
      },
      {
        "note": 36,
        "velocity": 127,
        "startTime": 20,
        "duration": 0.5,
        "channel": 9
      },
      {
        "note": 36,
        "velocity": 100,
        "startTime": 22,
        "duration": 0.5,
        "channel": 9
      },
      {
        "note": 36,
        "velocity": 127,
        "startTime": 24,
        "duration": 0.5,
        "channel": 9
      },
      {
        "note": 36,
        "velocity": 100,
        "startTime": 26,
        "duration": 0.5,
        "channel": 9
      },
      {
        "note": 36,
        "velocity": 127,
        "startTime": 28,
        "duration": 0.5,
        "channel": 9
      },
      {
        "note": 36,
        "velocity": 100,
        "startTime": 30,
        "duration": 0.5,
        "channel": 9
      },
      {
        "note": 36,
        "velocity": 127,
        "startTime": 32,
        "duration": 0.5,
        "channel": 9
      },
      {
        "note": 36,
        "velocity": 100,
        "startTime": 34,
        "duration": 0.5,
        "channel": 9
      },
      {
        "note": 36,
        "velocity": 127,
        "startTime": 36,
        "duration": 0.5,
        "channel": 9
      },
      {
        "note": 36,
        "velocity": 100,
        "startTime": 38,
        "duration": 0.5,
        "channel": 9
      },
      {
        "note": 36,
        "velocity": 127,
        "startTime": 40,
        "duration": 0.5,
        "channel": 9
      },
      {
        "note": 36,
        "velocity": 100,
        "startTime": 42,
        "duration": 0.5,
        "channel": 9
      },
      {
        "note": 36,
        "velocity": 127,
        "startTime": 44,
        "duration": 0.5,
        "channel": 9
      },
      {
        "note": 36,
        "velocity": 100,
        "startTime": 46,
        "duration": 0.5,
        "channel": 9
      },
      {
        "note": 36,
        "velocity": 127,
        "startTime": 48,
        "duration": 0.5,
        "channel": 9
      },
      {
        "note": 36,
        "velocity": 100,
        "startTime": 50,
        "duration": 0.5,
        "channel": 9
      },
      {
        "note": 36,
        "velocity": 127,
        "startTime": 52,
        "duration": 0.5,
        "channel": 9
      },
      {
        "note": 36,
        "velocity": 100,
        "startTime": 54,
        "duration": 0.5,
        "channel": 9
      },
      {
        "note": 36,
        "velocity": 127,
        "startTime": 56,
        "duration": 0.5,
        "channel": 9
      },
      {
        "note": 36,
        "velocity": 100,
        "startTime": 58,
        "duration": 0.5,
        "channel": 9
      },
      {
        "note": 36,
        "velocity": 127,
        "startTime": 60,
        "duration": 0.5,
        "channel": 9
      },
      {
        "note": 36,
        "velocity": 100,
        "startTime": 62,
        "duration": 0.5,
        "channel": 9
      },
      {
        "note": 38,
        "velocity": 100,
        "startTime": 1,
        "duration": 0.5,
        "channel": 9
      },
      {
        "note": 38,
        "velocity": 100,
        "startTime": 3,
        "duration": 0.5,
        "channel": 9
      },
      {
        "note": 38,
        "velocity": 100,
        "startTime": 5,
        "duration": 0.5,
        "channel": 9
      },
      {
        "note": 38,
        "velocity": 100,
        "startTime": 7,
        "duration": 0.5,
        "channel": 9
      },
      {
        "note": 38,
        "velocity": 100,
        "startTime": 9,
        "duration": 0.5,
        "channel": 9
      },
      {
        "note": 38,
        "velocity": 100,
        "startTime": 11,
        "duration": 0.5,
        "channel": 9
      },
      {
        "note": 38,
        "velocity": 100,
        "startTime": 13,
        "duration": 0.5,
        "channel": 9
      },
      {
        "note": 38,
        "velocity": 100,
        "startTime": 15,
        "duration": 0.5,
        "channel": 9
      },
      {
        "note": 38,
        "velocity": 100,
        "startTime": 17,
        "duration": 0.5,
        "channel": 9
      },
      {
        "note": 38,
        "velocity": 100,
        "startTime": 19,
        "duration": 0.5,
        "channel": 9
      },
      {
        "note": 38,
        "velocity": 100,
        "startTime": 21,
        "duration": 0.5,
        "channel": 9
      },
      {
        "note": 38,
        "velocity": 100,
        "startTime": 23,
        "duration": 0.5,
        "channel": 9
      },
      {
        "note": 38,
        "velocity": 100,
        "startTime": 25,
        "duration": 0.5,
        "channel": 9
      },
      {
        "note": 38,
        "velocity": 100,
        "startTime": 27,
        "duration": 0.5,
        "channel": 9
      },
      {
        "note": 38,
        "velocity": 100,
        "startTime": 29,
        "duration": 0.5,
        "channel": 9
      },
      {
        "note": 38,
        "velocity": 100,
        "startTime": 31,
        "duration": 0.5,
        "channel": 9
      },
      {
        "note": 38,
        "velocity": 100,
        "startTime": 33,
        "duration": 0.5,
        "channel": 9
      },
      {
        "note": 38,
        "velocity": 100,
        "startTime": 35,
        "duration": 0.5,
        "channel": 9
      },
      {
        "note": 38,
        "velocity": 100,
        "startTime": 37,
        "duration": 0.5,
        "channel": 9
      },
      {
        "note": 38,
        "velocity": 100,
        "startTime": 39,
        "duration": 0.5,
        "channel": 9
      },
      {
        "note": 38,
        "velocity": 100,
        "startTime": 41,
        "duration": 0.5,
        "channel": 9
      },
      {
        "note": 38,
        "velocity": 100,
        "startTime": 43,
        "duration": 0.5,
        "channel": 9
      },
      {
        "note": 38,
        "velocity": 100,
        "startTime": 45,
        "duration": 0.5,
        "channel": 9
      },
      {
        "note": 38,
        "velocity": 100,
        "startTime": 47,
        "duration": 0.5,
        "channel": 9
      },
      {
        "note": 38,
        "velocity": 100,
        "startTime": 49,
        "duration": 0.5,
        "channel": 9
      },
      {
        "note": 38,
        "velocity": 100,
        "startTime": 51,
        "duration": 0.5,
        "channel": 9
      },
      {
        "note": 38,
        "velocity": 100,
        "startTime": 53,
        "duration": 0.5,
        "channel": 9
      },
      {
        "note": 38,
        "velocity": 100,
        "startTime": 55,
        "duration": 0.5,
        "channel": 9
      },
      {
        "note": 38,
        "velocity": 100,
        "startTime": 57,
        "duration": 0.5,
        "channel": 9
      },
      {
        "note": 38,
        "velocity": 100,
        "startTime": 59,
        "duration": 0.5,
        "channel": 9
      },
      {
        "note": 38,
        "velocity": 100,
        "startTime": 61,
        "duration": 0.5,
        "channel": 9
      },
      {
        "note": 38,
        "velocity": 100,
        "startTime": 63,
        "duration": 0.5,
        "channel": 9
      },
      {
        "note": 42,
        "velocity": 80,
        "startTime": 0,
        "duration": 0.25,
        "channel": 9
      },
      {
        "note": 42,
        "velocity": 60,
        "startTime": 0.5,
        "duration": 0.25,
        "channel": 9
      },
      {
        "note": 42,
        "velocity": 80,
        "startTime": 1,
        "duration": 0.25,
        "channel": 9
      },
      {
        "note": 42,
        "velocity": 60,
        "startTime": 1.5,
        "duration": 0.25,
        "channel": 9
      },
      {
        "note": 42,
        "velocity": 80,
        "startTime": 2,
        "duration": 0.25,
        "channel": 9
      },
      {
        "note": 42,
        "velocity": 60,
        "startTime": 2.5,
        "duration": 0.25,
        "channel": 9
      },
      {
        "note": 42,
        "velocity": 80,
        "startTime": 3,
        "duration": 0.25,
        "channel": 9
      },
      {
        "note": 42,
        "velocity": 60,
        "startTime": 3.5,
        "duration": 0.25,
        "channel": 9
      },
      {
        "note": 42,
        "velocity": 80,
        "startTime": 4,
        "duration": 0.25,
        "channel": 9
      },
      {
        "note": 42,
        "velocity": 60,
        "startTime": 4.5,
        "duration": 0.25,
        "channel": 9
      },
      {
        "note": 42,
        "velocity": 80,
        "startTime": 5,
        "duration": 0.25,
        "channel": 9
      },
      {
        "note": 42,
        "velocity": 60,
        "startTime": 5.5,
        "duration": 0.25,
        "channel": 9
      },
      {
        "note": 42,
        "velocity": 80,
        "startTime": 6,
        "duration": 0.25,
        "channel": 9
      },
      {
        "note": 42,
        "velocity": 60,
        "startTime": 6.5,
        "duration": 0.25,
        "channel": 9
      },
      {
        "note": 42,
        "velocity": 80,
        "startTime": 7,
        "duration": 0.25,
        "channel": 9
      },
      {
        "note": 42,
        "velocity": 60,
        "startTime": 7.5,
        "duration": 0.25,
        "channel": 9
      },
      {
        "note": 42,
        "velocity": 80,
        "startTime": 8,
        "duration": 0.25,
        "channel": 9
      },
      {
        "note": 42,
        "velocity": 60,
        "startTime": 8.5,
        "duration": 0.25,
        "channel": 9
      },
      {
        "note": 42,
        "velocity": 80,
        "startTime": 9,
        "duration": 0.25,
        "channel": 9
      },
      {
        "note": 42,
        "velocity": 60,
        "startTime": 9.5,
        "duration": 0.25,
        "channel": 9
      },
      {
        "note": 42,
        "velocity": 80,
        "startTime": 10,
        "duration": 0.25,
        "channel": 9
      },
      {
        "note": 42,
        "velocity": 60,
        "startTime": 10.5,
        "duration": 0.25,
        "channel": 9
      },
      {
        "note": 42,
        "velocity": 80,
        "startTime": 11,
        "duration": 0.25,
        "channel": 9
      },
      {
        "note": 42,
        "velocity": 60,
        "startTime": 11.5,
        "duration": 0.25,
        "channel": 9
      },
      {
        "note": 42,
        "velocity": 80,
        "startTime": 12,
        "duration": 0.25,
        "channel": 9
      },
      {
        "note": 42,
        "velocity": 60,
        "startTime": 12.5,
        "duration": 0.25,
        "channel": 9
      },
      {
        "note": 42,
        "velocity": 80,
        "startTime": 13,
        "duration": 0.25,
        "channel": 9
      },
      {
        "note": 42,
        "velocity": 60,
        "startTime": 13.5,
        "duration": 0.25,
        "channel": 9
      },
      {
        "note": 42,
        "velocity": 80,
        "startTime": 14,
        "duration": 0.25,
        "channel": 9
      },
      {
        "note": 42,
        "velocity": 60,
        "startTime": 14.5,
        "duration": 0.25,
        "channel": 9
      },
      {
        "note": 42,
        "velocity": 80,
        "startTime": 15,
        "duration": 0.25,
        "channel": 9
      },
      {
        "note": 42,
        "velocity": 60,
        "startTime": 15.5,
        "duration": 0.25,
        "channel": 9
      },
      {
        "note": 42,
        "velocity": 80,
        "startTime": 16,
        "duration": 0.25,
        "channel": 9
      },
      {
        "note": 42,
        "velocity": 60,
        "startTime": 16.5,
        "duration": 0.25,
        "channel": 9
      },
      {
        "note": 42,
        "velocity": 80,
        "startTime": 17,
        "duration": 0.25,
        "channel": 9
      },
      {
        "note": 42,
        "velocity": 60,
        "startTime": 17.5,
        "duration": 0.25,
        "channel": 9
      },
      {
        "note": 42,
        "velocity": 80,
        "startTime": 18,
        "duration": 0.25,
        "channel": 9
      },
      {
        "note": 42,
        "velocity": 60,
        "startTime": 18.5,
        "duration": 0.25,
        "channel": 9
      },
      {
        "note": 42,
        "velocity": 80,
        "startTime": 19,
        "duration": 0.25,
        "channel": 9
      },
      {
        "note": 42,
        "velocity": 60,
        "startTime": 19.5,
        "duration": 0.25,
        "channel": 9
      },
      {
        "note": 42,
        "velocity": 80,
        "startTime": 20,
        "duration": 0.25,
        "channel": 9
      },
      {
        "note": 42,
        "velocity": 60,
        "startTime": 20.5,
        "duration": 0.25,
        "channel": 9
      },
      {
        "note": 42,
        "velocity": 80,
        "startTime": 21,
        "duration": 0.25,
        "channel": 9
      },
      {
        "note": 42,
        "velocity": 60,
        "startTime": 21.5,
        "duration": 0.25,
        "channel": 9
      },
      {
        "note": 42,
        "velocity": 80,
        "startTime": 22,
        "duration": 0.25,
        "channel": 9
      },
      {
        "note": 42,
        "velocity": 60,
        "startTime": 22.5,
        "duration": 0.25,
        "channel": 9
      },
      {
        "note": 42,
        "velocity": 80,
        "startTime": 23,
        "duration": 0.25,
        "channel": 9
      },
      {
        "note": 42,
        "velocity": 60,
        "startTime": 23.5,
        "duration": 0.25,
        "channel": 9
      },
      {
        "note": 42,
        "velocity": 80,
        "startTime": 24,
        "duration": 0.25,
        "channel": 9
      },
      {
        "note": 42,
        "velocity": 60,
        "startTime": 24.5,
        "duration": 0.25,
        "channel": 9
      },
      {
        "note": 42,
        "velocity": 80,
        "startTime": 25,
        "duration": 0.25,
        "channel": 9
      },
      {
        "note": 42,
        "velocity": 60,
        "startTime": 25.5,
        "duration": 0.25,
        "channel": 9
      },
      {
        "note": 42,
        "velocity": 80,
        "startTime": 26,
        "duration": 0.25,
        "channel": 9
      },
      {
        "note": 42,
        "velocity": 60,
        "startTime": 26.5,
        "duration": 0.25,
        "channel": 9
      },
      {
        "note": 42,
        "velocity": 80,
        "startTime": 27,
        "duration": 0.25,
        "channel": 9
      },
      {
        "note": 42,
        "velocity": 60,
        "startTime": 27.5,
        "duration": 0.25,
        "channel": 9
      },
      {
        "note": 42,
        "velocity": 80,
        "startTime": 28,
        "duration": 0.25,
        "channel": 9
      },
      {
        "note": 42,
        "velocity": 60,
        "startTime": 28.5,
        "duration": 0.25,
        "channel": 9
      },
      {
        "note": 42,
        "velocity": 80,
        "startTime": 29,
        "duration": 0.25,
        "channel": 9
      },
      {
        "note": 42,
        "velocity": 60,
        "startTime": 29.5,
        "duration": 0.25,
        "channel": 9
      },
      {
        "note": 42,
        "velocity": 80,
        "startTime": 30,
        "duration": 0.25,
        "channel": 9
      },
      {
        "note": 42,
        "velocity": 60,
        "startTime": 30.5,
        "duration": 0.25,
        "channel": 9
      },
      {
        "note": 42,
        "velocity": 80,
        "startTime": 31,
        "duration": 0.25,
        "channel": 9
      },
      {
        "note": 42,
        "velocity": 60,
        "startTime": 31.5,
        "duration": 0.25,
        "channel": 9
      },
      {
        "note": 42,
        "velocity": 80,
        "startTime": 32,
        "duration": 0.25,
        "channel": 9
      },
      {
        "note": 42,
        "velocity": 60,
        "startTime": 32.5,
        "duration": 0.25,
        "channel": 9
      },
      {
        "note": 42,
        "velocity": 80,
        "startTime": 33,
        "duration": 0.25,
        "channel": 9
      },
      {
        "note": 42,
        "velocity": 60,
        "startTime": 33.5,
        "duration": 0.25,
        "channel": 9
      },
      {
        "note": 42,
        "velocity": 80,
        "startTime": 34,
        "duration": 0.25,
        "channel": 9
      },
      {
        "note": 42,
        "velocity": 60,
        "startTime": 34.5,
        "duration": 0.25,
        "channel": 9
      },
      {
        "note": 42,
        "velocity": 80,
        "startTime": 35,
        "duration": 0.25,
        "channel": 9
      },
      {
        "note": 42,
        "velocity": 60,
        "startTime": 35.5,
        "duration": 0.25,
        "channel": 9
      },
      {
        "note": 42,
        "velocity": 80,
        "startTime": 36,
        "duration": 0.25,
        "channel": 9
      },
      {
        "note": 42,
        "velocity": 60,
        "startTime": 36.5,
        "duration": 0.25,
        "channel": 9
      },
      {
        "note": 42,
        "velocity": 80,
        "startTime": 37,
        "duration": 0.25,
        "channel": 9
      },
      {
        "note": 42,
        "velocity": 60,
        "startTime": 37.5,
        "duration": 0.25,
        "channel": 9
      },
      {
        "note": 42,
        "velocity": 80,
        "startTime": 38,
        "duration": 0.25,
        "channel": 9
      },
      {
        "note": 42,
        "velocity": 60,
        "startTime": 38.5,
        "duration": 0.25,
        "channel": 9
      },
      {
        "note": 42,
        "velocity": 80,
        "startTime": 39,
        "duration": 0.25,
        "channel": 9
      },
      {
        "note": 42,
        "velocity": 60,
        "startTime": 39.5,
        "duration": 0.25,
        "channel": 9
      },
      {
        "note": 42,
        "velocity": 80,
        "startTime": 40,
        "duration": 0.25,
        "channel": 9
      },
      {
        "note": 42,
        "velocity": 60,
        "startTime": 40.5,
        "duration": 0.25,
        "channel": 9
      },
      {
        "note": 42,
        "velocity": 80,
        "startTime": 41,
        "duration": 0.25,
        "channel": 9
      },
      {
        "note": 42,
        "velocity": 60,
        "startTime": 41.5,
        "duration": 0.25,
        "channel": 9
      },
      {
        "note": 42,
        "velocity": 80,
        "startTime": 42,
        "duration": 0.25,
        "channel": 9
      },
      {
        "note": 42,
        "velocity": 60,
        "startTime": 42.5,
        "duration": 0.25,
        "channel": 9
      },
      {
        "note": 42,
        "velocity": 80,
        "startTime": 43,
        "duration": 0.25,
        "channel": 9
      },
      {
        "note": 42,
        "velocity": 60,
        "startTime": 43.5,
        "duration": 0.25,
        "channel": 9
      },
      {
        "note": 42,
        "velocity": 80,
        "startTime": 44,
        "duration": 0.25,
        "channel": 9
      },
      {
        "note": 42,
        "velocity": 60,
        "startTime": 44.5,
        "duration": 0.25,
        "channel": 9
      },
      {
        "note": 42,
        "velocity": 80,
        "startTime": 45,
        "duration": 0.25,
        "channel": 9
      },
      {
        "note": 42,
        "velocity": 60,
        "startTime": 45.5,
        "duration": 0.25,
        "channel": 9
      },
      {
        "note": 42,
        "velocity": 80,
        "startTime": 46,
        "duration": 0.25,
        "channel": 9
      },
      {
        "note": 42,
        "velocity": 60,
        "startTime": 46.5,
        "duration": 0.25,
        "channel": 9
      },
      {
        "note": 42,
        "velocity": 80,
        "startTime": 47,
        "duration": 0.25,
        "channel": 9
      },
      {
        "note": 42,
        "velocity": 60,
        "startTime": 47.5,
        "duration": 0.25,
        "channel": 9
      },
      {
        "note": 42,
        "velocity": 80,
        "startTime": 48,
        "duration": 0.25,
        "channel": 9
      },
      {
        "note": 42,
        "velocity": 60,
        "startTime": 48.5,
        "duration": 0.25,
        "channel": 9
      },
      {
        "note": 42,
        "velocity": 80,
        "startTime": 49,
        "duration": 0.25,
        "channel": 9
      },
      {
        "note": 42,
        "velocity": 60,
        "startTime": 49.5,
        "duration": 0.25,
        "channel": 9
      },
      {
        "note": 42,
        "velocity": 80,
        "startTime": 50,
        "duration": 0.25,
        "channel": 9
      },
      {
        "note": 42,
        "velocity": 60,
        "startTime": 50.5,
        "duration": 0.25,
        "channel": 9
      },
      {
        "note": 42,
        "velocity": 80,
        "startTime": 51,
        "duration": 0.25,
        "channel": 9
      },
      {
        "note": 42,
        "velocity": 60,
        "startTime": 51.5,
        "duration": 0.25,
        "channel": 9
      },
      {
        "note": 42,
        "velocity": 80,
        "startTime": 52,
        "duration": 0.25,
        "channel": 9
      },
      {
        "note": 42,
        "velocity": 60,
        "startTime": 52.5,
        "duration": 0.25,
        "channel": 9
      },
      {
        "note": 42,
        "velocity": 80,
        "startTime": 53,
        "duration": 0.25,
        "channel": 9
      },
      {
        "note": 42,
        "velocity": 60,
        "startTime": 53.5,
        "duration": 0.25,
        "channel": 9
      },
      {
        "note": 42,
        "velocity": 80,
        "startTime": 54,
        "duration": 0.25,
        "channel": 9
      },
      {
        "note": 42,
        "velocity": 60,
        "startTime": 54.5,
        "duration": 0.25,
        "channel": 9
      },
      {
        "note": 42,
        "velocity": 80,
        "startTime": 55,
        "duration": 0.25,
        "channel": 9
      },
      {
        "note": 42,
        "velocity": 60,
        "startTime": 55.5,
        "duration": 0.25,
        "channel": 9
      },
      {
        "note": 42,
        "velocity": 80,
        "startTime": 56,
        "duration": 0.25,
        "channel": 9
      },
      {
        "note": 42,
        "velocity": 60,
        "startTime": 56.5,
        "duration": 0.25,
        "channel": 9
      },
      {
        "note": 42,
        "velocity": 80,
        "startTime": 57,
        "duration": 0.25,
        "channel": 9
      },
      {
        "note": 42,
        "velocity": 60,
        "startTime": 57.5,
        "duration": 0.25,
        "channel": 9
      },
      {
        "note": 42,
        "velocity": 80,
        "startTime": 58,
        "duration": 0.25,
        "channel": 9
      },
      {
        "note": 42,
        "velocity": 60,
        "startTime": 58.5,
        "duration": 0.25,
        "channel": 9
      },
      {
        "note": 42,
        "velocity": 80,
        "startTime": 59,
        "duration": 0.25,
        "channel": 9
      },
      {
        "note": 42,
        "velocity": 60,
        "startTime": 59.5,
        "duration": 0.25,
        "channel": 9
      },
      {
        "note": 42,
        "velocity": 80,
        "startTime": 60,
        "duration": 0.25,
        "channel": 9
      },
      {
        "note": 42,
        "velocity": 60,
        "startTime": 60.5,
        "duration": 0.25,
        "channel": 9
      },
      {
        "note": 42,
        "velocity": 80,
        "startTime": 61,
        "duration": 0.25,
        "channel": 9
      },
      {
        "note": 42,
        "velocity": 60,
        "startTime": 61.5,
        "duration": 0.25,
        "channel": 9
      },
      {
        "note": 42,
        "velocity": 80,
        "startTime": 62,
        "duration": 0.25,
        "channel": 9
      },
      {
        "note": 42,
        "velocity": 60,
        "startTime": 62.5,
        "duration": 0.25,
        "channel": 9
      },
      {
        "note": 42,
        "velocity": 80,
        "startTime": 63,
        "duration": 0.25,
        "channel": 9
      },
      {
        "note": 42,
        "velocity": 60,
        "startTime": 63.5,
        "duration": 0.25,
        "channel": 9
      },
      {
        "note": 36,
        "velocity": 100,
        "startTime": 0,
        "duration": 1,
        "channel": 0
      },
      {
        "note": 36,
        "velocity": 100,
        "startTime": 2,
        "duration": 1,
        "channel": 0
      },
      {
        "note": 36,
        "velocity": 100,
        "startTime": 4,
        "duration": 1,
        "channel": 0
      },
      {
        "note": 36,
        "velocity": 100,
        "startTime": 6,
        "duration": 1,
        "channel": 0
      },
      {
        "note": 36,
        "velocity": 100,
        "startTime": 8,
        "duration": 1,
        "channel": 0
      },
      {
        "note": 36,
        "velocity": 100,
        "startTime": 10,
        "duration": 1,
        "channel": 0
      },
      {
        "note": 36,
        "velocity": 100,
        "startTime": 12,
        "duration": 1,
        "channel": 0
      },
      {
        "note": 36,
        "velocity": 100,
        "startTime": 14,
        "duration": 1,
        "channel": 0
      },
      {
        "note": 36,
        "velocity": 100,
        "startTime": 16,
        "duration": 1,
        "channel": 0
      },
      {
        "note": 36,
        "velocity": 100,
        "startTime": 18,
        "duration": 1,
        "channel": 0
      },
      {
        "note": 36,
        "velocity": 100,
        "startTime": 20,
        "duration": 1,
        "channel": 0
      },
      {
        "note": 36,
        "velocity": 100,
        "startTime": 22,
        "duration": 1,
        "channel": 0
      },
      {
        "note": 36,
        "velocity": 100,
        "startTime": 24,
        "duration": 1,
        "channel": 0
      },
      {
        "note": 36,
        "velocity": 100,
        "startTime": 26,
        "duration": 1,
        "channel": 0
      },
      {
        "note": 36,
        "velocity": 100,
        "startTime": 28,
        "duration": 1,
        "channel": 0
      },
      {
        "note": 36,
        "velocity": 100,
        "startTime": 30,
        "duration": 1,
        "channel": 0
      },
      {
        "note": 36,
        "velocity": 100,
        "startTime": 32,
        "duration": 1,
        "channel": 0
      },
      {
        "note": 36,
        "velocity": 100,
        "startTime": 34,
        "duration": 1,
        "channel": 0
      },
      {
        "note": 36,
        "velocity": 100,
        "startTime": 36,
        "duration": 1,
        "channel": 0
      },
      {
        "note": 36,
        "velocity": 100,
        "startTime": 38,
        "duration": 1,
        "channel": 0
      },
      {
        "note": 36,
        "velocity": 100,
        "startTime": 40,
        "duration": 1,
        "channel": 0
      },
      {
        "note": 36,
        "velocity": 100,
        "startTime": 42,
        "duration": 1,
        "channel": 0
      },
      {
        "note": 36,
        "velocity": 100,
        "startTime": 44,
        "duration": 1,
        "channel": 0
      },
      {
        "note": 36,
        "velocity": 100,
        "startTime": 46,
        "duration": 1,
        "channel": 0
      },
      {
        "note": 36,
        "velocity": 100,
        "startTime": 48,
        "duration": 1,
        "channel": 0
      },
      {
        "note": 36,
        "velocity": 100,
        "startTime": 50,
        "duration": 1,
        "channel": 0
      },
      {
        "note": 36,
        "velocity": 100,
        "startTime": 52,
        "duration": 1,
        "channel": 0
      },
      {
        "note": 36,
        "velocity": 100,
        "startTime": 54,
        "duration": 1,
        "channel": 0
      },
      {
        "note": 36,
        "velocity": 100,
        "startTime": 56,
        "duration": 1,
        "channel": 0
      },
      {
        "note": 36,
        "velocity": 100,
        "startTime": 58,
        "duration": 1,
        "channel": 0
      },
      {
        "note": 36,
        "velocity": 100,
        "startTime": 60,
        "duration": 1,
        "channel": 0
      },
      {
        "note": 36,
        "velocity": 100,
        "startTime": 62,
        "duration": 1,
        "channel": 0
      }
    ],
    "project_name": "legendary day with gronk lol",
    "project_path": "/Users/camilopineda/Desktop/SHINE DARK MIDI PARTY/Logic copy sep 2025/legendary day with gronk lol/legendary day with gronk lol.logicx",
    "extraction_date": "2025-09-05T23:38:35.389Z",
    "extraction_status": "generated_from_project_name"
  },
  {
    "id": "electronic-pattern",
    "name": "Electronic",
    "tempo": 120,
    "timeSignature": [
      4,
      4
    ],
    "length": 64,
    "loop": true,
    "notes": [
      {
        "note": 36,
        "velocity": 127,
        "startTime": 0,
        "duration": 0.5,
        "channel": 9
      },
      {
        "note": 36,
        "velocity": 100,
        "startTime": 2,
        "duration": 0.5,
        "channel": 9
      },
      {
        "note": 36,
        "velocity": 127,
        "startTime": 4,
        "duration": 0.5,
        "channel": 9
      },
      {
        "note": 36,
        "velocity": 100,
        "startTime": 6,
        "duration": 0.5,
        "channel": 9
      },
      {
        "note": 36,
        "velocity": 127,
        "startTime": 8,
        "duration": 0.5,
        "channel": 9
      },
      {
        "note": 36,
        "velocity": 100,
        "startTime": 10,
        "duration": 0.5,
        "channel": 9
      },
      {
        "note": 36,
        "velocity": 127,
        "startTime": 12,
        "duration": 0.5,
        "channel": 9
      },
      {
        "note": 36,
        "velocity": 100,
        "startTime": 14,
        "duration": 0.5,
        "channel": 9
      },
      {
        "note": 36,
        "velocity": 127,
        "startTime": 16,
        "duration": 0.5,
        "channel": 9
      },
      {
        "note": 36,
        "velocity": 100,
        "startTime": 18,
        "duration": 0.5,
        "channel": 9
      },
      {
        "note": 36,
        "velocity": 127,
        "startTime": 20,
        "duration": 0.5,
        "channel": 9
      },
      {
        "note": 36,
        "velocity": 100,
        "startTime": 22,
        "duration": 0.5,
        "channel": 9
      },
      {
        "note": 36,
        "velocity": 127,
        "startTime": 24,
        "duration": 0.5,
        "channel": 9
      },
      {
        "note": 36,
        "velocity": 100,
        "startTime": 26,
        "duration": 0.5,
        "channel": 9
      },
      {
        "note": 36,
        "velocity": 127,
        "startTime": 28,
        "duration": 0.5,
        "channel": 9
      },
      {
        "note": 36,
        "velocity": 100,
        "startTime": 30,
        "duration": 0.5,
        "channel": 9
      },
      {
        "note": 36,
        "velocity": 127,
        "startTime": 32,
        "duration": 0.5,
        "channel": 9
      },
      {
        "note": 36,
        "velocity": 100,
        "startTime": 34,
        "duration": 0.5,
        "channel": 9
      },
      {
        "note": 36,
        "velocity": 127,
        "startTime": 36,
        "duration": 0.5,
        "channel": 9
      },
      {
        "note": 36,
        "velocity": 100,
        "startTime": 38,
        "duration": 0.5,
        "channel": 9
      },
      {
        "note": 36,
        "velocity": 127,
        "startTime": 40,
        "duration": 0.5,
        "channel": 9
      },
      {
        "note": 36,
        "velocity": 100,
        "startTime": 42,
        "duration": 0.5,
        "channel": 9
      },
      {
        "note": 36,
        "velocity": 127,
        "startTime": 44,
        "duration": 0.5,
        "channel": 9
      },
      {
        "note": 36,
        "velocity": 100,
        "startTime": 46,
        "duration": 0.5,
        "channel": 9
      },
      {
        "note": 36,
        "velocity": 127,
        "startTime": 48,
        "duration": 0.5,
        "channel": 9
      },
      {
        "note": 36,
        "velocity": 100,
        "startTime": 50,
        "duration": 0.5,
        "channel": 9
      },
      {
        "note": 36,
        "velocity": 127,
        "startTime": 52,
        "duration": 0.5,
        "channel": 9
      },
      {
        "note": 36,
        "velocity": 100,
        "startTime": 54,
        "duration": 0.5,
        "channel": 9
      },
      {
        "note": 36,
        "velocity": 127,
        "startTime": 56,
        "duration": 0.5,
        "channel": 9
      },
      {
        "note": 36,
        "velocity": 100,
        "startTime": 58,
        "duration": 0.5,
        "channel": 9
      },
      {
        "note": 36,
        "velocity": 127,
        "startTime": 60,
        "duration": 0.5,
        "channel": 9
      },
      {
        "note": 36,
        "velocity": 100,
        "startTime": 62,
        "duration": 0.5,
        "channel": 9
      },
      {
        "note": 38,
        "velocity": 100,
        "startTime": 1,
        "duration": 0.5,
        "channel": 9
      },
      {
        "note": 38,
        "velocity": 100,
        "startTime": 3,
        "duration": 0.5,
        "channel": 9
      },
      {
        "note": 38,
        "velocity": 100,
        "startTime": 5,
        "duration": 0.5,
        "channel": 9
      },
      {
        "note": 38,
        "velocity": 100,
        "startTime": 7,
        "duration": 0.5,
        "channel": 9
      },
      {
        "note": 38,
        "velocity": 100,
        "startTime": 9,
        "duration": 0.5,
        "channel": 9
      },
      {
        "note": 38,
        "velocity": 100,
        "startTime": 11,
        "duration": 0.5,
        "channel": 9
      },
      {
        "note": 38,
        "velocity": 100,
        "startTime": 13,
        "duration": 0.5,
        "channel": 9
      },
      {
        "note": 38,
        "velocity": 100,
        "startTime": 15,
        "duration": 0.5,
        "channel": 9
      },
      {
        "note": 38,
        "velocity": 100,
        "startTime": 17,
        "duration": 0.5,
        "channel": 9
      },
      {
        "note": 38,
        "velocity": 100,
        "startTime": 19,
        "duration": 0.5,
        "channel": 9
      },
      {
        "note": 38,
        "velocity": 100,
        "startTime": 21,
        "duration": 0.5,
        "channel": 9
      },
      {
        "note": 38,
        "velocity": 100,
        "startTime": 23,
        "duration": 0.5,
        "channel": 9
      },
      {
        "note": 38,
        "velocity": 100,
        "startTime": 25,
        "duration": 0.5,
        "channel": 9
      },
      {
        "note": 38,
        "velocity": 100,
        "startTime": 27,
        "duration": 0.5,
        "channel": 9
      },
      {
        "note": 38,
        "velocity": 100,
        "startTime": 29,
        "duration": 0.5,
        "channel": 9
      },
      {
        "note": 38,
        "velocity": 100,
        "startTime": 31,
        "duration": 0.5,
        "channel": 9
      },
      {
        "note": 38,
        "velocity": 100,
        "startTime": 33,
        "duration": 0.5,
        "channel": 9
      },
      {
        "note": 38,
        "velocity": 100,
        "startTime": 35,
        "duration": 0.5,
        "channel": 9
      },
      {
        "note": 38,
        "velocity": 100,
        "startTime": 37,
        "duration": 0.5,
        "channel": 9
      },
      {
        "note": 38,
        "velocity": 100,
        "startTime": 39,
        "duration": 0.5,
        "channel": 9
      },
      {
        "note": 38,
        "velocity": 100,
        "startTime": 41,
        "duration": 0.5,
        "channel": 9
      },
      {
        "note": 38,
        "velocity": 100,
        "startTime": 43,
        "duration": 0.5,
        "channel": 9
      },
      {
        "note": 38,
        "velocity": 100,
        "startTime": 45,
        "duration": 0.5,
        "channel": 9
      },
      {
        "note": 38,
        "velocity": 100,
        "startTime": 47,
        "duration": 0.5,
        "channel": 9
      },
      {
        "note": 38,
        "velocity": 100,
        "startTime": 49,
        "duration": 0.5,
        "channel": 9
      },
      {
        "note": 38,
        "velocity": 100,
        "startTime": 51,
        "duration": 0.5,
        "channel": 9
      },
      {
        "note": 38,
        "velocity": 100,
        "startTime": 53,
        "duration": 0.5,
        "channel": 9
      },
      {
        "note": 38,
        "velocity": 100,
        "startTime": 55,
        "duration": 0.5,
        "channel": 9
      },
      {
        "note": 38,
        "velocity": 100,
        "startTime": 57,
        "duration": 0.5,
        "channel": 9
      },
      {
        "note": 38,
        "velocity": 100,
        "startTime": 59,
        "duration": 0.5,
        "channel": 9
      },
      {
        "note": 38,
        "velocity": 100,
        "startTime": 61,
        "duration": 0.5,
        "channel": 9
      },
      {
        "note": 38,
        "velocity": 100,
        "startTime": 63,
        "duration": 0.5,
        "channel": 9
      },
      {
        "note": 42,
        "velocity": 80,
        "startTime": 0,
        "duration": 0.25,
        "channel": 9
      },
      {
        "note": 42,
        "velocity": 60,
        "startTime": 0.5,
        "duration": 0.25,
        "channel": 9
      },
      {
        "note": 42,
        "velocity": 80,
        "startTime": 1,
        "duration": 0.25,
        "channel": 9
      },
      {
        "note": 42,
        "velocity": 60,
        "startTime": 1.5,
        "duration": 0.25,
        "channel": 9
      },
      {
        "note": 42,
        "velocity": 80,
        "startTime": 2,
        "duration": 0.25,
        "channel": 9
      },
      {
        "note": 42,
        "velocity": 60,
        "startTime": 2.5,
        "duration": 0.25,
        "channel": 9
      },
      {
        "note": 42,
        "velocity": 80,
        "startTime": 3,
        "duration": 0.25,
        "channel": 9
      },
      {
        "note": 42,
        "velocity": 60,
        "startTime": 3.5,
        "duration": 0.25,
        "channel": 9
      },
      {
        "note": 42,
        "velocity": 80,
        "startTime": 4,
        "duration": 0.25,
        "channel": 9
      },
      {
        "note": 42,
        "velocity": 60,
        "startTime": 4.5,
        "duration": 0.25,
        "channel": 9
      },
      {
        "note": 42,
        "velocity": 80,
        "startTime": 5,
        "duration": 0.25,
        "channel": 9
      },
      {
        "note": 42,
        "velocity": 60,
        "startTime": 5.5,
        "duration": 0.25,
        "channel": 9
      },
      {
        "note": 42,
        "velocity": 80,
        "startTime": 6,
        "duration": 0.25,
        "channel": 9
      },
      {
        "note": 42,
        "velocity": 60,
        "startTime": 6.5,
        "duration": 0.25,
        "channel": 9
      },
      {
        "note": 42,
        "velocity": 80,
        "startTime": 7,
        "duration": 0.25,
        "channel": 9
      },
      {
        "note": 42,
        "velocity": 60,
        "startTime": 7.5,
        "duration": 0.25,
        "channel": 9
      },
      {
        "note": 42,
        "velocity": 80,
        "startTime": 8,
        "duration": 0.25,
        "channel": 9
      },
      {
        "note": 42,
        "velocity": 60,
        "startTime": 8.5,
        "duration": 0.25,
        "channel": 9
      },
      {
        "note": 42,
        "velocity": 80,
        "startTime": 9,
        "duration": 0.25,
        "channel": 9
      },
      {
        "note": 42,
        "velocity": 60,
        "startTime": 9.5,
        "duration": 0.25,
        "channel": 9
      },
      {
        "note": 42,
        "velocity": 80,
        "startTime": 10,
        "duration": 0.25,
        "channel": 9
      },
      {
        "note": 42,
        "velocity": 60,
        "startTime": 10.5,
        "duration": 0.25,
        "channel": 9
      },
      {
        "note": 42,
        "velocity": 80,
        "startTime": 11,
        "duration": 0.25,
        "channel": 9
      },
      {
        "note": 42,
        "velocity": 60,
        "startTime": 11.5,
        "duration": 0.25,
        "channel": 9
      },
      {
        "note": 42,
        "velocity": 80,
        "startTime": 12,
        "duration": 0.25,
        "channel": 9
      },
      {
        "note": 42,
        "velocity": 60,
        "startTime": 12.5,
        "duration": 0.25,
        "channel": 9
      },
      {
        "note": 42,
        "velocity": 80,
        "startTime": 13,
        "duration": 0.25,
        "channel": 9
      },
      {
        "note": 42,
        "velocity": 60,
        "startTime": 13.5,
        "duration": 0.25,
        "channel": 9
      },
      {
        "note": 42,
        "velocity": 80,
        "startTime": 14,
        "duration": 0.25,
        "channel": 9
      },
      {
        "note": 42,
        "velocity": 60,
        "startTime": 14.5,
        "duration": 0.25,
        "channel": 9
      },
      {
        "note": 42,
        "velocity": 80,
        "startTime": 15,
        "duration": 0.25,
        "channel": 9
      },
      {
        "note": 42,
        "velocity": 60,
        "startTime": 15.5,
        "duration": 0.25,
        "channel": 9
      },
      {
        "note": 42,
        "velocity": 80,
        "startTime": 16,
        "duration": 0.25,
        "channel": 9
      },
      {
        "note": 42,
        "velocity": 60,
        "startTime": 16.5,
        "duration": 0.25,
        "channel": 9
      },
      {
        "note": 42,
        "velocity": 80,
        "startTime": 17,
        "duration": 0.25,
        "channel": 9
      },
      {
        "note": 42,
        "velocity": 60,
        "startTime": 17.5,
        "duration": 0.25,
        "channel": 9
      },
      {
        "note": 42,
        "velocity": 80,
        "startTime": 18,
        "duration": 0.25,
        "channel": 9
      },
      {
        "note": 42,
        "velocity": 60,
        "startTime": 18.5,
        "duration": 0.25,
        "channel": 9
      },
      {
        "note": 42,
        "velocity": 80,
        "startTime": 19,
        "duration": 0.25,
        "channel": 9
      },
      {
        "note": 42,
        "velocity": 60,
        "startTime": 19.5,
        "duration": 0.25,
        "channel": 9
      },
      {
        "note": 42,
        "velocity": 80,
        "startTime": 20,
        "duration": 0.25,
        "channel": 9
      },
      {
        "note": 42,
        "velocity": 60,
        "startTime": 20.5,
        "duration": 0.25,
        "channel": 9
      },
      {
        "note": 42,
        "velocity": 80,
        "startTime": 21,
        "duration": 0.25,
        "channel": 9
      },
      {
        "note": 42,
        "velocity": 60,
        "startTime": 21.5,
        "duration": 0.25,
        "channel": 9
      },
      {
        "note": 42,
        "velocity": 80,
        "startTime": 22,
        "duration": 0.25,
        "channel": 9
      },
      {
        "note": 42,
        "velocity": 60,
        "startTime": 22.5,
        "duration": 0.25,
        "channel": 9
      },
      {
        "note": 42,
        "velocity": 80,
        "startTime": 23,
        "duration": 0.25,
        "channel": 9
      },
      {
        "note": 42,
        "velocity": 60,
        "startTime": 23.5,
        "duration": 0.25,
        "channel": 9
      },
      {
        "note": 42,
        "velocity": 80,
        "startTime": 24,
        "duration": 0.25,
        "channel": 9
      },
      {
        "note": 42,
        "velocity": 60,
        "startTime": 24.5,
        "duration": 0.25,
        "channel": 9
      },
      {
        "note": 42,
        "velocity": 80,
        "startTime": 25,
        "duration": 0.25,
        "channel": 9
      },
      {
        "note": 42,
        "velocity": 60,
        "startTime": 25.5,
        "duration": 0.25,
        "channel": 9
      },
      {
        "note": 42,
        "velocity": 80,
        "startTime": 26,
        "duration": 0.25,
        "channel": 9
      },
      {
        "note": 42,
        "velocity": 60,
        "startTime": 26.5,
        "duration": 0.25,
        "channel": 9
      },
      {
        "note": 42,
        "velocity": 80,
        "startTime": 27,
        "duration": 0.25,
        "channel": 9
      },
      {
        "note": 42,
        "velocity": 60,
        "startTime": 27.5,
        "duration": 0.25,
        "channel": 9
      },
      {
        "note": 42,
        "velocity": 80,
        "startTime": 28,
        "duration": 0.25,
        "channel": 9
      },
      {
        "note": 42,
        "velocity": 60,
        "startTime": 28.5,
        "duration": 0.25,
        "channel": 9
      },
      {
        "note": 42,
        "velocity": 80,
        "startTime": 29,
        "duration": 0.25,
        "channel": 9
      },
      {
        "note": 42,
        "velocity": 60,
        "startTime": 29.5,
        "duration": 0.25,
        "channel": 9
      },
      {
        "note": 42,
        "velocity": 80,
        "startTime": 30,
        "duration": 0.25,
        "channel": 9
      },
      {
        "note": 42,
        "velocity": 60,
        "startTime": 30.5,
        "duration": 0.25,
        "channel": 9
      },
      {
        "note": 42,
        "velocity": 80,
        "startTime": 31,
        "duration": 0.25,
        "channel": 9
      },
      {
        "note": 42,
        "velocity": 60,
        "startTime": 31.5,
        "duration": 0.25,
        "channel": 9
      },
      {
        "note": 42,
        "velocity": 80,
        "startTime": 32,
        "duration": 0.25,
        "channel": 9
      },
      {
        "note": 42,
        "velocity": 60,
        "startTime": 32.5,
        "duration": 0.25,
        "channel": 9
      },
      {
        "note": 42,
        "velocity": 80,
        "startTime": 33,
        "duration": 0.25,
        "channel": 9
      },
      {
        "note": 42,
        "velocity": 60,
        "startTime": 33.5,
        "duration": 0.25,
        "channel": 9
      },
      {
        "note": 42,
        "velocity": 80,
        "startTime": 34,
        "duration": 0.25,
        "channel": 9
      },
      {
        "note": 42,
        "velocity": 60,
        "startTime": 34.5,
        "duration": 0.25,
        "channel": 9
      },
      {
        "note": 42,
        "velocity": 80,
        "startTime": 35,
        "duration": 0.25,
        "channel": 9
      },
      {
        "note": 42,
        "velocity": 60,
        "startTime": 35.5,
        "duration": 0.25,
        "channel": 9
      },
      {
        "note": 42,
        "velocity": 80,
        "startTime": 36,
        "duration": 0.25,
        "channel": 9
      },
      {
        "note": 42,
        "velocity": 60,
        "startTime": 36.5,
        "duration": 0.25,
        "channel": 9
      },
      {
        "note": 42,
        "velocity": 80,
        "startTime": 37,
        "duration": 0.25,
        "channel": 9
      },
      {
        "note": 42,
        "velocity": 60,
        "startTime": 37.5,
        "duration": 0.25,
        "channel": 9
      },
      {
        "note": 42,
        "velocity": 80,
        "startTime": 38,
        "duration": 0.25,
        "channel": 9
      },
      {
        "note": 42,
        "velocity": 60,
        "startTime": 38.5,
        "duration": 0.25,
        "channel": 9
      },
      {
        "note": 42,
        "velocity": 80,
        "startTime": 39,
        "duration": 0.25,
        "channel": 9
      },
      {
        "note": 42,
        "velocity": 60,
        "startTime": 39.5,
        "duration": 0.25,
        "channel": 9
      },
      {
        "note": 42,
        "velocity": 80,
        "startTime": 40,
        "duration": 0.25,
        "channel": 9
      },
      {
        "note": 42,
        "velocity": 60,
        "startTime": 40.5,
        "duration": 0.25,
        "channel": 9
      },
      {
        "note": 42,
        "velocity": 80,
        "startTime": 41,
        "duration": 0.25,
        "channel": 9
      },
      {
        "note": 42,
        "velocity": 60,
        "startTime": 41.5,
        "duration": 0.25,
        "channel": 9
      },
      {
        "note": 42,
        "velocity": 80,
        "startTime": 42,
        "duration": 0.25,
        "channel": 9
      },
      {
        "note": 42,
        "velocity": 60,
        "startTime": 42.5,
        "duration": 0.25,
        "channel": 9
      },
      {
        "note": 42,
        "velocity": 80,
        "startTime": 43,
        "duration": 0.25,
        "channel": 9
      },
      {
        "note": 42,
        "velocity": 60,
        "startTime": 43.5,
        "duration": 0.25,
        "channel": 9
      },
      {
        "note": 42,
        "velocity": 80,
        "startTime": 44,
        "duration": 0.25,
        "channel": 9
      },
      {
        "note": 42,
        "velocity": 60,
        "startTime": 44.5,
        "duration": 0.25,
        "channel": 9
      },
      {
        "note": 42,
        "velocity": 80,
        "startTime": 45,
        "duration": 0.25,
        "channel": 9
      },
      {
        "note": 42,
        "velocity": 60,
        "startTime": 45.5,
        "duration": 0.25,
        "channel": 9
      },
      {
        "note": 42,
        "velocity": 80,
        "startTime": 46,
        "duration": 0.25,
        "channel": 9
      },
      {
        "note": 42,
        "velocity": 60,
        "startTime": 46.5,
        "duration": 0.25,
        "channel": 9
      },
      {
        "note": 42,
        "velocity": 80,
        "startTime": 47,
        "duration": 0.25,
        "channel": 9
      },
      {
        "note": 42,
        "velocity": 60,
        "startTime": 47.5,
        "duration": 0.25,
        "channel": 9
      },
      {
        "note": 42,
        "velocity": 80,
        "startTime": 48,
        "duration": 0.25,
        "channel": 9
      },
      {
        "note": 42,
        "velocity": 60,
        "startTime": 48.5,
        "duration": 0.25,
        "channel": 9
      },
      {
        "note": 42,
        "velocity": 80,
        "startTime": 49,
        "duration": 0.25,
        "channel": 9
      },
      {
        "note": 42,
        "velocity": 60,
        "startTime": 49.5,
        "duration": 0.25,
        "channel": 9
      },
      {
        "note": 42,
        "velocity": 80,
        "startTime": 50,
        "duration": 0.25,
        "channel": 9
      },
      {
        "note": 42,
        "velocity": 60,
        "startTime": 50.5,
        "duration": 0.25,
        "channel": 9
      },
      {
        "note": 42,
        "velocity": 80,
        "startTime": 51,
        "duration": 0.25,
        "channel": 9
      },
      {
        "note": 42,
        "velocity": 60,
        "startTime": 51.5,
        "duration": 0.25,
        "channel": 9
      },
      {
        "note": 42,
        "velocity": 80,
        "startTime": 52,
        "duration": 0.25,
        "channel": 9
      },
      {
        "note": 42,
        "velocity": 60,
        "startTime": 52.5,
        "duration": 0.25,
        "channel": 9
      },
      {
        "note": 42,
        "velocity": 80,
        "startTime": 53,
        "duration": 0.25,
        "channel": 9
      },
      {
        "note": 42,
        "velocity": 60,
        "startTime": 53.5,
        "duration": 0.25,
        "channel": 9
      },
      {
        "note": 42,
        "velocity": 80,
        "startTime": 54,
        "duration": 0.25,
        "channel": 9
      },
      {
        "note": 42,
        "velocity": 60,
        "startTime": 54.5,
        "duration": 0.25,
        "channel": 9
      },
      {
        "note": 42,
        "velocity": 80,
        "startTime": 55,
        "duration": 0.25,
        "channel": 9
      },
      {
        "note": 42,
        "velocity": 60,
        "startTime": 55.5,
        "duration": 0.25,
        "channel": 9
      },
      {
        "note": 42,
        "velocity": 80,
        "startTime": 56,
        "duration": 0.25,
        "channel": 9
      },
      {
        "note": 42,
        "velocity": 60,
        "startTime": 56.5,
        "duration": 0.25,
        "channel": 9
      },
      {
        "note": 42,
        "velocity": 80,
        "startTime": 57,
        "duration": 0.25,
        "channel": 9
      },
      {
        "note": 42,
        "velocity": 60,
        "startTime": 57.5,
        "duration": 0.25,
        "channel": 9
      },
      {
        "note": 42,
        "velocity": 80,
        "startTime": 58,
        "duration": 0.25,
        "channel": 9
      },
      {
        "note": 42,
        "velocity": 60,
        "startTime": 58.5,
        "duration": 0.25,
        "channel": 9
      },
      {
        "note": 42,
        "velocity": 80,
        "startTime": 59,
        "duration": 0.25,
        "channel": 9
      },
      {
        "note": 42,
        "velocity": 60,
        "startTime": 59.5,
        "duration": 0.25,
        "channel": 9
      },
      {
        "note": 42,
        "velocity": 80,
        "startTime": 60,
        "duration": 0.25,
        "channel": 9
      },
      {
        "note": 42,
        "velocity": 60,
        "startTime": 60.5,
        "duration": 0.25,
        "channel": 9
      },
      {
        "note": 42,
        "velocity": 80,
        "startTime": 61,
        "duration": 0.25,
        "channel": 9
      },
      {
        "note": 42,
        "velocity": 60,
        "startTime": 61.5,
        "duration": 0.25,
        "channel": 9
      },
      {
        "note": 42,
        "velocity": 80,
        "startTime": 62,
        "duration": 0.25,
        "channel": 9
      },
      {
        "note": 42,
        "velocity": 60,
        "startTime": 62.5,
        "duration": 0.25,
        "channel": 9
      },
      {
        "note": 42,
        "velocity": 80,
        "startTime": 63,
        "duration": 0.25,
        "channel": 9
      },
      {
        "note": 42,
        "velocity": 60,
        "startTime": 63.5,
        "duration": 0.25,
        "channel": 9
      },
      {
        "note": 36,
        "velocity": 100,
        "startTime": 0,
        "duration": 1,
        "channel": 0
      },
      {
        "note": 36,
        "velocity": 100,
        "startTime": 2,
        "duration": 1,
        "channel": 0
      },
      {
        "note": 36,
        "velocity": 100,
        "startTime": 4,
        "duration": 1,
        "channel": 0
      },
      {
        "note": 36,
        "velocity": 100,
        "startTime": 6,
        "duration": 1,
        "channel": 0
      },
      {
        "note": 36,
        "velocity": 100,
        "startTime": 8,
        "duration": 1,
        "channel": 0
      },
      {
        "note": 36,
        "velocity": 100,
        "startTime": 10,
        "duration": 1,
        "channel": 0
      },
      {
        "note": 36,
        "velocity": 100,
        "startTime": 12,
        "duration": 1,
        "channel": 0
      },
      {
        "note": 36,
        "velocity": 100,
        "startTime": 14,
        "duration": 1,
        "channel": 0
      },
      {
        "note": 36,
        "velocity": 100,
        "startTime": 16,
        "duration": 1,
        "channel": 0
      },
      {
        "note": 36,
        "velocity": 100,
        "startTime": 18,
        "duration": 1,
        "channel": 0
      },
      {
        "note": 36,
        "velocity": 100,
        "startTime": 20,
        "duration": 1,
        "channel": 0
      },
      {
        "note": 36,
        "velocity": 100,
        "startTime": 22,
        "duration": 1,
        "channel": 0
      },
      {
        "note": 36,
        "velocity": 100,
        "startTime": 24,
        "duration": 1,
        "channel": 0
      },
      {
        "note": 36,
        "velocity": 100,
        "startTime": 26,
        "duration": 1,
        "channel": 0
      },
      {
        "note": 36,
        "velocity": 100,
        "startTime": 28,
        "duration": 1,
        "channel": 0
      },
      {
        "note": 36,
        "velocity": 100,
        "startTime": 30,
        "duration": 1,
        "channel": 0
      },
      {
        "note": 36,
        "velocity": 100,
        "startTime": 32,
        "duration": 1,
        "channel": 0
      },
      {
        "note": 36,
        "velocity": 100,
        "startTime": 34,
        "duration": 1,
        "channel": 0
      },
      {
        "note": 36,
        "velocity": 100,
        "startTime": 36,
        "duration": 1,
        "channel": 0
      },
      {
        "note": 36,
        "velocity": 100,
        "startTime": 38,
        "duration": 1,
        "channel": 0
      },
      {
        "note": 36,
        "velocity": 100,
        "startTime": 40,
        "duration": 1,
        "channel": 0
      },
      {
        "note": 36,
        "velocity": 100,
        "startTime": 42,
        "duration": 1,
        "channel": 0
      },
      {
        "note": 36,
        "velocity": 100,
        "startTime": 44,
        "duration": 1,
        "channel": 0
      },
      {
        "note": 36,
        "velocity": 100,
        "startTime": 46,
        "duration": 1,
        "channel": 0
      },
      {
        "note": 36,
        "velocity": 100,
        "startTime": 48,
        "duration": 1,
        "channel": 0
      },
      {
        "note": 36,
        "velocity": 100,
        "startTime": 50,
        "duration": 1,
        "channel": 0
      },
      {
        "note": 36,
        "velocity": 100,
        "startTime": 52,
        "duration": 1,
        "channel": 0
      },
      {
        "note": 36,
        "velocity": 100,
        "startTime": 54,
        "duration": 1,
        "channel": 0
      },
      {
        "note": 36,
        "velocity": 100,
        "startTime": 56,
        "duration": 1,
        "channel": 0
      },
      {
        "note": 36,
        "velocity": 100,
        "startTime": 58,
        "duration": 1,
        "channel": 0
      },
      {
        "note": 36,
        "velocity": 100,
        "startTime": 60,
        "duration": 1,
        "channel": 0
      },
      {
        "note": 36,
        "velocity": 100,
        "startTime": 62,
        "duration": 1,
        "channel": 0
      }
    ],
    "project_name": "otroa vex otra vez ",
    "project_path": "/Users/camilopineda/Desktop/SHINE DARK MIDI PARTY/Logic copy sep 2025/otroa vex otra vez /otroa vex otra vez .logicx",
    "extraction_date": "2025-09-05T23:38:35.389Z",
    "extraction_status": "generated_from_project_name"
  },
  {
    "id": "rock-pattern",
    "name": "Rock",
    "tempo": 120,
    "timeSignature": [
      4,
      4
    ],
    "length": 64,
    "loop": true,
    "notes": [
      {
        "note": 36,
        "velocity": 127,
        "startTime": 0,
        "duration": 0.5,
        "channel": 9
      },
      {
        "note": 36,
        "velocity": 100,
        "startTime": 2,
        "duration": 0.5,
        "channel": 9
      },
      {
        "note": 36,
        "velocity": 127,
        "startTime": 4,
        "duration": 0.5,
        "channel": 9
      },
      {
        "note": 36,
        "velocity": 100,
        "startTime": 6,
        "duration": 0.5,
        "channel": 9
      },
      {
        "note": 36,
        "velocity": 127,
        "startTime": 8,
        "duration": 0.5,
        "channel": 9
      },
      {
        "note": 36,
        "velocity": 100,
        "startTime": 10,
        "duration": 0.5,
        "channel": 9
      },
      {
        "note": 36,
        "velocity": 127,
        "startTime": 12,
        "duration": 0.5,
        "channel": 9
      },
      {
        "note": 36,
        "velocity": 100,
        "startTime": 14,
        "duration": 0.5,
        "channel": 9
      },
      {
        "note": 36,
        "velocity": 127,
        "startTime": 16,
        "duration": 0.5,
        "channel": 9
      },
      {
        "note": 36,
        "velocity": 100,
        "startTime": 18,
        "duration": 0.5,
        "channel": 9
      },
      {
        "note": 36,
        "velocity": 127,
        "startTime": 20,
        "duration": 0.5,
        "channel": 9
      },
      {
        "note": 36,
        "velocity": 100,
        "startTime": 22,
        "duration": 0.5,
        "channel": 9
      },
      {
        "note": 36,
        "velocity": 127,
        "startTime": 24,
        "duration": 0.5,
        "channel": 9
      },
      {
        "note": 36,
        "velocity": 100,
        "startTime": 26,
        "duration": 0.5,
        "channel": 9
      },
      {
        "note": 36,
        "velocity": 127,
        "startTime": 28,
        "duration": 0.5,
        "channel": 9
      },
      {
        "note": 36,
        "velocity": 100,
        "startTime": 30,
        "duration": 0.5,
        "channel": 9
      },
      {
        "note": 36,
        "velocity": 127,
        "startTime": 32,
        "duration": 0.5,
        "channel": 9
      },
      {
        "note": 36,
        "velocity": 100,
        "startTime": 34,
        "duration": 0.5,
        "channel": 9
      },
      {
        "note": 36,
        "velocity": 127,
        "startTime": 36,
        "duration": 0.5,
        "channel": 9
      },
      {
        "note": 36,
        "velocity": 100,
        "startTime": 38,
        "duration": 0.5,
        "channel": 9
      },
      {
        "note": 36,
        "velocity": 127,
        "startTime": 40,
        "duration": 0.5,
        "channel": 9
      },
      {
        "note": 36,
        "velocity": 100,
        "startTime": 42,
        "duration": 0.5,
        "channel": 9
      },
      {
        "note": 36,
        "velocity": 127,
        "startTime": 44,
        "duration": 0.5,
        "channel": 9
      },
      {
        "note": 36,
        "velocity": 100,
        "startTime": 46,
        "duration": 0.5,
        "channel": 9
      },
      {
        "note": 36,
        "velocity": 127,
        "startTime": 48,
        "duration": 0.5,
        "channel": 9
      },
      {
        "note": 36,
        "velocity": 100,
        "startTime": 50,
        "duration": 0.5,
        "channel": 9
      },
      {
        "note": 36,
        "velocity": 127,
        "startTime": 52,
        "duration": 0.5,
        "channel": 9
      },
      {
        "note": 36,
        "velocity": 100,
        "startTime": 54,
        "duration": 0.5,
        "channel": 9
      },
      {
        "note": 36,
        "velocity": 127,
        "startTime": 56,
        "duration": 0.5,
        "channel": 9
      },
      {
        "note": 36,
        "velocity": 100,
        "startTime": 58,
        "duration": 0.5,
        "channel": 9
      },
      {
        "note": 36,
        "velocity": 127,
        "startTime": 60,
        "duration": 0.5,
        "channel": 9
      },
      {
        "note": 36,
        "velocity": 100,
        "startTime": 62,
        "duration": 0.5,
        "channel": 9
      },
      {
        "note": 38,
        "velocity": 100,
        "startTime": 1,
        "duration": 0.5,
        "channel": 9
      },
      {
        "note": 38,
        "velocity": 100,
        "startTime": 3,
        "duration": 0.5,
        "channel": 9
      },
      {
        "note": 38,
        "velocity": 100,
        "startTime": 5,
        "duration": 0.5,
        "channel": 9
      },
      {
        "note": 38,
        "velocity": 100,
        "startTime": 7,
        "duration": 0.5,
        "channel": 9
      },
      {
        "note": 38,
        "velocity": 100,
        "startTime": 9,
        "duration": 0.5,
        "channel": 9
      },
      {
        "note": 38,
        "velocity": 100,
        "startTime": 11,
        "duration": 0.5,
        "channel": 9
      },
      {
        "note": 38,
        "velocity": 100,
        "startTime": 13,
        "duration": 0.5,
        "channel": 9
      },
      {
        "note": 38,
        "velocity": 100,
        "startTime": 15,
        "duration": 0.5,
        "channel": 9
      },
      {
        "note": 38,
        "velocity": 100,
        "startTime": 17,
        "duration": 0.5,
        "channel": 9
      },
      {
        "note": 38,
        "velocity": 100,
        "startTime": 19,
        "duration": 0.5,
        "channel": 9
      },
      {
        "note": 38,
        "velocity": 100,
        "startTime": 21,
        "duration": 0.5,
        "channel": 9
      },
      {
        "note": 38,
        "velocity": 100,
        "startTime": 23,
        "duration": 0.5,
        "channel": 9
      },
      {
        "note": 38,
        "velocity": 100,
        "startTime": 25,
        "duration": 0.5,
        "channel": 9
      },
      {
        "note": 38,
        "velocity": 100,
        "startTime": 27,
        "duration": 0.5,
        "channel": 9
      },
      {
        "note": 38,
        "velocity": 100,
        "startTime": 29,
        "duration": 0.5,
        "channel": 9
      },
      {
        "note": 38,
        "velocity": 100,
        "startTime": 31,
        "duration": 0.5,
        "channel": 9
      },
      {
        "note": 38,
        "velocity": 100,
        "startTime": 33,
        "duration": 0.5,
        "channel": 9
      },
      {
        "note": 38,
        "velocity": 100,
        "startTime": 35,
        "duration": 0.5,
        "channel": 9
      },
      {
        "note": 38,
        "velocity": 100,
        "startTime": 37,
        "duration": 0.5,
        "channel": 9
      },
      {
        "note": 38,
        "velocity": 100,
        "startTime": 39,
        "duration": 0.5,
        "channel": 9
      },
      {
        "note": 38,
        "velocity": 100,
        "startTime": 41,
        "duration": 0.5,
        "channel": 9
      },
      {
        "note": 38,
        "velocity": 100,
        "startTime": 43,
        "duration": 0.5,
        "channel": 9
      },
      {
        "note": 38,
        "velocity": 100,
        "startTime": 45,
        "duration": 0.5,
        "channel": 9
      },
      {
        "note": 38,
        "velocity": 100,
        "startTime": 47,
        "duration": 0.5,
        "channel": 9
      },
      {
        "note": 38,
        "velocity": 100,
        "startTime": 49,
        "duration": 0.5,
        "channel": 9
      },
      {
        "note": 38,
        "velocity": 100,
        "startTime": 51,
        "duration": 0.5,
        "channel": 9
      },
      {
        "note": 38,
        "velocity": 100,
        "startTime": 53,
        "duration": 0.5,
        "channel": 9
      },
      {
        "note": 38,
        "velocity": 100,
        "startTime": 55,
        "duration": 0.5,
        "channel": 9
      },
      {
        "note": 38,
        "velocity": 100,
        "startTime": 57,
        "duration": 0.5,
        "channel": 9
      },
      {
        "note": 38,
        "velocity": 100,
        "startTime": 59,
        "duration": 0.5,
        "channel": 9
      },
      {
        "note": 38,
        "velocity": 100,
        "startTime": 61,
        "duration": 0.5,
        "channel": 9
      },
      {
        "note": 38,
        "velocity": 100,
        "startTime": 63,
        "duration": 0.5,
        "channel": 9
      },
      {
        "note": 42,
        "velocity": 60,
        "startTime": 0.5,
        "duration": 0.25,
        "channel": 9
      },
      {
        "note": 42,
        "velocity": 40,
        "startTime": 1.5,
        "duration": 0.25,
        "channel": 9
      },
      {
        "note": 42,
        "velocity": 60,
        "startTime": 1.5,
        "duration": 0.25,
        "channel": 9
      },
      {
        "note": 42,
        "velocity": 40,
        "startTime": 2.5,
        "duration": 0.25,
        "channel": 9
      },
      {
        "note": 42,
        "velocity": 60,
        "startTime": 2.5,
        "duration": 0.25,
        "channel": 9
      },
      {
        "note": 42,
        "velocity": 40,
        "startTime": 3.5,
        "duration": 0.25,
        "channel": 9
      },
      {
        "note": 42,
        "velocity": 60,
        "startTime": 3.5,
        "duration": 0.25,
        "channel": 9
      },
      {
        "note": 42,
        "velocity": 40,
        "startTime": 4.5,
        "duration": 0.25,
        "channel": 9
      },
      {
        "note": 42,
        "velocity": 60,
        "startTime": 4.5,
        "duration": 0.25,
        "channel": 9
      },
      {
        "note": 42,
        "velocity": 40,
        "startTime": 5.5,
        "duration": 0.25,
        "channel": 9
      },
      {
        "note": 42,
        "velocity": 60,
        "startTime": 5.5,
        "duration": 0.25,
        "channel": 9
      },
      {
        "note": 42,
        "velocity": 40,
        "startTime": 6.5,
        "duration": 0.25,
        "channel": 9
      },
      {
        "note": 42,
        "velocity": 60,
        "startTime": 6.5,
        "duration": 0.25,
        "channel": 9
      },
      {
        "note": 42,
        "velocity": 40,
        "startTime": 7.5,
        "duration": 0.25,
        "channel": 9
      },
      {
        "note": 42,
        "velocity": 60,
        "startTime": 7.5,
        "duration": 0.25,
        "channel": 9
      },
      {
        "note": 42,
        "velocity": 40,
        "startTime": 8.5,
        "duration": 0.25,
        "channel": 9
      },
      {
        "note": 42,
        "velocity": 60,
        "startTime": 8.5,
        "duration": 0.25,
        "channel": 9
      },
      {
        "note": 42,
        "velocity": 40,
        "startTime": 9.5,
        "duration": 0.25,
        "channel": 9
      },
      {
        "note": 42,
        "velocity": 60,
        "startTime": 9.5,
        "duration": 0.25,
        "channel": 9
      },
      {
        "note": 42,
        "velocity": 40,
        "startTime": 10.5,
        "duration": 0.25,
        "channel": 9
      },
      {
        "note": 42,
        "velocity": 60,
        "startTime": 10.5,
        "duration": 0.25,
        "channel": 9
      },
      {
        "note": 42,
        "velocity": 40,
        "startTime": 11.5,
        "duration": 0.25,
        "channel": 9
      },
      {
        "note": 42,
        "velocity": 60,
        "startTime": 11.5,
        "duration": 0.25,
        "channel": 9
      },
      {
        "note": 42,
        "velocity": 40,
        "startTime": 12.5,
        "duration": 0.25,
        "channel": 9
      },
      {
        "note": 42,
        "velocity": 60,
        "startTime": 12.5,
        "duration": 0.25,
        "channel": 9
      },
      {
        "note": 42,
        "velocity": 40,
        "startTime": 13.5,
        "duration": 0.25,
        "channel": 9
      },
      {
        "note": 42,
        "velocity": 60,
        "startTime": 13.5,
        "duration": 0.25,
        "channel": 9
      },
      {
        "note": 42,
        "velocity": 40,
        "startTime": 14.5,
        "duration": 0.25,
        "channel": 9
      },
      {
        "note": 42,
        "velocity": 60,
        "startTime": 14.5,
        "duration": 0.25,
        "channel": 9
      },
      {
        "note": 42,
        "velocity": 40,
        "startTime": 15.5,
        "duration": 0.25,
        "channel": 9
      },
      {
        "note": 42,
        "velocity": 60,
        "startTime": 15.5,
        "duration": 0.25,
        "channel": 9
      },
      {
        "note": 42,
        "velocity": 40,
        "startTime": 16.5,
        "duration": 0.25,
        "channel": 9
      },
      {
        "note": 42,
        "velocity": 60,
        "startTime": 16.5,
        "duration": 0.25,
        "channel": 9
      },
      {
        "note": 42,
        "velocity": 40,
        "startTime": 17.5,
        "duration": 0.25,
        "channel": 9
      },
      {
        "note": 42,
        "velocity": 60,
        "startTime": 17.5,
        "duration": 0.25,
        "channel": 9
      },
      {
        "note": 42,
        "velocity": 40,
        "startTime": 18.5,
        "duration": 0.25,
        "channel": 9
      },
      {
        "note": 42,
        "velocity": 60,
        "startTime": 18.5,
        "duration": 0.25,
        "channel": 9
      },
      {
        "note": 42,
        "velocity": 40,
        "startTime": 19.5,
        "duration": 0.25,
        "channel": 9
      },
      {
        "note": 42,
        "velocity": 60,
        "startTime": 19.5,
        "duration": 0.25,
        "channel": 9
      },
      {
        "note": 42,
        "velocity": 40,
        "startTime": 20.5,
        "duration": 0.25,
        "channel": 9
      },
      {
        "note": 42,
        "velocity": 60,
        "startTime": 20.5,
        "duration": 0.25,
        "channel": 9
      },
      {
        "note": 42,
        "velocity": 40,
        "startTime": 21.5,
        "duration": 0.25,
        "channel": 9
      },
      {
        "note": 42,
        "velocity": 60,
        "startTime": 21.5,
        "duration": 0.25,
        "channel": 9
      },
      {
        "note": 42,
        "velocity": 40,
        "startTime": 22.5,
        "duration": 0.25,
        "channel": 9
      },
      {
        "note": 42,
        "velocity": 60,
        "startTime": 22.5,
        "duration": 0.25,
        "channel": 9
      },
      {
        "note": 42,
        "velocity": 40,
        "startTime": 23.5,
        "duration": 0.25,
        "channel": 9
      },
      {
        "note": 42,
        "velocity": 60,
        "startTime": 23.5,
        "duration": 0.25,
        "channel": 9
      },
      {
        "note": 42,
        "velocity": 40,
        "startTime": 24.5,
        "duration": 0.25,
        "channel": 9
      },
      {
        "note": 42,
        "velocity": 60,
        "startTime": 24.5,
        "duration": 0.25,
        "channel": 9
      },
      {
        "note": 42,
        "velocity": 40,
        "startTime": 25.5,
        "duration": 0.25,
        "channel": 9
      },
      {
        "note": 42,
        "velocity": 60,
        "startTime": 25.5,
        "duration": 0.25,
        "channel": 9
      },
      {
        "note": 42,
        "velocity": 40,
        "startTime": 26.5,
        "duration": 0.25,
        "channel": 9
      },
      {
        "note": 42,
        "velocity": 60,
        "startTime": 26.5,
        "duration": 0.25,
        "channel": 9
      },
      {
        "note": 42,
        "velocity": 40,
        "startTime": 27.5,
        "duration": 0.25,
        "channel": 9
      },
      {
        "note": 42,
        "velocity": 60,
        "startTime": 27.5,
        "duration": 0.25,
        "channel": 9
      },
      {
        "note": 42,
        "velocity": 40,
        "startTime": 28.5,
        "duration": 0.25,
        "channel": 9
      },
      {
        "note": 42,
        "velocity": 60,
        "startTime": 28.5,
        "duration": 0.25,
        "channel": 9
      },
      {
        "note": 42,
        "velocity": 40,
        "startTime": 29.5,
        "duration": 0.25,
        "channel": 9
      },
      {
        "note": 42,
        "velocity": 60,
        "startTime": 29.5,
        "duration": 0.25,
        "channel": 9
      },
      {
        "note": 42,
        "velocity": 40,
        "startTime": 30.5,
        "duration": 0.25,
        "channel": 9
      },
      {
        "note": 42,
        "velocity": 60,
        "startTime": 30.5,
        "duration": 0.25,
        "channel": 9
      },
      {
        "note": 42,
        "velocity": 40,
        "startTime": 31.5,
        "duration": 0.25,
        "channel": 9
      },
      {
        "note": 42,
        "velocity": 60,
        "startTime": 31.5,
        "duration": 0.25,
        "channel": 9
      },
      {
        "note": 42,
        "velocity": 40,
        "startTime": 32.5,
        "duration": 0.25,
        "channel": 9
      },
      {
        "note": 42,
        "velocity": 60,
        "startTime": 32.5,
        "duration": 0.25,
        "channel": 9
      },
      {
        "note": 42,
        "velocity": 40,
        "startTime": 33.5,
        "duration": 0.25,
        "channel": 9
      },
      {
        "note": 42,
        "velocity": 60,
        "startTime": 33.5,
        "duration": 0.25,
        "channel": 9
      },
      {
        "note": 42,
        "velocity": 40,
        "startTime": 34.5,
        "duration": 0.25,
        "channel": 9
      },
      {
        "note": 42,
        "velocity": 60,
        "startTime": 34.5,
        "duration": 0.25,
        "channel": 9
      },
      {
        "note": 42,
        "velocity": 40,
        "startTime": 35.5,
        "duration": 0.25,
        "channel": 9
      },
      {
        "note": 42,
        "velocity": 60,
        "startTime": 35.5,
        "duration": 0.25,
        "channel": 9
      },
      {
        "note": 42,
        "velocity": 40,
        "startTime": 36.5,
        "duration": 0.25,
        "channel": 9
      },
      {
        "note": 42,
        "velocity": 60,
        "startTime": 36.5,
        "duration": 0.25,
        "channel": 9
      },
      {
        "note": 42,
        "velocity": 40,
        "startTime": 37.5,
        "duration": 0.25,
        "channel": 9
      },
      {
        "note": 42,
        "velocity": 60,
        "startTime": 37.5,
        "duration": 0.25,
        "channel": 9
      },
      {
        "note": 42,
        "velocity": 40,
        "startTime": 38.5,
        "duration": 0.25,
        "channel": 9
      },
      {
        "note": 42,
        "velocity": 60,
        "startTime": 38.5,
        "duration": 0.25,
        "channel": 9
      },
      {
        "note": 42,
        "velocity": 40,
        "startTime": 39.5,
        "duration": 0.25,
        "channel": 9
      },
      {
        "note": 42,
        "velocity": 60,
        "startTime": 39.5,
        "duration": 0.25,
        "channel": 9
      },
      {
        "note": 42,
        "velocity": 40,
        "startTime": 40.5,
        "duration": 0.25,
        "channel": 9
      },
      {
        "note": 42,
        "velocity": 60,
        "startTime": 40.5,
        "duration": 0.25,
        "channel": 9
      },
      {
        "note": 42,
        "velocity": 40,
        "startTime": 41.5,
        "duration": 0.25,
        "channel": 9
      },
      {
        "note": 42,
        "velocity": 60,
        "startTime": 41.5,
        "duration": 0.25,
        "channel": 9
      },
      {
        "note": 42,
        "velocity": 40,
        "startTime": 42.5,
        "duration": 0.25,
        "channel": 9
      },
      {
        "note": 42,
        "velocity": 60,
        "startTime": 42.5,
        "duration": 0.25,
        "channel": 9
      },
      {
        "note": 42,
        "velocity": 40,
        "startTime": 43.5,
        "duration": 0.25,
        "channel": 9
      },
      {
        "note": 42,
        "velocity": 60,
        "startTime": 43.5,
        "duration": 0.25,
        "channel": 9
      },
      {
        "note": 42,
        "velocity": 40,
        "startTime": 44.5,
        "duration": 0.25,
        "channel": 9
      },
      {
        "note": 42,
        "velocity": 60,
        "startTime": 44.5,
        "duration": 0.25,
        "channel": 9
      },
      {
        "note": 42,
        "velocity": 40,
        "startTime": 45.5,
        "duration": 0.25,
        "channel": 9
      },
      {
        "note": 42,
        "velocity": 60,
        "startTime": 45.5,
        "duration": 0.25,
        "channel": 9
      },
      {
        "note": 42,
        "velocity": 40,
        "startTime": 46.5,
        "duration": 0.25,
        "channel": 9
      },
      {
        "note": 42,
        "velocity": 60,
        "startTime": 46.5,
        "duration": 0.25,
        "channel": 9
      },
      {
        "note": 42,
        "velocity": 40,
        "startTime": 47.5,
        "duration": 0.25,
        "channel": 9
      },
      {
        "note": 42,
        "velocity": 60,
        "startTime": 47.5,
        "duration": 0.25,
        "channel": 9
      },
      {
        "note": 42,
        "velocity": 40,
        "startTime": 48.5,
        "duration": 0.25,
        "channel": 9
      },
      {
        "note": 42,
        "velocity": 60,
        "startTime": 48.5,
        "duration": 0.25,
        "channel": 9
      },
      {
        "note": 42,
        "velocity": 40,
        "startTime": 49.5,
        "duration": 0.25,
        "channel": 9
      },
      {
        "note": 42,
        "velocity": 60,
        "startTime": 49.5,
        "duration": 0.25,
        "channel": 9
      },
      {
        "note": 42,
        "velocity": 40,
        "startTime": 50.5,
        "duration": 0.25,
        "channel": 9
      },
      {
        "note": 42,
        "velocity": 60,
        "startTime": 50.5,
        "duration": 0.25,
        "channel": 9
      },
      {
        "note": 42,
        "velocity": 40,
        "startTime": 51.5,
        "duration": 0.25,
        "channel": 9
      },
      {
        "note": 42,
        "velocity": 60,
        "startTime": 51.5,
        "duration": 0.25,
        "channel": 9
      },
      {
        "note": 42,
        "velocity": 40,
        "startTime": 52.5,
        "duration": 0.25,
        "channel": 9
      },
      {
        "note": 42,
        "velocity": 60,
        "startTime": 52.5,
        "duration": 0.25,
        "channel": 9
      },
      {
        "note": 42,
        "velocity": 40,
        "startTime": 53.5,
        "duration": 0.25,
        "channel": 9
      },
      {
        "note": 42,
        "velocity": 60,
        "startTime": 53.5,
        "duration": 0.25,
        "channel": 9
      },
      {
        "note": 42,
        "velocity": 40,
        "startTime": 54.5,
        "duration": 0.25,
        "channel": 9
      },
      {
        "note": 42,
        "velocity": 60,
        "startTime": 54.5,
        "duration": 0.25,
        "channel": 9
      },
      {
        "note": 42,
        "velocity": 40,
        "startTime": 55.5,
        "duration": 0.25,
        "channel": 9
      },
      {
        "note": 42,
        "velocity": 60,
        "startTime": 55.5,
        "duration": 0.25,
        "channel": 9
      },
      {
        "note": 42,
        "velocity": 40,
        "startTime": 56.5,
        "duration": 0.25,
        "channel": 9
      },
      {
        "note": 42,
        "velocity": 60,
        "startTime": 56.5,
        "duration": 0.25,
        "channel": 9
      },
      {
        "note": 42,
        "velocity": 40,
        "startTime": 57.5,
        "duration": 0.25,
        "channel": 9
      },
      {
        "note": 42,
        "velocity": 60,
        "startTime": 57.5,
        "duration": 0.25,
        "channel": 9
      },
      {
        "note": 42,
        "velocity": 40,
        "startTime": 58.5,
        "duration": 0.25,
        "channel": 9
      },
      {
        "note": 42,
        "velocity": 60,
        "startTime": 58.5,
        "duration": 0.25,
        "channel": 9
      },
      {
        "note": 42,
        "velocity": 40,
        "startTime": 59.5,
        "duration": 0.25,
        "channel": 9
      },
      {
        "note": 42,
        "velocity": 60,
        "startTime": 59.5,
        "duration": 0.25,
        "channel": 9
      },
      {
        "note": 42,
        "velocity": 40,
        "startTime": 60.5,
        "duration": 0.25,
        "channel": 9
      },
      {
        "note": 42,
        "velocity": 60,
        "startTime": 60.5,
        "duration": 0.25,
        "channel": 9
      },
      {
        "note": 42,
        "velocity": 40,
        "startTime": 61.5,
        "duration": 0.25,
        "channel": 9
      },
      {
        "note": 42,
        "velocity": 60,
        "startTime": 61.5,
        "duration": 0.25,
        "channel": 9
      },
      {
        "note": 42,
        "velocity": 40,
        "startTime": 62.5,
        "duration": 0.25,
        "channel": 9
      },
      {
        "note": 42,
        "velocity": 60,
        "startTime": 62.5,
        "duration": 0.25,
        "channel": 9
      },
      {
        "note": 42,
        "velocity": 40,
        "startTime": 63.5,
        "duration": 0.25,
        "channel": 9
      },
      {
        "note": 42,
        "velocity": 60,
        "startTime": 63.5,
        "duration": 0.25,
        "channel": 9
      },
      {
        "note": 42,
        "velocity": 40,
        "startTime": 64.5,
        "duration": 0.25,
        "channel": 9
      },
      {
        "note": 36,
        "velocity": 100,
        "startTime": 0,
        "duration": 1,
        "channel": 0
      },
      {
        "note": 36,
        "velocity": 100,
        "startTime": 2,
        "duration": 1,
        "channel": 0
      },
      {
        "note": 36,
        "velocity": 100,
        "startTime": 4,
        "duration": 1,
        "channel": 0
      },
      {
        "note": 36,
        "velocity": 100,
        "startTime": 6,
        "duration": 1,
        "channel": 0
      },
      {
        "note": 36,
        "velocity": 100,
        "startTime": 8,
        "duration": 1,
        "channel": 0
      },
      {
        "note": 36,
        "velocity": 100,
        "startTime": 10,
        "duration": 1,
        "channel": 0
      },
      {
        "note": 36,
        "velocity": 100,
        "startTime": 12,
        "duration": 1,
        "channel": 0
      },
      {
        "note": 36,
        "velocity": 100,
        "startTime": 14,
        "duration": 1,
        "channel": 0
      },
      {
        "note": 36,
        "velocity": 100,
        "startTime": 16,
        "duration": 1,
        "channel": 0
      },
      {
        "note": 36,
        "velocity": 100,
        "startTime": 18,
        "duration": 1,
        "channel": 0
      },
      {
        "note": 36,
        "velocity": 100,
        "startTime": 20,
        "duration": 1,
        "channel": 0
      },
      {
        "note": 36,
        "velocity": 100,
        "startTime": 22,
        "duration": 1,
        "channel": 0
      },
      {
        "note": 36,
        "velocity": 100,
        "startTime": 24,
        "duration": 1,
        "channel": 0
      },
      {
        "note": 36,
        "velocity": 100,
        "startTime": 26,
        "duration": 1,
        "channel": 0
      },
      {
        "note": 36,
        "velocity": 100,
        "startTime": 28,
        "duration": 1,
        "channel": 0
      },
      {
        "note": 36,
        "velocity": 100,
        "startTime": 30,
        "duration": 1,
        "channel": 0
      },
      {
        "note": 36,
        "velocity": 100,
        "startTime": 32,
        "duration": 1,
        "channel": 0
      },
      {
        "note": 36,
        "velocity": 100,
        "startTime": 34,
        "duration": 1,
        "channel": 0
      },
      {
        "note": 36,
        "velocity": 100,
        "startTime": 36,
        "duration": 1,
        "channel": 0
      },
      {
        "note": 36,
        "velocity": 100,
        "startTime": 38,
        "duration": 1,
        "channel": 0
      },
      {
        "note": 36,
        "velocity": 100,
        "startTime": 40,
        "duration": 1,
        "channel": 0
      },
      {
        "note": 36,
        "velocity": 100,
        "startTime": 42,
        "duration": 1,
        "channel": 0
      },
      {
        "note": 36,
        "velocity": 100,
        "startTime": 44,
        "duration": 1,
        "channel": 0
      },
      {
        "note": 36,
        "velocity": 100,
        "startTime": 46,
        "duration": 1,
        "channel": 0
      },
      {
        "note": 36,
        "velocity": 100,
        "startTime": 48,
        "duration": 1,
        "channel": 0
      },
      {
        "note": 36,
        "velocity": 100,
        "startTime": 50,
        "duration": 1,
        "channel": 0
      },
      {
        "note": 36,
        "velocity": 100,
        "startTime": 52,
        "duration": 1,
        "channel": 0
      },
      {
        "note": 36,
        "velocity": 100,
        "startTime": 54,
        "duration": 1,
        "channel": 0
      },
      {
        "note": 36,
        "velocity": 100,
        "startTime": 56,
        "duration": 1,
        "channel": 0
      },
      {
        "note": 36,
        "velocity": 100,
        "startTime": 58,
        "duration": 1,
        "channel": 0
      },
      {
        "note": 36,
        "velocity": 100,
        "startTime": 60,
        "duration": 1,
        "channel": 0
      },
      {
        "note": 36,
        "velocity": 100,
        "startTime": 62,
        "duration": 1,
        "channel": 0
      }
    ],
    "project_name": "rock and a hard palce",
    "project_path": "/Users/camilopineda/Desktop/SHINE DARK MIDI PARTY/Logic copy sep 2025/rock and a hard palce/rock and a hard palce.logicx",
    "extraction_date": "2025-09-05T23:38:35.389Z",
    "extraction_status": "generated_from_project_name"
  },
  {
    "id": "electronic-pattern",
    "name": "Electronic",
    "tempo": 120,
    "timeSignature": [
      4,
      4
    ],
    "length": 64,
    "loop": true,
    "notes": [
      {
        "note": 36,
        "velocity": 127,
        "startTime": 0,
        "duration": 0.5,
        "channel": 9
      },
      {
        "note": 36,
        "velocity": 100,
        "startTime": 2,
        "duration": 0.5,
        "channel": 9
      },
      {
        "note": 36,
        "velocity": 127,
        "startTime": 4,
        "duration": 0.5,
        "channel": 9
      },
      {
        "note": 36,
        "velocity": 100,
        "startTime": 6,
        "duration": 0.5,
        "channel": 9
      },
      {
        "note": 36,
        "velocity": 127,
        "startTime": 8,
        "duration": 0.5,
        "channel": 9
      },
      {
        "note": 36,
        "velocity": 100,
        "startTime": 10,
        "duration": 0.5,
        "channel": 9
      },
      {
        "note": 36,
        "velocity": 127,
        "startTime": 12,
        "duration": 0.5,
        "channel": 9
      },
      {
        "note": 36,
        "velocity": 100,
        "startTime": 14,
        "duration": 0.5,
        "channel": 9
      },
      {
        "note": 36,
        "velocity": 127,
        "startTime": 16,
        "duration": 0.5,
        "channel": 9
      },
      {
        "note": 36,
        "velocity": 100,
        "startTime": 18,
        "duration": 0.5,
        "channel": 9
      },
      {
        "note": 36,
        "velocity": 127,
        "startTime": 20,
        "duration": 0.5,
        "channel": 9
      },
      {
        "note": 36,
        "velocity": 100,
        "startTime": 22,
        "duration": 0.5,
        "channel": 9
      },
      {
        "note": 36,
        "velocity": 127,
        "startTime": 24,
        "duration": 0.5,
        "channel": 9
      },
      {
        "note": 36,
        "velocity": 100,
        "startTime": 26,
        "duration": 0.5,
        "channel": 9
      },
      {
        "note": 36,
        "velocity": 127,
        "startTime": 28,
        "duration": 0.5,
        "channel": 9
      },
      {
        "note": 36,
        "velocity": 100,
        "startTime": 30,
        "duration": 0.5,
        "channel": 9
      },
      {
        "note": 36,
        "velocity": 127,
        "startTime": 32,
        "duration": 0.5,
        "channel": 9
      },
      {
        "note": 36,
        "velocity": 100,
        "startTime": 34,
        "duration": 0.5,
        "channel": 9
      },
      {
        "note": 36,
        "velocity": 127,
        "startTime": 36,
        "duration": 0.5,
        "channel": 9
      },
      {
        "note": 36,
        "velocity": 100,
        "startTime": 38,
        "duration": 0.5,
        "channel": 9
      },
      {
        "note": 36,
        "velocity": 127,
        "startTime": 40,
        "duration": 0.5,
        "channel": 9
      },
      {
        "note": 36,
        "velocity": 100,
        "startTime": 42,
        "duration": 0.5,
        "channel": 9
      },
      {
        "note": 36,
        "velocity": 127,
        "startTime": 44,
        "duration": 0.5,
        "channel": 9
      },
      {
        "note": 36,
        "velocity": 100,
        "startTime": 46,
        "duration": 0.5,
        "channel": 9
      },
      {
        "note": 36,
        "velocity": 127,
        "startTime": 48,
        "duration": 0.5,
        "channel": 9
      },
      {
        "note": 36,
        "velocity": 100,
        "startTime": 50,
        "duration": 0.5,
        "channel": 9
      },
      {
        "note": 36,
        "velocity": 127,
        "startTime": 52,
        "duration": 0.5,
        "channel": 9
      },
      {
        "note": 36,
        "velocity": 100,
        "startTime": 54,
        "duration": 0.5,
        "channel": 9
      },
      {
        "note": 36,
        "velocity": 127,
        "startTime": 56,
        "duration": 0.5,
        "channel": 9
      },
      {
        "note": 36,
        "velocity": 100,
        "startTime": 58,
        "duration": 0.5,
        "channel": 9
      },
      {
        "note": 36,
        "velocity": 127,
        "startTime": 60,
        "duration": 0.5,
        "channel": 9
      },
      {
        "note": 36,
        "velocity": 100,
        "startTime": 62,
        "duration": 0.5,
        "channel": 9
      },
      {
        "note": 38,
        "velocity": 100,
        "startTime": 1,
        "duration": 0.5,
        "channel": 9
      },
      {
        "note": 38,
        "velocity": 100,
        "startTime": 3,
        "duration": 0.5,
        "channel": 9
      },
      {
        "note": 38,
        "velocity": 100,
        "startTime": 5,
        "duration": 0.5,
        "channel": 9
      },
      {
        "note": 38,
        "velocity": 100,
        "startTime": 7,
        "duration": 0.5,
        "channel": 9
      },
      {
        "note": 38,
        "velocity": 100,
        "startTime": 9,
        "duration": 0.5,
        "channel": 9
      },
      {
        "note": 38,
        "velocity": 100,
        "startTime": 11,
        "duration": 0.5,
        "channel": 9
      },
      {
        "note": 38,
        "velocity": 100,
        "startTime": 13,
        "duration": 0.5,
        "channel": 9
      },
      {
        "note": 38,
        "velocity": 100,
        "startTime": 15,
        "duration": 0.5,
        "channel": 9
      },
      {
        "note": 38,
        "velocity": 100,
        "startTime": 17,
        "duration": 0.5,
        "channel": 9
      },
      {
        "note": 38,
        "velocity": 100,
        "startTime": 19,
        "duration": 0.5,
        "channel": 9
      },
      {
        "note": 38,
        "velocity": 100,
        "startTime": 21,
        "duration": 0.5,
        "channel": 9
      },
      {
        "note": 38,
        "velocity": 100,
        "startTime": 23,
        "duration": 0.5,
        "channel": 9
      },
      {
        "note": 38,
        "velocity": 100,
        "startTime": 25,
        "duration": 0.5,
        "channel": 9
      },
      {
        "note": 38,
        "velocity": 100,
        "startTime": 27,
        "duration": 0.5,
        "channel": 9
      },
      {
        "note": 38,
        "velocity": 100,
        "startTime": 29,
        "duration": 0.5,
        "channel": 9
      },
      {
        "note": 38,
        "velocity": 100,
        "startTime": 31,
        "duration": 0.5,
        "channel": 9
      },
      {
        "note": 38,
        "velocity": 100,
        "startTime": 33,
        "duration": 0.5,
        "channel": 9
      },
      {
        "note": 38,
        "velocity": 100,
        "startTime": 35,
        "duration": 0.5,
        "channel": 9
      },
      {
        "note": 38,
        "velocity": 100,
        "startTime": 37,
        "duration": 0.5,
        "channel": 9
      },
      {
        "note": 38,
        "velocity": 100,
        "startTime": 39,
        "duration": 0.5,
        "channel": 9
      },
      {
        "note": 38,
        "velocity": 100,
        "startTime": 41,
        "duration": 0.5,
        "channel": 9
      },
      {
        "note": 38,
        "velocity": 100,
        "startTime": 43,
        "duration": 0.5,
        "channel": 9
      },
      {
        "note": 38,
        "velocity": 100,
        "startTime": 45,
        "duration": 0.5,
        "channel": 9
      },
      {
        "note": 38,
        "velocity": 100,
        "startTime": 47,
        "duration": 0.5,
        "channel": 9
      },
      {
        "note": 38,
        "velocity": 100,
        "startTime": 49,
        "duration": 0.5,
        "channel": 9
      },
      {
        "note": 38,
        "velocity": 100,
        "startTime": 51,
        "duration": 0.5,
        "channel": 9
      },
      {
        "note": 38,
        "velocity": 100,
        "startTime": 53,
        "duration": 0.5,
        "channel": 9
      },
      {
        "note": 38,
        "velocity": 100,
        "startTime": 55,
        "duration": 0.5,
        "channel": 9
      },
      {
        "note": 38,
        "velocity": 100,
        "startTime": 57,
        "duration": 0.5,
        "channel": 9
      },
      {
        "note": 38,
        "velocity": 100,
        "startTime": 59,
        "duration": 0.5,
        "channel": 9
      },
      {
        "note": 38,
        "velocity": 100,
        "startTime": 61,
        "duration": 0.5,
        "channel": 9
      },
      {
        "note": 38,
        "velocity": 100,
        "startTime": 63,
        "duration": 0.5,
        "channel": 9
      },
      {
        "note": 42,
        "velocity": 80,
        "startTime": 0,
        "duration": 0.25,
        "channel": 9
      },
      {
        "note": 42,
        "velocity": 60,
        "startTime": 0.5,
        "duration": 0.25,
        "channel": 9
      },
      {
        "note": 42,
        "velocity": 80,
        "startTime": 1,
        "duration": 0.25,
        "channel": 9
      },
      {
        "note": 42,
        "velocity": 60,
        "startTime": 1.5,
        "duration": 0.25,
        "channel": 9
      },
      {
        "note": 42,
        "velocity": 80,
        "startTime": 2,
        "duration": 0.25,
        "channel": 9
      },
      {
        "note": 42,
        "velocity": 60,
        "startTime": 2.5,
        "duration": 0.25,
        "channel": 9
      },
      {
        "note": 42,
        "velocity": 80,
        "startTime": 3,
        "duration": 0.25,
        "channel": 9
      },
      {
        "note": 42,
        "velocity": 60,
        "startTime": 3.5,
        "duration": 0.25,
        "channel": 9
      },
      {
        "note": 42,
        "velocity": 80,
        "startTime": 4,
        "duration": 0.25,
        "channel": 9
      },
      {
        "note": 42,
        "velocity": 60,
        "startTime": 4.5,
        "duration": 0.25,
        "channel": 9
      },
      {
        "note": 42,
        "velocity": 80,
        "startTime": 5,
        "duration": 0.25,
        "channel": 9
      },
      {
        "note": 42,
        "velocity": 60,
        "startTime": 5.5,
        "duration": 0.25,
        "channel": 9
      },
      {
        "note": 42,
        "velocity": 80,
        "startTime": 6,
        "duration": 0.25,
        "channel": 9
      },
      {
        "note": 42,
        "velocity": 60,
        "startTime": 6.5,
        "duration": 0.25,
        "channel": 9
      },
      {
        "note": 42,
        "velocity": 80,
        "startTime": 7,
        "duration": 0.25,
        "channel": 9
      },
      {
        "note": 42,
        "velocity": 60,
        "startTime": 7.5,
        "duration": 0.25,
        "channel": 9
      },
      {
        "note": 42,
        "velocity": 80,
        "startTime": 8,
        "duration": 0.25,
        "channel": 9
      },
      {
        "note": 42,
        "velocity": 60,
        "startTime": 8.5,
        "duration": 0.25,
        "channel": 9
      },
      {
        "note": 42,
        "velocity": 80,
        "startTime": 9,
        "duration": 0.25,
        "channel": 9
      },
      {
        "note": 42,
        "velocity": 60,
        "startTime": 9.5,
        "duration": 0.25,
        "channel": 9
      },
      {
        "note": 42,
        "velocity": 80,
        "startTime": 10,
        "duration": 0.25,
        "channel": 9
      },
      {
        "note": 42,
        "velocity": 60,
        "startTime": 10.5,
        "duration": 0.25,
        "channel": 9
      },
      {
        "note": 42,
        "velocity": 80,
        "startTime": 11,
        "duration": 0.25,
        "channel": 9
      },
      {
        "note": 42,
        "velocity": 60,
        "startTime": 11.5,
        "duration": 0.25,
        "channel": 9
      },
      {
        "note": 42,
        "velocity": 80,
        "startTime": 12,
        "duration": 0.25,
        "channel": 9
      },
      {
        "note": 42,
        "velocity": 60,
        "startTime": 12.5,
        "duration": 0.25,
        "channel": 9
      },
      {
        "note": 42,
        "velocity": 80,
        "startTime": 13,
        "duration": 0.25,
        "channel": 9
      },
      {
        "note": 42,
        "velocity": 60,
        "startTime": 13.5,
        "duration": 0.25,
        "channel": 9
      },
      {
        "note": 42,
        "velocity": 80,
        "startTime": 14,
        "duration": 0.25,
        "channel": 9
      },
      {
        "note": 42,
        "velocity": 60,
        "startTime": 14.5,
        "duration": 0.25,
        "channel": 9
      },
      {
        "note": 42,
        "velocity": 80,
        "startTime": 15,
        "duration": 0.25,
        "channel": 9
      },
      {
        "note": 42,
        "velocity": 60,
        "startTime": 15.5,
        "duration": 0.25,
        "channel": 9
      },
      {
        "note": 42,
        "velocity": 80,
        "startTime": 16,
        "duration": 0.25,
        "channel": 9
      },
      {
        "note": 42,
        "velocity": 60,
        "startTime": 16.5,
        "duration": 0.25,
        "channel": 9
      },
      {
        "note": 42,
        "velocity": 80,
        "startTime": 17,
        "duration": 0.25,
        "channel": 9
      },
      {
        "note": 42,
        "velocity": 60,
        "startTime": 17.5,
        "duration": 0.25,
        "channel": 9
      },
      {
        "note": 42,
        "velocity": 80,
        "startTime": 18,
        "duration": 0.25,
        "channel": 9
      },
      {
        "note": 42,
        "velocity": 60,
        "startTime": 18.5,
        "duration": 0.25,
        "channel": 9
      },
      {
        "note": 42,
        "velocity": 80,
        "startTime": 19,
        "duration": 0.25,
        "channel": 9
      },
      {
        "note": 42,
        "velocity": 60,
        "startTime": 19.5,
        "duration": 0.25,
        "channel": 9
      },
      {
        "note": 42,
        "velocity": 80,
        "startTime": 20,
        "duration": 0.25,
        "channel": 9
      },
      {
        "note": 42,
        "velocity": 60,
        "startTime": 20.5,
        "duration": 0.25,
        "channel": 9
      },
      {
        "note": 42,
        "velocity": 80,
        "startTime": 21,
        "duration": 0.25,
        "channel": 9
      },
      {
        "note": 42,
        "velocity": 60,
        "startTime": 21.5,
        "duration": 0.25,
        "channel": 9
      },
      {
        "note": 42,
        "velocity": 80,
        "startTime": 22,
        "duration": 0.25,
        "channel": 9
      },
      {
        "note": 42,
        "velocity": 60,
        "startTime": 22.5,
        "duration": 0.25,
        "channel": 9
      },
      {
        "note": 42,
        "velocity": 80,
        "startTime": 23,
        "duration": 0.25,
        "channel": 9
      },
      {
        "note": 42,
        "velocity": 60,
        "startTime": 23.5,
        "duration": 0.25,
        "channel": 9
      },
      {
        "note": 42,
        "velocity": 80,
        "startTime": 24,
        "duration": 0.25,
        "channel": 9
      },
      {
        "note": 42,
        "velocity": 60,
        "startTime": 24.5,
        "duration": 0.25,
        "channel": 9
      },
      {
        "note": 42,
        "velocity": 80,
        "startTime": 25,
        "duration": 0.25,
        "channel": 9
      },
      {
        "note": 42,
        "velocity": 60,
        "startTime": 25.5,
        "duration": 0.25,
        "channel": 9
      },
      {
        "note": 42,
        "velocity": 80,
        "startTime": 26,
        "duration": 0.25,
        "channel": 9
      },
      {
        "note": 42,
        "velocity": 60,
        "startTime": 26.5,
        "duration": 0.25,
        "channel": 9
      },
      {
        "note": 42,
        "velocity": 80,
        "startTime": 27,
        "duration": 0.25,
        "channel": 9
      },
      {
        "note": 42,
        "velocity": 60,
        "startTime": 27.5,
        "duration": 0.25,
        "channel": 9
      },
      {
        "note": 42,
        "velocity": 80,
        "startTime": 28,
        "duration": 0.25,
        "channel": 9
      },
      {
        "note": 42,
        "velocity": 60,
        "startTime": 28.5,
        "duration": 0.25,
        "channel": 9
      },
      {
        "note": 42,
        "velocity": 80,
        "startTime": 29,
        "duration": 0.25,
        "channel": 9
      },
      {
        "note": 42,
        "velocity": 60,
        "startTime": 29.5,
        "duration": 0.25,
        "channel": 9
      },
      {
        "note": 42,
        "velocity": 80,
        "startTime": 30,
        "duration": 0.25,
        "channel": 9
      },
      {
        "note": 42,
        "velocity": 60,
        "startTime": 30.5,
        "duration": 0.25,
        "channel": 9
      },
      {
        "note": 42,
        "velocity": 80,
        "startTime": 31,
        "duration": 0.25,
        "channel": 9
      },
      {
        "note": 42,
        "velocity": 60,
        "startTime": 31.5,
        "duration": 0.25,
        "channel": 9
      },
      {
        "note": 42,
        "velocity": 80,
        "startTime": 32,
        "duration": 0.25,
        "channel": 9
      },
      {
        "note": 42,
        "velocity": 60,
        "startTime": 32.5,
        "duration": 0.25,
        "channel": 9
      },
      {
        "note": 42,
        "velocity": 80,
        "startTime": 33,
        "duration": 0.25,
        "channel": 9
      },
      {
        "note": 42,
        "velocity": 60,
        "startTime": 33.5,
        "duration": 0.25,
        "channel": 9
      },
      {
        "note": 42,
        "velocity": 80,
        "startTime": 34,
        "duration": 0.25,
        "channel": 9
      },
      {
        "note": 42,
        "velocity": 60,
        "startTime": 34.5,
        "duration": 0.25,
        "channel": 9
      },
      {
        "note": 42,
        "velocity": 80,
        "startTime": 35,
        "duration": 0.25,
        "channel": 9
      },
      {
        "note": 42,
        "velocity": 60,
        "startTime": 35.5,
        "duration": 0.25,
        "channel": 9
      },
      {
        "note": 42,
        "velocity": 80,
        "startTime": 36,
        "duration": 0.25,
        "channel": 9
      },
      {
        "note": 42,
        "velocity": 60,
        "startTime": 36.5,
        "duration": 0.25,
        "channel": 9
      },
      {
        "note": 42,
        "velocity": 80,
        "startTime": 37,
        "duration": 0.25,
        "channel": 9
      },
      {
        "note": 42,
        "velocity": 60,
        "startTime": 37.5,
        "duration": 0.25,
        "channel": 9
      },
      {
        "note": 42,
        "velocity": 80,
        "startTime": 38,
        "duration": 0.25,
        "channel": 9
      },
      {
        "note": 42,
        "velocity": 60,
        "startTime": 38.5,
        "duration": 0.25,
        "channel": 9
      },
      {
        "note": 42,
        "velocity": 80,
        "startTime": 39,
        "duration": 0.25,
        "channel": 9
      },
      {
        "note": 42,
        "velocity": 60,
        "startTime": 39.5,
        "duration": 0.25,
        "channel": 9
      },
      {
        "note": 42,
        "velocity": 80,
        "startTime": 40,
        "duration": 0.25,
        "channel": 9
      },
      {
        "note": 42,
        "velocity": 60,
        "startTime": 40.5,
        "duration": 0.25,
        "channel": 9
      },
      {
        "note": 42,
        "velocity": 80,
        "startTime": 41,
        "duration": 0.25,
        "channel": 9
      },
      {
        "note": 42,
        "velocity": 60,
        "startTime": 41.5,
        "duration": 0.25,
        "channel": 9
      },
      {
        "note": 42,
        "velocity": 80,
        "startTime": 42,
        "duration": 0.25,
        "channel": 9
      },
      {
        "note": 42,
        "velocity": 60,
        "startTime": 42.5,
        "duration": 0.25,
        "channel": 9
      },
      {
        "note": 42,
        "velocity": 80,
        "startTime": 43,
        "duration": 0.25,
        "channel": 9
      },
      {
        "note": 42,
        "velocity": 60,
        "startTime": 43.5,
        "duration": 0.25,
        "channel": 9
      },
      {
        "note": 42,
        "velocity": 80,
        "startTime": 44,
        "duration": 0.25,
        "channel": 9
      },
      {
        "note": 42,
        "velocity": 60,
        "startTime": 44.5,
        "duration": 0.25,
        "channel": 9
      },
      {
        "note": 42,
        "velocity": 80,
        "startTime": 45,
        "duration": 0.25,
        "channel": 9
      },
      {
        "note": 42,
        "velocity": 60,
        "startTime": 45.5,
        "duration": 0.25,
        "channel": 9
      },
      {
        "note": 42,
        "velocity": 80,
        "startTime": 46,
        "duration": 0.25,
        "channel": 9
      },
      {
        "note": 42,
        "velocity": 60,
        "startTime": 46.5,
        "duration": 0.25,
        "channel": 9
      },
      {
        "note": 42,
        "velocity": 80,
        "startTime": 47,
        "duration": 0.25,
        "channel": 9
      },
      {
        "note": 42,
        "velocity": 60,
        "startTime": 47.5,
        "duration": 0.25,
        "channel": 9
      },
      {
        "note": 42,
        "velocity": 80,
        "startTime": 48,
        "duration": 0.25,
        "channel": 9
      },
      {
        "note": 42,
        "velocity": 60,
        "startTime": 48.5,
        "duration": 0.25,
        "channel": 9
      },
      {
        "note": 42,
        "velocity": 80,
        "startTime": 49,
        "duration": 0.25,
        "channel": 9
      },
      {
        "note": 42,
        "velocity": 60,
        "startTime": 49.5,
        "duration": 0.25,
        "channel": 9
      },
      {
        "note": 42,
        "velocity": 80,
        "startTime": 50,
        "duration": 0.25,
        "channel": 9
      },
      {
        "note": 42,
        "velocity": 60,
        "startTime": 50.5,
        "duration": 0.25,
        "channel": 9
      },
      {
        "note": 42,
        "velocity": 80,
        "startTime": 51,
        "duration": 0.25,
        "channel": 9
      },
      {
        "note": 42,
        "velocity": 60,
        "startTime": 51.5,
        "duration": 0.25,
        "channel": 9
      },
      {
        "note": 42,
        "velocity": 80,
        "startTime": 52,
        "duration": 0.25,
        "channel": 9
      },
      {
        "note": 42,
        "velocity": 60,
        "startTime": 52.5,
        "duration": 0.25,
        "channel": 9
      },
      {
        "note": 42,
        "velocity": 80,
        "startTime": 53,
        "duration": 0.25,
        "channel": 9
      },
      {
        "note": 42,
        "velocity": 60,
        "startTime": 53.5,
        "duration": 0.25,
        "channel": 9
      },
      {
        "note": 42,
        "velocity": 80,
        "startTime": 54,
        "duration": 0.25,
        "channel": 9
      },
      {
        "note": 42,
        "velocity": 60,
        "startTime": 54.5,
        "duration": 0.25,
        "channel": 9
      },
      {
        "note": 42,
        "velocity": 80,
        "startTime": 55,
        "duration": 0.25,
        "channel": 9
      },
      {
        "note": 42,
        "velocity": 60,
        "startTime": 55.5,
        "duration": 0.25,
        "channel": 9
      },
      {
        "note": 42,
        "velocity": 80,
        "startTime": 56,
        "duration": 0.25,
        "channel": 9
      },
      {
        "note": 42,
        "velocity": 60,
        "startTime": 56.5,
        "duration": 0.25,
        "channel": 9
      },
      {
        "note": 42,
        "velocity": 80,
        "startTime": 57,
        "duration": 0.25,
        "channel": 9
      },
      {
        "note": 42,
        "velocity": 60,
        "startTime": 57.5,
        "duration": 0.25,
        "channel": 9
      },
      {
        "note": 42,
        "velocity": 80,
        "startTime": 58,
        "duration": 0.25,
        "channel": 9
      },
      {
        "note": 42,
        "velocity": 60,
        "startTime": 58.5,
        "duration": 0.25,
        "channel": 9
      },
      {
        "note": 42,
        "velocity": 80,
        "startTime": 59,
        "duration": 0.25,
        "channel": 9
      },
      {
        "note": 42,
        "velocity": 60,
        "startTime": 59.5,
        "duration": 0.25,
        "channel": 9
      },
      {
        "note": 42,
        "velocity": 80,
        "startTime": 60,
        "duration": 0.25,
        "channel": 9
      },
      {
        "note": 42,
        "velocity": 60,
        "startTime": 60.5,
        "duration": 0.25,
        "channel": 9
      },
      {
        "note": 42,
        "velocity": 80,
        "startTime": 61,
        "duration": 0.25,
        "channel": 9
      },
      {
        "note": 42,
        "velocity": 60,
        "startTime": 61.5,
        "duration": 0.25,
        "channel": 9
      },
      {
        "note": 42,
        "velocity": 80,
        "startTime": 62,
        "duration": 0.25,
        "channel": 9
      },
      {
        "note": 42,
        "velocity": 60,
        "startTime": 62.5,
        "duration": 0.25,
        "channel": 9
      },
      {
        "note": 42,
        "velocity": 80,
        "startTime": 63,
        "duration": 0.25,
        "channel": 9
      },
      {
        "note": 42,
        "velocity": 60,
        "startTime": 63.5,
        "duration": 0.25,
        "channel": 9
      },
      {
        "note": 36,
        "velocity": 100,
        "startTime": 0,
        "duration": 1,
        "channel": 0
      },
      {
        "note": 36,
        "velocity": 100,
        "startTime": 2,
        "duration": 1,
        "channel": 0
      },
      {
        "note": 36,
        "velocity": 100,
        "startTime": 4,
        "duration": 1,
        "channel": 0
      },
      {
        "note": 36,
        "velocity": 100,
        "startTime": 6,
        "duration": 1,
        "channel": 0
      },
      {
        "note": 36,
        "velocity": 100,
        "startTime": 8,
        "duration": 1,
        "channel": 0
      },
      {
        "note": 36,
        "velocity": 100,
        "startTime": 10,
        "duration": 1,
        "channel": 0
      },
      {
        "note": 36,
        "velocity": 100,
        "startTime": 12,
        "duration": 1,
        "channel": 0
      },
      {
        "note": 36,
        "velocity": 100,
        "startTime": 14,
        "duration": 1,
        "channel": 0
      },
      {
        "note": 36,
        "velocity": 100,
        "startTime": 16,
        "duration": 1,
        "channel": 0
      },
      {
        "note": 36,
        "velocity": 100,
        "startTime": 18,
        "duration": 1,
        "channel": 0
      },
      {
        "note": 36,
        "velocity": 100,
        "startTime": 20,
        "duration": 1,
        "channel": 0
      },
      {
        "note": 36,
        "velocity": 100,
        "startTime": 22,
        "duration": 1,
        "channel": 0
      },
      {
        "note": 36,
        "velocity": 100,
        "startTime": 24,
        "duration": 1,
        "channel": 0
      },
      {
        "note": 36,
        "velocity": 100,
        "startTime": 26,
        "duration": 1,
        "channel": 0
      },
      {
        "note": 36,
        "velocity": 100,
        "startTime": 28,
        "duration": 1,
        "channel": 0
      },
      {
        "note": 36,
        "velocity": 100,
        "startTime": 30,
        "duration": 1,
        "channel": 0
      },
      {
        "note": 36,
        "velocity": 100,
        "startTime": 32,
        "duration": 1,
        "channel": 0
      },
      {
        "note": 36,
        "velocity": 100,
        "startTime": 34,
        "duration": 1,
        "channel": 0
      },
      {
        "note": 36,
        "velocity": 100,
        "startTime": 36,
        "duration": 1,
        "channel": 0
      },
      {
        "note": 36,
        "velocity": 100,
        "startTime": 38,
        "duration": 1,
        "channel": 0
      },
      {
        "note": 36,
        "velocity": 100,
        "startTime": 40,
        "duration": 1,
        "channel": 0
      },
      {
        "note": 36,
        "velocity": 100,
        "startTime": 42,
        "duration": 1,
        "channel": 0
      },
      {
        "note": 36,
        "velocity": 100,
        "startTime": 44,
        "duration": 1,
        "channel": 0
      },
      {
        "note": 36,
        "velocity": 100,
        "startTime": 46,
        "duration": 1,
        "channel": 0
      },
      {
        "note": 36,
        "velocity": 100,
        "startTime": 48,
        "duration": 1,
        "channel": 0
      },
      {
        "note": 36,
        "velocity": 100,
        "startTime": 50,
        "duration": 1,
        "channel": 0
      },
      {
        "note": 36,
        "velocity": 100,
        "startTime": 52,
        "duration": 1,
        "channel": 0
      },
      {
        "note": 36,
        "velocity": 100,
        "startTime": 54,
        "duration": 1,
        "channel": 0
      },
      {
        "note": 36,
        "velocity": 100,
        "startTime": 56,
        "duration": 1,
        "channel": 0
      },
      {
        "note": 36,
        "velocity": 100,
        "startTime": 58,
        "duration": 1,
        "channel": 0
      },
      {
        "note": 36,
        "velocity": 100,
        "startTime": 60,
        "duration": 1,
        "channel": 0
      },
      {
        "note": 36,
        "velocity": 100,
        "startTime": 62,
        "duration": 1,
        "channel": 0
      }
    ],
    "project_name": "te$t 750 bpm",
    "project_path": "/Users/camilopineda/Desktop/SHINE DARK MIDI PARTY/Logic copy sep 2025/te$t 750 bpm/te$t 750 bpm.logicx",
    "extraction_date": "2025-09-05T23:38:35.389Z",
    "extraction_status": "generated_from_project_name"
  },
  {
    "id": "electronic-pattern",
    "name": "Electronic",
    "tempo": 120,
    "timeSignature": [
      4,
      4
    ],
    "length": 64,
    "loop": true,
    "notes": [
      {
        "note": 36,
        "velocity": 127,
        "startTime": 0,
        "duration": 0.5,
        "channel": 9
      },
      {
        "note": 36,
        "velocity": 100,
        "startTime": 2,
        "duration": 0.5,
        "channel": 9
      },
      {
        "note": 36,
        "velocity": 127,
        "startTime": 4,
        "duration": 0.5,
        "channel": 9
      },
      {
        "note": 36,
        "velocity": 100,
        "startTime": 6,
        "duration": 0.5,
        "channel": 9
      },
      {
        "note": 36,
        "velocity": 127,
        "startTime": 8,
        "duration": 0.5,
        "channel": 9
      },
      {
        "note": 36,
        "velocity": 100,
        "startTime": 10,
        "duration": 0.5,
        "channel": 9
      },
      {
        "note": 36,
        "velocity": 127,
        "startTime": 12,
        "duration": 0.5,
        "channel": 9
      },
      {
        "note": 36,
        "velocity": 100,
        "startTime": 14,
        "duration": 0.5,
        "channel": 9
      },
      {
        "note": 36,
        "velocity": 127,
        "startTime": 16,
        "duration": 0.5,
        "channel": 9
      },
      {
        "note": 36,
        "velocity": 100,
        "startTime": 18,
        "duration": 0.5,
        "channel": 9
      },
      {
        "note": 36,
        "velocity": 127,
        "startTime": 20,
        "duration": 0.5,
        "channel": 9
      },
      {
        "note": 36,
        "velocity": 100,
        "startTime": 22,
        "duration": 0.5,
        "channel": 9
      },
      {
        "note": 36,
        "velocity": 127,
        "startTime": 24,
        "duration": 0.5,
        "channel": 9
      },
      {
        "note": 36,
        "velocity": 100,
        "startTime": 26,
        "duration": 0.5,
        "channel": 9
      },
      {
        "note": 36,
        "velocity": 127,
        "startTime": 28,
        "duration": 0.5,
        "channel": 9
      },
      {
        "note": 36,
        "velocity": 100,
        "startTime": 30,
        "duration": 0.5,
        "channel": 9
      },
      {
        "note": 36,
        "velocity": 127,
        "startTime": 32,
        "duration": 0.5,
        "channel": 9
      },
      {
        "note": 36,
        "velocity": 100,
        "startTime": 34,
        "duration": 0.5,
        "channel": 9
      },
      {
        "note": 36,
        "velocity": 127,
        "startTime": 36,
        "duration": 0.5,
        "channel": 9
      },
      {
        "note": 36,
        "velocity": 100,
        "startTime": 38,
        "duration": 0.5,
        "channel": 9
      },
      {
        "note": 36,
        "velocity": 127,
        "startTime": 40,
        "duration": 0.5,
        "channel": 9
      },
      {
        "note": 36,
        "velocity": 100,
        "startTime": 42,
        "duration": 0.5,
        "channel": 9
      },
      {
        "note": 36,
        "velocity": 127,
        "startTime": 44,
        "duration": 0.5,
        "channel": 9
      },
      {
        "note": 36,
        "velocity": 100,
        "startTime": 46,
        "duration": 0.5,
        "channel": 9
      },
      {
        "note": 36,
        "velocity": 127,
        "startTime": 48,
        "duration": 0.5,
        "channel": 9
      },
      {
        "note": 36,
        "velocity": 100,
        "startTime": 50,
        "duration": 0.5,
        "channel": 9
      },
      {
        "note": 36,
        "velocity": 127,
        "startTime": 52,
        "duration": 0.5,
        "channel": 9
      },
      {
        "note": 36,
        "velocity": 100,
        "startTime": 54,
        "duration": 0.5,
        "channel": 9
      },
      {
        "note": 36,
        "velocity": 127,
        "startTime": 56,
        "duration": 0.5,
        "channel": 9
      },
      {
        "note": 36,
        "velocity": 100,
        "startTime": 58,
        "duration": 0.5,
        "channel": 9
      },
      {
        "note": 36,
        "velocity": 127,
        "startTime": 60,
        "duration": 0.5,
        "channel": 9
      },
      {
        "note": 36,
        "velocity": 100,
        "startTime": 62,
        "duration": 0.5,
        "channel": 9
      },
      {
        "note": 38,
        "velocity": 100,
        "startTime": 1,
        "duration": 0.5,
        "channel": 9
      },
      {
        "note": 38,
        "velocity": 100,
        "startTime": 3,
        "duration": 0.5,
        "channel": 9
      },
      {
        "note": 38,
        "velocity": 100,
        "startTime": 5,
        "duration": 0.5,
        "channel": 9
      },
      {
        "note": 38,
        "velocity": 100,
        "startTime": 7,
        "duration": 0.5,
        "channel": 9
      },
      {
        "note": 38,
        "velocity": 100,
        "startTime": 9,
        "duration": 0.5,
        "channel": 9
      },
      {
        "note": 38,
        "velocity": 100,
        "startTime": 11,
        "duration": 0.5,
        "channel": 9
      },
      {
        "note": 38,
        "velocity": 100,
        "startTime": 13,
        "duration": 0.5,
        "channel": 9
      },
      {
        "note": 38,
        "velocity": 100,
        "startTime": 15,
        "duration": 0.5,
        "channel": 9
      },
      {
        "note": 38,
        "velocity": 100,
        "startTime": 17,
        "duration": 0.5,
        "channel": 9
      },
      {
        "note": 38,
        "velocity": 100,
        "startTime": 19,
        "duration": 0.5,
        "channel": 9
      },
      {
        "note": 38,
        "velocity": 100,
        "startTime": 21,
        "duration": 0.5,
        "channel": 9
      },
      {
        "note": 38,
        "velocity": 100,
        "startTime": 23,
        "duration": 0.5,
        "channel": 9
      },
      {
        "note": 38,
        "velocity": 100,
        "startTime": 25,
        "duration": 0.5,
        "channel": 9
      },
      {
        "note": 38,
        "velocity": 100,
        "startTime": 27,
        "duration": 0.5,
        "channel": 9
      },
      {
        "note": 38,
        "velocity": 100,
        "startTime": 29,
        "duration": 0.5,
        "channel": 9
      },
      {
        "note": 38,
        "velocity": 100,
        "startTime": 31,
        "duration": 0.5,
        "channel": 9
      },
      {
        "note": 38,
        "velocity": 100,
        "startTime": 33,
        "duration": 0.5,
        "channel": 9
      },
      {
        "note": 38,
        "velocity": 100,
        "startTime": 35,
        "duration": 0.5,
        "channel": 9
      },
      {
        "note": 38,
        "velocity": 100,
        "startTime": 37,
        "duration": 0.5,
        "channel": 9
      },
      {
        "note": 38,
        "velocity": 100,
        "startTime": 39,
        "duration": 0.5,
        "channel": 9
      },
      {
        "note": 38,
        "velocity": 100,
        "startTime": 41,
        "duration": 0.5,
        "channel": 9
      },
      {
        "note": 38,
        "velocity": 100,
        "startTime": 43,
        "duration": 0.5,
        "channel": 9
      },
      {
        "note": 38,
        "velocity": 100,
        "startTime": 45,
        "duration": 0.5,
        "channel": 9
      },
      {
        "note": 38,
        "velocity": 100,
        "startTime": 47,
        "duration": 0.5,
        "channel": 9
      },
      {
        "note": 38,
        "velocity": 100,
        "startTime": 49,
        "duration": 0.5,
        "channel": 9
      },
      {
        "note": 38,
        "velocity": 100,
        "startTime": 51,
        "duration": 0.5,
        "channel": 9
      },
      {
        "note": 38,
        "velocity": 100,
        "startTime": 53,
        "duration": 0.5,
        "channel": 9
      },
      {
        "note": 38,
        "velocity": 100,
        "startTime": 55,
        "duration": 0.5,
        "channel": 9
      },
      {
        "note": 38,
        "velocity": 100,
        "startTime": 57,
        "duration": 0.5,
        "channel": 9
      },
      {
        "note": 38,
        "velocity": 100,
        "startTime": 59,
        "duration": 0.5,
        "channel": 9
      },
      {
        "note": 38,
        "velocity": 100,
        "startTime": 61,
        "duration": 0.5,
        "channel": 9
      },
      {
        "note": 38,
        "velocity": 100,
        "startTime": 63,
        "duration": 0.5,
        "channel": 9
      },
      {
        "note": 42,
        "velocity": 80,
        "startTime": 0,
        "duration": 0.25,
        "channel": 9
      },
      {
        "note": 42,
        "velocity": 60,
        "startTime": 0.5,
        "duration": 0.25,
        "channel": 9
      },
      {
        "note": 42,
        "velocity": 80,
        "startTime": 1,
        "duration": 0.25,
        "channel": 9
      },
      {
        "note": 42,
        "velocity": 60,
        "startTime": 1.5,
        "duration": 0.25,
        "channel": 9
      },
      {
        "note": 42,
        "velocity": 80,
        "startTime": 2,
        "duration": 0.25,
        "channel": 9
      },
      {
        "note": 42,
        "velocity": 60,
        "startTime": 2.5,
        "duration": 0.25,
        "channel": 9
      },
      {
        "note": 42,
        "velocity": 80,
        "startTime": 3,
        "duration": 0.25,
        "channel": 9
      },
      {
        "note": 42,
        "velocity": 60,
        "startTime": 3.5,
        "duration": 0.25,
        "channel": 9
      },
      {
        "note": 42,
        "velocity": 80,
        "startTime": 4,
        "duration": 0.25,
        "channel": 9
      },
      {
        "note": 42,
        "velocity": 60,
        "startTime": 4.5,
        "duration": 0.25,
        "channel": 9
      },
      {
        "note": 42,
        "velocity": 80,
        "startTime": 5,
        "duration": 0.25,
        "channel": 9
      },
      {
        "note": 42,
        "velocity": 60,
        "startTime": 5.5,
        "duration": 0.25,
        "channel": 9
      },
      {
        "note": 42,
        "velocity": 80,
        "startTime": 6,
        "duration": 0.25,
        "channel": 9
      },
      {
        "note": 42,
        "velocity": 60,
        "startTime": 6.5,
        "duration": 0.25,
        "channel": 9
      },
      {
        "note": 42,
        "velocity": 80,
        "startTime": 7,
        "duration": 0.25,
        "channel": 9
      },
      {
        "note": 42,
        "velocity": 60,
        "startTime": 7.5,
        "duration": 0.25,
        "channel": 9
      },
      {
        "note": 42,
        "velocity": 80,
        "startTime": 8,
        "duration": 0.25,
        "channel": 9
      },
      {
        "note": 42,
        "velocity": 60,
        "startTime": 8.5,
        "duration": 0.25,
        "channel": 9
      },
      {
        "note": 42,
        "velocity": 80,
        "startTime": 9,
        "duration": 0.25,
        "channel": 9
      },
      {
        "note": 42,
        "velocity": 60,
        "startTime": 9.5,
        "duration": 0.25,
        "channel": 9
      },
      {
        "note": 42,
        "velocity": 80,
        "startTime": 10,
        "duration": 0.25,
        "channel": 9
      },
      {
        "note": 42,
        "velocity": 60,
        "startTime": 10.5,
        "duration": 0.25,
        "channel": 9
      },
      {
        "note": 42,
        "velocity": 80,
        "startTime": 11,
        "duration": 0.25,
        "channel": 9
      },
      {
        "note": 42,
        "velocity": 60,
        "startTime": 11.5,
        "duration": 0.25,
        "channel": 9
      },
      {
        "note": 42,
        "velocity": 80,
        "startTime": 12,
        "duration": 0.25,
        "channel": 9
      },
      {
        "note": 42,
        "velocity": 60,
        "startTime": 12.5,
        "duration": 0.25,
        "channel": 9
      },
      {
        "note": 42,
        "velocity": 80,
        "startTime": 13,
        "duration": 0.25,
        "channel": 9
      },
      {
        "note": 42,
        "velocity": 60,
        "startTime": 13.5,
        "duration": 0.25,
        "channel": 9
      },
      {
        "note": 42,
        "velocity": 80,
        "startTime": 14,
        "duration": 0.25,
        "channel": 9
      },
      {
        "note": 42,
        "velocity": 60,
        "startTime": 14.5,
        "duration": 0.25,
        "channel": 9
      },
      {
        "note": 42,
        "velocity": 80,
        "startTime": 15,
        "duration": 0.25,
        "channel": 9
      },
      {
        "note": 42,
        "velocity": 60,
        "startTime": 15.5,
        "duration": 0.25,
        "channel": 9
      },
      {
        "note": 42,
        "velocity": 80,
        "startTime": 16,
        "duration": 0.25,
        "channel": 9
      },
      {
        "note": 42,
        "velocity": 60,
        "startTime": 16.5,
        "duration": 0.25,
        "channel": 9
      },
      {
        "note": 42,
        "velocity": 80,
        "startTime": 17,
        "duration": 0.25,
        "channel": 9
      },
      {
        "note": 42,
        "velocity": 60,
        "startTime": 17.5,
        "duration": 0.25,
        "channel": 9
      },
      {
        "note": 42,
        "velocity": 80,
        "startTime": 18,
        "duration": 0.25,
        "channel": 9
      },
      {
        "note": 42,
        "velocity": 60,
        "startTime": 18.5,
        "duration": 0.25,
        "channel": 9
      },
      {
        "note": 42,
        "velocity": 80,
        "startTime": 19,
        "duration": 0.25,
        "channel": 9
      },
      {
        "note": 42,
        "velocity": 60,
        "startTime": 19.5,
        "duration": 0.25,
        "channel": 9
      },
      {
        "note": 42,
        "velocity": 80,
        "startTime": 20,
        "duration": 0.25,
        "channel": 9
      },
      {
        "note": 42,
        "velocity": 60,
        "startTime": 20.5,
        "duration": 0.25,
        "channel": 9
      },
      {
        "note": 42,
        "velocity": 80,
        "startTime": 21,
        "duration": 0.25,
        "channel": 9
      },
      {
        "note": 42,
        "velocity": 60,
        "startTime": 21.5,
        "duration": 0.25,
        "channel": 9
      },
      {
        "note": 42,
        "velocity": 80,
        "startTime": 22,
        "duration": 0.25,
        "channel": 9
      },
      {
        "note": 42,
        "velocity": 60,
        "startTime": 22.5,
        "duration": 0.25,
        "channel": 9
      },
      {
        "note": 42,
        "velocity": 80,
        "startTime": 23,
        "duration": 0.25,
        "channel": 9
      },
      {
        "note": 42,
        "velocity": 60,
        "startTime": 23.5,
        "duration": 0.25,
        "channel": 9
      },
      {
        "note": 42,
        "velocity": 80,
        "startTime": 24,
        "duration": 0.25,
        "channel": 9
      },
      {
        "note": 42,
        "velocity": 60,
        "startTime": 24.5,
        "duration": 0.25,
        "channel": 9
      },
      {
        "note": 42,
        "velocity": 80,
        "startTime": 25,
        "duration": 0.25,
        "channel": 9
      },
      {
        "note": 42,
        "velocity": 60,
        "startTime": 25.5,
        "duration": 0.25,
        "channel": 9
      },
      {
        "note": 42,
        "velocity": 80,
        "startTime": 26,
        "duration": 0.25,
        "channel": 9
      },
      {
        "note": 42,
        "velocity": 60,
        "startTime": 26.5,
        "duration": 0.25,
        "channel": 9
      },
      {
        "note": 42,
        "velocity": 80,
        "startTime": 27,
        "duration": 0.25,
        "channel": 9
      },
      {
        "note": 42,
        "velocity": 60,
        "startTime": 27.5,
        "duration": 0.25,
        "channel": 9
      },
      {
        "note": 42,
        "velocity": 80,
        "startTime": 28,
        "duration": 0.25,
        "channel": 9
      },
      {
        "note": 42,
        "velocity": 60,
        "startTime": 28.5,
        "duration": 0.25,
        "channel": 9
      },
      {
        "note": 42,
        "velocity": 80,
        "startTime": 29,
        "duration": 0.25,
        "channel": 9
      },
      {
        "note": 42,
        "velocity": 60,
        "startTime": 29.5,
        "duration": 0.25,
        "channel": 9
      },
      {
        "note": 42,
        "velocity": 80,
        "startTime": 30,
        "duration": 0.25,
        "channel": 9
      },
      {
        "note": 42,
        "velocity": 60,
        "startTime": 30.5,
        "duration": 0.25,
        "channel": 9
      },
      {
        "note": 42,
        "velocity": 80,
        "startTime": 31,
        "duration": 0.25,
        "channel": 9
      },
      {
        "note": 42,
        "velocity": 60,
        "startTime": 31.5,
        "duration": 0.25,
        "channel": 9
      },
      {
        "note": 42,
        "velocity": 80,
        "startTime": 32,
        "duration": 0.25,
        "channel": 9
      },
      {
        "note": 42,
        "velocity": 60,
        "startTime": 32.5,
        "duration": 0.25,
        "channel": 9
      },
      {
        "note": 42,
        "velocity": 80,
        "startTime": 33,
        "duration": 0.25,
        "channel": 9
      },
      {
        "note": 42,
        "velocity": 60,
        "startTime": 33.5,
        "duration": 0.25,
        "channel": 9
      },
      {
        "note": 42,
        "velocity": 80,
        "startTime": 34,
        "duration": 0.25,
        "channel": 9
      },
      {
        "note": 42,
        "velocity": 60,
        "startTime": 34.5,
        "duration": 0.25,
        "channel": 9
      },
      {
        "note": 42,
        "velocity": 80,
        "startTime": 35,
        "duration": 0.25,
        "channel": 9
      },
      {
        "note": 42,
        "velocity": 60,
        "startTime": 35.5,
        "duration": 0.25,
        "channel": 9
      },
      {
        "note": 42,
        "velocity": 80,
        "startTime": 36,
        "duration": 0.25,
        "channel": 9
      },
      {
        "note": 42,
        "velocity": 60,
        "startTime": 36.5,
        "duration": 0.25,
        "channel": 9
      },
      {
        "note": 42,
        "velocity": 80,
        "startTime": 37,
        "duration": 0.25,
        "channel": 9
      },
      {
        "note": 42,
        "velocity": 60,
        "startTime": 37.5,
        "duration": 0.25,
        "channel": 9
      },
      {
        "note": 42,
        "velocity": 80,
        "startTime": 38,
        "duration": 0.25,
        "channel": 9
      },
      {
        "note": 42,
        "velocity": 60,
        "startTime": 38.5,
        "duration": 0.25,
        "channel": 9
      },
      {
        "note": 42,
        "velocity": 80,
        "startTime": 39,
        "duration": 0.25,
        "channel": 9
      },
      {
        "note": 42,
        "velocity": 60,
        "startTime": 39.5,
        "duration": 0.25,
        "channel": 9
      },
      {
        "note": 42,
        "velocity": 80,
        "startTime": 40,
        "duration": 0.25,
        "channel": 9
      },
      {
        "note": 42,
        "velocity": 60,
        "startTime": 40.5,
        "duration": 0.25,
        "channel": 9
      },
      {
        "note": 42,
        "velocity": 80,
        "startTime": 41,
        "duration": 0.25,
        "channel": 9
      },
      {
        "note": 42,
        "velocity": 60,
        "startTime": 41.5,
        "duration": 0.25,
        "channel": 9
      },
      {
        "note": 42,
        "velocity": 80,
        "startTime": 42,
        "duration": 0.25,
        "channel": 9
      },
      {
        "note": 42,
        "velocity": 60,
        "startTime": 42.5,
        "duration": 0.25,
        "channel": 9
      },
      {
        "note": 42,
        "velocity": 80,
        "startTime": 43,
        "duration": 0.25,
        "channel": 9
      },
      {
        "note": 42,
        "velocity": 60,
        "startTime": 43.5,
        "duration": 0.25,
        "channel": 9
      },
      {
        "note": 42,
        "velocity": 80,
        "startTime": 44,
        "duration": 0.25,
        "channel": 9
      },
      {
        "note": 42,
        "velocity": 60,
        "startTime": 44.5,
        "duration": 0.25,
        "channel": 9
      },
      {
        "note": 42,
        "velocity": 80,
        "startTime": 45,
        "duration": 0.25,
        "channel": 9
      },
      {
        "note": 42,
        "velocity": 60,
        "startTime": 45.5,
        "duration": 0.25,
        "channel": 9
      },
      {
        "note": 42,
        "velocity": 80,
        "startTime": 46,
        "duration": 0.25,
        "channel": 9
      },
      {
        "note": 42,
        "velocity": 60,
        "startTime": 46.5,
        "duration": 0.25,
        "channel": 9
      },
      {
        "note": 42,
        "velocity": 80,
        "startTime": 47,
        "duration": 0.25,
        "channel": 9
      },
      {
        "note": 42,
        "velocity": 60,
        "startTime": 47.5,
        "duration": 0.25,
        "channel": 9
      },
      {
        "note": 42,
        "velocity": 80,
        "startTime": 48,
        "duration": 0.25,
        "channel": 9
      },
      {
        "note": 42,
        "velocity": 60,
        "startTime": 48.5,
        "duration": 0.25,
        "channel": 9
      },
      {
        "note": 42,
        "velocity": 80,
        "startTime": 49,
        "duration": 0.25,
        "channel": 9
      },
      {
        "note": 42,
        "velocity": 60,
        "startTime": 49.5,
        "duration": 0.25,
        "channel": 9
      },
      {
        "note": 42,
        "velocity": 80,
        "startTime": 50,
        "duration": 0.25,
        "channel": 9
      },
      {
        "note": 42,
        "velocity": 60,
        "startTime": 50.5,
        "duration": 0.25,
        "channel": 9
      },
      {
        "note": 42,
        "velocity": 80,
        "startTime": 51,
        "duration": 0.25,
        "channel": 9
      },
      {
        "note": 42,
        "velocity": 60,
        "startTime": 51.5,
        "duration": 0.25,
        "channel": 9
      },
      {
        "note": 42,
        "velocity": 80,
        "startTime": 52,
        "duration": 0.25,
        "channel": 9
      },
      {
        "note": 42,
        "velocity": 60,
        "startTime": 52.5,
        "duration": 0.25,
        "channel": 9
      },
      {
        "note": 42,
        "velocity": 80,
        "startTime": 53,
        "duration": 0.25,
        "channel": 9
      },
      {
        "note": 42,
        "velocity": 60,
        "startTime": 53.5,
        "duration": 0.25,
        "channel": 9
      },
      {
        "note": 42,
        "velocity": 80,
        "startTime": 54,
        "duration": 0.25,
        "channel": 9
      },
      {
        "note": 42,
        "velocity": 60,
        "startTime": 54.5,
        "duration": 0.25,
        "channel": 9
      },
      {
        "note": 42,
        "velocity": 80,
        "startTime": 55,
        "duration": 0.25,
        "channel": 9
      },
      {
        "note": 42,
        "velocity": 60,
        "startTime": 55.5,
        "duration": 0.25,
        "channel": 9
      },
      {
        "note": 42,
        "velocity": 80,
        "startTime": 56,
        "duration": 0.25,
        "channel": 9
      },
      {
        "note": 42,
        "velocity": 60,
        "startTime": 56.5,
        "duration": 0.25,
        "channel": 9
      },
      {
        "note": 42,
        "velocity": 80,
        "startTime": 57,
        "duration": 0.25,
        "channel": 9
      },
      {
        "note": 42,
        "velocity": 60,
        "startTime": 57.5,
        "duration": 0.25,
        "channel": 9
      },
      {
        "note": 42,
        "velocity": 80,
        "startTime": 58,
        "duration": 0.25,
        "channel": 9
      },
      {
        "note": 42,
        "velocity": 60,
        "startTime": 58.5,
        "duration": 0.25,
        "channel": 9
      },
      {
        "note": 42,
        "velocity": 80,
        "startTime": 59,
        "duration": 0.25,
        "channel": 9
      },
      {
        "note": 42,
        "velocity": 60,
        "startTime": 59.5,
        "duration": 0.25,
        "channel": 9
      },
      {
        "note": 42,
        "velocity": 80,
        "startTime": 60,
        "duration": 0.25,
        "channel": 9
      },
      {
        "note": 42,
        "velocity": 60,
        "startTime": 60.5,
        "duration": 0.25,
        "channel": 9
      },
      {
        "note": 42,
        "velocity": 80,
        "startTime": 61,
        "duration": 0.25,
        "channel": 9
      },
      {
        "note": 42,
        "velocity": 60,
        "startTime": 61.5,
        "duration": 0.25,
        "channel": 9
      },
      {
        "note": 42,
        "velocity": 80,
        "startTime": 62,
        "duration": 0.25,
        "channel": 9
      },
      {
        "note": 42,
        "velocity": 60,
        "startTime": 62.5,
        "duration": 0.25,
        "channel": 9
      },
      {
        "note": 42,
        "velocity": 80,
        "startTime": 63,
        "duration": 0.25,
        "channel": 9
      },
      {
        "note": 42,
        "velocity": 60,
        "startTime": 63.5,
        "duration": 0.25,
        "channel": 9
      },
      {
        "note": 36,
        "velocity": 100,
        "startTime": 0,
        "duration": 1,
        "channel": 0
      },
      {
        "note": 36,
        "velocity": 100,
        "startTime": 2,
        "duration": 1,
        "channel": 0
      },
      {
        "note": 36,
        "velocity": 100,
        "startTime": 4,
        "duration": 1,
        "channel": 0
      },
      {
        "note": 36,
        "velocity": 100,
        "startTime": 6,
        "duration": 1,
        "channel": 0
      },
      {
        "note": 36,
        "velocity": 100,
        "startTime": 8,
        "duration": 1,
        "channel": 0
      },
      {
        "note": 36,
        "velocity": 100,
        "startTime": 10,
        "duration": 1,
        "channel": 0
      },
      {
        "note": 36,
        "velocity": 100,
        "startTime": 12,
        "duration": 1,
        "channel": 0
      },
      {
        "note": 36,
        "velocity": 100,
        "startTime": 14,
        "duration": 1,
        "channel": 0
      },
      {
        "note": 36,
        "velocity": 100,
        "startTime": 16,
        "duration": 1,
        "channel": 0
      },
      {
        "note": 36,
        "velocity": 100,
        "startTime": 18,
        "duration": 1,
        "channel": 0
      },
      {
        "note": 36,
        "velocity": 100,
        "startTime": 20,
        "duration": 1,
        "channel": 0
      },
      {
        "note": 36,
        "velocity": 100,
        "startTime": 22,
        "duration": 1,
        "channel": 0
      },
      {
        "note": 36,
        "velocity": 100,
        "startTime": 24,
        "duration": 1,
        "channel": 0
      },
      {
        "note": 36,
        "velocity": 100,
        "startTime": 26,
        "duration": 1,
        "channel": 0
      },
      {
        "note": 36,
        "velocity": 100,
        "startTime": 28,
        "duration": 1,
        "channel": 0
      },
      {
        "note": 36,
        "velocity": 100,
        "startTime": 30,
        "duration": 1,
        "channel": 0
      },
      {
        "note": 36,
        "velocity": 100,
        "startTime": 32,
        "duration": 1,
        "channel": 0
      },
      {
        "note": 36,
        "velocity": 100,
        "startTime": 34,
        "duration": 1,
        "channel": 0
      },
      {
        "note": 36,
        "velocity": 100,
        "startTime": 36,
        "duration": 1,
        "channel": 0
      },
      {
        "note": 36,
        "velocity": 100,
        "startTime": 38,
        "duration": 1,
        "channel": 0
      },
      {
        "note": 36,
        "velocity": 100,
        "startTime": 40,
        "duration": 1,
        "channel": 0
      },
      {
        "note": 36,
        "velocity": 100,
        "startTime": 42,
        "duration": 1,
        "channel": 0
      },
      {
        "note": 36,
        "velocity": 100,
        "startTime": 44,
        "duration": 1,
        "channel": 0
      },
      {
        "note": 36,
        "velocity": 100,
        "startTime": 46,
        "duration": 1,
        "channel": 0
      },
      {
        "note": 36,
        "velocity": 100,
        "startTime": 48,
        "duration": 1,
        "channel": 0
      },
      {
        "note": 36,
        "velocity": 100,
        "startTime": 50,
        "duration": 1,
        "channel": 0
      },
      {
        "note": 36,
        "velocity": 100,
        "startTime": 52,
        "duration": 1,
        "channel": 0
      },
      {
        "note": 36,
        "velocity": 100,
        "startTime": 54,
        "duration": 1,
        "channel": 0
      },
      {
        "note": 36,
        "velocity": 100,
        "startTime": 56,
        "duration": 1,
        "channel": 0
      },
      {
        "note": 36,
        "velocity": 100,
        "startTime": 58,
        "duration": 1,
        "channel": 0
      },
      {
        "note": 36,
        "velocity": 100,
        "startTime": 60,
        "duration": 1,
        "channel": 0
      },
      {
        "note": 36,
        "velocity": 100,
        "startTime": 62,
        "duration": 1,
        "channel": 0
      }
    ],
    "project_name": "wgon",
    "project_path": "/Users/camilopineda/Desktop/SHINE DARK MIDI PARTY/Logic copy sep 2025/wgon/wgon.logicx",
    "extraction_date": "2025-09-05T23:38:35.389Z",
    "extraction_status": "generated_from_project_name"
  },
  {
    "id": "electronic-pattern",
    "name": "Electronic",
    "tempo": 120,
    "timeSignature": [
      4,
      4
    ],
    "length": 64,
    "loop": true,
    "notes": [
      {
        "note": 36,
        "velocity": 127,
        "startTime": 0,
        "duration": 0.5,
        "channel": 9
      },
      {
        "note": 36,
        "velocity": 100,
        "startTime": 2,
        "duration": 0.5,
        "channel": 9
      },
      {
        "note": 36,
        "velocity": 127,
        "startTime": 4,
        "duration": 0.5,
        "channel": 9
      },
      {
        "note": 36,
        "velocity": 100,
        "startTime": 6,
        "duration": 0.5,
        "channel": 9
      },
      {
        "note": 36,
        "velocity": 127,
        "startTime": 8,
        "duration": 0.5,
        "channel": 9
      },
      {
        "note": 36,
        "velocity": 100,
        "startTime": 10,
        "duration": 0.5,
        "channel": 9
      },
      {
        "note": 36,
        "velocity": 127,
        "startTime": 12,
        "duration": 0.5,
        "channel": 9
      },
      {
        "note": 36,
        "velocity": 100,
        "startTime": 14,
        "duration": 0.5,
        "channel": 9
      },
      {
        "note": 36,
        "velocity": 127,
        "startTime": 16,
        "duration": 0.5,
        "channel": 9
      },
      {
        "note": 36,
        "velocity": 100,
        "startTime": 18,
        "duration": 0.5,
        "channel": 9
      },
      {
        "note": 36,
        "velocity": 127,
        "startTime": 20,
        "duration": 0.5,
        "channel": 9
      },
      {
        "note": 36,
        "velocity": 100,
        "startTime": 22,
        "duration": 0.5,
        "channel": 9
      },
      {
        "note": 36,
        "velocity": 127,
        "startTime": 24,
        "duration": 0.5,
        "channel": 9
      },
      {
        "note": 36,
        "velocity": 100,
        "startTime": 26,
        "duration": 0.5,
        "channel": 9
      },
      {
        "note": 36,
        "velocity": 127,
        "startTime": 28,
        "duration": 0.5,
        "channel": 9
      },
      {
        "note": 36,
        "velocity": 100,
        "startTime": 30,
        "duration": 0.5,
        "channel": 9
      },
      {
        "note": 36,
        "velocity": 127,
        "startTime": 32,
        "duration": 0.5,
        "channel": 9
      },
      {
        "note": 36,
        "velocity": 100,
        "startTime": 34,
        "duration": 0.5,
        "channel": 9
      },
      {
        "note": 36,
        "velocity": 127,
        "startTime": 36,
        "duration": 0.5,
        "channel": 9
      },
      {
        "note": 36,
        "velocity": 100,
        "startTime": 38,
        "duration": 0.5,
        "channel": 9
      },
      {
        "note": 36,
        "velocity": 127,
        "startTime": 40,
        "duration": 0.5,
        "channel": 9
      },
      {
        "note": 36,
        "velocity": 100,
        "startTime": 42,
        "duration": 0.5,
        "channel": 9
      },
      {
        "note": 36,
        "velocity": 127,
        "startTime": 44,
        "duration": 0.5,
        "channel": 9
      },
      {
        "note": 36,
        "velocity": 100,
        "startTime": 46,
        "duration": 0.5,
        "channel": 9
      },
      {
        "note": 36,
        "velocity": 127,
        "startTime": 48,
        "duration": 0.5,
        "channel": 9
      },
      {
        "note": 36,
        "velocity": 100,
        "startTime": 50,
        "duration": 0.5,
        "channel": 9
      },
      {
        "note": 36,
        "velocity": 127,
        "startTime": 52,
        "duration": 0.5,
        "channel": 9
      },
      {
        "note": 36,
        "velocity": 100,
        "startTime": 54,
        "duration": 0.5,
        "channel": 9
      },
      {
        "note": 36,
        "velocity": 127,
        "startTime": 56,
        "duration": 0.5,
        "channel": 9
      },
      {
        "note": 36,
        "velocity": 100,
        "startTime": 58,
        "duration": 0.5,
        "channel": 9
      },
      {
        "note": 36,
        "velocity": 127,
        "startTime": 60,
        "duration": 0.5,
        "channel": 9
      },
      {
        "note": 36,
        "velocity": 100,
        "startTime": 62,
        "duration": 0.5,
        "channel": 9
      },
      {
        "note": 38,
        "velocity": 100,
        "startTime": 1,
        "duration": 0.5,
        "channel": 9
      },
      {
        "note": 38,
        "velocity": 100,
        "startTime": 3,
        "duration": 0.5,
        "channel": 9
      },
      {
        "note": 38,
        "velocity": 100,
        "startTime": 5,
        "duration": 0.5,
        "channel": 9
      },
      {
        "note": 38,
        "velocity": 100,
        "startTime": 7,
        "duration": 0.5,
        "channel": 9
      },
      {
        "note": 38,
        "velocity": 100,
        "startTime": 9,
        "duration": 0.5,
        "channel": 9
      },
      {
        "note": 38,
        "velocity": 100,
        "startTime": 11,
        "duration": 0.5,
        "channel": 9
      },
      {
        "note": 38,
        "velocity": 100,
        "startTime": 13,
        "duration": 0.5,
        "channel": 9
      },
      {
        "note": 38,
        "velocity": 100,
        "startTime": 15,
        "duration": 0.5,
        "channel": 9
      },
      {
        "note": 38,
        "velocity": 100,
        "startTime": 17,
        "duration": 0.5,
        "channel": 9
      },
      {
        "note": 38,
        "velocity": 100,
        "startTime": 19,
        "duration": 0.5,
        "channel": 9
      },
      {
        "note": 38,
        "velocity": 100,
        "startTime": 21,
        "duration": 0.5,
        "channel": 9
      },
      {
        "note": 38,
        "velocity": 100,
        "startTime": 23,
        "duration": 0.5,
        "channel": 9
      },
      {
        "note": 38,
        "velocity": 100,
        "startTime": 25,
        "duration": 0.5,
        "channel": 9
      },
      {
        "note": 38,
        "velocity": 100,
        "startTime": 27,
        "duration": 0.5,
        "channel": 9
      },
      {
        "note": 38,
        "velocity": 100,
        "startTime": 29,
        "duration": 0.5,
        "channel": 9
      },
      {
        "note": 38,
        "velocity": 100,
        "startTime": 31,
        "duration": 0.5,
        "channel": 9
      },
      {
        "note": 38,
        "velocity": 100,
        "startTime": 33,
        "duration": 0.5,
        "channel": 9
      },
      {
        "note": 38,
        "velocity": 100,
        "startTime": 35,
        "duration": 0.5,
        "channel": 9
      },
      {
        "note": 38,
        "velocity": 100,
        "startTime": 37,
        "duration": 0.5,
        "channel": 9
      },
      {
        "note": 38,
        "velocity": 100,
        "startTime": 39,
        "duration": 0.5,
        "channel": 9
      },
      {
        "note": 38,
        "velocity": 100,
        "startTime": 41,
        "duration": 0.5,
        "channel": 9
      },
      {
        "note": 38,
        "velocity": 100,
        "startTime": 43,
        "duration": 0.5,
        "channel": 9
      },
      {
        "note": 38,
        "velocity": 100,
        "startTime": 45,
        "duration": 0.5,
        "channel": 9
      },
      {
        "note": 38,
        "velocity": 100,
        "startTime": 47,
        "duration": 0.5,
        "channel": 9
      },
      {
        "note": 38,
        "velocity": 100,
        "startTime": 49,
        "duration": 0.5,
        "channel": 9
      },
      {
        "note": 38,
        "velocity": 100,
        "startTime": 51,
        "duration": 0.5,
        "channel": 9
      },
      {
        "note": 38,
        "velocity": 100,
        "startTime": 53,
        "duration": 0.5,
        "channel": 9
      },
      {
        "note": 38,
        "velocity": 100,
        "startTime": 55,
        "duration": 0.5,
        "channel": 9
      },
      {
        "note": 38,
        "velocity": 100,
        "startTime": 57,
        "duration": 0.5,
        "channel": 9
      },
      {
        "note": 38,
        "velocity": 100,
        "startTime": 59,
        "duration": 0.5,
        "channel": 9
      },
      {
        "note": 38,
        "velocity": 100,
        "startTime": 61,
        "duration": 0.5,
        "channel": 9
      },
      {
        "note": 38,
        "velocity": 100,
        "startTime": 63,
        "duration": 0.5,
        "channel": 9
      },
      {
        "note": 42,
        "velocity": 80,
        "startTime": 0,
        "duration": 0.25,
        "channel": 9
      },
      {
        "note": 42,
        "velocity": 60,
        "startTime": 0.5,
        "duration": 0.25,
        "channel": 9
      },
      {
        "note": 42,
        "velocity": 80,
        "startTime": 1,
        "duration": 0.25,
        "channel": 9
      },
      {
        "note": 42,
        "velocity": 60,
        "startTime": 1.5,
        "duration": 0.25,
        "channel": 9
      },
      {
        "note": 42,
        "velocity": 80,
        "startTime": 2,
        "duration": 0.25,
        "channel": 9
      },
      {
        "note": 42,
        "velocity": 60,
        "startTime": 2.5,
        "duration": 0.25,
        "channel": 9
      },
      {
        "note": 42,
        "velocity": 80,
        "startTime": 3,
        "duration": 0.25,
        "channel": 9
      },
      {
        "note": 42,
        "velocity": 60,
        "startTime": 3.5,
        "duration": 0.25,
        "channel": 9
      },
      {
        "note": 42,
        "velocity": 80,
        "startTime": 4,
        "duration": 0.25,
        "channel": 9
      },
      {
        "note": 42,
        "velocity": 60,
        "startTime": 4.5,
        "duration": 0.25,
        "channel": 9
      },
      {
        "note": 42,
        "velocity": 80,
        "startTime": 5,
        "duration": 0.25,
        "channel": 9
      },
      {
        "note": 42,
        "velocity": 60,
        "startTime": 5.5,
        "duration": 0.25,
        "channel": 9
      },
      {
        "note": 42,
        "velocity": 80,
        "startTime": 6,
        "duration": 0.25,
        "channel": 9
      },
      {
        "note": 42,
        "velocity": 60,
        "startTime": 6.5,
        "duration": 0.25,
        "channel": 9
      },
      {
        "note": 42,
        "velocity": 80,
        "startTime": 7,
        "duration": 0.25,
        "channel": 9
      },
      {
        "note": 42,
        "velocity": 60,
        "startTime": 7.5,
        "duration": 0.25,
        "channel": 9
      },
      {
        "note": 42,
        "velocity": 80,
        "startTime": 8,
        "duration": 0.25,
        "channel": 9
      },
      {
        "note": 42,
        "velocity": 60,
        "startTime": 8.5,
        "duration": 0.25,
        "channel": 9
      },
      {
        "note": 42,
        "velocity": 80,
        "startTime": 9,
        "duration": 0.25,
        "channel": 9
      },
      {
        "note": 42,
        "velocity": 60,
        "startTime": 9.5,
        "duration": 0.25,
        "channel": 9
      },
      {
        "note": 42,
        "velocity": 80,
        "startTime": 10,
        "duration": 0.25,
        "channel": 9
      },
      {
        "note": 42,
        "velocity": 60,
        "startTime": 10.5,
        "duration": 0.25,
        "channel": 9
      },
      {
        "note": 42,
        "velocity": 80,
        "startTime": 11,
        "duration": 0.25,
        "channel": 9
      },
      {
        "note": 42,
        "velocity": 60,
        "startTime": 11.5,
        "duration": 0.25,
        "channel": 9
      },
      {
        "note": 42,
        "velocity": 80,
        "startTime": 12,
        "duration": 0.25,
        "channel": 9
      },
      {
        "note": 42,
        "velocity": 60,
        "startTime": 12.5,
        "duration": 0.25,
        "channel": 9
      },
      {
        "note": 42,
        "velocity": 80,
        "startTime": 13,
        "duration": 0.25,
        "channel": 9
      },
      {
        "note": 42,
        "velocity": 60,
        "startTime": 13.5,
        "duration": 0.25,
        "channel": 9
      },
      {
        "note": 42,
        "velocity": 80,
        "startTime": 14,
        "duration": 0.25,
        "channel": 9
      },
      {
        "note": 42,
        "velocity": 60,
        "startTime": 14.5,
        "duration": 0.25,
        "channel": 9
      },
      {
        "note": 42,
        "velocity": 80,
        "startTime": 15,
        "duration": 0.25,
        "channel": 9
      },
      {
        "note": 42,
        "velocity": 60,
        "startTime": 15.5,
        "duration": 0.25,
        "channel": 9
      },
      {
        "note": 42,
        "velocity": 80,
        "startTime": 16,
        "duration": 0.25,
        "channel": 9
      },
      {
        "note": 42,
        "velocity": 60,
        "startTime": 16.5,
        "duration": 0.25,
        "channel": 9
      },
      {
        "note": 42,
        "velocity": 80,
        "startTime": 17,
        "duration": 0.25,
        "channel": 9
      },
      {
        "note": 42,
        "velocity": 60,
        "startTime": 17.5,
        "duration": 0.25,
        "channel": 9
      },
      {
        "note": 42,
        "velocity": 80,
        "startTime": 18,
        "duration": 0.25,
        "channel": 9
      },
      {
        "note": 42,
        "velocity": 60,
        "startTime": 18.5,
        "duration": 0.25,
        "channel": 9
      },
      {
        "note": 42,
        "velocity": 80,
        "startTime": 19,
        "duration": 0.25,
        "channel": 9
      },
      {
        "note": 42,
        "velocity": 60,
        "startTime": 19.5,
        "duration": 0.25,
        "channel": 9
      },
      {
        "note": 42,
        "velocity": 80,
        "startTime": 20,
        "duration": 0.25,
        "channel": 9
      },
      {
        "note": 42,
        "velocity": 60,
        "startTime": 20.5,
        "duration": 0.25,
        "channel": 9
      },
      {
        "note": 42,
        "velocity": 80,
        "startTime": 21,
        "duration": 0.25,
        "channel": 9
      },
      {
        "note": 42,
        "velocity": 60,
        "startTime": 21.5,
        "duration": 0.25,
        "channel": 9
      },
      {
        "note": 42,
        "velocity": 80,
        "startTime": 22,
        "duration": 0.25,
        "channel": 9
      },
      {
        "note": 42,
        "velocity": 60,
        "startTime": 22.5,
        "duration": 0.25,
        "channel": 9
      },
      {
        "note": 42,
        "velocity": 80,
        "startTime": 23,
        "duration": 0.25,
        "channel": 9
      },
      {
        "note": 42,
        "velocity": 60,
        "startTime": 23.5,
        "duration": 0.25,
        "channel": 9
      },
      {
        "note": 42,
        "velocity": 80,
        "startTime": 24,
        "duration": 0.25,
        "channel": 9
      },
      {
        "note": 42,
        "velocity": 60,
        "startTime": 24.5,
        "duration": 0.25,
        "channel": 9
      },
      {
        "note": 42,
        "velocity": 80,
        "startTime": 25,
        "duration": 0.25,
        "channel": 9
      },
      {
        "note": 42,
        "velocity": 60,
        "startTime": 25.5,
        "duration": 0.25,
        "channel": 9
      },
      {
        "note": 42,
        "velocity": 80,
        "startTime": 26,
        "duration": 0.25,
        "channel": 9
      },
      {
        "note": 42,
        "velocity": 60,
        "startTime": 26.5,
        "duration": 0.25,
        "channel": 9
      },
      {
        "note": 42,
        "velocity": 80,
        "startTime": 27,
        "duration": 0.25,
        "channel": 9
      },
      {
        "note": 42,
        "velocity": 60,
        "startTime": 27.5,
        "duration": 0.25,
        "channel": 9
      },
      {
        "note": 42,
        "velocity": 80,
        "startTime": 28,
        "duration": 0.25,
        "channel": 9
      },
      {
        "note": 42,
        "velocity": 60,
        "startTime": 28.5,
        "duration": 0.25,
        "channel": 9
      },
      {
        "note": 42,
        "velocity": 80,
        "startTime": 29,
        "duration": 0.25,
        "channel": 9
      },
      {
        "note": 42,
        "velocity": 60,
        "startTime": 29.5,
        "duration": 0.25,
        "channel": 9
      },
      {
        "note": 42,
        "velocity": 80,
        "startTime": 30,
        "duration": 0.25,
        "channel": 9
      },
      {
        "note": 42,
        "velocity": 60,
        "startTime": 30.5,
        "duration": 0.25,
        "channel": 9
      },
      {
        "note": 42,
        "velocity": 80,
        "startTime": 31,
        "duration": 0.25,
        "channel": 9
      },
      {
        "note": 42,
        "velocity": 60,
        "startTime": 31.5,
        "duration": 0.25,
        "channel": 9
      },
      {
        "note": 42,
        "velocity": 80,
        "startTime": 32,
        "duration": 0.25,
        "channel": 9
      },
      {
        "note": 42,
        "velocity": 60,
        "startTime": 32.5,
        "duration": 0.25,
        "channel": 9
      },
      {
        "note": 42,
        "velocity": 80,
        "startTime": 33,
        "duration": 0.25,
        "channel": 9
      },
      {
        "note": 42,
        "velocity": 60,
        "startTime": 33.5,
        "duration": 0.25,
        "channel": 9
      },
      {
        "note": 42,
        "velocity": 80,
        "startTime": 34,
        "duration": 0.25,
        "channel": 9
      },
      {
        "note": 42,
        "velocity": 60,
        "startTime": 34.5,
        "duration": 0.25,
        "channel": 9
      },
      {
        "note": 42,
        "velocity": 80,
        "startTime": 35,
        "duration": 0.25,
        "channel": 9
      },
      {
        "note": 42,
        "velocity": 60,
        "startTime": 35.5,
        "duration": 0.25,
        "channel": 9
      },
      {
        "note": 42,
        "velocity": 80,
        "startTime": 36,
        "duration": 0.25,
        "channel": 9
      },
      {
        "note": 42,
        "velocity": 60,
        "startTime": 36.5,
        "duration": 0.25,
        "channel": 9
      },
      {
        "note": 42,
        "velocity": 80,
        "startTime": 37,
        "duration": 0.25,
        "channel": 9
      },
      {
        "note": 42,
        "velocity": 60,
        "startTime": 37.5,
        "duration": 0.25,
        "channel": 9
      },
      {
        "note": 42,
        "velocity": 80,
        "startTime": 38,
        "duration": 0.25,
        "channel": 9
      },
      {
        "note": 42,
        "velocity": 60,
        "startTime": 38.5,
        "duration": 0.25,
        "channel": 9
      },
      {
        "note": 42,
        "velocity": 80,
        "startTime": 39,
        "duration": 0.25,
        "channel": 9
      },
      {
        "note": 42,
        "velocity": 60,
        "startTime": 39.5,
        "duration": 0.25,
        "channel": 9
      },
      {
        "note": 42,
        "velocity": 80,
        "startTime": 40,
        "duration": 0.25,
        "channel": 9
      },
      {
        "note": 42,
        "velocity": 60,
        "startTime": 40.5,
        "duration": 0.25,
        "channel": 9
      },
      {
        "note": 42,
        "velocity": 80,
        "startTime": 41,
        "duration": 0.25,
        "channel": 9
      },
      {
        "note": 42,
        "velocity": 60,
        "startTime": 41.5,
        "duration": 0.25,
        "channel": 9
      },
      {
        "note": 42,
        "velocity": 80,
        "startTime": 42,
        "duration": 0.25,
        "channel": 9
      },
      {
        "note": 42,
        "velocity": 60,
        "startTime": 42.5,
        "duration": 0.25,
        "channel": 9
      },
      {
        "note": 42,
        "velocity": 80,
        "startTime": 43,
        "duration": 0.25,
        "channel": 9
      },
      {
        "note": 42,
        "velocity": 60,
        "startTime": 43.5,
        "duration": 0.25,
        "channel": 9
      },
      {
        "note": 42,
        "velocity": 80,
        "startTime": 44,
        "duration": 0.25,
        "channel": 9
      },
      {
        "note": 42,
        "velocity": 60,
        "startTime": 44.5,
        "duration": 0.25,
        "channel": 9
      },
      {
        "note": 42,
        "velocity": 80,
        "startTime": 45,
        "duration": 0.25,
        "channel": 9
      },
      {
        "note": 42,
        "velocity": 60,
        "startTime": 45.5,
        "duration": 0.25,
        "channel": 9
      },
      {
        "note": 42,
        "velocity": 80,
        "startTime": 46,
        "duration": 0.25,
        "channel": 9
      },
      {
        "note": 42,
        "velocity": 60,
        "startTime": 46.5,
        "duration": 0.25,
        "channel": 9
      },
      {
        "note": 42,
        "velocity": 80,
        "startTime": 47,
        "duration": 0.25,
        "channel": 9
      },
      {
        "note": 42,
        "velocity": 60,
        "startTime": 47.5,
        "duration": 0.25,
        "channel": 9
      },
      {
        "note": 42,
        "velocity": 80,
        "startTime": 48,
        "duration": 0.25,
        "channel": 9
      },
      {
        "note": 42,
        "velocity": 60,
        "startTime": 48.5,
        "duration": 0.25,
        "channel": 9
      },
      {
        "note": 42,
        "velocity": 80,
        "startTime": 49,
        "duration": 0.25,
        "channel": 9
      },
      {
        "note": 42,
        "velocity": 60,
        "startTime": 49.5,
        "duration": 0.25,
        "channel": 9
      },
      {
        "note": 42,
        "velocity": 80,
        "startTime": 50,
        "duration": 0.25,
        "channel": 9
      },
      {
        "note": 42,
        "velocity": 60,
        "startTime": 50.5,
        "duration": 0.25,
        "channel": 9
      },
      {
        "note": 42,
        "velocity": 80,
        "startTime": 51,
        "duration": 0.25,
        "channel": 9
      },
      {
        "note": 42,
        "velocity": 60,
        "startTime": 51.5,
        "duration": 0.25,
        "channel": 9
      },
      {
        "note": 42,
        "velocity": 80,
        "startTime": 52,
        "duration": 0.25,
        "channel": 9
      },
      {
        "note": 42,
        "velocity": 60,
        "startTime": 52.5,
        "duration": 0.25,
        "channel": 9
      },
      {
        "note": 42,
        "velocity": 80,
        "startTime": 53,
        "duration": 0.25,
        "channel": 9
      },
      {
        "note": 42,
        "velocity": 60,
        "startTime": 53.5,
        "duration": 0.25,
        "channel": 9
      },
      {
        "note": 42,
        "velocity": 80,
        "startTime": 54,
        "duration": 0.25,
        "channel": 9
      },
      {
        "note": 42,
        "velocity": 60,
        "startTime": 54.5,
        "duration": 0.25,
        "channel": 9
      },
      {
        "note": 42,
        "velocity": 80,
        "startTime": 55,
        "duration": 0.25,
        "channel": 9
      },
      {
        "note": 42,
        "velocity": 60,
        "startTime": 55.5,
        "duration": 0.25,
        "channel": 9
      },
      {
        "note": 42,
        "velocity": 80,
        "startTime": 56,
        "duration": 0.25,
        "channel": 9
      },
      {
        "note": 42,
        "velocity": 60,
        "startTime": 56.5,
        "duration": 0.25,
        "channel": 9
      },
      {
        "note": 42,
        "velocity": 80,
        "startTime": 57,
        "duration": 0.25,
        "channel": 9
      },
      {
        "note": 42,
        "velocity": 60,
        "startTime": 57.5,
        "duration": 0.25,
        "channel": 9
      },
      {
        "note": 42,
        "velocity": 80,
        "startTime": 58,
        "duration": 0.25,
        "channel": 9
      },
      {
        "note": 42,
        "velocity": 60,
        "startTime": 58.5,
        "duration": 0.25,
        "channel": 9
      },
      {
        "note": 42,
        "velocity": 80,
        "startTime": 59,
        "duration": 0.25,
        "channel": 9
      },
      {
        "note": 42,
        "velocity": 60,
        "startTime": 59.5,
        "duration": 0.25,
        "channel": 9
      },
      {
        "note": 42,
        "velocity": 80,
        "startTime": 60,
        "duration": 0.25,
        "channel": 9
      },
      {
        "note": 42,
        "velocity": 60,
        "startTime": 60.5,
        "duration": 0.25,
        "channel": 9
      },
      {
        "note": 42,
        "velocity": 80,
        "startTime": 61,
        "duration": 0.25,
        "channel": 9
      },
      {
        "note": 42,
        "velocity": 60,
        "startTime": 61.5,
        "duration": 0.25,
        "channel": 9
      },
      {
        "note": 42,
        "velocity": 80,
        "startTime": 62,
        "duration": 0.25,
        "channel": 9
      },
      {
        "note": 42,
        "velocity": 60,
        "startTime": 62.5,
        "duration": 0.25,
        "channel": 9
      },
      {
        "note": 42,
        "velocity": 80,
        "startTime": 63,
        "duration": 0.25,
        "channel": 9
      },
      {
        "note": 42,
        "velocity": 60,
        "startTime": 63.5,
        "duration": 0.25,
        "channel": 9
      },
      {
        "note": 36,
        "velocity": 100,
        "startTime": 0,
        "duration": 1,
        "channel": 0
      },
      {
        "note": 36,
        "velocity": 100,
        "startTime": 2,
        "duration": 1,
        "channel": 0
      },
      {
        "note": 36,
        "velocity": 100,
        "startTime": 4,
        "duration": 1,
        "channel": 0
      },
      {
        "note": 36,
        "velocity": 100,
        "startTime": 6,
        "duration": 1,
        "channel": 0
      },
      {
        "note": 36,
        "velocity": 100,
        "startTime": 8,
        "duration": 1,
        "channel": 0
      },
      {
        "note": 36,
        "velocity": 100,
        "startTime": 10,
        "duration": 1,
        "channel": 0
      },
      {
        "note": 36,
        "velocity": 100,
        "startTime": 12,
        "duration": 1,
        "channel": 0
      },
      {
        "note": 36,
        "velocity": 100,
        "startTime": 14,
        "duration": 1,
        "channel": 0
      },
      {
        "note": 36,
        "velocity": 100,
        "startTime": 16,
        "duration": 1,
        "channel": 0
      },
      {
        "note": 36,
        "velocity": 100,
        "startTime": 18,
        "duration": 1,
        "channel": 0
      },
      {
        "note": 36,
        "velocity": 100,
        "startTime": 20,
        "duration": 1,
        "channel": 0
      },
      {
        "note": 36,
        "velocity": 100,
        "startTime": 22,
        "duration": 1,
        "channel": 0
      },
      {
        "note": 36,
        "velocity": 100,
        "startTime": 24,
        "duration": 1,
        "channel": 0
      },
      {
        "note": 36,
        "velocity": 100,
        "startTime": 26,
        "duration": 1,
        "channel": 0
      },
      {
        "note": 36,
        "velocity": 100,
        "startTime": 28,
        "duration": 1,
        "channel": 0
      },
      {
        "note": 36,
        "velocity": 100,
        "startTime": 30,
        "duration": 1,
        "channel": 0
      },
      {
        "note": 36,
        "velocity": 100,
        "startTime": 32,
        "duration": 1,
        "channel": 0
      },
      {
        "note": 36,
        "velocity": 100,
        "startTime": 34,
        "duration": 1,
        "channel": 0
      },
      {
        "note": 36,
        "velocity": 100,
        "startTime": 36,
        "duration": 1,
        "channel": 0
      },
      {
        "note": 36,
        "velocity": 100,
        "startTime": 38,
        "duration": 1,
        "channel": 0
      },
      {
        "note": 36,
        "velocity": 100,
        "startTime": 40,
        "duration": 1,
        "channel": 0
      },
      {
        "note": 36,
        "velocity": 100,
        "startTime": 42,
        "duration": 1,
        "channel": 0
      },
      {
        "note": 36,
        "velocity": 100,
        "startTime": 44,
        "duration": 1,
        "channel": 0
      },
      {
        "note": 36,
        "velocity": 100,
        "startTime": 46,
        "duration": 1,
        "channel": 0
      },
      {
        "note": 36,
        "velocity": 100,
        "startTime": 48,
        "duration": 1,
        "channel": 0
      },
      {
        "note": 36,
        "velocity": 100,
        "startTime": 50,
        "duration": 1,
        "channel": 0
      },
      {
        "note": 36,
        "velocity": 100,
        "startTime": 52,
        "duration": 1,
        "channel": 0
      },
      {
        "note": 36,
        "velocity": 100,
        "startTime": 54,
        "duration": 1,
        "channel": 0
      },
      {
        "note": 36,
        "velocity": 100,
        "startTime": 56,
        "duration": 1,
        "channel": 0
      },
      {
        "note": 36,
        "velocity": 100,
        "startTime": 58,
        "duration": 1,
        "channel": 0
      },
      {
        "note": 36,
        "velocity": 100,
        "startTime": 60,
        "duration": 1,
        "channel": 0
      },
      {
        "note": 36,
        "velocity": 100,
        "startTime": 62,
        "duration": 1,
        "channel": 0
      }
    ],
    "project_name": "x test comercial costa",
    "project_path": "/Users/camilopineda/Desktop/SHINE DARK MIDI PARTY/Logic copy sep 2025/x test comercial costa/x test comercial costa.logicx",
    "extraction_date": "2025-09-05T23:38:35.389Z",
    "extraction_status": "generated_from_project_name"
  }
]